<svg width="32" height="32" viewBox="0 0 32 32" fill="none" xmlns="https://www.w3.org/2000/svg">
<path d="M26.5938 4H5.40625C4.54844 4.06 4.06 4.54844 4 5.40625V26.5938C4.06 27.4516 4.54844 27.94 5.40625 28H26.5938C27.4516 27.94 27.94 27.4516 28 26.5938V5.40625C27.94 4.54844 27.4516 4.06 26.5938 4ZM11.125 24.4375H7.5625V13H11.125V24.4375ZM9.48062 11.4081C6.81531 11.5591 6.50125 7.63 9.04 7.30562C11.9341 6.93625 12.2247 11.2516 9.48062 11.4081ZM24.4375 24.4375H20.875V17.6406C20.875 17.5356 20.5984 16.8194 20.5197 16.6834C19.8597 15.5537 18.1938 15.5613 17.3097 16.4191C17.0875 16.6328 16.5625 17.5506 16.5625 17.8281V24.4375H13V13H16.375V14.5C18.5734 11.6847 23.1738 12.0287 24.2228 15.6991C24.2678 15.8575 24.4375 16.5981 24.4375 16.7031V24.4375Z" fill="#3D405B"/>
</svg>
