<svg width="32" height="32" viewBox="0 0 32 32" fill="none" xmlns="http://www.w3.org/2000/svg">
<path d="M26.392 9.976C25.3449 8.16127 23.8378 6.65465 22.0228 5.608C20.1832 4.5364 18.1756 4 16 4C13.8244 4 11.8168 4.5364 9.976 5.608C8.1364 6.6796 6.6796 8.1364 5.608 9.976C4.5364 11.8156 4 13.8244 4 16C4 18.1756 4.5352 20.1844 5.608 22.024C6.65479 23.839 8.16191 25.3457 9.9772 26.392C11.8168 27.4636 13.8244 28 16 28C18.1756 28 20.1832 27.4636 22.024 26.392C23.839 25.3453 25.346 23.8387 26.3932 22.024C27.4648 20.1844 28 18.1756 28 16C28 13.8244 27.4648 11.8156 26.392 9.976ZM16 5.992C18.4 5.992 20.5264 6.76 22.384 8.2948C21.28 9.7036 19.6408 10.8628 17.464 11.7748C16.2616 9.5992 14.9584 7.7824 13.5508 6.3268C14.3486 6.10622 15.1723 5.99361 16 5.992V5.992ZM8.212 9.76C9.08949 8.64571 10.1998 7.73653 11.4652 7.096C12.9196 8.5372 14.2552 10.336 15.4732 12.496C13.0732 13.216 10.5364 13.576 7.864 13.576C7.1764 13.576 6.6568 13.5604 6.304 13.528C6.67177 12.1533 7.32154 10.8701 8.212 9.76V9.76ZM5.992 16C5.992 15.9352 5.9956 15.856 6.004 15.76C6.0124 15.664 6.016 15.5848 6.016 15.52C6.3208 15.5368 6.7852 15.544 7.4092 15.544C10.6084 15.544 13.5844 15.1036 16.336 14.224C16.5604 14.6716 16.7932 15.1756 17.032 15.736C15.448 16.0876 13.8232 16.9432 12.1588 18.304C10.4944 19.6648 9.28 21.0964 8.512 22.6C6.832 20.6956 5.992 18.496 5.992 16V16ZM16 26.008C13.7272 26.008 11.6872 25.3036 9.8788 23.8972C10.6 22.4728 11.7076 21.1108 13.204 19.816C14.6992 18.52 16.1836 17.7124 17.656 17.392C18.5848 19.9588 19.213 22.6246 19.528 25.336C18.4034 25.7754 17.2074 26.0033 16 26.008V26.008ZM24.496 21.256C23.7105 22.5214 22.6529 23.5959 21.4 24.4012C21.112 21.9052 20.56 19.4728 19.7452 17.104C20.8636 17.0248 21.8632 16.984 22.7452 16.984C23.704 16.984 24.7684 17.0248 25.936 17.104C25.7794 18.5798 25.2868 20.0001 24.496 21.256ZM23.008 15.256C21.616 15.256 20.3284 15.3124 19.144 15.424C18.8931 14.7673 18.621 14.119 18.328 13.48C20.8072 12.3928 22.5664 11.0728 23.6068 9.52C25.0468 11.2168 25.8316 13.1524 25.9588 15.328C24.9844 15.28 24.0004 15.256 23.008 15.256V15.256Z" fill="black"/>
</svg>
