<svg width="108" height="137" viewBox="0 0 108 137" fill="none" xmlns="http://www.w3.org/2000/svg">
<path d="M0 82.7969C0 52.9735 24.1766 28.7969 54 28.7969C83.8234 28.7969 108 52.9735 108 82.7969V136.797H0V82.7969Z" fill="#F5DE98" fill-opacity="0.7"/>
<path d="M9.03679 36.6802C9.04902 36.6253 9.06134 36.5703 9.07377 36.5154C9.06604 36.572 9.05357 36.6271 9.03679 36.6802Z" fill="#6A6A6A"/>
<path d="M8.12976 42.4178C8.19544 41.7281 8.27603 41.0428 8.37119 40.3622C8.78299 40.4859 9.08301 40.8679 9.08301 41.32V41.4188C9.08301 41.9554 8.66034 42.3933 8.12976 42.4178Z" fill="#6A6A6A"/>
<path d="M7.91879 47.4454C7.91694 47.2736 7.91602 47.1016 7.91602 46.9294C7.91602 46.4076 7.92452 45.8877 7.9414 45.37C7.98766 45.3634 8.03494 45.36 8.08301 45.36C8.6353 45.36 9.08301 45.8077 9.08301 46.36V46.4588C9.08301 47.0111 8.6353 47.4588 8.08301 47.4588C8.02708 47.4588 7.97222 47.4542 7.91879 47.4454Z" fill="#6A6A6A"/>
<path d="M8.24109 52.4864C8.15973 51.7957 8.09334 51.1004 8.04227 50.4008C8.05578 50.4003 8.06936 50.4 8.08301 50.4C8.6353 50.4 9.08301 50.8477 9.08301 51.4V51.4988C9.08301 51.9973 8.71826 52.4106 8.24109 52.4864Z" fill="#6A6A6A"/>
<path d="M8.98921 56.9622C8.89646 56.5357 8.8095 56.1069 8.72841 55.6761C8.9453 55.8596 9.08301 56.1337 9.08301 56.44V56.5388C9.08301 56.6902 9.04939 56.8337 8.98921 56.9622Z" fill="#6A6A6A"/>
<path d="M15.5141 72.5614C15.1385 71.9853 14.7753 71.4005 14.4247 70.8072C14.6006 70.6533 14.8309 70.56 15.083 70.56C15.6353 70.56 16.083 71.0077 16.083 71.56V71.6588C16.083 72.0568 15.8506 72.4004 15.5141 72.5614Z" fill="#6A6A6A"/>
<path d="M23.0731 81.499C22.7681 81.2178 22.4668 80.9327 22.1692 80.6437C22.6343 80.6834 23.0085 81.0414 23.0731 81.499Z" fill="#6A6A6A"/>
<path d="M30.0812 86.8397C29.5616 86.5156 29.0487 86.1817 28.5429 85.8382C28.6987 85.7381 28.8841 85.68 29.083 85.68C29.6353 85.68 30.083 86.1277 30.083 86.68V86.7788C30.083 86.7993 30.0824 86.8195 30.0812 86.8397Z" fill="#6A6A6A"/>
<path d="M43.7219 92.5882C43.1937 92.4591 42.6691 92.3211 42.1481 92.1744C42.106 92.0639 42.083 91.9441 42.083 91.8188V91.72C42.083 91.1677 42.5307 90.72 43.083 90.72C43.6353 90.72 44.083 91.1677 44.083 91.72V91.8188C44.083 92.1282 43.9425 92.4047 43.7219 92.5882Z" fill="#6A6A6A"/>
<path d="M71.6183 90.8752C71.1265 91.0622 70.6308 91.2411 70.1314 91.4119C70.2613 91.0104 70.6382 90.72 71.083 90.72C71.2799 90.72 71.4635 90.7769 71.6183 90.8752Z" fill="#6A6A6A"/>
<path d="M78.8973 87.3594C78.6617 87.4995 78.4248 87.6375 78.1865 87.7735C78.1525 87.777 78.118 87.7788 78.083 87.7788C77.5307 87.7788 77.083 87.3311 77.083 86.7788V86.68C77.083 86.1277 77.5307 85.68 78.083 85.68C78.6353 85.68 79.083 86.1277 79.083 86.68V86.7788C79.083 86.9953 79.0142 87.1957 78.8973 87.3594Z" fill="#6A6A6A"/>
<path d="M85.9612 82.2175C85.7862 82.3716 85.61 82.5245 85.4326 82.676C85.3238 82.7166 85.206 82.7388 85.083 82.7388C84.5307 82.7388 84.083 82.2911 84.083 81.7388V81.64C84.083 81.0877 84.5307 80.64 85.083 80.64C85.6353 80.64 86.083 81.0877 86.083 81.64V81.7388C86.083 81.9123 86.0389 82.0754 85.9612 82.2175Z" fill="#6A6A6A"/>
<path d="M92.1591 75.6029C91.8162 76.0477 91.4654 76.4861 91.1071 76.9181C91.0913 76.8475 91.083 76.7742 91.083 76.6988V76.6C91.083 76.0477 91.5307 75.6 92.083 75.6C92.1086 75.6 92.134 75.601 92.1591 75.6029Z" fill="#6A6A6A"/>
<path d="M99.8308 60.8161C99.6493 61.4039 99.4565 61.9868 99.2528 62.5645C99.1976 62.5739 99.1409 62.5788 99.083 62.5788C98.5307 62.5788 98.083 62.1311 98.083 61.5788V61.48C98.083 60.9277 98.5307 60.48 99.083 60.48C99.3805 60.48 99.6476 60.6099 99.8308 60.8161Z" fill="#6A6A6A"/>
<path d="M98.8749 30.2617C99.1193 30.9059 99.35 31.557 99.5665 32.2144C99.4232 32.2937 99.2584 32.3388 99.083 32.3388C98.5307 32.3388 98.083 31.8911 98.083 31.3388V31.24C98.083 30.7591 98.4225 30.3575 98.8749 30.2617Z" fill="#6A6A6A"/>
<path d="M84.414 10.3368C84.9412 10.7623 85.459 11.199 85.9671 11.6465C85.7993 11.9631 85.4663 12.1788 85.083 12.1788C84.5307 12.1788 84.083 11.7311 84.083 11.1788V11.08C84.083 10.785 84.2108 10.5198 84.414 10.3368Z" fill="#6A6A6A"/>
<path d="M77.2139 5.54511C77.8146 5.86947 78.4075 6.20654 78.9921 6.55594C78.834 6.89995 78.4864 7.13882 78.083 7.13882C77.5307 7.13882 77.083 6.69111 77.083 6.13882V6.04C77.083 5.85996 77.1306 5.69104 77.2139 5.54511Z" fill="#6A6A6A"/>
<path d="M63.1468 0.647699C63.7969 0.762529 64.4424 0.890722 65.083 1.03198V1.09882C65.083 1.65111 64.6353 2.09882 64.083 2.09882C63.5307 2.09882 63.083 1.65111 63.083 1.09882V1C63.083 0.876001 63.1056 0.757272 63.1468 0.647699Z" fill="#6A6A6A"/>
<path d="M49.4253 0.246724C49.8061 0.202409 50.1884 0.162647 50.572 0.127494C50.877 0.298775 51.083 0.625324 51.083 1V1.09882C51.083 1.65111 50.6353 2.09882 50.083 2.09882C49.5307 2.09882 49.083 1.65111 49.083 1.09882V1C49.083 0.699543 49.2155 0.430033 49.4253 0.246724Z" fill="#6A6A6A"/>
<path d="M42.252 1.65528C42.8563 1.4866 43.4655 1.3297 44.0794 1.18483C44.0358 1.69685 43.6063 2.09882 43.083 2.09882C42.7367 2.09882 42.4315 1.92277 42.252 1.65528Z" fill="#6A6A6A"/>
<path d="M14.9127 22.2444C15.2459 21.7057 15.5896 21.1742 15.9435 20.6503C16.0321 20.7995 16.083 20.9738 16.083 21.16V21.2588C16.083 21.8111 15.6353 22.2588 15.083 22.2588C15.025 22.2588 14.9681 22.2539 14.9127 22.2444Z" fill="#6A6A6A"/>
<path d="M16.083 26.2C16.083 25.6477 15.6353 25.2 15.083 25.2C14.5307 25.2 14.083 25.6477 14.083 26.2V26.2988C14.083 26.8511 14.5307 27.2988 15.083 27.2988C15.6353 27.2988 16.083 26.8511 16.083 26.2988V26.2Z" fill="#6A6A6A"/>
<path d="M16.083 31.24C16.083 30.6877 15.6353 30.24 15.083 30.24C14.5307 30.24 14.083 30.6877 14.083 31.24V31.3388C14.083 31.8911 14.5307 32.3388 15.083 32.3388C15.6353 32.3388 16.083 31.8911 16.083 31.3388V31.24Z" fill="#6A6A6A"/>
<path d="M16.083 36.28C16.083 35.7277 15.6353 35.28 15.083 35.28C14.5307 35.28 14.083 35.7277 14.083 36.28V36.3788C14.083 36.9311 14.5307 37.3788 15.083 37.3788C15.6353 37.3788 16.083 36.9311 16.083 36.3788V36.28Z" fill="#6A6A6A"/>
<path d="M16.083 41.32C16.083 40.7677 15.6353 40.32 15.083 40.32C14.5307 40.32 14.083 40.7677 14.083 41.32V41.4188C14.083 41.9711 14.5307 42.4188 15.083 42.4188C15.6353 42.4188 16.083 41.9711 16.083 41.4188V41.32Z" fill="#6A6A6A"/>
<path d="M16.083 46.36C16.083 45.8077 15.6353 45.36 15.083 45.36C14.5307 45.36 14.083 45.8077 14.083 46.36V46.4588C14.083 47.0111 14.5307 47.4588 15.083 47.4588C15.6353 47.4588 16.083 47.0111 16.083 46.4588V46.36Z" fill="#6A6A6A"/>
<path d="M16.083 51.4C16.083 50.8477 15.6353 50.4 15.083 50.4C14.5307 50.4 14.083 50.8477 14.083 51.4V51.4988C14.083 52.0511 14.5307 52.4988 15.083 52.4988C15.6353 52.4988 16.083 52.0511 16.083 51.4988V51.4Z" fill="#6A6A6A"/>
<path d="M16.083 56.44C16.083 55.8877 15.6353 55.44 15.083 55.44C14.5307 55.44 14.083 55.8877 14.083 56.44V56.5388C14.083 57.0911 14.5307 57.5388 15.083 57.5388C15.6353 57.5388 16.083 57.0911 16.083 56.5388V56.44Z" fill="#6A6A6A"/>
<path d="M16.083 61.48C16.083 60.9277 15.6353 60.48 15.083 60.48C14.5307 60.48 14.083 60.9277 14.083 61.48V61.5788C14.083 62.1311 14.5307 62.5788 15.083 62.5788C15.6353 62.5788 16.083 62.1311 16.083 61.5788V61.48Z" fill="#6A6A6A"/>
<path d="M16.083 66.52C16.083 65.9677 15.6353 65.52 15.083 65.52C14.5307 65.52 14.083 65.9677 14.083 66.52V66.6188C14.083 67.1711 14.5307 67.6188 15.083 67.6188C15.6353 67.6188 16.083 67.1711 16.083 66.6188V66.52Z" fill="#6A6A6A"/>
<path d="M22.083 15.12C22.6353 15.12 23.083 15.5677 23.083 16.12V16.2188C23.083 16.7711 22.6353 17.2188 22.083 17.2188C21.5307 17.2188 21.083 16.7711 21.083 16.2188V16.12C21.083 15.5677 21.5307 15.12 22.083 15.12Z" fill="#6A6A6A"/>
<path d="M22.083 20.16C22.6353 20.16 23.083 20.6077 23.083 21.16V21.2588C23.083 21.8111 22.6353 22.2588 22.083 22.2588C21.5307 22.2588 21.083 21.8111 21.083 21.2588V21.16C21.083 20.6077 21.5307 20.16 22.083 20.16Z" fill="#6A6A6A"/>
<path d="M22.083 25.2C22.6353 25.2 23.083 25.6477 23.083 26.2V26.2988C23.083 26.8511 22.6353 27.2988 22.083 27.2988C21.5307 27.2988 21.083 26.8511 21.083 26.2988V26.2C21.083 25.6477 21.5307 25.2 22.083 25.2Z" fill="#6A6A6A"/>
<path d="M22.083 30.24C22.6353 30.24 23.083 30.6877 23.083 31.24V31.3388C23.083 31.8911 22.6353 32.3388 22.083 32.3388C21.5307 32.3388 21.083 31.8911 21.083 31.3388V31.24C21.083 30.6877 21.5307 30.24 22.083 30.24Z" fill="#6A6A6A"/>
<path d="M22.083 35.28C22.6353 35.28 23.083 35.7277 23.083 36.28V36.3788C23.083 36.9311 22.6353 37.3788 22.083 37.3788C21.5307 37.3788 21.083 36.9311 21.083 36.3788V36.28C21.083 35.7277 21.5307 35.28 22.083 35.28Z" fill="#6A6A6A"/>
<path d="M22.083 40.32C22.6353 40.32 23.083 40.7677 23.083 41.32V41.4188C23.083 41.9711 22.6353 42.4188 22.083 42.4188C21.5307 42.4188 21.083 41.9711 21.083 41.4188V41.32C21.083 40.7677 21.5307 40.32 22.083 40.32Z" fill="#6A6A6A"/>
<path d="M22.083 45.36C22.6353 45.36 23.083 45.8077 23.083 46.36V46.4588C23.083 47.0111 22.6353 47.4588 22.083 47.4588C21.5307 47.4588 21.083 47.0111 21.083 46.4588V46.36C21.083 45.8077 21.5307 45.36 22.083 45.36Z" fill="#6A6A6A"/>
<path d="M22.083 50.4C22.6353 50.4 23.083 50.8477 23.083 51.4V51.4988C23.083 52.0511 22.6353 52.4988 22.083 52.4988C21.5307 52.4988 21.083 52.0511 21.083 51.4988V51.4C21.083 50.8477 21.5307 50.4 22.083 50.4Z" fill="#6A6A6A"/>
<path d="M22.083 55.44C22.6353 55.44 23.083 55.8877 23.083 56.44V56.5388C23.083 57.0911 22.6353 57.5388 22.083 57.5388C21.5307 57.5388 21.083 57.0911 21.083 56.5388V56.44C21.083 55.8877 21.5307 55.44 22.083 55.44Z" fill="#6A6A6A"/>
<path d="M22.083 60.48C22.6353 60.48 23.083 60.9277 23.083 61.48V61.5788C23.083 62.1311 22.6353 62.5788 22.083 62.5788C21.5307 62.5788 21.083 62.1311 21.083 61.5788V61.48C21.083 60.9277 21.5307 60.48 22.083 60.48Z" fill="#6A6A6A"/>
<path d="M22.083 65.52C22.6353 65.52 23.083 65.9677 23.083 66.52V66.6188C23.083 67.1711 22.6353 67.6188 22.083 67.6188C21.5307 67.6188 21.083 67.1711 21.083 66.6188V66.52C21.083 65.9677 21.5307 65.52 22.083 65.52Z" fill="#6A6A6A"/>
<path d="M22.083 70.56C22.6353 70.56 23.083 71.0077 23.083 71.56V71.6588C23.083 72.2111 22.6353 72.6588 22.083 72.6588C21.5307 72.6588 21.083 72.2111 21.083 71.6588V71.56C21.083 71.0077 21.5307 70.56 22.083 70.56Z" fill="#6A6A6A"/>
<path d="M22.083 75.6C22.6353 75.6 23.083 76.0477 23.083 76.6V76.6988C23.083 77.2511 22.6353 77.6988 22.083 77.6988C21.5307 77.6988 21.083 77.2511 21.083 76.6988V76.6C21.083 76.0477 21.5307 75.6 22.083 75.6Z" fill="#6A6A6A"/>
<path d="M30.083 11.08C30.083 10.5277 29.6353 10.08 29.083 10.08C28.5307 10.08 28.083 10.5277 28.083 11.08V11.1788C28.083 11.7311 28.5307 12.1788 29.083 12.1788C29.6353 12.1788 30.083 11.7311 30.083 11.1788V11.08Z" fill="#6A6A6A"/>
<path d="M30.083 16.12C30.083 15.5677 29.6353 15.12 29.083 15.12C28.5307 15.12 28.083 15.5677 28.083 16.12V16.2188C28.083 16.7711 28.5307 17.2188 29.083 17.2188C29.6353 17.2188 30.083 16.7711 30.083 16.2188V16.12Z" fill="#6A6A6A"/>
<path d="M30.083 21.16C30.083 20.6077 29.6353 20.16 29.083 20.16C28.5307 20.16 28.083 20.6077 28.083 21.16V21.2588C28.083 21.8111 28.5307 22.2588 29.083 22.2588C29.6353 22.2588 30.083 21.8111 30.083 21.2588V21.16Z" fill="#6A6A6A"/>
<path d="M30.083 26.2C30.083 25.6477 29.6353 25.2 29.083 25.2C28.5307 25.2 28.083 25.6477 28.083 26.2V26.2988C28.083 26.8511 28.5307 27.2988 29.083 27.2988C29.6353 27.2988 30.083 26.8511 30.083 26.2988V26.2Z" fill="#6A6A6A"/>
<path d="M30.083 31.24C30.083 30.6877 29.6353 30.24 29.083 30.24C28.5307 30.24 28.083 30.6877 28.083 31.24V31.3388C28.083 31.8911 28.5307 32.3388 29.083 32.3388C29.6353 32.3388 30.083 31.8911 30.083 31.3388V31.24Z" fill="#6A6A6A"/>
<path d="M30.083 36.28C30.083 35.7277 29.6353 35.28 29.083 35.28C28.5307 35.28 28.083 35.7277 28.083 36.28V36.3788C28.083 36.9311 28.5307 37.3788 29.083 37.3788C29.6353 37.3788 30.083 36.9311 30.083 36.3788V36.28Z" fill="#6A6A6A"/>
<path d="M30.083 41.32C30.083 40.7677 29.6353 40.32 29.083 40.32C28.5307 40.32 28.083 40.7677 28.083 41.32V41.4188C28.083 41.9711 28.5307 42.4188 29.083 42.4188C29.6353 42.4188 30.083 41.9711 30.083 41.4188V41.32Z" fill="#6A6A6A"/>
<path d="M30.083 46.36C30.083 45.8077 29.6353 45.36 29.083 45.36C28.5307 45.36 28.083 45.8077 28.083 46.36V46.4588C28.083 47.0111 28.5307 47.4588 29.083 47.4588C29.6353 47.4588 30.083 47.0111 30.083 46.4588V46.36Z" fill="#6A6A6A"/>
<path d="M30.083 51.4C30.083 50.8477 29.6353 50.4 29.083 50.4C28.5307 50.4 28.083 50.8477 28.083 51.4V51.4988C28.083 52.0511 28.5307 52.4988 29.083 52.4988C29.6353 52.4988 30.083 52.0511 30.083 51.4988V51.4Z" fill="#6A6A6A"/>
<path d="M30.083 56.44C30.083 55.8877 29.6353 55.44 29.083 55.44C28.5307 55.44 28.083 55.8877 28.083 56.44V56.5388C28.083 57.0911 28.5307 57.5388 29.083 57.5388C29.6353 57.5388 30.083 57.0911 30.083 56.5388V56.44Z" fill="#6A6A6A"/>
<path d="M30.083 61.48C30.083 60.9277 29.6353 60.48 29.083 60.48C28.5307 60.48 28.083 60.9277 28.083 61.48V61.5788C28.083 62.1311 28.5307 62.5788 29.083 62.5788C29.6353 62.5788 30.083 62.1311 30.083 61.5788V61.48Z" fill="#6A6A6A"/>
<path d="M30.083 66.52C30.083 65.9677 29.6353 65.52 29.083 65.52C28.5307 65.52 28.083 65.9677 28.083 66.52V66.6188C28.083 67.1711 28.5307 67.6188 29.083 67.6188C29.6353 67.6188 30.083 67.1711 30.083 66.6188V66.52Z" fill="#6A6A6A"/>
<path d="M30.083 71.56C30.083 71.0077 29.6353 70.56 29.083 70.56C28.5307 70.56 28.083 71.0077 28.083 71.56V71.6588C28.083 72.2111 28.5307 72.6588 29.083 72.6588C29.6353 72.6588 30.083 72.2111 30.083 71.6588V71.56Z" fill="#6A6A6A"/>
<path d="M30.083 76.6C30.083 76.0477 29.6353 75.6 29.083 75.6C28.5307 75.6 28.083 76.0477 28.083 76.6V76.6988C28.083 77.2511 28.5307 77.6988 29.083 77.6988C29.6353 77.6988 30.083 77.2511 30.083 76.6988V76.6Z" fill="#6A6A6A"/>
<path d="M30.083 81.64C30.083 81.0877 29.6353 80.64 29.083 80.64C28.5307 80.64 28.083 81.0877 28.083 81.64V81.7388C28.083 82.2911 28.5307 82.7388 29.083 82.7388C29.6353 82.7388 30.083 82.2911 30.083 81.7388V81.64Z" fill="#6A6A6A"/>
<path d="M36.083 5.04C36.6353 5.04 37.083 5.48772 37.083 6.04V6.13882C37.083 6.69111 36.6353 7.13882 36.083 7.13882C35.5307 7.13882 35.083 6.69111 35.083 6.13882V6.04C35.083 5.48772 35.5307 5.04 36.083 5.04Z" fill="#6A6A6A"/>
<path d="M36.083 10.08C36.6353 10.08 37.083 10.5277 37.083 11.08V11.1788C37.083 11.7311 36.6353 12.1788 36.083 12.1788C35.5307 12.1788 35.083 11.7311 35.083 11.1788V11.08C35.083 10.5277 35.5307 10.08 36.083 10.08Z" fill="#6A6A6A"/>
<path d="M36.083 15.12C36.6353 15.12 37.083 15.5677 37.083 16.12V16.2188C37.083 16.7711 36.6353 17.2188 36.083 17.2188C35.5307 17.2188 35.083 16.7711 35.083 16.2188V16.12C35.083 15.5677 35.5307 15.12 36.083 15.12Z" fill="#6A6A6A"/>
<path d="M36.083 20.16C36.6353 20.16 37.083 20.6077 37.083 21.16V21.2588C37.083 21.8111 36.6353 22.2588 36.083 22.2588C35.5307 22.2588 35.083 21.8111 35.083 21.2588V21.16C35.083 20.6077 35.5307 20.16 36.083 20.16Z" fill="#6A6A6A"/>
<path d="M36.083 25.2C36.6353 25.2 37.083 25.6477 37.083 26.2V26.2988C37.083 26.8511 36.6353 27.2988 36.083 27.2988C35.5307 27.2988 35.083 26.8511 35.083 26.2988V26.2C35.083 25.6477 35.5307 25.2 36.083 25.2Z" fill="#6A6A6A"/>
<path d="M36.083 30.24C36.6353 30.24 37.083 30.6877 37.083 31.24V31.3388C37.083 31.8911 36.6353 32.3388 36.083 32.3388C35.5307 32.3388 35.083 31.8911 35.083 31.3388V31.24C35.083 30.6877 35.5307 30.24 36.083 30.24Z" fill="#6A6A6A"/>
<path d="M36.083 35.28C36.6353 35.28 37.083 35.7277 37.083 36.28V36.3788C37.083 36.9311 36.6353 37.3788 36.083 37.3788C35.5307 37.3788 35.083 36.9311 35.083 36.3788V36.28C35.083 35.7277 35.5307 35.28 36.083 35.28Z" fill="#6A6A6A"/>
<path d="M36.083 40.32C36.6353 40.32 37.083 40.7677 37.083 41.32V41.4188C37.083 41.9711 36.6353 42.4188 36.083 42.4188C35.5307 42.4188 35.083 41.9711 35.083 41.4188V41.32C35.083 40.7677 35.5307 40.32 36.083 40.32Z" fill="#6A6A6A"/>
<path d="M36.083 45.36C36.6353 45.36 37.083 45.8077 37.083 46.36V46.4588C37.083 47.0111 36.6353 47.4588 36.083 47.4588C35.5307 47.4588 35.083 47.0111 35.083 46.4588V46.36C35.083 45.8077 35.5307 45.36 36.083 45.36Z" fill="#6A6A6A"/>
<path d="M36.083 50.4C36.6353 50.4 37.083 50.8477 37.083 51.4V51.4988C37.083 52.0511 36.6353 52.4988 36.083 52.4988C35.5307 52.4988 35.083 52.0511 35.083 51.4988V51.4C35.083 50.8477 35.5307 50.4 36.083 50.4Z" fill="#6A6A6A"/>
<path d="M36.083 55.44C36.6353 55.44 37.083 55.8877 37.083 56.44V56.5388C37.083 57.0911 36.6353 57.5388 36.083 57.5388C35.5307 57.5388 35.083 57.0911 35.083 56.5388V56.44C35.083 55.8877 35.5307 55.44 36.083 55.44Z" fill="#6A6A6A"/>
<path d="M36.083 60.48C36.6353 60.48 37.083 60.9277 37.083 61.48V61.5788C37.083 62.1311 36.6353 62.5788 36.083 62.5788C35.5307 62.5788 35.083 62.1311 35.083 61.5788V61.48C35.083 60.9277 35.5307 60.48 36.083 60.48Z" fill="#6A6A6A"/>
<path d="M36.083 65.52C36.6353 65.52 37.083 65.9677 37.083 66.52V66.6188C37.083 67.1711 36.6353 67.6188 36.083 67.6188C35.5307 67.6188 35.083 67.1711 35.083 66.6188V66.52C35.083 65.9677 35.5307 65.52 36.083 65.52Z" fill="#6A6A6A"/>
<path d="M36.083 70.56C36.6353 70.56 37.083 71.0077 37.083 71.56V71.6588C37.083 72.2111 36.6353 72.6588 36.083 72.6588C35.5307 72.6588 35.083 72.2111 35.083 71.6588V71.56C35.083 71.0077 35.5307 70.56 36.083 70.56Z" fill="#6A6A6A"/>
<path d="M36.083 75.6C36.6353 75.6 37.083 76.0477 37.083 76.6V76.6988C37.083 77.2511 36.6353 77.6988 36.083 77.6988C35.5307 77.6988 35.083 77.2511 35.083 76.6988V76.6C35.083 76.0477 35.5307 75.6 36.083 75.6Z" fill="#6A6A6A"/>
<path d="M36.083 80.64C36.6353 80.64 37.083 81.0877 37.083 81.64V81.7388C37.083 82.2911 36.6353 82.7388 36.083 82.7388C35.5307 82.7388 35.083 82.2911 35.083 81.7388V81.64C35.083 81.0877 35.5307 80.64 36.083 80.64Z" fill="#6A6A6A"/>
<path d="M36.083 85.68C36.6353 85.68 37.083 86.1277 37.083 86.68V86.7788C37.083 87.3311 36.6353 87.7788 36.083 87.7788C35.5307 87.7788 35.083 87.3311 35.083 86.7788V86.68C35.083 86.1277 35.5307 85.68 36.083 85.68Z" fill="#6A6A6A"/>
<path d="M44.083 6.04C44.083 5.48772 43.6353 5.04 43.083 5.04C42.5307 5.04 42.083 5.48772 42.083 6.04V6.13882C42.083 6.69111 42.5307 7.13882 43.083 7.13882C43.6353 7.13882 44.083 6.69111 44.083 6.13882V6.04Z" fill="#6A6A6A"/>
<path d="M44.083 11.08C44.083 10.5277 43.6353 10.08 43.083 10.08C42.5307 10.08 42.083 10.5277 42.083 11.08V11.1788C42.083 11.7311 42.5307 12.1788 43.083 12.1788C43.6353 12.1788 44.083 11.7311 44.083 11.1788V11.08Z" fill="#6A6A6A"/>
<path d="M44.083 16.12C44.083 15.5677 43.6353 15.12 43.083 15.12C42.5307 15.12 42.083 15.5677 42.083 16.12V16.2188C42.083 16.7711 42.5307 17.2188 43.083 17.2188C43.6353 17.2188 44.083 16.7711 44.083 16.2188V16.12Z" fill="#6A6A6A"/>
<path d="M44.083 21.16C44.083 20.6077 43.6353 20.16 43.083 20.16C42.5307 20.16 42.083 20.6077 42.083 21.16V21.2588C42.083 21.8111 42.5307 22.2588 43.083 22.2588C43.6353 22.2588 44.083 21.8111 44.083 21.2588V21.16Z" fill="#6A6A6A"/>
<path d="M44.083 26.2C44.083 25.6477 43.6353 25.2 43.083 25.2C42.5307 25.2 42.083 25.6477 42.083 26.2V26.2988C42.083 26.8511 42.5307 27.2988 43.083 27.2988C43.6353 27.2988 44.083 26.8511 44.083 26.2988V26.2Z" fill="#6A6A6A"/>
<path d="M44.083 31.24C44.083 30.6877 43.6353 30.24 43.083 30.24C42.5307 30.24 42.083 30.6877 42.083 31.24V31.3388C42.083 31.8911 42.5307 32.3388 43.083 32.3388C43.6353 32.3388 44.083 31.8911 44.083 31.3388V31.24Z" fill="#6A6A6A"/>
<path d="M44.083 36.28C44.083 35.7277 43.6353 35.28 43.083 35.28C42.5307 35.28 42.083 35.7277 42.083 36.28V36.3788C42.083 36.9311 42.5307 37.3788 43.083 37.3788C43.6353 37.3788 44.083 36.9311 44.083 36.3788V36.28Z" fill="#6A6A6A"/>
<path d="M44.083 41.32C44.083 40.7677 43.6353 40.32 43.083 40.32C42.5307 40.32 42.083 40.7677 42.083 41.32V41.4188C42.083 41.9711 42.5307 42.4188 43.083 42.4188C43.6353 42.4188 44.083 41.9711 44.083 41.4188V41.32Z" fill="#6A6A6A"/>
<path d="M44.083 46.36C44.083 45.8077 43.6353 45.36 43.083 45.36C42.5307 45.36 42.083 45.8077 42.083 46.36V46.4588C42.083 47.0111 42.5307 47.4588 43.083 47.4588C43.6353 47.4588 44.083 47.0111 44.083 46.4588V46.36Z" fill="#6A6A6A"/>
<path d="M44.083 51.4C44.083 50.8477 43.6353 50.4 43.083 50.4C42.5307 50.4 42.083 50.8477 42.083 51.4V51.4988C42.083 52.0511 42.5307 52.4988 43.083 52.4988C43.6353 52.4988 44.083 52.0511 44.083 51.4988V51.4Z" fill="#6A6A6A"/>
<path d="M44.083 56.44C44.083 55.8877 43.6353 55.44 43.083 55.44C42.5307 55.44 42.083 55.8877 42.083 56.44V56.5388C42.083 57.0911 42.5307 57.5388 43.083 57.5388C43.6353 57.5388 44.083 57.0911 44.083 56.5388V56.44Z" fill="#6A6A6A"/>
<path d="M44.083 61.48C44.083 60.9277 43.6353 60.48 43.083 60.48C42.5307 60.48 42.083 60.9277 42.083 61.48V61.5788C42.083 62.1311 42.5307 62.5788 43.083 62.5788C43.6353 62.5788 44.083 62.1311 44.083 61.5788V61.48Z" fill="#6A6A6A"/>
<path d="M44.083 66.52C44.083 65.9677 43.6353 65.52 43.083 65.52C42.5307 65.52 42.083 65.9677 42.083 66.52V66.6188C42.083 67.1711 42.5307 67.6188 43.083 67.6188C43.6353 67.6188 44.083 67.1711 44.083 66.6188V66.52Z" fill="#6A6A6A"/>
<path d="M44.083 71.56C44.083 71.0077 43.6353 70.56 43.083 70.56C42.5307 70.56 42.083 71.0077 42.083 71.56V71.6588C42.083 72.2111 42.5307 72.6588 43.083 72.6588C43.6353 72.6588 44.083 72.2111 44.083 71.6588V71.56Z" fill="#6A6A6A"/>
<path d="M44.083 76.6C44.083 76.0477 43.6353 75.6 43.083 75.6C42.5307 75.6 42.083 76.0477 42.083 76.6V76.6988C42.083 77.2511 42.5307 77.6988 43.083 77.6988C43.6353 77.6988 44.083 77.2511 44.083 76.6988V76.6Z" fill="#6A6A6A"/>
<path d="M44.083 81.64C44.083 81.0877 43.6353 80.64 43.083 80.64C42.5307 80.64 42.083 81.0877 42.083 81.64V81.7388C42.083 82.2911 42.5307 82.7388 43.083 82.7388C43.6353 82.7388 44.083 82.2911 44.083 81.7388V81.64Z" fill="#6A6A6A"/>
<path d="M44.083 86.68C44.083 86.1277 43.6353 85.68 43.083 85.68C42.5307 85.68 42.083 86.1277 42.083 86.68V86.7788C42.083 87.3311 42.5307 87.7788 43.083 87.7788C43.6353 87.7788 44.083 87.3311 44.083 86.7788V86.68Z" fill="#6A6A6A"/>
<path d="M50.083 5.04C50.6353 5.04 51.083 5.48772 51.083 6.04V6.13882C51.083 6.69111 50.6353 7.13882 50.083 7.13882C49.5307 7.13882 49.083 6.69111 49.083 6.13882V6.04C49.083 5.48772 49.5307 5.04 50.083 5.04Z" fill="#6A6A6A"/>
<path d="M50.083 10.08C50.6353 10.08 51.083 10.5277 51.083 11.08V11.1788C51.083 11.7311 50.6353 12.1788 50.083 12.1788C49.5307 12.1788 49.083 11.7311 49.083 11.1788V11.08C49.083 10.5277 49.5307 10.08 50.083 10.08Z" fill="#6A6A6A"/>
<path d="M50.083 15.12C50.6353 15.12 51.083 15.5677 51.083 16.12V16.2188C51.083 16.7711 50.6353 17.2188 50.083 17.2188C49.5307 17.2188 49.083 16.7711 49.083 16.2188V16.12C49.083 15.5677 49.5307 15.12 50.083 15.12Z" fill="#6A6A6A"/>
<path d="M50.083 20.16C50.6353 20.16 51.083 20.6077 51.083 21.16V21.2588C51.083 21.8111 50.6353 22.2588 50.083 22.2588C49.5307 22.2588 49.083 21.8111 49.083 21.2588V21.16C49.083 20.6077 49.5307 20.16 50.083 20.16Z" fill="#6A6A6A"/>
<path d="M50.083 25.2C50.6353 25.2 51.083 25.6477 51.083 26.2V26.2988C51.083 26.8511 50.6353 27.2988 50.083 27.2988C49.5307 27.2988 49.083 26.8511 49.083 26.2988V26.2C49.083 25.6477 49.5307 25.2 50.083 25.2Z" fill="#6A6A6A"/>
<path d="M50.083 30.24C50.6353 30.24 51.083 30.6877 51.083 31.24V31.3388C51.083 31.8911 50.6353 32.3388 50.083 32.3388C49.5307 32.3388 49.083 31.8911 49.083 31.3388V31.24C49.083 30.6877 49.5307 30.24 50.083 30.24Z" fill="#6A6A6A"/>
<path d="M50.083 35.28C50.6353 35.28 51.083 35.7277 51.083 36.28V36.3788C51.083 36.9311 50.6353 37.3788 50.083 37.3788C49.5307 37.3788 49.083 36.9311 49.083 36.3788V36.28C49.083 35.7277 49.5307 35.28 50.083 35.28Z" fill="#6A6A6A"/>
<path d="M50.083 40.32C50.6353 40.32 51.083 40.7677 51.083 41.32V41.4188C51.083 41.9711 50.6353 42.4188 50.083 42.4188C49.5307 42.4188 49.083 41.9711 49.083 41.4188V41.32C49.083 40.7677 49.5307 40.32 50.083 40.32Z" fill="#6A6A6A"/>
<path d="M50.083 45.36C50.6353 45.36 51.083 45.8077 51.083 46.36V46.4588C51.083 47.0111 50.6353 47.4588 50.083 47.4588C49.5307 47.4588 49.083 47.0111 49.083 46.4588V46.36C49.083 45.8077 49.5307 45.36 50.083 45.36Z" fill="#6A6A6A"/>
<path d="M50.083 50.4C50.6353 50.4 51.083 50.8477 51.083 51.4V51.4988C51.083 52.0511 50.6353 52.4988 50.083 52.4988C49.5307 52.4988 49.083 52.0511 49.083 51.4988V51.4C49.083 50.8477 49.5307 50.4 50.083 50.4Z" fill="#6A6A6A"/>
<path d="M50.083 55.44C50.6353 55.44 51.083 55.8877 51.083 56.44V56.5388C51.083 57.0911 50.6353 57.5388 50.083 57.5388C49.5307 57.5388 49.083 57.0911 49.083 56.5388V56.44C49.083 55.8877 49.5307 55.44 50.083 55.44Z" fill="#6A6A6A"/>
<path d="M50.083 60.48C50.6353 60.48 51.083 60.9277 51.083 61.48V61.5788C51.083 62.1311 50.6353 62.5788 50.083 62.5788C49.5307 62.5788 49.083 62.1311 49.083 61.5788V61.48C49.083 60.9277 49.5307 60.48 50.083 60.48Z" fill="#6A6A6A"/>
<path d="M50.083 65.52C50.6353 65.52 51.083 65.9677 51.083 66.52V66.6188C51.083 67.1711 50.6353 67.6188 50.083 67.6188C49.5307 67.6188 49.083 67.1711 49.083 66.6188V66.52C49.083 65.9677 49.5307 65.52 50.083 65.52Z" fill="#6A6A6A"/>
<path d="M50.083 70.56C50.6353 70.56 51.083 71.0077 51.083 71.56V71.6588C51.083 72.2111 50.6353 72.6588 50.083 72.6588C49.5307 72.6588 49.083 72.2111 49.083 71.6588V71.56C49.083 71.0077 49.5307 70.56 50.083 70.56Z" fill="#6A6A6A"/>
<path d="M50.083 75.6C50.6353 75.6 51.083 76.0477 51.083 76.6V76.6988C51.083 77.2511 50.6353 77.6988 50.083 77.6988C49.5307 77.6988 49.083 77.2511 49.083 76.6988V76.6C49.083 76.0477 49.5307 75.6 50.083 75.6Z" fill="#6A6A6A"/>
<path d="M50.083 80.64C50.6353 80.64 51.083 81.0877 51.083 81.64V81.7388C51.083 82.2911 50.6353 82.7388 50.083 82.7388C49.5307 82.7388 49.083 82.2911 49.083 81.7388V81.64C49.083 81.0877 49.5307 80.64 50.083 80.64Z" fill="#6A6A6A"/>
<path d="M50.083 85.68C50.6353 85.68 51.083 86.1277 51.083 86.68V86.7788C51.083 87.3311 50.6353 87.7788 50.083 87.7788C49.5307 87.7788 49.083 87.3311 49.083 86.7788V86.68C49.083 86.1277 49.5307 85.68 50.083 85.68Z" fill="#6A6A6A"/>
<path d="M50.083 90.72C50.6353 90.72 51.083 91.1677 51.083 91.72V91.8188C51.083 92.3711 50.6353 92.8188 50.083 92.8188C49.5307 92.8188 49.083 92.3711 49.083 91.8188V91.72C49.083 91.1677 49.5307 90.72 50.083 90.72Z" fill="#6A6A6A"/>
<path d="M58.083 1C58.083 0.447716 57.6353 2.23517e-08 57.083 0C56.5307 -2.23517e-08 56.083 0.447716 56.083 1V1.09882C56.083 1.65111 56.5307 2.09882 57.083 2.09882C57.6353 2.09882 58.083 1.65111 58.083 1.09882V1Z" fill="#6A6A6A"/>
<path d="M58.083 6.04C58.083 5.48772 57.6353 5.04 57.083 5.04C56.5307 5.04 56.083 5.48772 56.083 6.04V6.13882C56.083 6.69111 56.5307 7.13882 57.083 7.13882C57.6353 7.13882 58.083 6.69111 58.083 6.13882V6.04Z" fill="#6A6A6A"/>
<path d="M58.083 11.08C58.083 10.5277 57.6353 10.08 57.083 10.08C56.5307 10.08 56.083 10.5277 56.083 11.08V11.1788C56.083 11.7311 56.5307 12.1788 57.083 12.1788C57.6353 12.1788 58.083 11.7311 58.083 11.1788V11.08Z" fill="#6A6A6A"/>
<path d="M58.083 16.12C58.083 15.5677 57.6353 15.12 57.083 15.12C56.5307 15.12 56.083 15.5677 56.083 16.12V16.2188C56.083 16.7711 56.5307 17.2188 57.083 17.2188C57.6353 17.2188 58.083 16.7711 58.083 16.2188V16.12Z" fill="#6A6A6A"/>
<path d="M58.083 21.16C58.083 20.6077 57.6353 20.16 57.083 20.16C56.5307 20.16 56.083 20.6077 56.083 21.16V21.2588C56.083 21.8111 56.5307 22.2588 57.083 22.2588C57.6353 22.2588 58.083 21.8111 58.083 21.2588V21.16Z" fill="#6A6A6A"/>
<path d="M58.083 26.2C58.083 25.6477 57.6353 25.2 57.083 25.2C56.5307 25.2 56.083 25.6477 56.083 26.2V26.2988C56.083 26.8511 56.5307 27.2988 57.083 27.2988C57.6353 27.2988 58.083 26.8511 58.083 26.2988V26.2Z" fill="#6A6A6A"/>
<path d="M58.083 31.24C58.083 30.6877 57.6353 30.24 57.083 30.24C56.5307 30.24 56.083 30.6877 56.083 31.24V31.3388C56.083 31.8911 56.5307 32.3388 57.083 32.3388C57.6353 32.3388 58.083 31.8911 58.083 31.3388V31.24Z" fill="#6A6A6A"/>
<path d="M58.083 36.28C58.083 35.7277 57.6353 35.28 57.083 35.28C56.5307 35.28 56.083 35.7277 56.083 36.28V36.3788C56.083 36.9311 56.5307 37.3788 57.083 37.3788C57.6353 37.3788 58.083 36.9311 58.083 36.3788V36.28Z" fill="#6A6A6A"/>
<path d="M58.083 41.32C58.083 40.7677 57.6353 40.32 57.083 40.32C56.5307 40.32 56.083 40.7677 56.083 41.32V41.4188C56.083 41.9711 56.5307 42.4188 57.083 42.4188C57.6353 42.4188 58.083 41.9711 58.083 41.4188V41.32Z" fill="#6A6A6A"/>
<path d="M58.083 46.36C58.083 45.8077 57.6353 45.36 57.083 45.36C56.5307 45.36 56.083 45.8077 56.083 46.36V46.4588C56.083 47.0111 56.5307 47.4588 57.083 47.4588C57.6353 47.4588 58.083 47.0111 58.083 46.4588V46.36Z" fill="#6A6A6A"/>
<path d="M58.083 51.4C58.083 50.8477 57.6353 50.4 57.083 50.4C56.5307 50.4 56.083 50.8477 56.083 51.4V51.4988C56.083 52.0511 56.5307 52.4988 57.083 52.4988C57.6353 52.4988 58.083 52.0511 58.083 51.4988V51.4Z" fill="#6A6A6A"/>
<path d="M58.083 56.44C58.083 55.8877 57.6353 55.44 57.083 55.44C56.5307 55.44 56.083 55.8877 56.083 56.44V56.5388C56.083 57.0911 56.5307 57.5388 57.083 57.5388C57.6353 57.5388 58.083 57.0911 58.083 56.5388V56.44Z" fill="#6A6A6A"/>
<path d="M58.083 61.48C58.083 60.9277 57.6353 60.48 57.083 60.48C56.5307 60.48 56.083 60.9277 56.083 61.48V61.5788C56.083 62.1311 56.5307 62.5788 57.083 62.5788C57.6353 62.5788 58.083 62.1311 58.083 61.5788V61.48Z" fill="#6A6A6A"/>
<path d="M58.083 66.52C58.083 65.9677 57.6353 65.52 57.083 65.52C56.5307 65.52 56.083 65.9677 56.083 66.52V66.6188C56.083 67.1711 56.5307 67.6188 57.083 67.6188C57.6353 67.6188 58.083 67.1711 58.083 66.6188V66.52Z" fill="#6A6A6A"/>
<path d="M58.083 71.56C58.083 71.0077 57.6353 70.56 57.083 70.56C56.5307 70.56 56.083 71.0077 56.083 71.56V71.6588C56.083 72.2111 56.5307 72.6588 57.083 72.6588C57.6353 72.6588 58.083 72.2111 58.083 71.6588V71.56Z" fill="#6A6A6A"/>
<path d="M58.083 76.6C58.083 76.0477 57.6353 75.6 57.083 75.6C56.5307 75.6 56.083 76.0477 56.083 76.6V76.6988C56.083 77.2511 56.5307 77.6988 57.083 77.6988C57.6353 77.6988 58.083 77.2511 58.083 76.6988V76.6Z" fill="#6A6A6A"/>
<path d="M58.083 81.64C58.083 81.0877 57.6353 80.64 57.083 80.64C56.5307 80.64 56.083 81.0877 56.083 81.64V81.7388C56.083 82.2911 56.5307 82.7388 57.083 82.7388C57.6353 82.7388 58.083 82.2911 58.083 81.7388V81.64Z" fill="#6A6A6A"/>
<path d="M58.083 86.68C58.083 86.1277 57.6353 85.68 57.083 85.68C56.5307 85.68 56.083 86.1277 56.083 86.68V86.7788C56.083 87.3311 56.5307 87.7788 57.083 87.7788C57.6353 87.7788 58.083 87.3311 58.083 86.7788V86.68Z" fill="#6A6A6A"/>
<path d="M58.083 91.72C58.083 91.1677 57.6353 90.72 57.083 90.72C56.5307 90.72 56.083 91.1677 56.083 91.72V91.8188C56.083 92.3711 56.5307 92.8188 57.083 92.8188C57.6353 92.8188 58.083 92.3711 58.083 91.8188V91.72Z" fill="#6A6A6A"/>
<path d="M64.083 5.04C64.6353 5.04 65.083 5.48772 65.083 6.04V6.13882C65.083 6.69111 64.6353 7.13882 64.083 7.13882C63.5307 7.13882 63.083 6.69111 63.083 6.13882V6.04C63.083 5.48772 63.5307 5.04 64.083 5.04Z" fill="#6A6A6A"/>
<path d="M64.083 10.08C64.6353 10.08 65.083 10.5277 65.083 11.08V11.1788C65.083 11.7311 64.6353 12.1788 64.083 12.1788C63.5307 12.1788 63.083 11.7311 63.083 11.1788V11.08C63.083 10.5277 63.5307 10.08 64.083 10.08Z" fill="#6A6A6A"/>
<path d="M64.083 15.12C64.6353 15.12 65.083 15.5677 65.083 16.12V16.2188C65.083 16.7711 64.6353 17.2188 64.083 17.2188C63.5307 17.2188 63.083 16.7711 63.083 16.2188V16.12C63.083 15.5677 63.5307 15.12 64.083 15.12Z" fill="#6A6A6A"/>
<path d="M64.083 20.16C64.6353 20.16 65.083 20.6077 65.083 21.16V21.2588C65.083 21.8111 64.6353 22.2588 64.083 22.2588C63.5307 22.2588 63.083 21.8111 63.083 21.2588V21.16C63.083 20.6077 63.5307 20.16 64.083 20.16Z" fill="#6A6A6A"/>
<path d="M64.083 25.2C64.6353 25.2 65.083 25.6477 65.083 26.2V26.2988C65.083 26.8511 64.6353 27.2988 64.083 27.2988C63.5307 27.2988 63.083 26.8511 63.083 26.2988V26.2C63.083 25.6477 63.5307 25.2 64.083 25.2Z" fill="#6A6A6A"/>
<path d="M64.083 30.24C64.6353 30.24 65.083 30.6877 65.083 31.24V31.3388C65.083 31.8911 64.6353 32.3388 64.083 32.3388C63.5307 32.3388 63.083 31.8911 63.083 31.3388V31.24C63.083 30.6877 63.5307 30.24 64.083 30.24Z" fill="#6A6A6A"/>
<path d="M64.083 35.28C64.6353 35.28 65.083 35.7277 65.083 36.28V36.3788C65.083 36.9311 64.6353 37.3788 64.083 37.3788C63.5307 37.3788 63.083 36.9311 63.083 36.3788V36.28C63.083 35.7277 63.5307 35.28 64.083 35.28Z" fill="#6A6A6A"/>
<path d="M64.083 40.32C64.6353 40.32 65.083 40.7677 65.083 41.32V41.4188C65.083 41.9711 64.6353 42.4188 64.083 42.4188C63.5307 42.4188 63.083 41.9711 63.083 41.4188V41.32C63.083 40.7677 63.5307 40.32 64.083 40.32Z" fill="#6A6A6A"/>
<path d="M64.083 45.36C64.6353 45.36 65.083 45.8077 65.083 46.36V46.4588C65.083 47.0111 64.6353 47.4588 64.083 47.4588C63.5307 47.4588 63.083 47.0111 63.083 46.4588V46.36C63.083 45.8077 63.5307 45.36 64.083 45.36Z" fill="#6A6A6A"/>
<path d="M64.083 50.4C64.6353 50.4 65.083 50.8477 65.083 51.4V51.4988C65.083 52.0511 64.6353 52.4988 64.083 52.4988C63.5307 52.4988 63.083 52.0511 63.083 51.4988V51.4C63.083 50.8477 63.5307 50.4 64.083 50.4Z" fill="#6A6A6A"/>
<path d="M64.083 55.44C64.6353 55.44 65.083 55.8877 65.083 56.44V56.5388C65.083 57.0911 64.6353 57.5388 64.083 57.5388C63.5307 57.5388 63.083 57.0911 63.083 56.5388V56.44C63.083 55.8877 63.5307 55.44 64.083 55.44Z" fill="#6A6A6A"/>
<path d="M64.083 60.48C64.6353 60.48 65.083 60.9277 65.083 61.48V61.5788C65.083 62.1311 64.6353 62.5788 64.083 62.5788C63.5307 62.5788 63.083 62.1311 63.083 61.5788V61.48C63.083 60.9277 63.5307 60.48 64.083 60.48Z" fill="#6A6A6A"/>
<path d="M64.083 65.52C64.6353 65.52 65.083 65.9677 65.083 66.52V66.6188C65.083 67.1711 64.6353 67.6188 64.083 67.6188C63.5307 67.6188 63.083 67.1711 63.083 66.6188V66.52C63.083 65.9677 63.5307 65.52 64.083 65.52Z" fill="#6A6A6A"/>
<path d="M64.083 70.56C64.6353 70.56 65.083 71.0077 65.083 71.56V71.6588C65.083 72.2111 64.6353 72.6588 64.083 72.6588C63.5307 72.6588 63.083 72.2111 63.083 71.6588V71.56C63.083 71.0077 63.5307 70.56 64.083 70.56Z" fill="#6A6A6A"/>
<path d="M64.083 75.6C64.6353 75.6 65.083 76.0477 65.083 76.6V76.6988C65.083 77.2511 64.6353 77.6988 64.083 77.6988C63.5307 77.6988 63.083 77.2511 63.083 76.6988V76.6C63.083 76.0477 63.5307 75.6 64.083 75.6Z" fill="#6A6A6A"/>
<path d="M64.083 80.64C64.6353 80.64 65.083 81.0877 65.083 81.64V81.7388C65.083 82.2911 64.6353 82.7388 64.083 82.7388C63.5307 82.7388 63.083 82.2911 63.083 81.7388V81.64C63.083 81.0877 63.5307 80.64 64.083 80.64Z" fill="#6A6A6A"/>
<path d="M64.083 85.68C64.6353 85.68 65.083 86.1277 65.083 86.68V86.7788C65.083 87.3311 64.6353 87.7788 64.083 87.7788C63.5307 87.7788 63.083 87.3311 63.083 86.7788V86.68C63.083 86.1277 63.5307 85.68 64.083 85.68Z" fill="#6A6A6A"/>
<path d="M64.083 90.72C64.6353 90.72 65.083 91.1677 65.083 91.72V91.8188C65.083 92.3711 64.6353 92.8188 64.083 92.8188C63.5307 92.8188 63.083 92.3711 63.083 91.8188V91.72C63.083 91.1677 63.5307 90.72 64.083 90.72Z" fill="#6A6A6A"/>
<path d="M72.083 6.04C72.083 5.48772 71.6353 5.04 71.083 5.04C70.5307 5.04 70.083 5.48772 70.083 6.04V6.13882C70.083 6.69111 70.5307 7.13882 71.083 7.13882C71.6353 7.13882 72.083 6.69111 72.083 6.13882V6.04Z" fill="#6A6A6A"/>
<path d="M72.083 11.08C72.083 10.5277 71.6353 10.08 71.083 10.08C70.5307 10.08 70.083 10.5277 70.083 11.08V11.1788C70.083 11.7311 70.5307 12.1788 71.083 12.1788C71.6353 12.1788 72.083 11.7311 72.083 11.1788V11.08Z" fill="#6A6A6A"/>
<path d="M72.083 16.12C72.083 15.5677 71.6353 15.12 71.083 15.12C70.5307 15.12 70.083 15.5677 70.083 16.12V16.2188C70.083 16.7711 70.5307 17.2188 71.083 17.2188C71.6353 17.2188 72.083 16.7711 72.083 16.2188V16.12Z" fill="#6A6A6A"/>
<path d="M72.083 21.16C72.083 20.6077 71.6353 20.16 71.083 20.16C70.5307 20.16 70.083 20.6077 70.083 21.16V21.2588C70.083 21.8111 70.5307 22.2588 71.083 22.2588C71.6353 22.2588 72.083 21.8111 72.083 21.2588V21.16Z" fill="#6A6A6A"/>
<path d="M72.083 26.2C72.083 25.6477 71.6353 25.2 71.083 25.2C70.5307 25.2 70.083 25.6477 70.083 26.2V26.2988C70.083 26.8511 70.5307 27.2988 71.083 27.2988C71.6353 27.2988 72.083 26.8511 72.083 26.2988V26.2Z" fill="#6A6A6A"/>
<path d="M72.083 31.24C72.083 30.6877 71.6353 30.24 71.083 30.24C70.5307 30.24 70.083 30.6877 70.083 31.24V31.3388C70.083 31.8911 70.5307 32.3388 71.083 32.3388C71.6353 32.3388 72.083 31.8911 72.083 31.3388V31.24Z" fill="#6A6A6A"/>
<path d="M72.083 36.28C72.083 35.7277 71.6353 35.28 71.083 35.28C70.5307 35.28 70.083 35.7277 70.083 36.28V36.3788C70.083 36.9311 70.5307 37.3788 71.083 37.3788C71.6353 37.3788 72.083 36.9311 72.083 36.3788V36.28Z" fill="#6A6A6A"/>
<path d="M72.083 41.32C72.083 40.7677 71.6353 40.32 71.083 40.32C70.5307 40.32 70.083 40.7677 70.083 41.32V41.4188C70.083 41.9711 70.5307 42.4188 71.083 42.4188C71.6353 42.4188 72.083 41.9711 72.083 41.4188V41.32Z" fill="#6A6A6A"/>
<path d="M72.083 46.36C72.083 45.8077 71.6353 45.36 71.083 45.36C70.5307 45.36 70.083 45.8077 70.083 46.36V46.4588C70.083 47.0111 70.5307 47.4588 71.083 47.4588C71.6353 47.4588 72.083 47.0111 72.083 46.4588V46.36Z" fill="#6A6A6A"/>
<path d="M72.083 51.4C72.083 50.8477 71.6353 50.4 71.083 50.4C70.5307 50.4 70.083 50.8477 70.083 51.4V51.4988C70.083 52.0511 70.5307 52.4988 71.083 52.4988C71.6353 52.4988 72.083 52.0511 72.083 51.4988V51.4Z" fill="#6A6A6A"/>
<path d="M72.083 56.44C72.083 55.8877 71.6353 55.44 71.083 55.44C70.5307 55.44 70.083 55.8877 70.083 56.44V56.5388C70.083 57.0911 70.5307 57.5388 71.083 57.5388C71.6353 57.5388 72.083 57.0911 72.083 56.5388V56.44Z" fill="#6A6A6A"/>
<path d="M72.083 61.48C72.083 60.9277 71.6353 60.48 71.083 60.48C70.5307 60.48 70.083 60.9277 70.083 61.48V61.5788C70.083 62.1311 70.5307 62.5788 71.083 62.5788C71.6353 62.5788 72.083 62.1311 72.083 61.5788V61.48Z" fill="#6A6A6A"/>
<path d="M72.083 66.52C72.083 65.9677 71.6353 65.52 71.083 65.52C70.5307 65.52 70.083 65.9677 70.083 66.52V66.6188C70.083 67.1711 70.5307 67.6188 71.083 67.6188C71.6353 67.6188 72.083 67.1711 72.083 66.6188V66.52Z" fill="#6A6A6A"/>
<path d="M72.083 71.56C72.083 71.0077 71.6353 70.56 71.083 70.56C70.5307 70.56 70.083 71.0077 70.083 71.56V71.6588C70.083 72.2111 70.5307 72.6588 71.083 72.6588C71.6353 72.6588 72.083 72.2111 72.083 71.6588V71.56Z" fill="#6A6A6A"/>
<path d="M72.083 76.6C72.083 76.0477 71.6353 75.6 71.083 75.6C70.5307 75.6 70.083 76.0477 70.083 76.6V76.6988C70.083 77.2511 70.5307 77.6988 71.083 77.6988C71.6353 77.6988 72.083 77.2511 72.083 76.6988V76.6Z" fill="#6A6A6A"/>
<path d="M72.083 81.64C72.083 81.0877 71.6353 80.64 71.083 80.64C70.5307 80.64 70.083 81.0877 70.083 81.64V81.7388C70.083 82.2911 70.5307 82.7388 71.083 82.7388C71.6353 82.7388 72.083 82.2911 72.083 81.7388V81.64Z" fill="#6A6A6A"/>
<path d="M72.083 86.68C72.083 86.1277 71.6353 85.68 71.083 85.68C70.5307 85.68 70.083 86.1277 70.083 86.68V86.7788C70.083 87.3311 70.5307 87.7788 71.083 87.7788C71.6353 87.7788 72.083 87.3311 72.083 86.7788V86.68Z" fill="#6A6A6A"/>
<path d="M78.083 10.08C78.6353 10.08 79.083 10.5277 79.083 11.08V11.1788C79.083 11.7311 78.6353 12.1788 78.083 12.1788C77.5307 12.1788 77.083 11.7311 77.083 11.1788V11.08C77.083 10.5277 77.5307 10.08 78.083 10.08Z" fill="#6A6A6A"/>
<path d="M78.083 15.12C78.6353 15.12 79.083 15.5677 79.083 16.12V16.2188C79.083 16.7711 78.6353 17.2188 78.083 17.2188C77.5307 17.2188 77.083 16.7711 77.083 16.2188V16.12C77.083 15.5677 77.5307 15.12 78.083 15.12Z" fill="#6A6A6A"/>
<path d="M78.083 20.16C78.6353 20.16 79.083 20.6077 79.083 21.16V21.2588C79.083 21.8111 78.6353 22.2588 78.083 22.2588C77.5307 22.2588 77.083 21.8111 77.083 21.2588V21.16C77.083 20.6077 77.5307 20.16 78.083 20.16Z" fill="#6A6A6A"/>
<path d="M78.083 25.2C78.6353 25.2 79.083 25.6477 79.083 26.2V26.2988C79.083 26.8511 78.6353 27.2988 78.083 27.2988C77.5307 27.2988 77.083 26.8511 77.083 26.2988V26.2C77.083 25.6477 77.5307 25.2 78.083 25.2Z" fill="#6A6A6A"/>
<path d="M78.083 30.24C78.6353 30.24 79.083 30.6877 79.083 31.24V31.3388C79.083 31.8911 78.6353 32.3388 78.083 32.3388C77.5307 32.3388 77.083 31.8911 77.083 31.3388V31.24C77.083 30.6877 77.5307 30.24 78.083 30.24Z" fill="#6A6A6A"/>
<path d="M78.083 35.28C78.6353 35.28 79.083 35.7277 79.083 36.28V36.3788C79.083 36.9311 78.6353 37.3788 78.083 37.3788C77.5307 37.3788 77.083 36.9311 77.083 36.3788V36.28C77.083 35.7277 77.5307 35.28 78.083 35.28Z" fill="#6A6A6A"/>
<path d="M78.083 40.32C78.6353 40.32 79.083 40.7677 79.083 41.32V41.4188C79.083 41.9711 78.6353 42.4188 78.083 42.4188C77.5307 42.4188 77.083 41.9711 77.083 41.4188V41.32C77.083 40.7677 77.5307 40.32 78.083 40.32Z" fill="#6A6A6A"/>
<path d="M78.083 45.36C78.6353 45.36 79.083 45.8077 79.083 46.36V46.4588C79.083 47.0111 78.6353 47.4588 78.083 47.4588C77.5307 47.4588 77.083 47.0111 77.083 46.4588V46.36C77.083 45.8077 77.5307 45.36 78.083 45.36Z" fill="#6A6A6A"/>
<path d="M78.083 50.4C78.6353 50.4 79.083 50.8477 79.083 51.4V51.4988C79.083 52.0511 78.6353 52.4988 78.083 52.4988C77.5307 52.4988 77.083 52.0511 77.083 51.4988V51.4C77.083 50.8477 77.5307 50.4 78.083 50.4Z" fill="#6A6A6A"/>
<path d="M78.083 55.44C78.6353 55.44 79.083 55.8877 79.083 56.44V56.5388C79.083 57.0911 78.6353 57.5388 78.083 57.5388C77.5307 57.5388 77.083 57.0911 77.083 56.5388V56.44C77.083 55.8877 77.5307 55.44 78.083 55.44Z" fill="#6A6A6A"/>
<path d="M78.083 60.48C78.6353 60.48 79.083 60.9277 79.083 61.48V61.5788C79.083 62.1311 78.6353 62.5788 78.083 62.5788C77.5307 62.5788 77.083 62.1311 77.083 61.5788V61.48C77.083 60.9277 77.5307 60.48 78.083 60.48Z" fill="#6A6A6A"/>
<path d="M78.083 65.52C78.6353 65.52 79.083 65.9677 79.083 66.52V66.6188C79.083 67.1711 78.6353 67.6188 78.083 67.6188C77.5307 67.6188 77.083 67.1711 77.083 66.6188V66.52C77.083 65.9677 77.5307 65.52 78.083 65.52Z" fill="#6A6A6A"/>
<path d="M78.083 70.56C78.6353 70.56 79.083 71.0077 79.083 71.56V71.6588C79.083 72.2111 78.6353 72.6588 78.083 72.6588C77.5307 72.6588 77.083 72.2111 77.083 71.6588V71.56C77.083 71.0077 77.5307 70.56 78.083 70.56Z" fill="#6A6A6A"/>
<path d="M78.083 75.6C78.6353 75.6 79.083 76.0477 79.083 76.6V76.6988C79.083 77.2511 78.6353 77.6988 78.083 77.6988C77.5307 77.6988 77.083 77.2511 77.083 76.6988V76.6C77.083 76.0477 77.5307 75.6 78.083 75.6Z" fill="#6A6A6A"/>
<path d="M78.083 80.64C78.6353 80.64 79.083 81.0877 79.083 81.64V81.7388C79.083 82.2911 78.6353 82.7388 78.083 82.7388C77.5307 82.7388 77.083 82.2911 77.083 81.7388V81.64C77.083 81.0877 77.5307 80.64 78.083 80.64Z" fill="#6A6A6A"/>
<path d="M86.083 16.12C86.083 15.5677 85.6353 15.12 85.083 15.12C84.5307 15.12 84.083 15.5677 84.083 16.12V16.2188C84.083 16.7711 84.5307 17.2188 85.083 17.2188C85.6353 17.2188 86.083 16.7711 86.083 16.2188V16.12Z" fill="#6A6A6A"/>
<path d="M86.083 21.16C86.083 20.6077 85.6353 20.16 85.083 20.16C84.5307 20.16 84.083 20.6077 84.083 21.16V21.2588C84.083 21.8111 84.5307 22.2588 85.083 22.2588C85.6353 22.2588 86.083 21.8111 86.083 21.2588V21.16Z" fill="#6A6A6A"/>
<path d="M86.083 26.2C86.083 25.6477 85.6353 25.2 85.083 25.2C84.5307 25.2 84.083 25.6477 84.083 26.2V26.2988C84.083 26.8511 84.5307 27.2988 85.083 27.2988C85.6353 27.2988 86.083 26.8511 86.083 26.2988V26.2Z" fill="#6A6A6A"/>
<path d="M86.083 31.24C86.083 30.6877 85.6353 30.24 85.083 30.24C84.5307 30.24 84.083 30.6877 84.083 31.24V31.3388C84.083 31.8911 84.5307 32.3388 85.083 32.3388C85.6353 32.3388 86.083 31.8911 86.083 31.3388V31.24Z" fill="#6A6A6A"/>
<path d="M86.083 36.28C86.083 35.7277 85.6353 35.28 85.083 35.28C84.5307 35.28 84.083 35.7277 84.083 36.28V36.3788C84.083 36.9311 84.5307 37.3788 85.083 37.3788C85.6353 37.3788 86.083 36.9311 86.083 36.3788V36.28Z" fill="#6A6A6A"/>
<path d="M86.083 41.32C86.083 40.7677 85.6353 40.32 85.083 40.32C84.5307 40.32 84.083 40.7677 84.083 41.32V41.4188C84.083 41.9711 84.5307 42.4188 85.083 42.4188C85.6353 42.4188 86.083 41.9711 86.083 41.4188V41.32Z" fill="#6A6A6A"/>
<path d="M86.083 46.36C86.083 45.8077 85.6353 45.36 85.083 45.36C84.5307 45.36 84.083 45.8077 84.083 46.36V46.4588C84.083 47.0111 84.5307 47.4588 85.083 47.4588C85.6353 47.4588 86.083 47.0111 86.083 46.4588V46.36Z" fill="#6A6A6A"/>
<path d="M86.083 51.4C86.083 50.8477 85.6353 50.4 85.083 50.4C84.5307 50.4 84.083 50.8477 84.083 51.4V51.4988C84.083 52.0511 84.5307 52.4988 85.083 52.4988C85.6353 52.4988 86.083 52.0511 86.083 51.4988V51.4Z" fill="#6A6A6A"/>
<path d="M86.083 56.44C86.083 55.8877 85.6353 55.44 85.083 55.44C84.5307 55.44 84.083 55.8877 84.083 56.44V56.5388C84.083 57.0911 84.5307 57.5388 85.083 57.5388C85.6353 57.5388 86.083 57.0911 86.083 56.5388V56.44Z" fill="#6A6A6A"/>
<path d="M86.083 61.48C86.083 60.9277 85.6353 60.48 85.083 60.48C84.5307 60.48 84.083 60.9277 84.083 61.48V61.5788C84.083 62.1311 84.5307 62.5788 85.083 62.5788C85.6353 62.5788 86.083 62.1311 86.083 61.5788V61.48Z" fill="#6A6A6A"/>
<path d="M86.083 66.52C86.083 65.9677 85.6353 65.52 85.083 65.52C84.5307 65.52 84.083 65.9677 84.083 66.52V66.6188C84.083 67.1711 84.5307 67.6188 85.083 67.6188C85.6353 67.6188 86.083 67.1711 86.083 66.6188V66.52Z" fill="#6A6A6A"/>
<path d="M86.083 71.56C86.083 71.0077 85.6353 70.56 85.083 70.56C84.5307 70.56 84.083 71.0077 84.083 71.56V71.6588C84.083 72.2111 84.5307 72.6588 85.083 72.6588C85.6353 72.6588 86.083 72.2111 86.083 71.6588V71.56Z" fill="#6A6A6A"/>
<path d="M86.083 76.6C86.083 76.0477 85.6353 75.6 85.083 75.6C84.5307 75.6 84.083 76.0477 84.083 76.6V76.6988C84.083 77.2511 84.5307 77.6988 85.083 77.6988C85.6353 77.6988 86.083 77.2511 86.083 76.6988V76.6Z" fill="#6A6A6A"/>
<path d="M92.083 20.16C92.6353 20.16 93.083 20.6077 93.083 21.16V21.2588C93.083 21.8111 92.6353 22.2588 92.083 22.2588C91.5307 22.2588 91.083 21.8111 91.083 21.2588V21.16C91.083 20.6077 91.5307 20.16 92.083 20.16Z" fill="#6A6A6A"/>
<path d="M92.083 25.2C92.6353 25.2 93.083 25.6477 93.083 26.2V26.2988C93.083 26.8511 92.6353 27.2988 92.083 27.2988C91.5307 27.2988 91.083 26.8511 91.083 26.2988V26.2C91.083 25.6477 91.5307 25.2 92.083 25.2Z" fill="#6A6A6A"/>
<path d="M92.083 30.24C92.6353 30.24 93.083 30.6877 93.083 31.24V31.3388C93.083 31.8911 92.6353 32.3388 92.083 32.3388C91.5307 32.3388 91.083 31.8911 91.083 31.3388V31.24C91.083 30.6877 91.5307 30.24 92.083 30.24Z" fill="#6A6A6A"/>
<path d="M92.083 35.28C92.6353 35.28 93.083 35.7277 93.083 36.28V36.3788C93.083 36.9311 92.6353 37.3788 92.083 37.3788C91.5307 37.3788 91.083 36.9311 91.083 36.3788V36.28C91.083 35.7277 91.5307 35.28 92.083 35.28Z" fill="#6A6A6A"/>
<path d="M92.083 40.32C92.6353 40.32 93.083 40.7677 93.083 41.32V41.4188C93.083 41.9711 92.6353 42.4188 92.083 42.4188C91.5307 42.4188 91.083 41.9711 91.083 41.4188V41.32C91.083 40.7677 91.5307 40.32 92.083 40.32Z" fill="#6A6A6A"/>
<path d="M92.083 45.36C92.6353 45.36 93.083 45.8077 93.083 46.36V46.4588C93.083 47.0111 92.6353 47.4588 92.083 47.4588C91.5307 47.4588 91.083 47.0111 91.083 46.4588V46.36C91.083 45.8077 91.5307 45.36 92.083 45.36Z" fill="#6A6A6A"/>
<path d="M92.083 50.4C92.6353 50.4 93.083 50.8477 93.083 51.4V51.4988C93.083 52.0511 92.6353 52.4988 92.083 52.4988C91.5307 52.4988 91.083 52.0511 91.083 51.4988V51.4C91.083 50.8477 91.5307 50.4 92.083 50.4Z" fill="#6A6A6A"/>
<path d="M92.083 55.44C92.6353 55.44 93.083 55.8877 93.083 56.44V56.5388C93.083 57.0911 92.6353 57.5388 92.083 57.5388C91.5307 57.5388 91.083 57.0911 91.083 56.5388V56.44C91.083 55.8877 91.5307 55.44 92.083 55.44Z" fill="#6A6A6A"/>
<path d="M92.083 60.48C92.6353 60.48 93.083 60.9277 93.083 61.48V61.5788C93.083 62.1311 92.6353 62.5788 92.083 62.5788C91.5307 62.5788 91.083 62.1311 91.083 61.5788V61.48C91.083 60.9277 91.5307 60.48 92.083 60.48Z" fill="#6A6A6A"/>
<path d="M92.083 65.52C92.6353 65.52 93.083 65.9677 93.083 66.52V66.6188C93.083 67.1711 92.6353 67.6188 92.083 67.6188C91.5307 67.6188 91.083 67.1711 91.083 66.6188V66.52C91.083 65.9677 91.5307 65.52 92.083 65.52Z" fill="#6A6A6A"/>
<path d="M92.083 70.56C92.6353 70.56 93.083 71.0077 93.083 71.56V71.6588C93.083 72.2111 92.6353 72.6588 92.083 72.6588C91.5307 72.6588 91.083 72.2111 91.083 71.6588V71.56C91.083 71.0077 91.5307 70.56 92.083 70.56Z" fill="#6A6A6A"/>
<path d="M100.083 36.28C100.083 35.7277 99.6353 35.28 99.083 35.28C98.5307 35.28 98.083 35.7277 98.083 36.28V36.3788C98.083 36.9311 98.5307 37.3788 99.083 37.3788C99.6353 37.3788 100.083 36.9311 100.083 36.3788V36.28Z" fill="#6A6A6A"/>
<path d="M100.083 41.32C100.083 40.7677 99.6353 40.32 99.083 40.32C98.5307 40.32 98.083 40.7677 98.083 41.32V41.4188C98.083 41.9711 98.5307 42.4188 99.083 42.4188C99.6353 42.4188 100.083 41.9711 100.083 41.4188V41.32Z" fill="#6A6A6A"/>
<path d="M100.083 46.36C100.083 45.8077 99.6353 45.36 99.083 45.36C98.5307 45.36 98.083 45.8077 98.083 46.36V46.4588C98.083 47.0111 98.5307 47.4588 99.083 47.4588C99.6353 47.4588 100.083 47.0111 100.083 46.4588V46.36Z" fill="#6A6A6A"/>
<path d="M100.083 51.4C100.083 50.8477 99.6353 50.4 99.083 50.4C98.5307 50.4 98.083 50.8477 98.083 51.4V51.4988C98.083 52.0511 98.5307 52.4988 99.083 52.4988C99.6353 52.4988 100.083 52.0511 100.083 51.4988V51.4Z" fill="#6A6A6A"/>
<path d="M100.083 56.44C100.083 55.8877 99.6353 55.44 99.083 55.44C98.5307 55.44 98.083 55.8877 98.083 56.44V56.5388C98.083 57.0911 98.5307 57.5388 99.083 57.5388C99.6353 57.5388 100.083 57.0911 100.083 56.5388V56.44Z" fill="#6A6A6A"/>
</svg>
