<svg width="32" height="32" viewBox="0 0 32 32" fill="none" xmlns="http://www.w3.org/2000/svg">
<path d="M10.9606 8.48047C11.6671 8.48047 12.3029 8.54164 12.8858 8.66639C13.4652 8.78994 13.9594 8.99385 14.3768 9.27573C14.7882 9.55761 15.1097 9.93185 15.3412 10.4021C15.5655 10.8663 15.677 11.4468 15.677 12.1329C15.677 12.8766 15.5091 13.4979 15.172 13.9933C14.8326 14.4899 14.3324 14.8965 13.6655 15.2108C14.5735 15.4735 15.2464 15.9329 15.6926 16.5854C16.1412 17.2439 16.3607 18.032 16.3607 18.9556C16.3607 19.7053 16.218 20.3494 15.9313 20.8904C15.6551 21.4233 15.2543 21.8817 14.763 22.2266C14.2542 22.581 13.6858 22.841 13.0849 22.9943C12.455 23.1596 11.8062 23.2427 11.155 23.2414H4V8.48047H10.9606ZM10.5396 14.4443C11.1154 14.4443 11.5928 14.3076 11.9694 14.0305C12.3436 13.757 12.5248 13.306 12.5248 12.6883C12.5248 12.3452 12.4636 12.0621 12.3436 11.8402C12.2268 11.6268 12.0538 11.4492 11.8435 11.3269C11.6233 11.1963 11.3803 11.1087 11.1274 11.069C10.8517 11.0176 10.5717 10.9931 10.2913 10.9958H7.25061V14.4443H10.5396V14.4443ZM10.7207 20.7284C11.041 20.7284 11.3457 20.7009 11.6323 20.6361C11.9214 20.5737 12.1781 20.473 12.3964 20.323C12.6147 20.1791 12.7947 19.9836 12.9242 19.7341C13.0549 19.487 13.1185 19.1643 13.1185 18.7769C13.1185 18.0164 12.9038 17.4754 12.4792 17.148C12.0534 16.8241 11.4824 16.6634 10.7831 16.6634H7.25061V20.7296H10.7207V20.7284ZM20.9944 20.6793C21.4346 21.1087 22.0691 21.3246 22.8943 21.3246C23.4857 21.3246 23.9967 21.1747 24.4273 20.8772C24.8519 20.5785 25.111 20.2594 25.2106 19.9296H27.7955C27.3804 21.2154 26.7507 22.1343 25.8895 22.6872C25.039 23.2426 24.0039 23.5185 22.7948 23.5185C21.9527 23.5185 21.1947 23.3829 20.5158 23.1142C19.8641 22.8605 19.2752 22.4684 18.7897 21.9651C18.3122 21.4501 17.943 20.8444 17.7042 20.1839C17.4416 19.4535 17.3116 18.6821 17.3203 17.9061C17.3203 17.1072 17.4535 16.3599 17.715 15.6702C17.9632 15.0035 18.3443 14.3942 18.8353 13.8794C19.3211 13.3756 19.8968 12.9786 20.5673 12.6871C21.2724 12.3905 22.0311 12.2427 22.796 12.2529C23.7004 12.2529 24.4909 12.428 25.1698 12.7806C25.8282 13.1173 26.399 13.6027 26.8371 14.1984C27.2725 14.7898 27.5831 15.4675 27.7763 16.2268C27.9694 16.9848 28.0366 17.7765 27.9814 18.6054H20.2675C20.2687 19.4498 20.5529 20.2499 20.9944 20.6793V20.6793ZM24.3673 15.0645C24.0183 14.6782 23.4281 14.4695 22.706 14.4695C22.237 14.4695 21.8496 14.5475 21.5377 14.7082C21.2526 14.8522 20.9996 15.0526 20.794 15.2972C20.6135 15.5192 20.4797 15.7754 20.4006 16.0504C20.3314 16.2798 20.2868 16.5158 20.2675 16.7545H25.0438C24.9743 16.0061 24.7176 15.4531 24.3673 15.0645V15.0645ZM19.6677 9.47125H25.652V10.9286H19.6677V9.47125Z" fill="black"/>
</svg>
