<svg width="180" height="184" viewBox="0 0 180 184" fill="none" xmlns="https://www.w3.org/2000/svg">
<g filter="url(#filter0_f_767_102205)">
<path d="M5.0896 19.69L155.973 4.96973L174.959 162.053L20.7197 178.411L5.0896 19.69Z" fill="url(#paint0_linear_767_102205)"/>
</g>
<path d="M3 17.303L156.424 4L169.727 157.424L16.303 170.727L3 17.303Z" fill="#FDF7B2"/>
<path opacity="0.3" d="M3 17.303L156.424 4L169.727 157.424L16.303 170.727L3 17.303Z" fill="url(#paint1_linear_767_102205)"/>
<g clip-path="url(#clip0_767_102205)">
<path d="M97.0173 110.518C96.9116 110.466 96.242 109.907 96.2161 109.833C96.0601 109.38 96.5404 109.173 96.6499 108.986C97.2506 107.959 97.373 107.437 97.2113 106.217C97.142 105.689 96.6034 104.915 95.9908 105.074C95.1545 105.291 94.7186 107.57 94.745 108.309C94.7669 108.944 95.1181 109.324 95.0508 109.925C94.9532 110.1 94.1139 110.066 93.8088 110.177C92.7854 110.549 91.9705 111.769 91.0983 112.115C90.2683 112.444 88.0496 112.897 87.2054 112.746C85.7199 112.479 87.2997 111.553 87.7459 111.053C88.1382 110.613 88.6508 109.973 88.3756 109.348C87.8203 108.088 85.9651 110.473 85.71 111.078C85.4429 111.712 85.6431 112.103 84.834 112.483C84.4527 112.664 84.4423 112.567 84.1186 112.592C83.9955 112.602 83.8646 112.712 83.772 112.708C83.6981 112.705 83.6528 112.518 83.5378 112.457C82.9682 112.15 82.5758 111.767 82.0965 111.515C81.2911 111.093 80.4133 111.706 80.0057 112.42C79.9317 112.55 79.6327 113.585 79.3984 113.409C79.2709 112.961 79.0303 112.472 78.6567 112.186C78.1268 112.056 76.9184 113.505 76.2403 112.648C75.7704 112.054 76.2889 111.665 76.5001 111.231C76.7732 110.667 77.0344 109.58 76.091 109.606C75.499 109.624 74.4217 110.877 74.0726 111.359C73.6735 111.91 73.0861 113.323 72.6991 113.636C72.6256 113.695 72.4786 113.688 72.3788 113.754C71.932 114.047 70.7076 114.622 70.1482 114.687C69.6957 114.74 68.7892 114.686 68.6013 114.183L68.5897 113.997C69.0304 113.412 69.7428 113.205 70.1234 112.53C71.0665 110.857 69.1164 111.159 68.3004 112.09C67.7957 112.668 67.7078 113.813 67.1676 114.266C66.8918 114.496 65.9824 114.814 66.8283 115.183C67.1041 114.981 67.4136 114.552 67.8057 114.644C67.9259 114.673 67.9511 114.836 68.0516 114.891C68.1756 114.96 68.316 114.975 68.4741 115.076C68.5923 115.152 68.6246 115.33 68.756 115.378C69.3058 115.577 70.3601 115.246 70.9078 115.051C71.3339 114.899 72.6824 114.134 72.9977 114.156C73.1976 114.17 73.1144 114.732 74.0053 114.454C74.7523 114.219 75.3361 113.153 75.5962 113.124C75.7953 113.102 76.0064 113.441 76.2043 113.521C76.9171 113.807 77.6446 113.2 78.2886 112.99C79.1051 113.535 79.3468 115.834 80.2779 114.008C80.5847 113.407 80.8528 111.665 81.8844 112.189C82.5658 112.535 83.0561 113.223 84.0235 113.309C84.8367 113.381 85.3038 112.8 85.625 112.797C85.8577 112.793 86.097 113.173 86.3497 113.271C87.0859 113.556 88.5809 113.232 89.387 113.088C89.7003 113.032 90.1923 112.811 90.4736 112.801C91.0214 112.779 91.0004 113.701 91.9482 113.501C92.087 113.471 93.1408 112.742 93.3335 112.596C94.2734 111.884 94.5695 111.775 95.593 111.223C95.7852 111.12 95.8846 110.897 96.0716 110.846C96.3777 110.764 97.3648 111.061 97.8592 111.046C98.4372 111.029 98.9921 110.871 99.5639 110.837L99.6406 110.688C98.7955 110.719 97.8274 110.921 97.0173 110.518ZM87.5387 109.904C87.6388 110.309 87.2963 110.734 86.8723 110.715C86.8038 110.672 87.4009 109.771 87.5387 109.904ZM69.6719 112.163C69.6907 112.767 69.2343 112.684 68.8188 112.943C68.6048 112.756 69.5373 111.71 69.6719 112.163ZM74.1191 112.801C74.1 112.625 74.1238 112.429 74.1937 112.266C74.2917 112.038 75.031 111.056 75.2316 110.867C75.5006 110.615 76.275 110.011 76.0887 110.806C75.9557 111.373 74.7536 112.684 74.1191 112.801ZM95.7589 109.101C95.5497 108.991 95.5528 107.359 95.6015 107.056C95.6481 106.77 96.3888 105.372 96.7155 105.548C97.1038 106.616 97.0982 107.352 96.5212 108.326C96.3884 108.55 96.0172 109.112 95.7589 109.101Z" fill="black"/>
<path d="M44.1718 46.6152C44.0257 46.4939 44.0056 46.6407 44.0014 46.77C43.9517 48.4305 44.6588 49.8331 43.3568 51.1802C43.0775 51.47 42.6467 51.9455 42.2323 51.6243C41.314 50.9141 42.1023 48.7902 41.5836 48.269C41.4751 48.1599 40.5958 48.3466 40.4068 48.4061C39.9432 48.555 38.9677 49.4088 38.5609 49.27C38.2611 49.1675 38.441 48.7473 38.3805 48.4523C38.2998 48.0547 37.7554 46.724 37.5694 46.3264C37.5059 46.1915 37.5176 45.8718 37.4285 45.8665L36.9266 45.9182C37.1413 47.1268 37.4626 48.3194 37.4734 49.5489L36.5567 49.8298C36.1773 50.6123 37.4888 50.2229 37.703 50.5178C37.8224 51.1779 38.0367 51.9325 37.6646 52.5322C37.6034 52.6315 36.9097 53.4597 36.8514 53.4831C36.0536 53.8076 35.231 52.7311 34.9466 52.1179C34.7486 51.6934 34.3664 49.8284 33.5343 50.3178C33.3598 50.4208 33.2792 50.7697 33.133 50.9241C33.0831 50.9757 32.5046 51.4665 32.4643 51.4826C31.5439 51.8507 32.4579 50.4424 32.9351 50.1651C33.4228 49.8812 33.4046 50.067 33.7709 50.135C34.198 50.2139 34.1156 49.3203 33.7911 49.1754C33.1167 48.873 32.352 49.8342 31.9946 50.3259C31.4678 51.0509 31.1292 52.5966 30.4316 52.9542C30.2167 53.0639 28.6617 53.451 28.4099 53.4597C27.623 53.485 26.5198 52.761 26.336 51.9465C26.0895 50.8521 26.6431 51.0719 27.2576 50.6738C27.3023 50.6442 27.7736 50.2974 27.8002 50.2742C28.4205 49.7158 28.4702 49.298 28.4016 48.4984C27.7101 47.5436 26.5816 48.644 26.185 49.3657C25.9444 49.804 25.8857 50.3581 25.653 50.8013C24.962 50.9593 23.067 52.1895 22.4922 52.0774C21.9686 51.9742 21.9212 51.1249 21.7891 50.7547C21.5569 50.1028 21.1782 49.2587 20.9911 48.6201C20.8986 48.303 20.85 46.9726 20.9132 46.6357C21.0498 45.9049 21.5386 45.5853 22.134 45.2582C22.8903 44.8425 23.7105 44.5467 24.585 44.5969C24.6239 43.9541 23.4468 44.1931 23.0256 44.2893C22.5888 44.3889 20.9619 45.0903 20.7799 45.4603C20.7257 45.573 20.7809 45.7573 20.733 45.8872C20.6697 46.0596 20.6432 46.0744 20.5632 46.3251C20.5455 46.3819 20.3994 46.3943 20.3885 46.4739C20.3568 46.7217 20.4676 47.4565 20.508 47.7572C20.557 48.1158 20.7461 48.6309 20.7874 48.9212C20.8156 49.1146 20.6786 49.44 20.8069 49.6751L21.274 49.8305C21.0519 50.6014 21.4269 51.3983 21.6785 52.1146C21.3501 52.895 19.3428 52.0462 19.1781 52.2314C19.5006 53.5126 21.1162 52.8001 22.0067 52.9768C22.537 53.5314 22.7921 54.2736 23.1708 54.9272C23.7702 54.7277 23.2454 54.4499 23.2167 54.3845C23.0755 54.0648 23.0569 53.6536 22.7832 53.3701L22.4624 53.407C22.3972 53.3498 22.6309 52.9365 22.6888 52.8701C22.8037 52.7393 23.7967 52.1511 23.988 52.0679C24.1097 52.0159 25.2568 51.6406 25.3262 51.6357C25.4066 51.6288 25.4632 51.6354 25.5153 51.7023C25.5981 52.2165 25.9888 52.9931 26.4124 53.304C26.9556 53.7033 28.4147 54.1104 29.0627 53.8837C29.1312 53.8602 29.1055 53.7114 29.1715 53.69C29.3323 53.6379 29.5423 53.6893 29.7035 53.6316C30.0395 53.5119 30.2644 53.1994 30.6871 53.1573C31.2825 53.0983 31.5612 53.7289 32.1899 53.4677L33.5976 51.6935C34.4349 51.2382 34.6224 52.8269 34.936 53.2709C35.1026 53.5079 36.0791 54.0405 36.3605 54.0206C37.3961 53.9458 37.359 53.2692 38.0271 52.7519L39.0159 53.0955C39.0786 52.754 39.4678 52.5881 39.3167 52.1945C39.2807 52.1027 38.7817 52.1467 38.6629 51.8359C38.572 51.6019 38.4293 50.3573 38.504 50.1585L40.59 48.8984C41.744 48.4327 41.2734 49.9436 41.2991 50.5895C41.3216 51.1451 41.3994 51.6467 41.7752 52.0791C42.1068 52.4597 42.7186 52.7504 43.1425 52.3662C43.9217 51.6596 44.6261 50.5006 44.6399 49.4285C44.6515 48.5912 44.47 47.3896 44.1718 46.6152ZM26.5517 49.9241C26.5773 49.8712 27.2564 49.0557 27.3125 49.0194C27.4957 48.9006 27.6797 48.8182 27.8999 48.8976C28.3949 49.1755 27.4217 49.7945 27.2627 49.9996C27.1709 50.1188 27.1376 50.5519 26.9336 50.4382C26.9119 50.4253 26.9067 50.1427 26.5396 50.2972C26.5253 50.1696 26.4923 50.0505 26.5517 49.9241Z" fill="black"/>
<path d="M89.0175 130.798L89.431 130.671L90.7928 128.388C92.0874 126.715 92.5132 128.703 93.436 129.191C94.1436 129.566 95.4594 129.287 95.9303 128.621C96.1261 128.344 96.2029 127.794 96.39 127.466C96.5246 127.232 97.1851 126.359 97.3753 126.149C97.6142 125.885 97.9837 125.689 98.3413 125.676L98.4197 125.859L98.5845 125.657C98.7657 126.301 98.4136 127.03 98.025 127.537C97.6364 128.044 97.0572 128.345 96.7191 128.93C96.609 129.12 96.1173 130.262 96.2474 130.373C97.3491 130.364 98.2315 129.473 99.2498 129.144L99.3149 129.325L97.2192 130.876C96.7249 131.189 96.2266 131.498 95.6381 131.169C94.9836 130.803 95.504 130.06 95.177 129.862C94.3917 130.114 93.2149 129.944 92.5665 129.422C92.3238 129.226 91.9017 128.453 91.636 128.481C91.1508 128.532 90.0205 131.488 89.3725 131.983C88.9735 132.287 88.8266 131.947 88.6734 131.58C88.2732 130.62 87.985 128.133 87.8999 127.021C87.8718 126.656 88.0694 126.207 87.7551 125.966C87.285 126.306 87.0181 126.838 86.6144 127.238C86.1853 127.663 85.5018 128.177 85.0092 128.554C84.2687 129.122 83.708 129.039 84.0495 130.277C84.1606 130.681 84.436 131.508 84.5796 131.909C84.691 132.221 85.8952 133.846 84.7855 133.61C84.2335 133.493 83.6696 131.695 83.5028 131.15C83.3371 130.608 83.2923 130.043 83.1043 129.51C82.4729 129.678 80.9968 129.976 80.9244 129.061C81.4683 128.886 81.838 129.235 82.3672 129.101C83.7679 128.746 82.4114 127.088 82.5097 126.193L83.1183 126.222C83.3683 126.626 83.4329 128.197 83.8985 128.288C84.2111 128.349 85.4997 127.496 85.8069 127.253C86.0769 127.04 86.899 126.219 87.0935 125.929C87.3418 125.56 87.6935 124.416 87.8645 124.259C88.0235 124.111 88.1946 124.212 88.3824 124.265L89.0191 130.795L89.0175 130.798Z" fill="black"/>
<path d="M110.999 78.5307C110.178 78.7256 109.378 79.0176 108.544 79.2315C107.648 79.4619 105.847 79.8393 105.484 78.6273C105.254 77.8565 105.741 77.8857 106.058 77.5203C106.438 77.0824 107.661 75.0722 106.766 74.7875C106.004 74.5442 105.381 75.4701 105.102 76.0514C104.897 76.4796 104.788 77.2825 104.575 77.5743C104.372 77.85 103.908 78.0317 103.624 78.2387C103.441 78.3725 103.06 78.9375 102.781 78.8273C102.497 78.7139 102.309 77.8858 101.506 77.6772C101.228 77.6062 100.527 77.882 100.327 78.0744C99.9138 78.4743 99.6534 79.5508 99.3022 80.0401C99.221 80.1536 99.1834 80.2834 99.0062 80.2633L96.7634 73.6727L96.4206 73.7024C96.3874 73.8019 96.3533 73.9117 96.3628 74.0182C96.4167 74.609 97.1174 76.5486 97.3421 77.2657C97.7323 78.5151 98.1472 79.9313 98.6912 81.1143C98.8736 81.5132 98.9596 81.745 99.3296 82.0125C100.264 81.7197 102.036 81.6029 102.645 80.7541C102.772 80.5772 102.803 80.3622 102.915 80.2101C103.33 79.6512 103.889 79.2491 104.409 78.7966C104.665 78.7698 104.741 79.2894 104.94 79.5026C105.047 79.6192 105.447 79.8661 105.601 79.9398C107.498 80.8462 109.936 79.3556 111.722 78.7432L111.695 78.4656C111.474 78.5068 111.212 78.48 110.999 78.5307ZM102.027 79.6483C101.865 79.9247 100.185 81.0565 99.9003 80.8311C99.8616 80.7012 99.9011 80.6002 99.9388 80.4797C100.006 80.262 100.446 79.3399 100.571 79.1278C100.76 78.8095 101.21 78.348 101.615 78.5337C101.8 78.6184 102.199 79.3568 102.027 79.6483Z" fill="black"/>
<path d="M48.4603 133.591L48.2697 133.558C48.1355 133.863 47.4034 135.712 47.2541 135.788C47.1546 135.838 46.9436 135.738 46.8146 135.744C46.8851 135.301 46.5487 135.291 46.4691 135.154C46.2945 134.854 46.0531 134.318 45.9175 133.989C45.7197 133.509 45.636 132.603 45.162 132.32C44.6673 132.025 44.6966 132.402 44.4177 132.553C44.0451 132.756 43.576 132.79 43.1593 133.134C42.5985 133.595 41.4853 135.283 41.3496 135.984C41.3086 136.195 41.3944 136.396 41.3205 136.642C41.1915 137.068 40.8959 137.22 40.4829 137.094C39.9806 136.942 40.1114 136.782 39.9287 136.523C39.8831 136.458 39.7445 136.46 39.7191 136.429C39.355 135.974 38.8472 134.35 38.561 133.737C38.4654 133.531 37.7831 132.393 37.6512 132.359C37.5519 132.334 37.3972 132.354 37.2965 132.382C36.6716 132.559 35.9723 134.611 35.4119 135.067C34.6763 134.825 34.4368 134.004 33.865 133.559C33.7952 133.99 33.6272 133.547 33.3941 133.671C32.642 134.072 32.6102 136.04 32.2428 136.143C31.6053 135.972 31.8376 135.515 31.7328 135.128C31.6814 134.936 31.4649 134.828 31.4249 134.666C31.3604 134.405 31.6202 133.801 31.004 133.838C30.6935 134.104 31.0447 134.332 31.0904 134.542C31.376 135.846 31.7299 136.628 32.203 137.867C32.2921 138.102 32.3555 138.877 32.6985 138.791C33.1908 138.669 32.909 137.155 32.9323 136.792C32.9489 136.523 33.0757 135.777 33.1406 135.516C33.4338 134.336 33.8226 134.137 34.609 135.139C35.0145 135.656 35.1544 136.641 35.8556 135.881C36.3083 135.39 36.9555 133.425 37.4778 133.295C37.626 133.257 37.8305 133.624 37.89 133.728C38.485 134.783 38.8932 136.361 39.8932 137.087C40.155 137.277 41.0169 137.629 41.2906 137.463C41.4068 137.393 41.3972 137.152 41.5016 137.114C41.8158 137 42.1637 137.156 42.4207 137.124C42.8996 137.065 43.7601 135.491 44.0134 135.03C44.1465 134.789 44.6136 133.463 44.9524 133.506C45.6026 134.439 45.8535 135.751 46.7884 136.45C47.7431 137.161 47.6676 136.406 47.9068 135.772C48.0741 135.327 48.7792 133.965 48.4603 133.591ZM43.5231 134.456C43.4324 134.664 42.6722 136.005 42.5752 136.08C42.4668 136.164 42.3242 136.202 42.1876 136.206C42.1557 136.013 42.1366 135.846 42.1837 135.65C42.2501 135.375 43.4547 133.496 43.7151 133.72C43.8097 133.802 43.5757 134.336 43.5231 134.456Z" fill="black"/>
<path d="M120.659 61.889C120.393 61.9206 120.063 61.906 119.852 61.7258C119.811 61.6092 120.583 60.8818 120.719 60.6545C120.968 60.2416 121.241 59.4433 121.25 58.9622C121.269 57.9924 121.08 57.3399 120.161 58.149C119.497 58.7341 118.805 59.833 118.735 60.7209C118.711 61.0204 118.912 61.4875 118.689 61.7111L117.695 61.8735C117.658 61.8659 117.088 61.487 117.058 61.4563C116.806 61.2005 116.528 60.5418 116.526 60.1805C116.524 59.8312 116.729 59.6814 116.805 59.3843C117.043 58.4642 117.063 56.9729 116.965 56.023C116.931 55.7067 116.728 55.3033 116.752 54.9347C116.474 54.6021 116.012 54.905 115.978 55.2998C115.969 55.411 116.082 55.5485 116.066 55.5836C116.059 55.6039 115.89 55.6521 115.833 55.7689C115.601 56.2344 115.546 57.0414 115.531 57.567C115.521 57.9071 115.672 59.1715 115.57 59.388C115.46 59.6219 115.126 59.3294 114.957 59.3019C113.97 59.1422 113.874 59.7075 113.332 60.2246C112.744 60.7855 112.382 61.0077 112.008 61.814C111.682 62.5176 111.618 62.9957 112.24 63.5489C113.1 64.3133 114.251 63.5135 114.882 62.8241C115.089 62.5975 115.786 61.4326 115.952 61.3987C116.292 61.3291 116.434 61.7422 116.624 61.9377C116.704 62.0205 116.821 62.0372 116.871 62.0855C116.9 62.1135 116.829 62.2512 116.964 62.3372C117.226 62.5059 117.865 62.5837 118.173 62.5369C118.532 62.4832 118.874 62.221 119.198 62.2044C119.553 62.1866 119.939 62.4348 120.427 62.3788C120.677 62.3507 122.06 61.8776 122.085 61.6949C121.889 61.245 121.115 61.8352 120.659 61.889ZM113.522 63.067C113.173 63.1954 112.612 63.0399 112.41 62.712C112.374 62.6352 112.378 62.5581 112.387 62.4769C112.458 61.7879 113.995 59.9797 114.697 59.872C115.11 59.8093 115.473 60.1868 115.54 60.569C115.671 61.3186 114.186 62.8219 113.522 63.067ZM119.407 61.0245C119.21 60.9241 119.569 59.9473 119.66 59.7805C119.766 59.589 120.472 58.7054 120.692 58.8857C120.97 59.1119 120.041 61.3485 119.407 61.0245Z" fill="black"/>
<path d="M138.114 45.8713C137.147 46.0319 135.34 46.0857 134.534 45.4719C134.047 45.1008 133.815 44.4255 134.002 43.842C134.215 43.1794 135.658 42.8201 136.222 42.2662C136.426 42.0651 136.603 41.6516 136.881 41.447C136.971 40.8944 137.077 39.6228 136.212 39.738C136.149 39.746 135.349 40.1603 135.287 40.2168C135.225 40.2743 134.489 41.1711 134.41 41.2824C134.038 41.8092 133.762 43.1526 133.261 43.4013C132.899 43.5824 132.409 43.5153 132.244 44.0087L132.062 44.033C131.943 43.7232 131.514 43.9286 131.158 43.8904C130.555 43.8258 130.113 43.2187 129.802 42.7463C129.508 42.3013 129.2 41.2055 128.454 41.3876C128.064 41.4816 127.813 42.7572 127.403 43.0821C127.315 43.1514 127.349 43.2387 127.216 43.1021C126.599 41.8496 126.598 40.4763 126.315 39.123L125.763 38.2331C125.364 38.1608 125.377 38.5893 125.205 38.7986C124.827 39.2559 123.046 40.1358 122.463 40.2862C122.333 40.3203 122.059 40.3629 121.95 40.2997C121.699 40.1541 121.395 37.6163 121.19 37.4457C121.019 37.3035 120.648 37.321 120.667 37.6135C121.004 38.4477 121.07 39.3429 121.205 40.2266L121.471 40.1072C121.512 40.149 121.49 40.708 121.448 40.7915C121.405 40.8807 120.013 41.4846 120.232 41.7229C120.747 41.9306 120.964 41.4086 121.434 41.3376C121.672 41.4115 121.721 41.6515 121.856 41.8178C121.892 41.8619 122.029 41.8663 122.071 41.9192C122.197 42.0798 122.003 42.4435 122.097 42.6959C122.121 42.7608 122.258 42.7438 122.266 42.7579C122.289 42.7996 122.207 42.9393 122.276 43.1082C122.348 43.2834 122.618 43.3786 122.633 43.4257C122.831 44.0669 122.936 44.9022 123.245 45.5635C123.286 45.6529 123.519 45.974 123.58 45.9709C123.894 45.8729 123.818 45.5534 123.741 45.2675C123.46 44.2149 122.811 43.1149 122.437 42.0909C122.356 41.8662 122.208 41.4443 122.251 41.2206C122.358 40.6514 124.583 39.9057 125.133 39.4204C125.304 39.2701 125.219 39.0187 125.514 39.0544C125.636 39.0434 125.681 39.111 125.754 39.186C126.037 39.4734 126.183 41.2249 126.293 41.7402C126.421 42.3388 126.653 42.9151 126.746 43.5207L126.921 43.4094L126.888 43.9208C126.936 44.0675 127.639 44.0112 127.125 44.3396L127.473 44.757L128.355 42.3352C128.906 41.8638 129.031 42.7327 129.12 42.8063C129.161 42.8406 129.305 42.7808 129.355 42.817C129.398 42.8483 129.718 43.573 129.873 43.7485C130.115 44.0238 130.4 44.0073 130.558 44.0918C130.711 44.1731 131.066 44.5001 131.1 44.5015C131.606 44.5278 132.849 43.8087 133.242 44.1469C133.401 44.2836 133.345 44.5554 133.434 44.7411C134.466 46.8893 137.223 46.373 139.162 46.054C139.366 46.0211 139.549 45.936 139.749 45.8987C139.581 45.2349 138.601 45.7892 138.114 45.8713ZM134.735 41.7207C134.94 41.4185 135.969 40.3652 136.272 40.3403C136.721 40.3022 136.732 40.687 136.633 41.0321C136.621 41.0696 136.317 41.643 136.26 41.701C136.009 41.9515 135.608 42.1523 135.329 42.3402C135.28 42.372 135.283 42.5399 135.173 42.5899C135.007 42.6658 134.768 42.6265 134.585 42.6612L134.622 43.0323C133.962 42.991 134.522 42.0348 134.735 41.7207Z" fill="black"/>
<path d="M78.7923 97.0968C77.8392 96.0396 78.7805 96.1066 78.9596 95.4576C79.0298 95.2022 79.2147 93.4193 79.1895 93.1704C79.1029 92.3006 78.7728 91.42 78.501 90.6103C78.3735 90.2303 78.354 89.7052 78.1654 89.3097C77.9998 89.3034 78.0945 89.5287 78.1155 89.6294C78.253 90.2943 78.6731 91.1812 78.7349 91.8245C78.7884 92.3827 78.6773 93.2699 78.6792 93.863L78.5405 94.0942C78.3497 94.2212 77.2736 93.7085 77.2576 93.3625C77.273 91.8474 76.568 90.1036 77.6045 88.8048L78.055 89.1327C77.9668 88.6106 77.2651 87.2355 76.759 88.1052C75.9494 89.494 76.3267 91.5192 76.4081 93.08C76.4186 93.2743 76.5794 93.4417 76.5286 93.7045C76.4647 94.034 75.8659 94.0859 75.6123 94.2292C74.7018 94.7459 72.8511 96.0092 72.7243 97.1278C72.5905 98.3078 73.449 99.179 74.6139 99.0925C75.901 98.9969 76.8177 97.7976 77.7647 97.111C78.382 97.4489 78.8605 98.0544 79.6524 97.8604C79.6189 97.4217 79.1131 97.4533 78.7923 97.0968ZM77.2115 96.6558C77.1722 96.7213 76.3796 97.4815 76.2631 97.577C75.6867 98.0508 74.4998 98.6963 73.829 98.1245C73.6652 97.9835 73.6325 97.5046 73.6391 97.2862C73.6618 96.4768 74.1307 96.4011 74.6114 95.9591C74.7911 95.7949 74.9049 95.5763 75.0957 95.4213C75.4558 95.1284 75.9417 95.0268 76.271 94.6854C76.3575 94.6172 76.4453 94.59 76.5481 94.65C76.6962 94.7355 77.363 96.4027 77.2115 96.6558ZM77.8491 95.6051C77.6669 95.0174 77.3397 94.243 78.3073 94.5794C78.5864 94.7363 78.1191 95.7937 77.8491 95.6051Z" fill="black"/>
<path d="M54.5459 148.492C54.5147 148.448 54.3691 148.446 54.3366 148.391C54.0912 147.957 53.9603 147.379 53.3353 147.277C53.6592 148.095 54.3471 148.565 54.2586 149.531C54.2288 149.856 53.7612 150.968 53.578 151.268C53.2276 151.842 52.5829 152.246 51.9055 152.181C50.9695 152.092 49.6119 151.215 48.8579 150.613C48.5911 150.4 48.6635 150.148 48.2185 150.049C47.6907 149.931 47.4386 150.126 47.1273 150.547C46.7215 151.097 46.6466 151.84 46.0298 152.195C45.8189 152.077 45.8395 151.792 45.7252 151.632C45.5007 151.318 44.9901 150.641 44.8828 150.191C44.7991 149.839 45.0799 149.708 44.4567 149.453C44.3654 149.463 44.02 150.518 43.9196 150.711C43.7947 150.951 42.514 152.918 42.4015 152.997C42.3169 153.057 42.1678 153.009 42.0835 153.072C42.0323 153.111 42.0466 153.277 41.9343 153.33C41.2601 153.65 40.6191 152.888 40.8472 152.187C41.0609 151.53 42.432 150.547 42.3804 149.798C42.3573 149.466 42.1203 148.688 41.8034 148.535C41.6851 148.479 41.5296 148.614 41.3929 148.627C41.27 148.638 41.125 148.565 41.0279 148.592C40.6731 148.69 40.3383 149.463 40.2323 149.799C40.0109 150.502 40.118 151.466 39.9409 151.944C39.8073 152.305 39.3299 152.56 39.1054 152.771C38.6724 153.177 39.8844 153.172 40.1204 152.878C40.5286 153.403 41.5429 154.333 42.2734 154.045C42.3784 154.003 43.2929 152.868 43.4184 152.683C43.6042 152.409 44.4153 150.768 44.5841 150.749C45.0276 151.188 45.715 153.106 46.5586 152.896C47.1064 152.761 47.5091 150.774 48.1224 150.774C48.4645 150.774 49.6842 151.87 50.1767 152.114C50.8417 152.444 50.9823 152.337 51.6234 152.422C52.4495 152.531 52.9564 152.827 53.7202 152.152C54.5192 151.449 55.2138 149.415 54.5459 148.492ZM40.6287 150.644C40.6469 150.123 41.2202 148.997 41.8536 149.051C41.8641 149.215 41.911 149.391 41.8981 149.555C41.8643 149.982 40.5893 151.77 40.6287 150.644Z" fill="black"/>
<path d="M47.3334 102.035C46.4755 102.221 46.4544 100.111 45.894 100.118C45.6827 100.121 44.9667 100.501 44.7872 100.658C44.5158 100.895 44.1061 102.007 43.7821 101.877C43.6667 101.831 43.0962 101.313 42.984 101.185C42.6485 100.803 41.5646 98.9681 41.0508 99.0229C40.1044 99.1235 39.8202 100.902 39.6776 101.638C39.6045 102.016 39.7467 101.898 39.5377 102.306C39.3066 102.755 39.2921 102.98 38.8175 102.432C38.2913 101.825 37.6621 100.8 37.1596 100.101C37.0701 99.9771 36.9526 99.8419 36.9503 99.6842C37.4715 99.6773 38.6175 101.328 38.8162 101.272C39.2064 101.164 39.551 98.8103 40.3675 98.4569C41.6061 97.9214 43.0574 100.246 43.4441 101.192C44.2892 101.333 44.2547 100.147 44.5368 99.8098C44.9924 99.2636 44.9408 99.3752 45.2942 98.6886C45.3961 98.4908 45.6598 98.3184 45.705 98.0842C45.7658 97.7709 45.4879 97.2056 45.4318 96.8495C45.3676 96.44 45.4169 96.1044 45.4006 95.7267C45.3933 95.5564 45.0948 95.0371 45.5776 95.1143C46.0907 95.196 45.9563 96.4751 46.0075 96.7896C46.1095 97.415 46.3587 98.0307 46.3991 98.6743C46.8889 98.9376 47.31 98.4201 47.6927 98.2828C48.8319 97.8746 50.5826 98.2898 50.9172 99.5904C50.9995 99.9085 51.0874 101.517 50.9047 101.698C50.1262 102.47 50.4069 100.149 50.3391 99.8645C50.1883 99.2354 49.5015 98.6344 48.8311 98.7081C48.6015 98.7333 47.3077 99.3331 47.1009 99.4972C46.6347 99.8678 46.7327 100.27 46.9838 100.762C47.2348 101.253 47.6964 101.294 47.3342 102.033L47.3334 102.035Z" fill="black"/>
<path d="M71.5875 146.151L71.628 145.954C72.6257 146.218 73.6555 144.506 74.5314 145.517C74.5943 145.589 75.122 146.384 75.1392 146.437C75.1787 146.556 75.1073 146.703 75.1459 146.84C75.2266 147.133 75.7613 147.608 76.0639 147.595C76.153 147.591 76.6896 147.445 76.728 147.41C76.7957 147.348 76.7491 147.157 76.8317 147.068C76.9329 146.958 77.3056 146.767 77.4923 146.55C77.8112 146.178 77.9489 145.46 78.5154 145.477C78.534 145.916 78.6425 146.379 78.6413 146.816C78.639 147.662 78.4465 148.794 78.4556 149.643C78.4724 151.183 78.9875 153.923 78.337 155.252C77.8623 156.224 77.4165 155.57 76.6162 155.621C76.8394 155.387 77.3508 155.394 77.5898 155.57C78.4357 153.96 77.8237 152.081 77.7823 150.365C77.7688 149.825 77.8818 149.149 77.8856 148.576C77.8889 148.037 77.8741 147.483 77.8199 146.946C77.4833 146.926 77.4325 147.332 77.1817 147.57C76.8192 147.915 75.9093 148.667 75.4261 148.261C75.2393 148.104 74.7441 147.241 74.6085 146.977C74.4498 146.669 74.2957 145.805 73.9668 145.682C73.5944 145.543 72.097 146.54 71.6406 146.619C71.5762 146.695 71.8545 148.354 71.9261 148.592C71.9978 148.83 72.195 148.989 72.2572 149.225C72.3068 149.418 72.4955 150.551 72.4473 150.65C72.3736 150.802 71.6591 151.244 71.6173 151.199C71.563 150.861 71.707 150.541 71.7052 150.207C71.7024 149.585 71.3503 148.412 71.1779 147.743C70.8417 146.436 69.9785 148.098 69.2287 147.738C69.2989 147.57 69.572 147.541 69.6428 147.435C69.6818 147.377 69.6139 147.245 69.6952 147.171C69.8672 147.013 70.7048 146.705 70.7659 146.451C70.8223 145.96 70.6143 145.441 70.5638 144.99C70.506 144.474 70.3603 143.62 70.3574 143.141C70.3544 142.708 70.489 142.732 70.739 142.992C71.1633 143.435 71.0008 144.54 71.128 145.214C71.1492 145.326 71.422 146.308 71.5894 146.151L71.5875 146.151Z" fill="black"/>
<path d="M74.3867 65.0539C73.6457 63.7528 74.3066 63.1137 74.4396 61.8301C74.475 61.495 74.4867 59.2066 74.3813 59.1001C74.1738 59.0652 74.167 59.206 74.1547 59.3763C74.1279 59.7798 74.2567 60.2026 74.2451 60.6475C74.2391 60.8724 74.1853 61.554 74.1547 61.7654C74.1083 62.0829 73.9441 62.8753 73.5252 62.7368C73.5716 62.4286 73.37 62.1203 73.3429 61.8613C73.255 61.0356 73.2476 58.7996 73.4333 58.0181C73.4834 57.8058 73.6289 57.3002 73.8771 57.2741C74.2754 57.2493 74.0252 57.7997 74.2638 57.8951C74.1706 57.3501 74.3324 56.3907 73.6302 56.2237C73.3965 56.168 72.9664 56.9957 72.8743 57.2168C72.5523 57.9872 72.603 59.2137 72.6135 60.0676C72.6214 60.7703 72.7054 61.5451 72.7325 62.2535C71.5835 62.4085 69.6259 63.2356 68.9675 64.2154C67.7293 66.0552 69.116 67.6887 71.1485 67.0374C71.5742 66.9006 72.6272 66.1159 72.8855 65.7441C72.9943 65.5886 73.1749 64.9563 73.4151 64.9917C73.7051 65.2419 75.0641 66.7724 75.2696 66.7776C75.4322 66.7823 75.497 66.7396 75.5779 66.6037C75.2083 66.1585 74.6733 65.5558 74.3867 65.0539ZM73.1179 64.4863C73.0778 64.6864 71.908 65.9375 71.681 66.1138C70.0724 67.3656 68.245 66.0685 69.9504 64.3457C70.1404 64.1534 70.3348 64.083 70.5304 63.9285C70.7052 63.79 70.7453 63.6282 71.0578 63.4688C71.4058 63.291 72.7067 62.7343 72.9029 63.2366C72.9627 63.3914 73.1465 64.3396 73.1179 64.4863Z" fill="black"/>
<path d="M102.272 30.7836C102.182 30.8055 102.101 30.9685 101.995 30.9629C101.884 30.9578 101.754 30.7249 101.627 30.682C101.206 30.5381 100.249 30.7258 100.281 29.8734C100.297 29.4421 101.003 29.4171 101.266 29.2737C101.614 29.0847 102.397 27.9703 102.402 27.5756C102.408 26.9827 101.523 26.8625 101.096 27.0891C100.91 27.1876 99.8873 28.2253 99.7324 28.4339C99.5159 28.7268 99.4384 29.2997 99.2313 29.4693C99.101 29.5764 98.4013 29.8651 98.2468 29.8204C98.0049 29.6805 98.0076 29.2971 97.8779 29.0379C97.445 28.1729 96.5637 27.8225 95.7725 28.4929C95.6477 28.5985 95.6342 28.938 95.3055 28.9122C95.0724 28.3285 94.0371 25.7583 93.5566 25.5519C93.5089 25.5313 93.1861 25.518 93.111 25.5225C92.9907 25.5314 92.9706 25.4297 93.0253 25.628C93.1392 26.0411 93.5606 26.2242 93.6448 26.4281C94.0096 27.3119 94.2664 28.3296 94.6758 29.2118C94.8363 29.5587 95.3586 30.2309 95.4394 30.4669C95.5173 30.6929 95.3494 30.9204 95.4453 31.168C95.6355 31.6568 96.7411 31.7265 97.1549 31.5927C97.6897 31.4191 97.8443 30.8818 98.1841 30.6487C98.3789 30.5148 99.334 30.1021 99.5177 30.1991C100.145 31.4058 101.742 31.1371 102.861 30.886C103.058 30.6276 102.347 30.7651 102.272 30.7836ZM101.372 28.0405C101.511 28.1343 100.791 28.9931 100.521 28.8709C100.398 28.7782 101.128 27.8782 101.372 28.0405ZM97.3395 29.8631C97.183 30.3417 96.8338 30.1338 96.6021 30.1956C96.4578 30.2349 95.6944 30.6644 95.7555 30.2679C95.785 30.0735 95.9988 29.9059 95.8572 29.6292C96.2033 29.4506 96.2639 28.801 96.7255 28.8802C96.9957 28.9268 97.4167 29.565 97.3395 29.8631Z" fill="black"/>
<path d="M67.0742 99.8871C66.2995 99.7318 66.4952 98.4505 66.7953 97.9447C67.1869 97.2862 68.6033 96.9874 68.8625 96.1577C69.0382 95.5977 68.9373 95.3188 68.5092 94.9233C68.2203 94.6563 68.0052 94.524 67.6264 94.7104C66.5362 95.2484 66.6794 96.4499 66.1522 97.0741C65.7353 97.5679 63.6955 98.1638 63.4072 97.4155C63.2461 96.9958 63.4681 96.5014 62.7053 96.5253C62.5271 96.5997 62.6098 96.9794 62.5459 97.165C62.4618 97.4114 62.0061 98.3584 61.8657 98.5627C61.8135 98.6388 61.2988 99.1617 61.2583 99.1769C60.4437 99.4824 60.5981 96.8214 59.8423 96.8895C59.4968 96.9204 59.684 97.885 59.7421 98.1559C59.9081 98.9404 60.3915 99.8837 61.2035 100.116C61.4491 100.13 62.1408 99.4917 62.3035 99.2675C62.4908 99.0091 62.7853 98.2152 63.047 98.1654C63.3902 98.1011 63.9017 98.8641 64.7618 98.6531C64.9912 98.5971 65.5054 98.2022 65.7178 98.3254C65.9172 98.7647 65.7421 99.1957 65.9849 99.6597C66.5302 100.703 67.4705 100.434 68.4079 100.127C69.032 99.9223 69.8909 99.5078 70.3532 99.0488C69.2911 99.1477 68.1893 100.112 67.0742 99.8871ZM68.2221 95.4297C68.5566 95.8016 67.5854 96.6615 67.3379 96.3502C67.0968 95.9795 68.0215 95.2073 68.2221 95.4297Z" fill="black"/>
<path d="M141.36 105.141C139.614 104.31 137.685 104.304 135.811 104.468C135.409 104.504 134.199 105.006 134.021 104.349C133.993 104.243 134.374 103.644 133.765 103.618C132.898 103.58 133.517 104.769 133.304 105.024C132.802 105.459 130.855 105.79 131.455 106.65C131.798 106.363 133.165 105.643 133.545 105.813C133.588 105.833 133.761 106.12 133.783 106.195C133.938 106.702 134.243 108.061 134.302 108.574C134.355 109.039 134.161 109.531 134.446 109.947C134.777 110.431 135.04 109.944 135.048 109.528C135.073 108.221 134.528 106.878 134.468 105.572C135.036 105.118 135.65 105.297 136.249 105.238C136.945 105.171 137.954 104.686 138.213 105.766C138.298 106.124 138.434 106.959 138.474 107.329C138.493 107.496 138.315 107.458 138.303 107.543C138.187 108.379 138.523 108.727 139.388 108.664C140.051 108.616 141.617 108.117 142.108 107.643C142.142 107.61 142.624 106.892 142.637 106.846C142.879 106.038 141.991 105.442 141.36 105.141ZM141.399 107.527C141.12 107.669 140.927 107.636 140.715 107.715C140.642 107.743 140.672 107.883 140.602 107.907C140.291 108.015 139.162 108.189 138.939 107.887C138.68 107.24 138.915 106.516 138.888 105.874C138.875 105.565 138.447 104.637 139.086 104.803C139.209 104.835 139.295 104.969 139.43 105.007C140.131 105.206 141.325 105.519 141.854 106.04C142.458 106.634 142.01 107.214 141.399 107.527Z" fill="black"/>
<path d="M59.1023 50.5834C58.6168 50.7559 58.1494 50.9613 57.6658 51.1439C57.3314 51.2699 56.7996 51.5226 56.4452 51.5862C53.9022 52.0406 52.8317 50.6771 53.5109 48.2275C53.5983 48.1012 54.6625 47.8798 54.9063 47.7607C55.9349 47.2605 55.3681 44.7829 54.4684 44.7893C54.176 44.7917 53.5579 45.4116 53.4031 45.6687C53.0719 46.2195 53.0706 46.9138 52.7713 47.4475C52.6284 47.5016 52.4818 47.4897 52.3339 47.492C52.0017 47.4973 50.896 47.351 50.5543 47.2778C49.89 47.1361 49.5529 46.6607 48.8168 46.8249C48.3707 46.9245 47.5061 47.5778 47.3894 48.0339C47.3375 48.2379 47.3892 48.5104 47.3382 48.6751C47.2935 48.8187 47.1144 48.8268 47.0992 48.9199C47.0666 49.1108 47.3006 49.9906 47.3912 50.2032C47.4864 50.4247 48.7012 51.6432 48.824 51.6696C49.2227 51.7531 49.0625 51.3146 48.9453 51.1065C48.7143 50.6974 48.1665 50.4125 47.9189 49.8705C47.4711 48.8911 47.8473 47.7501 48.9662 47.5457C49.6778 47.4165 50.6497 47.8646 51.3942 48.0153C51.8031 48.0988 52.2399 48.0197 52.5825 48.2255C52.7638 48.4694 52.5263 49.0831 52.552 49.4038C52.575 49.6782 52.7375 50.4658 52.8195 50.7334C53.0688 51.551 54.1163 52.1617 54.9309 52.2C55.7576 52.239 58.2348 51.3977 58.9189 50.9003C59.039 50.8129 59.1552 50.7623 59.1023 50.5834ZM54.62 45.7322C54.7944 45.8002 55.003 46.5825 54.9756 46.6655C54.9643 46.7021 54.5269 47.1484 54.4159 47.1853C54.2481 47.2428 53.8153 47.3252 53.735 47.1228C53.6316 46.8647 54.0725 45.5174 54.62 45.7322Z" fill="black"/>
<path d="M103.322 92.6842C103.299 92.7023 102.975 93.1085 102.966 93.1365C102.889 93.3813 102.904 93.9134 102.88 94.1942L102.604 94.2211C102.543 93.5795 102.29 92.2242 101.579 93.2475C101.015 94.0602 100.409 94.3033 100.038 94.7945C99.9777 94.8742 100.065 95.0002 100.053 95.0163C99.9876 95.1002 98.3144 95.9482 98.1552 95.9684C97.6434 96.0342 97.2791 95.6343 97.1972 95.1574C97.1008 94.5894 98.067 94.2616 98.4172 93.9621C98.4558 93.9285 98.9072 93.4154 98.9381 93.3694C99.3138 92.8152 99.4494 91.3295 98.6031 91.1663C97.8206 91.0165 96.9965 92.6011 96.7787 93.2063C96.6797 93.4822 96.7224 93.7761 96.5525 94.1271C96.4261 94.3889 96.2003 94.5296 96.1365 94.8021C96.144 94.8798 96.7483 96.0589 96.8218 96.1433C97.0493 96.4032 97.9478 96.7949 98.2951 96.677C98.8797 96.4789 100.637 95.2069 101.113 94.7383C101.325 94.5279 101.356 94.2558 101.619 94.1507C101.905 94.164 101.989 95.0593 102.164 95.3281C102.258 95.4731 103.144 96.4173 103.237 96.4008C103.341 96.1505 103.682 95.5763 103.717 95.3524C103.767 95.0204 103.635 94.611 103.635 94.2626C103.632 93.2071 103.95 92.8556 104.887 92.4157L104.911 92.1331C104.703 91.8656 103.533 92.502 103.322 92.6842ZM97.5367 92.9801C97.6024 92.8326 98.4102 91.8644 98.5639 91.997C98.7787 92.7282 98.0912 93.3147 97.509 93.5947C97.4748 93.3682 97.4372 93.2028 97.5367 92.9801Z" fill="black"/>
<path d="M41.3659 83.575C41.2735 83.5354 41.2329 83.4058 41.2108 83.3986C41.085 83.3613 39.5431 83.3575 39.4662 83.3996C38.9421 83.9795 38.7909 84.7323 38.3024 85.3433C38.1139 85.5794 36.99 86.8326 36.8226 86.932C36.6859 87.0117 36.4856 87.0509 36.3339 87.0143C36.1114 86.9593 35.3491 85.2491 35.0815 84.9136C34.7728 84.5289 34.0444 84.399 33.6177 84.6303C33.2326 84.8388 33.0177 86.2958 32.5396 86.0472C32.4463 85.9984 31.6826 84.8564 31.6164 84.6843C31.3969 84.1153 31.3075 83.3709 31.1801 82.8097C31.1605 82.7228 30.9583 81.6438 30.7462 81.9625C30.8373 82.19 30.7063 82.4812 30.7323 82.6711C30.7489 82.7938 30.8976 82.8559 30.8978 82.983C30.9032 84.3185 31.2035 85.1049 31.9597 86.2364C32.0438 86.3627 32.2193 86.3559 32.2732 86.4217C32.4521 86.6406 32.4857 87.339 32.9787 87.2629C33.6343 87.1616 33.4647 85.9579 33.9156 85.516C34.0492 85.3852 34.2772 85.3247 34.4583 85.3565C34.9856 85.4499 35.6043 87.8001 36.6082 87.8303C36.7849 87.8355 36.9596 87.6493 37.0874 87.5163C37.6392 86.9431 38.0109 86.1678 38.7157 85.7683C39.0613 87.1043 39.8852 87.7836 41.2613 87.272C41.9502 87.0161 43.0175 86.0805 43.01 85.3057C42.9996 84.2146 42.2355 83.948 41.3659 83.575ZM42.5341 85.2522C42.53 85.8701 40.6948 86.9395 40.1355 86.9379C39.5613 86.9369 39.3436 85.6314 39.3554 85.1884C39.3623 84.9251 39.7173 83.8815 39.9396 83.7916C40.1685 83.7011 41.4303 84.006 41.6741 84.127C42.0002 84.2886 42.5369 84.8698 42.5341 85.2522Z" fill="black"/>
<path d="M56.2477 84.6437C56.0331 84.7272 55.8577 84.9069 55.6346 84.9893C54.6648 85.3464 52.9726 85.9618 51.9778 85.757C51.5812 85.6751 50.8411 85.196 50.8892 84.7438C50.9013 84.6286 51.6245 83.3856 51.7515 83.063C51.9791 82.4821 52.5495 81.1054 51.6995 80.8089C50.6421 80.4402 50.1971 82.8446 50.124 83.5094C50.0847 83.8711 50.2789 84.6594 49.8643 84.9185C49.5208 85.1332 48.6631 84.3274 48.4363 84.0655C48.1927 83.7846 48.0657 83.371 47.8628 83.1067C47.4934 82.6251 46.6182 82.0125 46.0281 82.4316C45.6516 82.6991 45.0954 84.2118 44.9574 84.6989C44.8267 85.1555 45.0501 85.9363 44.254 85.6953C44.3115 86.0653 44.7606 87.3734 45.3112 86.9516C45.5992 86.7311 45.4539 84.0171 46.2513 83.2965C47.0127 82.6084 47.6077 84.0369 48.0099 84.4817C48.2855 84.7846 49.3341 85.4551 49.7127 85.5144C49.9626 85.5536 50.1775 85.4541 50.4602 85.534C50.8696 85.6511 51.4838 86.2153 52.0436 86.2981C53.2616 86.4792 55.295 85.5971 56.3994 85.0232C56.6283 84.9046 56.9078 84.7512 57.102 84.5828C57.0906 84.37 56.3492 84.6039 56.2477 84.6437ZM51.3998 82.0079C51.6991 81.9908 51.2938 82.9759 51.2221 83.0529C51.0998 83.1845 50.979 83.1794 50.8155 83.1841C50.6954 82.6979 51.0279 82.2656 51.3998 82.0079Z" fill="black"/>
<path d="M102.979 60.751C102.817 60.6079 102.605 60.6193 102.511 60.5424C102.421 60.4671 102.441 60.2989 102.299 60.2053C102.182 60.1298 101.391 59.8565 101.206 59.8046C100.989 59.7435 100.636 59.8068 100.451 59.6875C100.166 59.5042 100.487 59.4327 100.565 59.3196C100.903 58.8278 101.135 58.1399 101.148 57.5417C101.168 56.5082 100.368 55.2408 99.1943 55.6748C99.1574 55.6887 98.565 56.0837 98.54 56.1142C97.6258 57.2236 97.1643 59.2203 97.4737 60.6253C97.6002 61.196 98.0636 61.6861 98.1368 62.3031L98.2503 62.3771C99.2607 62.4075 98.2513 60.9727 98.4103 60.7778C99.011 60.8977 99.787 60.2633 100.267 60.2165C100.423 60.2013 101.616 60.4699 101.781 60.5575C101.857 60.5987 102.625 61.2022 102.658 61.2476C102.819 61.4729 102.775 61.9341 102.605 62.1506C102.154 62.7271 99.7242 63.2228 98.979 63.2459C98.6733 63.2552 98.3328 63.166 98.0284 63.1602C97.8444 63.1566 97.8971 63.1898 97.9164 63.3495C99.338 63.793 101.572 63.7172 102.83 62.848C102.899 62.8002 103.393 62.3195 103.411 62.2832C103.611 61.8554 103.318 61.0486 102.979 60.751ZM100.083 59.0918C99.7072 59.2434 98.7342 60.3239 98.3377 60.0907C97.8438 59.2597 98.4078 55.8673 99.815 56.315C100.813 56.6334 100.491 58.4073 100.083 59.0918Z" fill="black"/>
<path d="M139.463 117.766C139.541 117.877 139.645 118.637 139.712 118.863C140.061 120.037 140.43 121.33 140.824 122.48C141.206 123.595 142.13 122.96 142.916 122.833C143.649 122.715 144.636 122.484 145.302 122.408C145.617 122.372 145.795 122.547 146.056 122.533C146.316 122.518 146.557 122.332 146.83 122.357C146.653 122.993 146.209 123.259 146.474 123.984C146.808 124.901 148.036 125.539 147.151 126.711C146.435 126.57 145.5 126.813 144.808 126.74C144.6 126.718 143.264 126.091 143.18 125.927C143.153 125.875 143.109 125.714 143.194 125.702L144.664 126.451L146.433 126.377C147.23 125.803 145.927 124.903 145.732 124.266C145.609 123.866 145.72 123.168 145.663 122.993C145.517 122.544 144.881 122.987 144.699 123.027C143.685 123.255 143.002 123.332 142.025 123.717C141.683 123.852 141.187 123.713 141.23 124.253C141.504 124.928 141.533 125.779 141.732 126.449C141.805 126.695 142.121 126.875 142.157 127.155C142.178 127.329 142.067 127.571 142.136 127.77C141.62 127.757 141.472 127.689 141.27 127.22C140.913 126.39 140.825 125.374 140.504 124.528C140.128 124.012 139.677 124.747 139.125 124.603L139.569 124.034C140.378 123.651 140.531 123.165 140.278 122.311C140.204 122.06 140.019 122.097 139.994 122.022C139.901 121.741 139.846 121.269 139.889 120.975L139.715 121.087C139.893 120.533 139.592 120.462 139.456 120.105C139.261 119.592 139.024 118.662 138.953 118.122C138.936 117.997 138.895 117.636 139.049 117.596C139.094 117.584 139.445 117.739 139.462 117.764L139.463 117.766Z" fill="black"/>
<path d="M132.957 20.4988C133.036 20.5798 133.246 20.9892 133.037 21.0245C132.572 20.3467 131.726 20.3058 130.962 20.2916C130.811 20.3213 129.96 21.1601 129.857 21.342C129.244 22.4305 130.083 24.1098 130.368 25.2126C131.093 25.2456 131.628 24.6843 132.252 24.4169C132.345 24.377 133.039 24.1253 133.111 24.1071C134.812 23.6899 133.708 25.7979 133.957 26.6397C134.089 26.6437 134.204 26.6082 134.324 26.5591C134.472 26.4998 135.945 25.5948 136.039 25.5042C136.495 25.0655 136.369 24.3659 136.382 23.7845L136.658 23.7575C136.625 24.0308 136.855 24.2232 136.908 24.4423C137.238 25.8059 135.272 26.6236 134.44 27.3438C134.007 27.3505 133.648 27.3136 133.44 26.9012C133.367 26.757 133.241 26.163 133.245 26.0168C133.26 25.5575 133.744 24.9563 133.108 24.6156C132.903 24.5543 132.862 24.8348 132.782 24.8773C132.616 24.9663 132.401 24.9882 132.225 25.082C130.917 25.7738 130.454 25.7759 131.141 27.3291C131.521 28.1899 132.577 29.1007 132.609 29.9964C132.614 30.137 132.702 30.2601 132.492 30.2414C132.181 29.9446 131.942 29.5867 131.703 29.2345C131.213 28.5123 130.971 27.9072 130.598 27.1625C130.497 26.9611 130.158 26.4588 129.97 26.365L129.821 26.3347C129.244 26.6031 128.913 26.8185 128.26 26.6981C128.174 26.6822 127.738 26.5854 127.788 26.4479C127.879 26.199 129.635 25.9501 129.823 25.4918C129.79 25.339 129.708 25.204 129.693 25.0448C129.591 24.0027 129.277 23.2355 129.236 22.0967C129.231 21.9375 129.09 21.7354 129.102 21.6473C129.117 21.5422 129.302 21.5176 129.33 21.4597C129.386 21.3422 129.276 21.1501 129.388 20.9524C129.412 20.9089 130.035 20.2773 130.079 20.2459C130.39 20.0278 131.65 19.8741 132.023 19.9312C132.115 19.9456 132.886 20.4263 132.959 20.4987L132.957 20.4988Z" fill="black"/>
<path d="M130.372 125.645C130.972 125.745 131.31 125.302 131.79 125.155C132.27 125.009 132.931 124.942 133.436 124.766C133.711 124.034 134.235 123.323 134.802 122.785C135.317 122.295 135.261 122.468 135.883 122.405C136.15 122.378 136.504 122.086 136.665 122.481C136.848 122.925 136.063 123.61 135.732 123.892C135.402 124.174 134.39 124.722 134.182 124.998C134.046 125.176 133.862 125.961 133.87 126.195C133.891 126.77 134.301 126.941 134.637 127.334L136.071 127.314L136.338 126.928L137.017 126.868C136.876 127.388 136.47 127.292 136.208 127.435C136.082 127.504 136.021 127.645 135.912 127.702C135.047 128.154 133.505 127.851 133.146 126.874C132.802 125.94 133.484 125.087 131.92 125.517C131.592 125.607 131.109 125.972 130.83 126.195C130.685 126.31 130.748 126.612 130.265 126.449C129.884 126.319 129.867 125.499 129.75 125.109C129.347 123.77 129.182 122.398 128.785 121.103C128.566 120.387 128.164 119.706 127.846 119.032C127.798 118.932 127.724 118.831 127.887 118.78C128.386 118.623 129 119.863 129.152 120.24C129.691 121.573 129.651 122.99 130.064 124.31C130.208 124.767 130.604 125.03 130.373 125.644L130.372 125.645Z" fill="black"/>
<path d="M119.755 105.951C119.387 105.856 118.935 106.069 118.701 106.351C118.507 106.585 117.928 108.006 117.825 108.354C117.653 108.938 117.75 109.95 117.11 110.108C117.625 110.91 117.174 111.829 117.271 112.709L116.98 112.682C116.359 111.921 116.248 108.048 115.486 107.786C115.178 107.679 115.443 108.294 115.46 108.44C115.698 110.468 116.034 113.289 117.375 114.915C117.543 115.12 117.688 115.333 117.984 115.258C118.437 113.736 117.671 112.104 118.13 110.565C118.278 110.38 119.072 110.405 119.392 110.327C120.364 110.09 121.222 109.419 121.226 108.348C121.231 107.086 120.792 106.558 119.755 105.951ZM120.529 108.967C120.49 109.066 120.036 109.635 119.954 109.684C119.803 109.776 118.441 110.263 118.335 110.225C117.975 110.093 118.242 109.008 118.325 108.681C118.411 108.337 118.948 106.762 119.244 106.721C119.399 106.699 120.019 106.924 120.138 107.034C120.506 107.376 120.709 108.514 120.529 108.967Z" fill="black"/>
<path d="M30.3102 100.511L29.7907 100.851L29.8482 100.676L28.9712 99.72C27.4302 100.49 28.0523 104.51 30.0572 103.584C30.9597 103.167 31.8338 101.761 32.0667 100.813C32.1794 100.354 32.0222 99.3823 32.6694 99.8836C32.7772 100.836 32.5499 101.822 32.8692 102.745C32.9057 102.852 32.9027 102.926 33.0381 102.958C33.5618 103.081 35.1177 101.623 35.3612 101.147C35.8341 100.224 35.2201 99.6526 34.2669 99.9894C33.885 100.125 33.5359 100.799 33.1634 100.104C33.8503 98.7276 36.3691 99.3351 35.9944 100.989C35.9612 101.136 35.6661 101.913 35.5925 102.019C35.5426 102.091 34.479 103.083 34.3355 103.198C33.7553 103.661 33.1301 104.111 32.5697 103.42C32.3822 103.189 32.2141 102.479 31.9559 102.507C31.7539 102.528 30.7466 104.05 30.0546 104.265C29.3626 104.48 28.8233 104.292 28.3504 103.801C27.444 102.859 27.3282 101.26 27.6074 100.032C27.6211 99.9721 28.1098 99.192 28.1516 99.1617C28.298 99.0578 28.7432 99.1592 28.9438 98.9799C29.2846 99.5792 30.1267 99.7858 30.3083 100.511L30.3102 100.511Z" fill="black"/>
<path d="M146.646 56.0912C146.311 55.8772 145.141 55.2607 144.805 55.5223C144.784 55.6327 144.693 55.7845 144.69 55.8811C144.663 56.5956 144.92 57.4479 144.96 58.1587C145.013 59.0851 144.947 59.3392 143.931 59.1449C143.851 59.2404 144.042 60.4429 144.089 60.6617C144.131 60.8575 144.308 61.0691 144.313 61.2144C144.319 61.3643 144.149 61.4575 144.19 61.6675C144.218 61.8105 144.685 63.2757 144.735 63.3484C144.763 63.3886 144.925 63.3999 144.996 63.4901C145.318 63.8989 144.842 64.7553 145.613 64.9221C146.629 63.5972 145.466 61.9654 145.597 60.4782C145.73 60.1307 146.483 60.2106 146.775 60.127C147.617 59.8851 148.225 59.1924 148.208 58.2812C148.194 57.5005 147.28 56.4965 146.646 56.0912ZM145.08 61.5844C145.065 61.7232 144.999 61.8482 144.903 61.9474L144.293 59.999C144.294 59.9158 144.646 59.8917 144.733 59.9299C144.795 59.9576 145.078 60.3541 145.091 60.4771C145.109 60.6444 145.1 61.4152 145.08 61.5844ZM147.8 58.6742L147.54 58.7108C147.649 59.0075 147.181 59.4511 146.947 59.5552C146.904 59.5744 146.077 59.6962 145.99 59.699C145.866 59.7046 145.651 59.6751 145.557 59.5973C145.374 59.4451 145.279 57.6726 145.245 57.2836C145.219 56.9937 144.972 56.6721 145.418 56.4922C146.023 56.2463 147.497 57.4816 147.622 58.0973C147.645 58.2128 147.538 58.4082 147.613 58.4887C147.655 58.5342 147.858 58.4181 147.8 58.6742Z" fill="black"/>
<path d="M29.4788 81.5913C29.2866 81.3503 28.3238 80.7855 28.0444 80.7492C27.4036 80.6678 26.1064 80.9363 25.5618 81.3061C25.3843 81.4262 25.217 81.7657 24.9856 81.8388C24.7216 81.9224 23.7789 81.7555 23.7389 81.8043C24.1381 82.9351 23.4221 82.8274 22.8259 83.3088C22.4528 83.6114 22.5846 84.0265 23.0607 84.0249C23.0919 83.8471 23.9109 83.3291 23.9839 83.3706C24.2576 84.4856 24.5686 85.5821 24.8767 86.6872C25.0173 87.1921 25.2243 87.7287 25.3695 88.2621C25.5304 88.8509 25.4738 90.1448 26.3008 89.9661C26.4944 89.1418 25.7281 88.4896 25.7351 87.6528C25.7389 87.2432 26.3085 87.2446 26.6442 87.0549C27.6211 86.5019 29.8354 84.4837 30.0219 83.3668C30.1531 82.5804 29.9544 82.1868 29.4788 81.5913ZM29.4486 83.5759C28.9943 84.8712 27.8622 85.5244 26.8458 86.2841C26.4914 86.5485 26.2591 87.0336 25.6561 87.0335C25.2189 86.2876 25.1446 85.3914 24.9193 84.5622C24.8783 84.4092 24.7079 84.2866 24.671 84.1566C24.6404 84.0531 24.6014 82.8974 24.631 82.8385C24.6783 82.7404 26.21 81.6456 26.3974 81.5694C27.1756 81.2543 28.107 81.2102 28.8442 81.6401C29.5566 82.0546 29.7175 82.806 29.4486 83.5759Z" fill="black"/>
<path d="M135.25 60.5442C134.249 60.4381 133.051 60.1316 132.053 60.2102C131.529 60.251 129.272 61.0073 129.092 60.7661L128.803 58.9808C129.539 58.027 131.125 57.9939 131.943 57.3918C132.074 57.296 132.213 57.2113 132.163 57.02C131.724 56.932 131.458 57.3093 131.123 57.3961C130.92 57.4496 130.672 57.4046 130.487 57.4684C130.127 57.5913 129.036 58.2359 128.739 58.0882C128.557 57.5884 128.499 57.0296 128.402 56.4982C128.276 55.8079 128.177 55.0224 127.972 54.3071C127.905 54.0707 127.799 53.8512 127.73 53.6178L127.367 53.8074L128.205 58.4822C128.191 58.6209 127.586 59.2592 127.464 59.4888C127.226 59.9352 127.196 60.6865 127.525 61.0721C128.111 61.7587 128.486 61.3437 128.783 61.5063C128.81 61.5214 129.138 61.9678 129.151 61.9945C129.214 62.1192 129.135 62.2614 129.187 62.3601C129.545 63.0698 129.968 63.4406 130.175 62.3965L130.148 62.2805C129.832 62.1739 129.45 61.957 129.579 61.5754C129.71 61.1917 130.09 61.3004 130.359 61.1948C131.501 60.7461 132.425 60.5953 133.671 60.6233C134.193 60.6359 134.773 60.9195 135.332 60.8248L135.25 60.5441L135.25 60.5442ZM127.983 59.9577L128.246 59.9321C129.007 61.1808 127.698 61.0328 127.983 59.9577Z" fill="black"/>
<path d="M139.774 56.9576C140.266 57.4721 139.827 59.0397 140.272 59.4102C140.607 59.6896 141.538 58.8159 141.554 58.6714C141.564 58.5685 141.392 58.4863 141.367 58.3991C141.326 58.2582 141.433 58.0095 141.369 57.7653C141.312 57.5449 140.674 56.8278 140.892 56.6384C141.728 56.414 142.012 58.3511 141.895 58.8708C141.706 59.7133 140.413 60.9465 139.745 59.8353L139.304 57.5846C138.942 57.3321 137.214 57.7846 136.851 58.1648C136.992 58.4425 136.956 58.7459 137.024 59.0187C137.174 59.6272 137.492 60.3885 137.792 60.9834C137.896 61.1881 138.205 61.2925 138.118 61.6748C137.968 61.6866 137.793 61.7419 137.651 61.6745C137.508 61.6072 136.817 60.1899 136.761 59.9618C136.635 59.4462 136.713 58.4688 136.234 58.1175C135.897 57.8701 134.383 58.4343 134.006 57.7283C134.407 57.1455 135.237 57.613 135.707 57.5167C135.76 57.506 136.157 57.199 136.17 57.1726C136.196 57.1159 135.988 56.1785 135.97 55.9429C135.944 55.6128 136.015 55.2976 135.97 54.9142C135.916 54.4504 135.564 54.2662 136.205 54.0075L136.398 56.0021C136.604 56.2576 136.55 56.9356 136.735 57.0904C137.186 57.4678 139.242 56.4022 139.773 56.9586L139.774 56.9576Z" fill="black"/>
<path d="M55.2003 64.1016L55.366 64.2144C55.8143 64.3108 56.417 63.6195 56.8855 63.5495C57.1501 63.5097 57.9845 63.5321 58.2497 63.595C58.9301 63.7576 59.1789 64.4938 59.2974 65.1157C59.4014 65.6662 59.2481 66.551 59.4115 66.9461C59.4894 67.1329 60.2098 67.3149 59.8028 67.5564C59.1958 67.9164 58.8983 67.1307 58.8072 66.6463C58.636 65.7408 58.9238 64.2478 57.6528 64.1166C56.9581 64.0451 55.341 64.6653 55.6677 65.5986C55.7545 65.848 56.4213 66.7799 56.6222 67.0331C56.8813 67.3591 57.3289 67.4379 57.2567 67.9681C57.0603 68.2097 56.1875 67.4118 56.0289 67.2386C55.7359 66.9186 55.3913 66.3767 55.1806 65.9936C55.0593 65.7719 55.058 65.4534 54.9259 65.2645C54.8446 65.1472 54.6566 65.1496 54.6384 65.0776C54.6116 64.9756 54.7042 64.7685 54.6933 64.6182C54.6232 63.6412 54.3185 62.1891 54.8389 61.332C55.189 60.7551 56.4202 59.9427 57.0703 59.7663C57.4934 59.6512 58.5166 59.4113 58.4459 60.0918C58.1525 60.0737 58.1045 59.9354 57.7843 60.0068C56.9979 60.1807 54.9784 61.8164 55.0658 62.7132L55.2013 64.1024L55.2003 64.1016Z" fill="black"/>
<path d="M44.396 115.114C44.3831 115.077 44.0604 114.454 44.0351 114.423C43.3234 113.595 42.0951 113.041 41.0129 113.126C40.6328 113.156 40.1943 113.209 39.8085 113.247C39.5326 113.275 39.2443 113.483 38.9596 113.526C39.2378 115.424 38.4681 118.475 40.2111 119.804C40.6933 120.172 41.4594 120.545 42.0621 120.302C42.5382 120.11 43.8206 118.455 44.0608 117.947C44.515 116.984 44.7489 116.152 44.396 115.114ZM41.7574 119.538C40.5096 120.009 39.7752 118.364 39.6387 117.347C39.5702 116.844 39.4762 114.847 39.5638 114.408C39.7717 113.376 41.7126 113.554 42.4906 113.761C43.0968 114.321 43.8201 114.674 44.0004 115.597C44.241 116.832 42.919 119.102 41.7574 119.538Z" fill="black"/>
<path d="M147.528 82.808C147.249 83.0229 147.198 82.5384 146.99 82.5175C146.932 82.5119 146.281 82.8996 146.216 82.9648C146.077 83.1055 145.483 84.4593 145.424 84.6967C145.26 85.3526 145.257 87.9307 145.411 88.5903C145.679 89.7423 146.254 89.4022 147.18 89.212C148.177 89.0064 149.184 88.6419 150.193 88.4604C150.294 88.4421 150.531 88.3592 150.524 88.5198C149.757 89.0514 148.776 89.0592 147.925 89.4C147.689 89.4949 147.547 89.6677 147.327 89.7582C146.854 89.9529 146.261 89.7407 146.08 90.2656C146.015 90.4542 146.299 91.3852 146.379 91.6604C146.653 92.5877 147.209 93.4397 147.277 94.3945L147.05 94.4727C146.469 93.9771 146.49 93.4818 146.244 92.862C146.029 92.3205 145.704 91.7655 145.587 91.1752C145.554 91.013 145.659 90.7879 145.598 90.7004C145.582 90.6768 145.136 90.4633 145.072 90.4574C144.618 90.4139 143.896 90.7356 143.499 90.4304C143.21 90.2082 143.563 90.2877 143.609 90.2581C143.696 90.2001 143.738 90.0736 143.84 90.0338C144.106 89.9293 145.024 89.923 145.11 89.5483C145.282 88.8084 144.621 87.2229 144.731 86.4385C144.742 86.3655 144.891 86.3659 144.9 86.2941C144.987 85.6101 144.853 85.1027 145.081 84.3274C145.389 83.2809 145.956 82.7258 146.792 82.0733C147.269 81.9092 147.941 82.493 147.531 82.8096L147.528 82.808Z" fill="black"/>
<path d="M63.3161 132.921C63.3593 132.972 63.7042 133.001 63.8039 132.963C64.0045 132.889 64.5511 131.965 64.8787 131.713C65.3001 131.389 66.2565 130.77 66.7672 130.837C67.3989 130.92 67.8044 131.38 68.1389 131.867C68.3734 132.208 68.6857 133.193 68.7746 133.311C68.8174 133.368 69.2037 133.487 69.2583 133.712L70.2116 133.472C70.5342 133.454 69.8952 134.49 68.9718 134.158C67.6505 133.682 67.7263 130.665 65.9205 131.721C65.7803 131.803 65.0264 132.454 64.9062 132.588C64.544 132.993 63.8978 134.94 63.0842 134.499C62.5726 134.223 62.6533 131.341 62.5811 130.707C62.5684 130.596 62.4306 130.482 62.4092 130.349C62.3453 129.942 62.304 128.59 62.4074 128.227C62.5249 127.817 62.7995 127.899 62.9183 128.258C62.8503 129.596 63.1753 130.922 63.3397 132.226C63.3633 132.41 63.2342 132.826 63.3142 132.92L63.3161 132.921Z" fill="black"/>
<path d="M43.702 65.0068C43.098 65.2544 42.5238 66.9837 42.541 67.6286L42.1336 67.7608C42.0865 67.2207 42.1891 66.6669 42.0667 66.1285C42.0385 66.0024 41.9823 65.8555 41.8696 66.0095C41.755 66.9559 41.6044 68.2029 41.8086 69.1407C41.9436 69.7601 42.5666 71.1793 42.8573 71.8003C42.9717 72.0461 43.395 73.0904 43.6539 72.3804C43.8062 71.9638 43.2415 70.8182 43.1377 70.3173C43.0277 69.7908 42.9289 69.4276 43.3479 69.0607C44.0022 68.4877 45.649 67.818 45.9156 66.9202C46.1639 66.0823 44.4924 64.6821 43.702 65.0068ZM45.2734 66.9866C45.2082 67.12 43.6036 68.3855 43.3902 68.4997C43.2493 68.5751 43.1252 68.6209 42.9624 68.6143C42.9745 67.9741 43.1235 65.9181 43.85 65.722C44.4166 65.5687 45.551 66.4214 45.2734 66.9866Z" fill="black"/>
<path d="M36.3048 121.771C36.2353 122.109 35.6168 121.931 35.4897 121.621C34.9829 122.015 33.7485 121.446 33.2577 121.135C30.8716 119.622 31.405 115.562 32.6173 113.447C32.8993 112.956 33.479 112.353 34.0987 112.544C34.2179 112.581 34.7839 113.244 34.8149 113.332C34.8424 113.414 34.8727 114.059 34.7651 114.113C34.5745 114.184 34.151 113.855 34.1253 113.668C34.1044 113.52 34.3063 113.134 33.9346 113.165C33.5971 113.192 33.1393 113.793 32.9614 114.071C32.4275 114.904 32.0876 116.351 32.0632 117.333C32.0588 117.527 32.0918 118.898 32.1195 118.981C32.1418 119.047 32.2863 119.019 32.3131 119.093C32.3641 119.234 32.33 119.41 32.4057 119.584C32.4813 119.758 33.6623 120.964 33.8471 121.091C34.1067 121.268 34.6103 121.377 34.9041 121.255C35.0287 121.204 35.0646 121.056 35.1784 121.01C35.3264 120.949 35.5701 120.993 35.6518 120.933C35.951 120.713 35.3685 119.183 34.8971 119.032C34.039 118.758 33.873 119.578 33.1947 119.399C32.9464 119.079 33.7835 118.469 34.0716 118.394C34.617 118.252 35.4459 118.552 35.7395 119.04C35.7807 119.109 36.1377 120.046 36.1432 120.103C36.1776 120.455 36.355 121.529 36.3058 121.77L36.3048 121.771Z" fill="black"/>
<path d="M117.182 25.7497C116.54 25.5208 116.079 25.6386 115.488 25.928C115.021 26.1566 113.421 27.3319 113.587 27.9109C113.829 28.7561 115.379 27.454 115.742 27.2448C115.883 27.1638 116.095 27.1739 116.26 27.0756C116.554 26.9013 117.614 26.0477 117.802 26.076C118.338 26.1546 118.011 27.6299 118.052 28.0492C118.083 28.3676 118.452 29.3668 118.757 29.4782C118.995 29.5643 119.421 29.3742 119.56 29.5363C119.985 30.0321 118.806 29.906 118.569 29.8123C118.203 29.6667 117.894 29.1279 117.519 28.9691C117.45 28.6311 117.413 28.2694 117.39 27.924C117.376 27.7021 117.55 27.2041 117.263 27.1498C117.068 27.1127 115.306 28.288 114.948 28.4639C113.943 28.9571 113.691 29.0649 112.863 28.1618C112.795 27.9816 113.022 27.4072 113.131 27.2201C113.513 26.5615 114.874 25.3487 115.594 25.1636C116.087 25.0371 117.318 24.9694 117.183 25.7505L117.182 25.7497Z" fill="black"/>
<path d="M104.764 38.9295C104.46 38.9059 104.268 38.6621 103.937 38.6429C103.273 38.605 102.834 38.6533 102.558 39.2829C101.911 40.7558 103.081 43.4811 103.48 44.9867C104.01 45.1928 104.392 44.8146 104.766 44.6819C105.322 44.4848 106.013 44.1464 106.525 44.004C106.849 43.9135 107.239 43.9857 107.57 43.8012L107.597 44.077L103.848 45.8019L104.073 47.1347C103.564 47.3227 103.329 46.5037 103.177 46.1037C102.746 44.9657 102.372 43.4326 102.022 42.2268C101.844 41.6126 101.666 39.9061 101.744 39.2932C101.752 39.2316 102.105 38.3825 102.139 38.3418C102.76 37.5936 104.358 38.1946 104.765 38.9313L104.764 38.9295Z" fill="black"/>
<path d="M66.1883 80.2363L66.407 80.0711C66.983 80.2625 66.7942 80.735 66.83 81.1118C66.8464 81.2793 67.4366 82.3438 67.576 82.4825C68.2718 83.1762 69.2728 81.6762 69.5814 81.1612C69.8082 80.7822 69.6983 80.3911 70.2238 80.495C71.0278 80.6539 71.3812 81.8789 72.2047 82.1331C72.816 82.1324 73.173 80.2981 73.1418 79.7966L73.4946 79.7725C73.9845 80.4002 73.3661 82.7281 72.643 82.8434C72.2428 82.9067 71.5968 82.5511 71.2863 82.3114C71.0354 82.1182 70.6483 81.4935 70.2851 81.5625C70.0901 81.5993 69.3148 82.8904 68.9818 83.1368C68.3579 83.6004 67.4181 83.4537 66.9269 82.8607C66.8002 82.7077 66.3374 81.7568 66.3247 81.6263L66.1893 80.2371L66.1883 80.2363Z" fill="black"/>
<path d="M125.55 76.1792C125.221 75.4451 124.707 75.6615 124.164 76.0172C123.9 76.1915 123.339 76.8731 123.278 77.1677C123.241 77.3516 123.294 78.0183 123.432 78.1374C123.963 78.4603 124.085 78.1784 124.492 77.9912C124.617 77.9332 124.783 77.9572 124.902 77.9036C125.31 77.7208 125.856 76.6118 126.278 76.6622C126.416 76.6787 127.501 78.122 127.718 78.3494C128.639 79.3153 129.469 79.5268 130.769 79.4991C130.936 79.4959 131.065 79.4441 131.192 79.6027C130.944 79.8941 130.507 79.9189 130.152 79.9414C129.139 80.0056 128.148 79.7014 127.411 79.0361C127.113 78.7671 126.31 77.6401 125.997 77.6454C125.183 78.0312 124.554 78.8596 123.618 79.0387C123.246 79.1096 122.857 79.0494 122.727 78.6285C122.664 78.4244 122.819 78.2571 122.813 78.0689C122.808 77.8601 122.609 77.6375 122.621 77.4598C122.625 77.3893 123.042 76.4788 123.118 76.3471C123.519 75.6569 124.361 75.0272 125.189 75.1128C125.8 75.1756 126.092 75.8413 125.549 76.1783L125.55 76.1792Z" fill="black"/>
<path d="M119.459 127.504C119.535 127.788 119.991 128.472 120.334 128.405C120.723 128.329 121.212 126.982 121.726 126.862C121.928 127.046 120.999 128.387 120.767 128.583C119.651 129.53 118.92 128.228 118.595 127.261C118.443 127.171 117.597 128.362 117.407 128.537C116.126 129.719 114.854 128.839 115.392 127.222C115.442 127.07 115.638 127.034 115.694 126.87C115.833 126.457 115.718 126.585 115.957 126.152C116.449 125.257 116.536 125.087 117.373 124.548C117.423 124.516 117.416 124.346 117.526 124.295C117.636 124.244 118.633 124.098 118.408 124.38C117.707 124.68 116.965 125.315 116.565 125.97C116.266 126.463 115.339 128.665 116.582 128.376C117.217 128.23 117.691 127.458 118.047 126.935C118.327 126.526 118.202 126.702 118.386 126.282C118.532 125.947 118.722 125.63 118.823 125.273L119.237 125.235C119.385 125.918 119.286 126.857 119.459 127.505L119.459 127.504Z" fill="black"/>
<path d="M67.2184 66.9045C66.4548 67.3601 64.6344 67.3956 63.9823 66.7584C63.7124 66.4942 63.3394 65.5747 63.6064 65.2441C64.0372 64.7116 65.6169 64.4623 65.8641 63.6141C66.1844 62.5122 65.3019 61.6237 64.2032 62.0737C63.6144 62.3152 62.7195 64.187 62.7395 64.8699L61.5077 65.686C61.7246 66.0947 62.2839 65.6169 62.5352 65.7185C62.8778 66.0972 62.9412 66.5469 63.3476 66.9109C63.6601 67.1907 64.3318 67.5615 64.7447 67.5904C65.0985 67.6157 66.437 67.5113 66.7548 67.4159C66.8389 67.3899 67.3638 67.0192 67.2184 66.9045ZM63.5412 64.0882C63.6792 63.6777 64.6557 62.0988 65.1866 62.5441C65.3591 62.6879 65.4177 63.2036 65.2994 63.4048C65.169 63.6258 64.1483 64.2551 63.8554 64.4341C63.6277 64.574 63.4653 64.3133 63.5412 64.0882Z" fill="black"/>
<path d="M81.2993 47.303C81.2711 47.3291 80.7482 47.7295 80.7122 47.7526C80.5605 47.8506 79.8743 48.1922 79.6862 48.2694C79.3062 48.4251 78.6558 48.3315 78.5805 48.6771L78.4039 48.7008C78.325 48.3703 77.9044 48.501 77.5547 48.3361C77.0182 48.082 76.3327 47.2257 76.9165 46.7511C77.3292 46.4157 77.7042 46.4473 78.1737 45.9577C78.4874 45.6291 79.197 44.5238 78.7951 44.1294C78.1336 43.482 77.1945 44.1734 76.7564 44.7458C76.0221 45.7032 76.6146 46.3508 75.1739 46.6772C74.9514 46.7278 73.5759 46.7293 74.2936 47.2358C74.8371 47.62 75.5867 46.7724 75.98 47.3554C76.3461 47.899 76.4086 48.2245 77.0454 48.6474C77.1261 48.7012 77.6006 48.9408 77.6573 48.9493C77.8519 48.9761 77.9263 48.7642 78.0853 48.731C78.2933 48.6855 78.4648 48.8668 78.6553 48.8613C78.7046 48.8603 79.5056 48.7018 79.5479 48.6865C79.6506 48.6503 79.6204 48.4365 79.7178 48.412C79.7978 48.3912 79.9734 48.4815 80.1708 48.4221C80.6334 48.2826 81.7235 47.2943 81.9945 46.8522L82.2575 46.1753C82.1084 46.0609 81.4648 47.1551 81.2993 47.303ZM76.7755 45.8689C76.8017 45.7944 77.7586 44.7303 77.8264 44.6901C78.2851 44.4146 78.5671 44.9832 78.3515 45.3817C78.233 45.581 77.9862 45.5453 77.7739 45.6706C77.52 45.8197 77.4381 46.1275 77.3903 46.1621C77.265 46.2537 76.9343 46.1982 76.7644 46.2428C76.7417 46.1151 76.731 45.9956 76.7755 45.8689Z" fill="black"/>
<path d="M40.3785 67.9322C40.4959 68.2945 40.0272 68.4589 39.7328 68.4689C39.3872 68.4801 38.9072 68.1168 38.7048 67.8478C38.4426 67.4997 38.2254 66.3333 37.612 66.8864C37.4453 67.155 36.7116 68.2524 36.5079 68.3516C36.3958 68.4065 36.1116 68.2931 35.9586 68.4538C35.709 67.8531 34.9618 66.0106 34.1837 66.0976C33.2506 66.2017 32.8696 68.9661 32.3175 68.905C32.1312 68.6475 31.9867 68.0067 31.9557 67.679C31.9214 67.3273 32.027 67.0535 32.0472 66.7245C32.0709 66.3373 31.7985 65.9611 32.2484 65.8257C32.2266 66.1081 32.1631 67.0823 32.6033 67.0758C32.8574 67.0725 33.5026 65.6604 33.8906 65.4339C35.0742 64.7448 35.7938 67.3655 36.3694 67.3907C36.8702 67.4128 37.6813 65.8856 38.0436 65.9502C39.0466 66.5167 38.7816 68.4149 40.3785 67.9322Z" fill="black"/>
<path d="M33.241 36.0093C33.2985 36.0354 33.3899 36.3517 33.6407 36.4001C34.1935 36.5069 35.0778 36.075 35.5664 35.8097C35.7957 35.6855 36.8029 35.1575 36.488 34.8425C36.005 34.812 35.4639 34.4714 34.992 34.4399C34.7884 34.4261 33.9675 34.4464 33.8042 34.4828C33.6674 34.5139 32.9725 35.1292 32.8545 35.2762C32.6027 35.5903 32.452 36.4244 31.9829 36.1917C31.9045 36.1527 31.232 34.8084 31.1736 34.6403C30.855 33.7137 30.6397 32.4238 30.3843 31.4574C30.3387 31.2862 30.1242 31.1791 30.1543 30.9622C30.2897 30.9266 30.373 30.9502 30.4913 31.0163C31.2141 31.4223 31.4076 34.5932 32.0237 34.8517C32.6781 34.929 33.0236 34.1908 33.5954 34.0136C34.0531 33.8718 34.959 33.9096 35.4417 33.9952C35.7025 34.0418 37.0847 34.5012 37.1781 34.6659C37.328 34.9316 37.1018 35.4796 36.8508 35.677C36.2493 36.1514 34.6934 36.6628 33.9346 36.6611C33.7509 36.6603 33.0262 36.559 32.9179 36.4519C32.6352 36.172 32.9808 35.8926 33.2401 36.0094L33.241 36.0093Z" fill="black"/>
<path d="M88.0283 147.916C87.3899 147.849 86.5511 146.94 86.3409 146.343L85.7594 146.544L85.5866 146.33C85.5672 146.112 86.3358 145.267 86.4885 145.027C87.0724 144.105 87.0892 143.58 88.1461 142.987C88.2336 142.938 88.2782 142.793 88.3759 142.763C88.5269 142.715 89.0878 142.743 89.2393 142.863C89.3654 143.037 89.2633 143.797 89.1666 144C88.9593 144.435 87.5235 144.851 87.4011 145.354C87.3079 145.737 87.4642 146.384 87.6373 146.735C87.7557 146.974 88.1311 147.115 88.1217 147.44C88.3032 147.467 88.3522 147.233 88.503 147.23C88.6193 147.229 88.806 147.376 88.9562 147.406C89.2205 147.459 89.5116 147.385 89.7219 147.611C89.7374 147.637 89.5184 147.771 89.5046 147.773C89.1067 147.811 88.3702 147.952 88.0275 147.917L88.0283 147.916Z" fill="black"/>
<path d="M48.969 34.3433C48.2816 34.5869 47.7804 35.1057 47.0863 35.3463C46.073 35.6982 44.8714 35.906 44.5932 34.5719C44.8991 34.1823 45.3546 33.9501 45.6961 33.601C45.8004 33.4946 45.8188 33.3779 45.8899 33.2944C46.3802 32.7121 46.756 32.4176 46.3885 31.5257C46.2029 31.0748 45.3495 31.1636 44.9837 31.3123C44.6269 31.4573 44.0079 32.6884 43.9259 33.0804C43.8575 33.4112 43.9292 33.9938 43.8505 34.2098C43.7896 34.3783 43.4586 34.4629 43.3948 34.6887C43.3228 34.9442 43.5797 34.9211 43.7485 35.056C44.2841 35.484 44.6808 36.0732 45.4405 36.1028C46.828 36.1581 48.2324 35.4018 49.1332 34.3936C49.1281 34.1493 49.0861 34.302 48.969 34.3433ZM45.8116 31.8127C46.2509 32.5715 45.3341 33.3672 44.6723 33.5672C44.5597 32.8233 44.9431 31.8133 45.8116 31.8127Z" fill="black"/>
<path d="M114.077 123.243C114.103 123.252 114.109 123.376 114.182 123.387C114.37 123.416 114.67 123.249 114.782 123.517C114.256 123.595 113.786 123.5 113.25 123.576C112.915 123.624 112.264 123.721 112.231 124.098C112.178 124.691 112.473 125.868 112.672 126.456C112.974 127.351 114.007 128.83 114.154 129.527C114.182 129.66 114.217 130.239 113.995 130.234C113.391 130.223 113.406 129.47 113.2 129.023C112.718 127.978 111.99 126.673 111.81 125.537C111.709 124.904 111.835 124.185 111.51 123.57C111.106 123.37 108.921 124.226 109.052 125.012C107.876 124.877 109.252 123.672 109.746 123.411C110.416 123.058 110.766 123.149 111.416 123.001C111.571 122.965 111.639 122.783 111.843 122.788C112.079 122.795 112.879 123.237 113.24 123.274C113.512 123.301 113.867 123.17 114.076 123.242L114.077 123.243Z" fill="black"/>
<path d="M126.863 125.519C126.524 124.809 126.14 125.034 125.469 125.096L125.581 125.27C125.307 125.168 124.954 125.355 124.743 125.316C124.37 125.247 124.24 124.636 124.098 124.333L123.543 120.761L123.079 120.652C123.038 121.087 123.168 121.508 123.205 121.899C123.323 123.157 123.463 124.382 123.753 125.573C123.958 126.412 123.914 127.244 125.012 127.362C125.751 127.442 127.622 126.543 127.749 125.738C127.85 125.096 127.167 125.161 126.863 125.519ZM126.036 126.711C125.783 126.871 125.559 126.81 125.39 126.91C125.365 126.925 125.382 127.066 125.329 127.074C124.881 127.15 124.207 126.571 124.556 126.258C124.733 126.099 125.895 125.838 126.209 125.748C126.436 125.682 126.536 125.403 126.794 125.714C126.915 125.904 126.188 126.616 126.036 126.711Z" fill="black"/>
<path d="M25.4369 32.5724C25.5215 32.6268 25.877 33.0621 25.8011 33.1629C25.549 33.2248 25.4389 32.8889 25.2382 32.8571C25.1341 32.8411 24.7343 32.9464 24.6472 32.9988C24.5987 33.0278 24.0362 33.8255 23.9855 33.9266C23.6507 34.5937 23.012 36.703 24.1759 36.8549C24.9076 36.9508 25.1771 36.3602 25.6486 35.891C25.7489 35.7915 25.9222 35.7625 26.0049 35.6731C26.4134 35.2269 26.4253 34.4129 26.5104 33.8711C26.5329 33.7287 26.4267 33.6335 26.6418 33.6406C27.2636 33.6622 27.3194 35.4478 27.508 35.9012C27.6128 36.1536 28.4986 36.7988 28.7676 36.852C29.0365 36.9052 29.3397 36.8606 29.6057 36.7693C29.9105 36.6639 30.4203 35.8995 30.4683 36.5441C29.7706 37.4755 28.2484 37.3389 27.4432 36.6036C27.2037 36.384 26.8403 35.5814 26.6465 35.6012C26.481 35.7968 26.0781 36.0322 25.94 36.1737C25.4722 36.6528 25.3549 37.3706 24.5039 37.3985C23.9956 37.4144 23.089 36.7955 23.0225 36.2853C23.0163 36.2411 23.0653 35.472 23.0786 35.3978C23.1514 35.0067 23.9287 32.7989 24.165 32.6226C24.344 32.4893 25.2311 32.4402 25.4379 32.5732L25.4369 32.5724Z" fill="black"/>
<path d="M129.288 92.5553C129.28 92.6215 129.039 92.8814 129.021 92.8897C128.561 93.1092 127.863 93.281 127.384 93.0633C127.298 93.024 126.847 92.4682 126.777 92.3545C126.202 91.4333 126.218 90.091 124.738 91.1425C124.094 91.5995 123.163 92.4649 122.592 93.0353C122.347 93.2807 122.355 93.6919 121.833 93.5129C121.026 93.2365 122.039 92.6435 122.183 92.2708C123.159 91.7281 123.86 90.8105 124.85 90.2963C125.092 90.1708 125.566 89.9134 125.815 89.8901C126.941 89.7831 127.309 92.0475 127.946 92.6928L129.29 92.5551L129.288 92.5553Z" fill="black"/>
<path d="M59.291 99.3782C59.3784 100.16 58.9356 100.015 58.4476 100.257C58.0858 100.437 57.8878 100.72 57.4182 100.683C57.065 100.655 55.7451 98.9606 55.4054 99.0227C55.148 99.0692 54.8379 99.7694 54.7504 100.019C54.582 100.5 54.5178 102.088 53.9218 102.15C53.3257 102.211 53.1525 100.492 53.2068 100.065C53.3525 100.135 53.5542 100.1 53.6815 100.163C53.8019 100.223 53.7383 100.469 53.9797 100.364C53.9736 100.272 53.9457 100.149 53.9767 100.065C54.4078 98.8854 54.6015 97.4398 56.134 98.5134C56.4521 98.7366 57.2465 99.8681 57.4478 99.9158C58.0078 100.049 58.8142 99.6592 59.29 99.3774L59.291 99.3782Z" fill="black"/>
<path d="M113.423 107.58C113.457 107.512 113.968 107.264 114.093 107.226C114.16 107.207 114.768 107.128 114.604 107.356C113.82 107.697 113.988 108.529 113.804 109.211C113.648 109.795 113.268 110.762 112.898 111.232C112.387 111.881 111.748 112.298 110.914 111.912C109.61 111.306 108.762 109.67 108.931 108.258C108.958 108.034 109.138 107.854 109.276 107.692C109.7 107.939 109.538 108.495 109.63 108.917C109.832 109.84 111.029 112.089 112.131 111.153C112.966 110.443 113.328 108.908 113.507 107.868C113.523 107.775 113.394 107.637 113.422 107.581L113.423 107.58Z" fill="black"/>
<path d="M53.3002 133.066C53.0819 133.112 52.0385 133.47 51.8531 133.575C51.4079 133.827 51.3264 134.32 51.4659 134.786C51.5543 135.081 52.2683 135.387 51.7973 135.919C51.0156 135.95 50.9268 135.02 50.6783 134.45C50.4399 134.28 49.2167 135.251 49.181 134.311C49.5394 134.096 50.2923 134.085 50.3218 133.584C50.0726 132.405 49.5814 131.22 49.416 130.03C49.3596 129.623 49.1724 128.554 49.8363 129.102C50.115 129.332 50.0338 130.143 50.1197 130.518C50.1582 130.683 50.2967 130.803 50.3396 130.976C50.4395 131.379 50.7458 133.193 51.0414 133.338C51.7004 133.328 52.3462 133.012 53.0001 132.904C53.4945 132.822 54.0648 132.898 54.5764 132.754L54.7311 132.926C54.2748 133.006 53.7448 132.971 53.3001 133.065L53.3002 133.066Z" fill="black"/>
<path d="M109.313 90.493C109.398 90.536 109.513 91.0023 109.44 91.129C109.368 91.2556 107.81 91.6355 107.657 92.0446C107.519 92.416 108.047 93.0587 108.298 93.3379C108.867 93.9729 109.612 94.2151 110.217 94.8353C110.298 94.918 110.306 95.0873 110.362 95.1276C110.509 95.2311 110.752 94.9859 110.653 95.7075C110.618 95.9622 110.275 96.3405 110.034 96.3957C109.922 96.4216 108.833 96.4259 108.667 96.4132C108.228 96.3784 107.62 95.7724 108.013 95.6575C108.109 95.6294 108.829 96.0694 109.351 96.0027C110.71 95.83 109.148 94.6733 108.675 94.3288C108.409 94.1352 108.036 94.0305 107.796 93.8455C107.3 93.4623 106.507 92.5866 106.686 91.9235C106.789 91.5463 109.045 90.3575 109.313 90.493Z" fill="black"/>
<path d="M50.9416 30.9461C50.9981 31.2191 51.1942 31.5961 51.2889 31.87C51.4134 32.2287 51.3667 32.6005 51.7505 32.8854L53.6697 31.8266C54.619 31.6602 55.2527 30.7706 56.2276 30.6662C55.791 31.3311 54.8905 31.5964 54.2251 32.0368C54.1183 32.107 54.0648 32.2571 53.959 32.3281C53.6448 32.5372 52.2453 33.3249 52.1196 33.5361C51.7115 34.2253 53.1696 34.6988 53.0504 35.3691C52.5323 35.4458 51.8865 34.9117 51.5842 34.5161C51.4154 34.2952 51.36 34.0231 51.2281 33.837C51.1687 33.7531 50.9761 33.7569 50.9542 33.6656C50.934 33.5826 51.0142 33.3729 50.978 33.1924C50.7595 32.0897 50.2644 30.7777 50.2603 29.7027C50.26 29.5569 50.3008 29.4203 50.3139 29.2779C50.4235 29.1878 50.789 29.3811 50.7972 29.4644C50.8424 29.9281 50.8513 30.5074 50.9416 30.9461Z" fill="black"/>
<path d="M139.665 89.3137C138.768 89.8309 138.652 90.6626 138.918 91.6401C139.007 91.9678 139.705 93.0386 139.979 93.2464C140.228 93.4333 140.973 93.6288 141.249 93.5253C141.402 93.4683 141.918 92.7369 141.945 92.5605C142.147 91.244 141.219 89.1668 139.665 89.3137ZM140.81 93.0159C140.707 92.6962 140.3 92.6237 140.115 92.3587C139.667 91.7212 139.141 89.7301 140.433 90.2058C141.162 90.4739 141.93 92.7479 140.81 93.0159Z" fill="black"/>
<path d="M72.1121 29.3244C72.7623 29.5983 72.1107 31.8622 71.4787 32.1284C70.9594 32.3472 70.0183 32.139 69.539 31.8877C68.661 32.6899 67.8612 33.4817 66.684 32.6781C65.9782 32.1966 65.8081 31.1022 65.7022 30.3025C65.8473 30.2903 66.0037 30.2311 66.1275 30.3536C66.3359 30.5603 66.4806 31.3945 66.8218 31.7873C66.9026 31.8803 67.3393 32.2292 67.444 32.2713C68.065 32.5229 69.057 31.8955 68.9625 31.203C69.7592 31.0011 70.4508 31.938 71.2247 31.4926C71.4091 31.3868 71.6775 30.6879 71.7289 30.4605C71.7849 30.2122 71.7291 29.3823 71.767 29.3403C71.7896 29.3148 72.043 29.2947 72.114 29.3242L72.1121 29.3244Z" fill="black"/>
<path d="M57.3651 132.202L57.4205 131.824C56.7831 132.015 56.237 133.211 56.2319 133.866C56.218 135.941 58.1821 133.861 58.9317 133.453C58.9925 133.427 59.0077 133.535 58.9903 133.586C58.9593 133.679 58.1581 134.542 58.0245 134.663C57.3625 135.262 56.6955 135.83 55.8333 135.16C54.7322 134.304 56.0796 131.396 57.1177 130.849C57.8446 130.466 58.0738 130.752 58.3896 131.42C58.422 131.714 57.6858 132.259 57.3651 132.202Z" fill="black"/>
<path d="M126.446 57.6691C126.266 57.7119 126.194 57.5442 126.011 57.5275C125.334 57.4664 124.534 57.7248 124.094 58.2413C124.06 59.0014 124.227 59.4962 124.686 60.0775C125.188 60.7152 126.306 61.2266 126.101 62.1977C126.014 62.6108 125.364 63.1908 124.972 63.3103C124.446 63.4709 123.432 63.6547 122.884 63.6232C122.601 63.6069 122.136 63.2514 122.464 63.2045C122.573 63.1891 123.008 63.356 123.316 63.3148C123.726 63.259 124.763 62.8205 125.091 62.5569C126.011 61.815 125.11 61.4226 124.672 60.9234C124.402 60.6144 123.666 59.7331 123.558 59.3802C123.486 59.1443 123.432 58.6366 123.447 58.3895C123.473 57.9085 124.058 57.2619 124.506 57.1342C125.085 56.9684 126.406 56.8415 126.446 57.67L126.446 57.6691Z" fill="black"/>
<path d="M89.2828 93.2837C90.0037 92.8397 90.3541 93.3465 90.7269 93.9389C90.9079 94.2277 90.996 94.5573 91.2215 94.8913C91.447 95.2262 91.7602 95.561 92.085 95.805C92.3527 95.7789 93.2858 93.696 93.3406 93.3505C93.399 92.9842 93.2983 92.61 93.4702 92.2233C94.6565 92.0777 93.8416 94.0725 93.5705 94.6474C93.4601 94.8814 92.7611 96.1343 92.6396 96.2648C92.2809 96.6482 91.8251 96.5712 91.4418 96.2816C91.2044 96.102 89.5616 94.0123 89.3885 93.7087C89.3143 93.5786 89.2595 93.4373 89.2847 93.2844L89.2828 93.2837Z" fill="black"/>
<path d="M99.8873 44.6201C99.4825 43.8617 99.284 44.1482 98.8417 43.8746C98.7168 43.798 98.7408 43.5855 98.4527 43.565C97.5555 43.5011 96.5168 45.2365 96.3834 46.0287C96.2185 47.0043 96.7866 48.0038 97.7313 48.2872C98.677 48.5716 99.4656 47.9229 99.8748 47.1206C100.31 46.2643 100.351 45.4895 99.8873 44.6201ZM99.3579 47.3149C99.183 47.5384 98.1385 48.028 97.902 47.9641C97.8551 47.951 97.3119 47.4938 97.2525 47.4202C96.6921 46.719 96.9791 45.7725 97.3989 45.0785C97.5908 44.7618 98.4212 43.7484 98.8006 44.0272C99.0486 44.2095 99.1379 44.7623 99.2805 45.0492C99.3489 45.1865 99.5425 45.261 99.5945 45.3924C99.7777 45.8473 99.6661 46.9204 99.3579 47.3149Z" fill="black"/>
<path d="M72.1885 45.1922C72.1663 44.831 71.7584 44.6811 71.4394 44.6981C70.1063 44.7702 70.7938 45.886 71.2782 46.5619C71.7895 47.2754 72.6949 48.0542 73.0524 48.8537C73.4301 49.6969 72.6824 50.2015 71.9776 50.4281C71.5592 50.5623 70.4369 50.6951 70.0332 50.5691C69.9265 50.5356 69.2732 50.0677 69.6299 50.0263C69.7266 50.015 70.0129 50.3029 70.1458 50.3283C70.8636 50.4638 71.2678 50.1068 71.8006 49.8558C72.3335 49.6049 72.9087 49.7982 72.4987 48.8049C72.0123 47.6293 70.1435 46.6529 69.8705 45.2678C69.6411 44.0999 72.2235 43.8117 72.48 44.4827C72.5599 44.6907 72.3997 45.323 72.1904 45.193L72.1885 45.1922Z" fill="black"/>
<path d="M67.8842 145.486C68.1045 145.72 67.9975 146.429 67.6693 146.427C67.4268 146.426 67.104 145.906 66.8815 146.491C66.8118 146.904 67.5927 147.63 67.8909 147.917C68.3917 148.398 68.9492 148.81 69.5399 149.171L69.567 149.287C69.5589 149.988 68.5151 151.04 67.8267 151.005C67.7115 151 67.6102 150.888 67.5264 150.889C67.4194 150.89 67.3549 151.099 66.9372 150.944C66.4218 150.753 65.9261 150.477 66.1715 149.858C66.7867 149.859 66.6664 150.518 67.1838 150.644C67.2841 150.668 68.0873 150.734 68.1154 150.697C68.1327 150.674 68.0611 150.513 68.1101 150.442C68.1495 150.387 68.3249 150.379 68.4037 150.299C68.5817 150.117 68.8816 149.627 68.8081 149.38C68.7276 149.108 66.6817 147.75 66.2916 147.276C65.9215 146.826 65.5939 146.42 66.1743 145.986C66.739 145.565 67.254 145.628 67.8842 145.486Z" fill="black"/>
<path d="M88.7548 60.222C89.3579 60.0987 89.8741 60.3175 90.484 60.2449C90.7374 60.2156 93.4317 59.44 93.4514 59.623C92.9758 59.9833 92.3494 60.021 91.8318 60.2462C91.6351 60.3317 91.5036 60.5221 91.3293 60.5988C90.6181 60.913 89.6269 60.9078 88.8931 60.6757C89.0013 61.4313 89.0715 62.2849 89.2148 63.0287C89.3016 63.4789 89.6478 63.8273 89.438 64.3616C88.6329 64.3542 88.7817 63.7296 88.6699 63.1752C88.5311 62.4871 88.4787 61.8167 88.3715 61.1563C88.243 60.3644 88.0004 59.5584 87.8642 58.7635C87.8593 58.3024 88.6014 58.6393 88.6247 58.8781L88.7556 60.221L88.7548 60.222Z" fill="black"/>
<path d="M83.4034 45.502C84.0766 45.5914 84.7787 45.1735 85.3671 45.1199C85.6009 45.099 86.1358 45.1085 86.3999 45.1117C86.5398 45.113 86.6862 45.1044 86.7376 45.2685C86.2368 45.4556 85.6139 45.3948 85.1422 45.6137C84.971 45.693 84.8955 45.8461 84.7716 45.9039C84.0976 46.2172 83.198 46.2339 83.6196 47.2607C83.666 47.3739 84.1542 47.9841 84.2729 48.1211C84.4264 48.2995 85.398 48.9831 84.4341 48.8566C83.9923 48.7987 84.0646 48.4796 83.9001 48.2639C83.2282 47.3858 83.2177 47.3448 83.0069 46.2432C82.7418 44.8629 82.8841 43.6074 82.9677 42.1996C82.9986 41.6846 82.9109 41.1288 83.1653 40.6602C83.2465 40.7476 83.4146 40.8181 83.4695 40.9127C83.6161 41.1638 83.3097 42.9352 83.3053 43.4159C83.2988 44.1042 83.4669 44.8053 83.4031 45.4992L83.4034 45.502Z" fill="black"/>
<path d="M81.7163 140.014C81.731 140.03 81.9148 140.032 82.006 140.127C82.4403 140.576 82.4584 141.851 82.6162 142.495C82.8252 143.348 83.0854 144.219 83.3265 145.049C83.4755 145.563 84.0133 145.793 83.7498 146.551L84.126 146.614L83.9646 146.862C84.0827 147.021 84.3176 146.926 84.4435 147.003C84.5455 147.065 84.5497 147.233 84.6218 147.303C84.7928 147.47 85.1591 147.46 84.8381 147.753L84.1551 147.716C83.6684 146.825 83.0307 146.105 82.6494 145.148C82.0772 143.715 81.9172 142.294 81.5995 140.832C81.5046 140.394 81.031 140.154 81.7315 139.74L81.7163 140.013L81.7163 140.014Z" fill="black"/>
<path d="M146.843 27.7086C146.777 27.5711 146.72 27.4263 146.623 27.3049C145.937 26.4421 145.337 25.885 145.146 24.7525C144.94 23.5244 145.029 22.7346 145.109 21.572C145.153 20.9548 145.098 20.2501 145.252 19.6455C145.328 19.3504 145.529 19.214 145.756 19.4525C145.959 19.6644 145.684 21.2057 145.679 21.6173C145.668 22.5976 145.765 23.6662 145.893 24.5871C146.032 25.5855 146.122 26.1606 146.779 27.0103C147.022 27.3239 147.731 27.6164 146.843 27.7086Z" fill="black"/>
<path d="M25.7779 65.4264C25.21 65.4706 24.7468 65.327 24.2131 65.6266C23.0705 66.2678 24.4414 67.6822 25.1153 68.151C25.7892 68.6197 27.4094 68.9775 26.37 70.0458C25.5322 70.9076 23.2499 71.2526 23.85 69.4544C24.2502 69.4873 24.079 69.7002 24.1839 69.9067C24.5272 70.5787 25.5891 69.9996 26.0439 69.7123C26.2713 69.0053 25.247 68.8043 24.8456 68.5108C24.6429 68.3624 23.8671 67.7083 23.744 67.5456C23.4992 67.2238 23.1518 66.2318 23.2269 65.8358C23.314 65.3807 24.3444 65.0046 24.7538 64.9591C25.1327 64.9166 25.8861 64.8917 25.778 65.4273L25.7779 65.4264Z" fill="black"/>
<path d="M21.4291 31.3458L19.7714 31.8083L18.4583 32.4306L18.9473 33.6984C19.1564 35.2794 20.1136 36.5988 20.6844 38.0567L20.1661 38.0166C19.9533 37.5263 19.7249 37.0384 19.4926 36.5575C19.4015 36.3692 19.2381 36.2319 19.1532 36.0393C18.8986 35.4643 18.3047 32.6801 18.0537 32.5055C17.9077 32.4039 17.1298 32.6844 16.9028 32.7644C16.4487 32.9245 15.4097 33.5575 15.0729 33.5632C14.9305 33.5649 14.835 33.5705 14.7382 33.4473C14.7076 33.2484 15.15 33.054 15.3126 33.0007C16.1805 32.7162 17.1525 32.286 17.9793 31.7709C19.1298 31.8615 20.2869 31.36 21.4291 31.3458Z" fill="black"/>
<path d="M87.3712 80.4634C87.5073 80.7987 87.0614 80.9477 86.801 80.9815C86.1264 81.0697 85.1194 79.8888 84.8798 79.3049C84.4345 78.2168 84.1307 75.4547 84.2539 74.2711C84.2987 73.8416 84.912 73.9762 85.0005 74.2908C85.0988 74.64 84.9362 75.3715 84.9534 75.7866C84.9858 76.5589 85.2102 78.2963 85.4998 78.9632C85.7991 79.6525 86.4835 80.8798 87.3703 80.4644L87.3712 80.4634Z" fill="black"/>
<path d="M60.479 113.475L60.1934 113.462C59.9804 113.342 60.1944 112.889 59.9169 112.968C59.7146 113.025 59.348 113.413 59.2407 113.602C58.7822 114.407 58.5368 115.875 59.5187 116.359C60.2333 116.71 60.7242 116.316 61.267 115.871C61.5113 115.67 61.5576 115.352 61.9147 115.296C62.0588 115.274 62.074 115.267 62.0668 115.423C61.4101 116.707 59.5869 117.823 58.5424 116.305C57.7953 115.22 58.3993 113.528 59.1332 112.577C59.498 112.103 59.7066 112.054 60.2697 112.332L60.4798 113.474L60.479 113.475Z" fill="black"/>
<path d="M119.546 92.054C119.273 91.7106 118.853 91.6376 118.509 91.4535C118.181 91.2789 118.079 90.874 117.559 91.0957C117.095 91.2932 116.756 92.9669 116.898 93.4137C117.021 93.7969 117.746 94.1906 118.133 94.1968C119.129 94.2118 120.315 93.0226 119.546 92.054ZM119.148 92.9626C117.784 94.2392 117.359 93.0585 117.838 91.7103C118.019 91.5601 119.393 92.423 119.148 92.9626Z" fill="black"/>
<path d="M78.9332 77.1783C79.2094 77.4784 78.939 77.8402 78.9704 78.0567C78.9853 78.1617 79.1214 78.2671 79.151 78.4184C79.384 79.6224 79.5546 81.5258 80.4416 82.4409C80.5494 82.5519 80.9307 82.9071 81.0381 82.9564C81.6501 83.2406 82.5408 82.2914 82.8934 81.8356L83.1336 81.957C83.1873 82.4787 82.7902 82.4399 82.564 82.6722C82.453 82.7858 82.4254 82.9529 82.319 83.0651C81.2888 84.1522 79.6489 82.7891 79.245 81.7242C78.9362 80.9087 78.5574 79.0406 78.5719 78.1852C78.5779 77.8548 78.7943 77.56 78.6657 77.1969L78.9351 77.1781L78.9332 77.1783Z" fill="black"/>
<path d="M83.7497 31.5023C83.8663 31.5993 84.8763 32.0073 84.7159 32.1874C83.5192 32.2255 82.7054 31.5453 82.2435 30.4878C81.8005 29.4715 81.3477 27.2836 81.428 26.1957C81.4482 25.9247 81.6418 25.8843 81.8774 25.9585L81.9604 26.0644C82.0327 26.9393 82.2622 27.7831 82.4927 28.6276C82.6174 29.0845 82.6932 29.3359 82.8738 29.8219C83.1113 30.4602 83.1835 31.0287 83.7487 31.5015L83.7497 31.5023Z" fill="black"/>
<path d="M80.101 31.7034C79.9521 32.8148 78.554 32.8418 78.0228 31.906C77.6379 31.2269 77.6269 29.0595 77.5228 28.1634C77.4595 27.6192 77.1678 27.046 77.3533 26.4533C78.058 26.5116 77.7983 26.9649 77.9245 27.4655C78.1173 28.2287 78.2492 28.8839 78.3247 29.6782C78.4067 30.5288 78.1918 31.4215 78.9887 32.0819C79.4224 32.0844 79.6045 31.6107 80.1009 31.7025L80.101 31.7034Z" fill="black"/>
<path d="M36.0083 150.275L35.9441 150.554C36.5126 150.649 36.7678 151.154 37.1957 151.47L37.5076 152.28C36.7676 151.774 36.2816 150.21 35.2088 151.022C34.4025 151.633 34.1105 154.106 33.7722 155.033L33.4869 155.061C33.2929 154.964 32.9206 153.611 33.0021 153.463C33.0711 153.339 33.3907 153.3 33.5235 153.209C33.8794 152.969 34.2879 151.184 34.6958 150.684C34.9971 150.313 35.5607 150.225 36.0083 150.275Z" fill="black"/>
<path d="M47.3727 61.265C47.691 60.8686 48.1979 62.4346 48.2437 62.6367C48.4477 63.5343 48.3628 66.4015 49.1723 66.8944C49.4358 67.0546 49.8112 66.7078 49.8841 66.9586C49.9288 67.1112 49.537 67.3942 49.4095 67.4253C48.9389 67.5403 48.284 66.7783 48.1632 66.3518C48.0599 65.9901 47.8994 65.4816 47.8383 65.1035C47.6333 63.8416 47.5918 62.5274 47.3726 61.264L47.3727 61.265Z" fill="black"/>
<path d="M143.006 25.7584C143.317 25.9737 141.801 26.6028 141.64 26.5475L141.758 26.3481C141.51 26.4181 141.396 26.0593 141.337 26.0323C141.21 25.9755 141 26.0941 140.902 26.0439C140.83 26.0078 140.324 24.7258 140.285 24.568C139.976 23.3378 140.306 21.9293 139.637 20.85C140.014 20.8011 140.478 21.0044 140.601 21.3829C140.888 22.2585 140.722 23.734 140.949 24.6901C141.006 24.934 141.475 26.0011 141.697 26.0569C142.162 26.1733 142.526 25.6566 143.005 25.7585L143.006 25.7584Z" fill="black"/>
<path d="M65.0054 115.624C65.2185 115.764 65.5822 115.795 65.8301 115.862L65.7373 116.325C65.537 116.393 64.3942 115.626 64.1711 115.45C64.068 115.368 64.0577 115.186 63.9676 115.122C63.9166 115.086 63.7884 115.148 63.705 115.066C62.7875 114.174 63.0048 112.273 62.9634 111.131C62.9546 110.897 62.8167 110.697 62.8057 110.498C62.7858 110.151 63.2372 108.94 63.4465 109.595C63.4896 109.732 63.2985 110.687 63.3122 110.999C63.3354 111.524 63.5374 113.205 63.6904 113.655C63.8959 114.262 64.4967 115.291 65.0064 115.624L65.0054 115.624Z" fill="black"/>
<path d="M93.3127 57.2539C93.2607 57.457 93.0195 57.5543 92.8306 57.5858C92.3958 57.6572 91.4804 57.5315 90.9698 57.571C90.1659 57.6326 88.2076 57.8404 87.639 58.3274C87.578 58.3801 87.5636 58.4815 87.5639 58.5609C87.4199 58.6898 86.9953 58.2734 87.3118 57.9062C87.4031 57.8001 87.5422 57.8025 87.6245 57.7197C87.7195 57.6235 87.7292 57.4647 87.8294 57.3736C88.1991 57.0367 90.1318 57.0436 90.726 57.0389C91.1023 57.0368 93.1638 57.075 93.3109 57.255L93.3127 57.2539Z" fill="black"/>
<path d="M39.2497 30.5425C39.2241 30.9113 39.5404 31.1925 39.6166 31.4952C39.9219 32.7053 40.1696 34.3283 40.7983 35.4433C40.9764 35.7595 41.406 35.9792 41.4062 36.4109C41.278 36.4346 41.1616 36.445 41.035 36.3985C40.0524 36.0421 39.1136 32.6365 38.9819 31.6487C38.9317 31.277 38.9295 30.939 38.9746 30.5693L39.2497 30.5425Z" fill="black"/>
<path d="M113.272 94.4745C113.359 94.5183 113.521 94.453 113.627 94.4548L113.661 94.7663C113.324 95.2047 112.454 94.5729 112.233 94.2376C112.117 94.0611 111.759 93.1327 111.71 92.9076C111.641 92.5911 111.726 92.3211 111.687 92.0848C111.664 91.9376 110.875 90.4206 111.318 90.3802C111.439 90.5067 111.651 90.5467 111.768 90.6597C112.29 91.1665 112.379 92.6649 112.627 93.3423C112.678 93.4812 113.214 94.4455 113.272 94.4754L113.272 94.4745Z" fill="black"/>
<path d="M52.1283 68.9369C52.1722 69.1195 52.1607 69.0879 52.0342 69.1572C50.8893 69.7846 50.2601 68.579 50.2383 67.5898C50.2271 67.1125 50.4149 65.2817 50.5972 64.9051C50.7439 64.603 50.938 64.4141 50.9792 64.8753C51.018 65.3116 50.7803 65.9804 50.7711 66.4111C50.7633 66.7902 50.9127 68.4948 51.0752 68.7181C51.2948 69.02 51.7973 69.0028 52.1273 68.937L52.1283 68.9369Z" fill="black"/>
<path d="M77.5911 82.4451C77.7519 83.7692 76.3485 82.9101 75.905 82.3759C75.3304 81.6836 75.5401 80.5074 75.2711 79.6787C75.692 80.0291 75.7978 80.7224 76.027 81.1905C76.3667 81.8834 76.6698 82.7741 77.5911 82.4451Z" fill="black"/>
<path d="M51.8933 121.982C51.6372 122.299 51.2325 121.303 51.1771 121.136C50.9807 120.546 50.6232 119.298 50.5666 118.698C50.5413 118.439 50.6537 118.1 50.5547 117.812C51.2011 117.711 51.0323 118.427 51.1243 118.826C51.2295 119.284 51.243 119.499 51.3226 119.923C51.3832 120.249 52.072 121.76 51.8924 121.982L51.8933 121.982Z" fill="black"/>
<path d="M74.5596 30.4824C74.9629 31.2064 74.9005 32.1338 76.0189 31.9145C76.048 32.3564 75.5298 32.6806 75.1356 32.6331C74.5142 32.5592 74.0392 31.0713 74.0188 30.5183L74.5596 30.4824Z" fill="black"/>
<path d="M28.9249 69.9832C28.3807 70.1372 27.9212 69.1234 27.815 68.6937C27.7088 68.264 27.8437 67.736 27.8136 67.4082C27.7966 67.2333 27.574 67.1391 27.5294 66.9688C27.4867 66.8076 27.5872 66.6053 27.5619 66.4228C27.525 66.1591 27.3758 65.9196 27.3854 65.6449C27.5291 65.6944 27.7199 65.9215 27.7727 66.0518C28.0685 66.7817 28.0815 67.9576 28.3473 68.7717C28.4921 69.2144 28.8785 69.5364 28.9258 69.9831L28.9249 69.9832Z" fill="black"/>
<path d="M143.803 113.301C143.901 113.636 143.803 113.964 143.806 114.283C143.807 114.42 143.935 114.552 143.922 114.716C143.914 114.803 143.419 116.301 143.366 116.371C143.28 116.484 143.038 116.46 142.911 116.568C142.77 116.168 143.115 115.958 143.215 115.67C143.258 115.545 143.464 114.915 143.469 114.855C143.489 114.629 143.287 113.94 143.327 113.633C143.36 113.375 143.552 113.271 143.803 113.301Z" fill="black"/>
<path d="M154.392 58.4052C154.661 58.3677 154.968 58.321 155.195 58.5128C155.321 58.7453 155.335 59.0448 155.125 59.2269C154.762 59.4641 154.28 58.7506 154.392 58.4052Z" fill="black"/>
<path d="M94.9088 146.516C95.0232 146.676 94.9489 147.147 94.8263 147.285C94.5776 147.564 94.0354 146.906 94.3211 146.462C94.4448 146.269 94.8451 146.427 94.9098 146.517L94.9088 146.516Z" fill="black"/>
<path d="M38.5582 153.488C38.3801 153.965 38.9562 154.463 38.1869 154.458L38.0875 153.439L38.5582 153.488Z" fill="black"/>
<path d="M141.19 45.3857C141.216 45.8551 140.822 45.6132 140.605 45.6409C140.401 45.6663 140.203 45.937 139.935 45.8818C139.809 45.2522 140.802 45.5086 141.19 45.3866L141.19 45.3857Z" fill="black"/>
<path d="M15.654 139.448C15.2753 139.254 15.4517 138.617 15.3538 138.262C15.8972 138.444 15.5106 139.02 15.654 139.448Z" fill="black"/>
</g>
<g filter="url(#filter1_d_767_102205)">
<circle cx="157.55" cy="145.55" r="8.55" fill="url(#paint2_linear_767_102205)"/>
</g>
<defs>
<filter id="filter0_f_767_102205" x="0.1896" y="0.0697265" width="179.67" height="183.241" filterUnits="userSpaceOnUse" color-interpolation-filters="sRGB">
<feFlood flood-opacity="0" result="BackgroundImageFix"/>
<feBlend mode="normal" in="SourceGraphic" in2="BackgroundImageFix" result="shape"/>
<feGaussianBlur stdDeviation="2.45" result="effect1_foregroundBlur_767_102205"/>
</filter>
<filter id="filter1_d_767_102205" x="148.6" y="137" width="17.9" height="17.8996" filterUnits="userSpaceOnUse" color-interpolation-filters="sRGB">
<feFlood flood-opacity="0" result="BackgroundImageFix"/>
<feColorMatrix in="SourceAlpha" type="matrix" values="0 0 0 0 0 0 0 0 0 0 0 0 0 0 0 0 0 0 127 0" result="hardAlpha"/>
<feOffset dy="0.4"/>
<feGaussianBlur stdDeviation="0.2"/>
<feComposite in2="hardAlpha" operator="out"/>
<feColorMatrix type="matrix" values="0 0 0 0 0 0 0 0 0 0 0 0 0 0 0 0 0 0 0.25 0"/>
<feBlend mode="normal" in2="BackgroundImageFix" result="effect1_dropShadow_767_102205"/>
<feBlend mode="normal" in="SourceGraphic" in2="effect1_dropShadow_767_102205" result="shape"/>
</filter>
<linearGradient id="paint0_linear_767_102205" x1="46.1023" y1="99.2031" x2="179.102" y2="167.703" gradientUnits="userSpaceOnUse">
<stop offset="0.697815" stop-color="#717171" stop-opacity="0.2"/>
<stop offset="1" stop-color="#D7D7D7" stop-opacity="0"/>
</linearGradient>
<linearGradient id="paint1_linear_767_102205" x1="81.6023" y1="-4.29688" x2="93.0152" y2="164.076" gradientUnits="userSpaceOnUse">
<stop stop-color="#878359" stop-opacity="0.42"/>
<stop offset="0.0501" stop-color="#F6EEA8"/>
<stop offset="0.075" stop-color="#A9A870" stop-opacity="0.49"/>
<stop offset="0.1" stop-color="#8B895B"/>
<stop offset="0.16" stop-color="#B3B276"/>
<stop offset="0.23" stop-color="#D2CD8A"/>
<stop offset="0.33" stop-color="#F5EDA7"/>
<stop offset="0.42" stop-color="#FDF6B1"/>
<stop offset="1" stop-color="#FCF7B1"/>
</linearGradient>
<linearGradient id="paint2_linear_767_102205" x1="155.25" y1="136.55" x2="165.75" y2="156.75" gradientUnits="userSpaceOnUse">
<stop stop-color="#C62817"/>
<stop offset="0.38" stop-color="#B22415"/>
<stop offset="0.56" stop-color="#A51506"/>
<stop offset="0.765" stop-color="#C62817"/>
<stop offset="0.865" stop-color="#60130B"/>
<stop offset="0.975" stop-color="#60130B"/>
</linearGradient>
<clipPath id="clip0_767_102205">
<rect width="147" height="130" fill="white" transform="translate(5 32.2637) rotate(-5.56842)"/>
</clipPath>
</defs>
</svg>
