<svg width="183" height="184" viewBox="0 0 183 184" fill="none" xmlns="https://www.w3.org/2000/svg">
<g filter="url(#filter0_f_767_102210)">
<path d="M12.1423 15.7832L163.62 9.69586L173.613 167.606L18.6907 175.138L12.1423 15.7832Z" fill="url(#paint0_linear_767_102210)"/>
</g>
<path d="M10.1923 13.2813L164.126 8.75393L168.653 162.687L14.7197 167.215L10.1923 13.2813Z" fill="#FDF7B2"/>
<path opacity="0.4" d="M10.1923 13.2813L164.126 8.75393L168.653 162.687L14.7197 167.215L10.1923 13.2813Z" fill="url(#paint1_linear_767_102210)"/>
<g clip-path="url(#clip0_767_102210)">
<path d="M136.459 91.0987C135.237 91.5221 133.226 91.2744 131.927 91.1788C130.444 91.0691 127.951 91.0157 126.777 90.0412C126.293 89.6399 126.29 88.8514 126.68 88.3723C127.636 87.8862 130.43 87.3391 129.932 85.793C129.897 85.6881 129.677 85.4874 129.577 85.4285C128.785 84.9557 127.472 86.2313 126.961 86.7935C126.648 87.1391 126.46 87.6674 125.988 87.8019C125.793 87.8574 124.958 88.0001 124.745 88.0222C123.761 88.1286 122.563 87.85 121.721 87.3251C121.222 87.0157 120.861 86.2797 120.574 87.4746C120.428 88.0846 120.657 89.2595 120.222 89.609C119.553 90.1458 118.422 90.2834 117.767 89.6409C117.505 89.3834 117.321 88.7079 116.94 88.7503C116.665 88.7811 116.741 89.0877 116.657 89.2792C116.433 89.7835 116.016 90.3914 115.375 90.2188C115.093 90.1432 114.826 89.3 114.427 89.0005C113.181 88.0626 112.222 88.9391 110.991 89.1547C109.855 89.3537 110.678 88.1685 110.664 87.6968C110.657 87.4685 110.507 87.2829 110.474 87.0641C110.437 86.8241 110.518 86.1811 110.358 86.0775C109.893 85.7771 109.816 86.3346 109.76 86.6614C109.674 87.1632 109.663 88.9708 109.481 89.2083C109.393 89.3225 108.79 89.879 108.647 89.9963C108.401 90.198 107.697 90.645 107.442 90.7776C105.232 91.9306 104.463 91.4298 103.953 89.0554C103.221 88.6425 102.907 89.4905 102.534 89.8847C102.18 90.2589 101.292 91.1576 100.795 91.2172C100.585 91.242 100.377 90.912 100.57 90.7383C101.415 89.8015 102.37 88.7775 103.653 88.533L103.743 87.9147C103.333 87.9027 102.942 88.0352 102.556 88.147C100.998 88.6001 99.3893 88.8536 97.8019 89.247C97.3523 89.3587 96.9404 89.697 96.457 89.7286C96.2217 89.7176 95.9706 88.898 95.7153 88.6519C95.5754 88.5175 95.1677 88.2788 94.9861 88.2193C94.3334 88.0053 94.3053 88.3021 93.9069 88.6489C93.7029 88.8265 93.5381 89.1151 93.1924 88.9086C92.7825 87.836 92.8531 86.5762 92.6191 85.4432C92.7376 85.1478 92.6544 83.659 92.347 83.6035C92.1969 83.5939 92.1492 83.7062 92.1293 83.8339C92.0416 84.4077 92.1443 86.0703 92.202 86.7143C92.3114 87.9384 92.6267 89.4828 92.9085 90.6839C93.1129 91.5563 93.1426 92.4268 94.0338 92.9184C94.2738 93.0502 94.5675 93.2323 94.7896 92.9636C94.8662 92.871 94.9777 92.5411 94.9421 92.429C94.8363 92.0965 94.3666 92.3252 94.1354 92.2642C93.3917 92.0676 93.5843 90.5079 93.3675 89.9239C93.3707 89.7665 94.3172 88.9205 94.5023 88.8386C94.9654 88.6332 94.9878 89.0336 95.193 89.2943C95.2864 89.412 95.4519 89.5074 95.5138 89.6037C95.8563 90.1446 95.8623 91.0619 96.6072 91.4167C97.0266 91.5174 97.1434 90.6557 97.2875 90.4218C97.5976 89.9136 98.8032 89.7484 99.3596 89.5834C99.8429 89.4397 100.309 89.1196 100.895 89.1575C101.252 89.5033 99.3721 90.6908 99.8694 91.4625C99.9007 91.5106 100.35 91.8132 100.417 91.8329C101.015 92.0056 101.285 91.6717 101.788 91.4769L103.215 90.1744C103.592 90.1233 103.603 90.6306 103.776 90.8841C104.234 91.5555 105.402 92.0784 106.205 91.8886C106.955 91.7117 107.609 91.0677 108.172 90.8625C108.295 90.8186 109.194 90.5988 109.253 90.6044C109.575 90.632 109.476 91.399 109.525 91.6671C109.666 92.4317 110.229 92.9111 110.941 93.1449C111.496 92.8635 111.88 91.6778 110.943 91.7011C110.904 91.743 111.077 92.4899 110.736 92.4264C110.236 92.0157 109.981 91.0201 110.21 90.4312C110.293 90.2193 111.75 89.6469 112.055 89.5522C112.551 89.3985 113.488 89.1662 113.941 89.5123C114.057 89.6001 114.68 90.3731 114.512 90.5257C114.773 90.481 114.901 90.7579 115.105 90.7874C115.252 90.8087 116.076 90.5988 116.215 90.5286C116.543 90.3613 116.438 89.8509 116.878 89.8818C117.152 89.9016 117.588 90.3032 117.9 90.4253C118.757 90.7604 119.623 90.7077 120.412 90.2266C121.05 89.8373 121.046 88.6586 120.833 88.03C121.546 87.7437 121.986 88.4013 122.697 88.5161C123.097 88.5807 123.755 88.6888 124.148 88.7226C124.518 88.7542 125.419 88.5051 125.613 88.5838C125.857 88.6844 125.674 89.6669 125.914 90.0263C125.954 90.0875 126.921 90.9116 127.03 90.9755C127.762 91.4107 128.851 91.476 129.699 91.5837C131.74 91.8422 134.113 91.9342 136.134 91.4046C136.314 91.3574 136.522 91.3532 136.65 91.1935C136.675 90.9982 136.597 91.0508 136.459 91.0987ZM128.837 86.0239C129.257 85.9503 129.461 86.3809 129.23 86.6267C129.201 86.6585 128.58 86.9256 128.453 86.9848C128.234 87.0871 127.99 86.9234 128.188 87.2145L127.733 87.0001C127.7 86.8773 128.676 86.0528 128.837 86.0239Z" fill="black"/>
<path d="M156.969 121.553C156.342 121.569 154.333 120.883 153.87 120.427C153.573 120.134 153.598 120.019 153.954 119.823C154.696 119.412 155.63 119.274 155.985 118.331C156.346 117.376 155.136 116.848 154.339 117.025C153.993 117.102 153.022 117.893 152.806 118.201C152.658 118.412 152.687 118.599 152.62 118.798C152.594 118.875 152.466 118.872 152.455 118.936C152.425 119.09 152.489 119.267 152.446 119.44C152.316 119.97 151.016 119.782 150.542 119.823C150.22 119.85 149.886 120.022 149.56 120.029C149.306 120.034 148.407 119.917 148.199 119.792C147.701 119.494 147.229 118.294 147.698 117.815C147.925 117.582 149.444 117.359 149.029 116.792C148.84 116.721 148.586 116.528 148.389 116.531C148.038 116.538 146.794 117.678 146.325 117.778C146.446 118.051 146.086 118.044 146.002 118.221C145.704 118.849 146.522 119.238 146.134 119.666C145.876 119.951 144.818 120.371 144.422 120.58C144.023 120.789 144.198 120.691 143.734 120.807C142.974 120.996 142.639 121.31 141.937 120.657C141.345 120.107 141.266 119.231 140.837 118.581C140.471 118.436 140.073 118.485 139.699 118.393C139.291 118.294 138.108 117.799 137.787 117.996C137.753 118.018 137.693 118.215 137.602 118.3C137.482 118.411 137.231 118.591 137.163 118.675C136.918 118.979 136.901 119.564 136.603 119.811C136.289 120.07 135.136 120.483 134.728 120.494C134.005 120.512 133.808 119.689 133.307 119.303C132.278 118.512 132.107 119.655 131.253 119.942C131.241 119.492 130.95 118.875 130.944 118.461C130.941 118.23 131.078 118.042 131.101 117.821C131.189 116.976 130.563 115.777 130.358 114.923C130.245 114.453 130.311 113.919 130.051 113.478L129.742 113.491C129.781 114.193 129.747 114.905 129.796 115.607C129.865 116.613 130.206 117.75 130.048 118.75C130.021 118.925 129.832 119.05 129.887 119.252C130.479 119.204 130.706 120.726 131.065 120.836C131.603 121.001 132.187 120.056 132.484 120.021C132.982 119.959 133.009 120.312 133.344 120.557C133.891 120.958 134.237 121.063 134.914 120.927L136.432 120.349C136.681 120.365 136.871 120.977 137.039 121.194C137.785 122.16 138.713 122.273 139.7 121.533C140.31 121.075 140.384 120.555 140.024 119.898C139.867 119.612 139.184 118.978 139.154 118.874C139.118 118.754 139.169 118.592 139.269 118.57C139.317 118.559 140.14 118.834 140.212 118.869C140.735 119.128 140.768 120.431 141.129 120.953C141.478 121.454 142.477 121.909 143.085 121.77C143.994 121.561 144.171 120.916 145.317 121.349C146.06 121.629 146.467 121.77 147.342 121.609C148.057 121.476 148.506 120.756 148.963 120.604C149.929 120.283 151.352 120.543 152.354 120.144C152.829 120.44 153.108 120.82 153.615 121.112C154.704 121.737 155.913 121.904 157.154 121.913C157.413 121.915 158.502 121.929 158.598 121.788L158.631 121.512L156.969 121.553ZM139.175 121.209C138.249 121.609 137.419 120.846 137.478 119.942C137.487 119.787 138.053 118.515 138.138 118.458C138.27 118.368 138.578 118.508 138.656 118.613C138.739 118.724 138.722 118.93 138.805 119.057C139.153 119.593 140.231 120.751 139.175 121.209ZM146.53 118.13L146.669 118.263C146.759 118.563 146.595 118.796 146.337 118.935L146.226 118.126L146.53 118.13ZM147.593 121.056C147.116 121.453 146.232 121.081 145.64 121.192L145.5 121.063L145.482 120.759C146.131 120.716 146.842 120.422 147.5 120.528C147.804 120.578 147.822 120.865 147.593 121.056ZM153.029 119.042C153.011 118.972 153.696 118.133 153.81 118.06C153.861 118.028 154.415 117.779 154.47 117.764C154.842 117.664 155.209 117.792 155.489 118.036C155.56 118.097 155.5 118.191 155.528 118.236C155.563 118.29 155.794 118.18 155.58 118.384C155.184 118.763 153.304 120.063 153.029 119.042Z" fill="black"/>
<path d="M75.4874 90.918C74.7482 90.5809 75.295 88.5011 75.3294 87.8566C74.8825 87.1832 74.4848 88.4129 74.2418 88.6243C74.0864 88.7589 73.9697 88.8089 73.7232 89.0604C73.0841 89.712 72.3689 90.3033 71.7497 90.9712C71.5896 90.9895 71.0293 90.5714 70.9547 90.4239C70.6683 89.8567 70.5837 88.7422 70.3021 88.1536C70.2058 87.9542 70.033 87.8909 69.8626 87.7778C69.6358 87.7523 68.9256 89.0378 68.7915 89.2821C68.4617 89.4628 67.8909 90.6149 67.6108 90.6219C67.0914 90.6322 66.6619 88.9529 66.3509 88.6441C65.4552 87.7543 64.8854 89.6933 64.7099 89.6977C64.3439 89.2454 64.745 88.5793 64.6242 88.0409C64.6283 87.9554 64.4426 87.9778 64.3978 87.9932C64.104 88.0921 64.0038 89.8326 64.099 90.1663C63.9267 90.3706 63.5825 90.3285 63.3965 90.4479C63.2621 90.5348 62.7637 91.246 62.5174 91.4335C61.4913 92.2165 60.78 91.8946 60.2376 90.8058C59.178 88.6816 60.2828 86.2164 60.1876 83.9998C60.175 83.7085 60.1533 82.8751 59.7734 82.9673C59.6304 82.9593 59.4502 83.4145 59.4262 83.52C59.3374 83.9054 59.4016 84.4541 59.3246 84.8152C59.3095 84.8858 59.1665 84.876 59.1522 84.9439C58.9934 85.6876 59.51 87.4118 58.9599 87.9741C58.608 88.3349 58.0234 88.0446 57.61 88.1109C56.9784 88.212 55.1196 89.6025 54.7426 90.1311C54.3904 90.6253 54.2923 91.2101 54.0143 91.7255C53.4931 91.7732 52.7958 92.0848 52.3478 91.7217C52.3098 91.6907 51.987 91.3004 51.9757 91.2732C51.9033 91.1096 52.0095 90.9958 51.9847 90.8889C51.9629 90.7987 51.8537 90.7223 51.8321 90.602C51.6964 89.855 51.7948 89.2142 51.7752 88.4635C51.4614 88.29 51.2691 87.9409 50.8971 87.8897C50.8108 87.8786 50.3132 87.9096 50.2377 87.9426C49.1 88.4466 47.6516 90.2546 47.7054 91.5219C47.7277 92.0236 47.8684 92.3695 48.4166 92.4447C49.0493 92.5312 49.731 91.8074 50.136 91.3688C50.2984 91.1932 51.0283 89.9143 51.2676 90.5485C51.3892 90.8717 51.4339 91.3498 51.632 91.6462C51.6513 91.6751 52.1212 92.0954 52.1535 92.1097C52.7039 92.3449 53.6655 91.9991 54.2454 92.0318C54.6495 92.0546 55.0706 92.3313 55.5019 92.2707C56.2186 92.1684 57.4164 90.9472 57.8472 90.3675C58.1535 89.9563 58.1622 89.9481 58.4971 89.5805C58.7388 89.3149 58.8294 88.4636 59.4216 88.9894L59.3687 89.9633C59.8435 90.6147 59.7015 91.4299 60.5196 91.8016C61.3763 92.1909 62.2065 92.1969 62.9335 91.5485C63.2146 91.297 63.4717 90.582 63.9643 90.8098L63.9886 91.4306C65.0747 91.3448 64.9163 89.6863 65.8587 89.3187C66.5016 89.9215 66.6578 90.8857 67.3789 91.4216C67.4888 91.4562 67.5895 91.4386 67.697 91.4083C68.3082 91.2384 69.3978 89.0918 69.652 89.0419C70.013 88.9716 70.131 90.0034 70.2366 90.256C70.4884 90.8569 71.0522 91.4883 71.7689 91.4242C71.9185 91.4106 72.5419 90.947 72.699 90.8098C73.0002 90.5471 74.0152 89.1758 74.117 89.1324C74.2311 89.0842 74.3342 89.0958 74.4531 89.0964L74.4857 90.4025C74.4882 90.5047 74.8166 91.0495 74.9184 91.1483C75.5483 91.7629 76.3967 91.3203 76.8309 90.7032C76.4774 90.0755 76.1988 91.2426 75.4874 90.918ZM49.0286 91.808L48.349 91.8659C48.1179 91.6334 48.1257 91.3078 48.1883 91.0058C48.2413 90.7493 48.8395 89.6293 49.0152 89.4213C49.2857 89.1008 50.9137 88.0556 51.2214 88.5173C51.7318 89.2825 49.4057 91.1719 49.0286 91.808ZM56.9823 90.0753C56.9324 90.2099 57.0513 90.3518 57.0059 90.5245C56.8691 91.048 55.3579 92.2219 55.0819 91.2926L56.6727 90.2154C56.313 90.0866 55.9325 90.4402 55.6779 90.651C55.4815 90.8132 55.2474 91.3489 54.9401 91.1174C54.643 90.6892 55.8203 89.8171 56.1263 89.6059C56.4009 89.4159 58.0063 88.4255 58.1694 88.9193C58.298 89.3108 57.1094 89.7307 56.9823 90.0753Z" fill="black"/>
<path d="M54.6755 72.5721C53.1698 73.2559 50.9744 74.2717 49.4194 74.6839C49.1586 74.7526 48.9159 74.7995 48.644 74.7796C48.6581 73.9232 48.7944 73.0592 48.8317 72.2066C48.8387 72.0606 48.7348 71.8792 48.743 71.6727C48.7577 71.2687 49.0797 69.3137 48.7651 69.1073C48.3395 68.8299 48.167 69.9126 48.1198 70.1911C47.8288 71.9284 48.3194 72.5376 47.2668 74.2139C46.6731 75.1586 45.6929 76.4339 44.5303 75.3685C44.0502 74.9289 43.4961 73.1931 42.8064 73.2058C42.6406 73.2082 41.6493 73.6801 41.4847 73.8015C41.1207 74.0702 41.2248 74.2961 40.6497 74.4207C40.4732 74.458 40.3375 74.3476 40.1513 74.4571C39.8917 74.6085 39.7833 75.0664 39.5288 75.2781C39.1978 75.5548 37.6924 76.4289 37.3048 76.4982C36.6223 76.621 35.7283 76.3694 35.8172 75.5235C35.8573 75.142 37.0907 74.6712 37.4242 73.8877C37.931 72.6962 37.4556 71.5212 36.423 72.7525C35.7314 73.5778 35.02 75.1398 35.282 76.2205C35.2959 76.278 35.8835 76.7976 36.0135 76.8531C37.09 77.3116 38.032 76.7823 38.9592 76.2302C39.2546 76.0548 39.316 75.671 39.856 75.8096L39.8711 76.5595C40.2971 76.8912 40.1876 76.5881 40.3582 76.4238C40.8691 75.9301 40.7684 75.8366 41.0868 75.2686C41.4493 74.6194 42.0224 74.0584 42.7151 73.7762C42.9773 73.7652 43.2635 74.4666 43.4268 74.683C43.7689 75.1377 44.4106 76.0098 44.9648 76.1125C45.1724 76.1508 45.448 76.1413 45.6564 76.1077C46.3154 76.0014 46.7763 75.4939 47.1548 74.9866C47.4251 74.6233 47.5149 73.9206 48.0871 74.0716C48.1737 74.8758 48.2805 75.2457 47.4481 75.6176C47.244 76.1481 47.9042 76.0907 48.1872 76.4162C48.4722 76.746 48.7697 78.1877 49.3517 77.8727C49.9161 77.567 49.1355 76.885 49.0283 76.6397C48.731 75.9581 49.1713 75.6911 49.7049 75.3951C50.9917 74.6802 52.4229 74.2089 53.7456 73.6203C54.1184 73.4545 55.8806 72.7074 55.8705 72.3022C55.858 71.8002 54.9316 72.4563 54.6755 72.5721ZM36.4304 73.7284C36.5264 73.6629 36.7087 73.6477 36.7311 73.6222C36.8164 73.5214 36.5912 73.2043 36.9139 73.2701L36.8907 73.9063C36.7429 74.1322 36.0773 73.9719 36.4304 73.7284Z" fill="black"/>
<path d="M73.9271 60.8136C73.9485 61.1393 73.7953 61.1129 73.6161 61.2178C73.5776 61.2401 73.5762 61.3584 73.5205 61.366C73.4188 61.3783 73.3039 61.2887 73.1891 61.3076C73.1114 61.3211 73.0357 61.4492 72.9135 61.4603C72.4003 61.5068 71.2012 61.4683 70.7237 61.2748C70.5678 61.212 70.3177 61.0334 70.3953 60.8403C70.7311 60.0069 71.0423 61.1415 71.1128 61.1584C71.784 61.1533 72.3913 61.147 73.0297 60.9248C73.0657 60.7684 72.9605 60.747 72.8891 60.6581C72.1488 59.7422 71.9273 59.9299 71.4842 58.6261C71.4114 58.411 71.4577 57.8142 71.1129 57.8184C70.3256 58.1154 69.5185 58.2173 68.8096 58.7035C67.8129 59.3871 68.4452 59.5634 68.1769 60.4706C68.1442 60.5817 67.7585 60.9398 67.6631 60.9555C67.3231 61.0138 67.1371 60.0245 67.0166 59.8177C66.7526 59.3655 66.1411 60.2369 65.9062 60.4188C65.6025 60.6549 64.3738 61.635 64.1438 61.7278C63.1306 62.138 62.0856 61.5596 61.9072 60.4847C61.881 60.3245 61.9612 60.1962 61.9458 60.0766C61.9126 59.8143 60.0007 58.756 59.784 58.7418C59.5504 58.7272 59.1124 60.0148 58.9345 60.2779C58.6788 60.655 58.3012 60.9863 57.8111 60.9256C57.675 60.9085 56.9024 60.55 56.7494 60.4613C55.9747 60.0139 55.5417 58.9036 55.2473 58.0868C55.4678 57.7169 55.8818 58.0657 55.9537 58.3537C55.9971 58.5296 55.8667 58.7071 55.93 58.8264C55.9803 58.9211 56.194 58.9923 56.2941 59.0965C56.906 59.7337 57.6586 60.9658 58.5239 59.8854C59.1948 59.0481 59.0109 58.5389 59.0952 57.6166C59.1795 56.6944 59.8054 57.7518 59.9462 57.8843C60.1987 58.1225 61.2811 59.0655 61.5387 59.1177C62.4309 59.2973 62.231 58.8906 62.4845 58.3865C62.656 58.0452 63.4709 56.9697 63.7626 56.7917C64.0981 56.5869 64.629 56.6456 64.7132 57.0703C64.7335 57.1747 64.6161 57.2309 64.6093 57.3156C64.5993 57.4474 64.6822 57.5324 64.6331 57.7008C64.5817 57.8799 63.7598 59.0988 63.6054 59.2351C63.4258 59.3943 62.5452 59.7896 62.4959 59.9829C62.5873 60.6945 62.8172 61.3777 63.645 61.2504C64.1291 61.1761 66.3737 59.5732 66.6641 59.1615C66.8449 58.9054 66.8964 58.3031 67.2503 58.0934L67.21 58.3638C67.9259 58.7273 68.0505 58.3152 68.6284 58.0884C69.1176 57.8957 69.7764 57.7486 70.2983 57.6582C70.5755 57.6104 70.8923 57.687 71.1761 57.6159C71.4599 57.5448 72.2651 56.617 72.6558 56.3886C73.2642 56.032 74.4218 56.2192 74.1559 57.1157C73.1655 57.3751 71.9943 57.175 72.1627 58.5568C72.2363 59.163 73.1264 60.3926 73.6076 60.7335C73.7033 60.8014 73.8145 60.8173 73.9279 60.8109L73.9271 60.8136Z" fill="black"/>
<path d="M114.062 31.1521C113.217 31.4666 112.507 31.5421 112.465 30.4265C112.451 30.0748 112.615 29.7284 112.53 29.3652C112.494 29.2043 112.15 29.0279 111.946 29.2233C111.813 29.3511 111.392 30.3617 111.203 30.6251C110.925 31.0116 109.606 31.9354 109.253 31.5076C108.804 30.9641 109.797 29.7712 110.208 29.4124C110.366 29.276 111.111 28.7542 111.283 28.6788C111.619 28.5326 112.112 28.6973 112.055 28.1404C111.578 27.9816 110.963 28.1623 110.539 28.4093C109.762 28.8625 108.863 29.7535 108.498 30.5956C108.42 30.7772 108.472 30.9981 108.36 31.1672C108.222 31.3751 107.375 31.6309 107.127 31.5304C106.646 31.3344 106.798 30.9332 106.717 30.5894C106.708 30.5478 106.517 30.4637 106.441 30.3145C106.168 29.7798 106.059 29.3558 105.541 28.9465C104.724 28.3001 104.394 28.7626 103.659 28.7187C103.485 28.7079 103.345 28.5576 103.247 28.5778C102.845 28.6607 102.417 29.9347 102.2 30.3064C101.965 30.707 100.638 31.9456 100.278 32.079C99.9403 32.2048 99.6086 32.2033 99.3298 31.9773C98.4328 31.2494 98.9748 30.2597 98.7724 29.3295C98.7194 29.089 98.5139 29.0621 98.4494 28.9277C98.3801 28.7836 98.4297 28.601 98.3722 28.502C98.2703 28.325 97.8671 28.303 97.6689 28.3595C97.5809 28.3848 96.8785 28.8122 96.7538 28.8962C96.2113 29.2635 95.661 29.7093 95.3776 30.2925C95.3506 30.3483 95.2212 30.3515 95.2062 30.4248C95.1762 30.5731 95.1995 30.8677 95.2378 31.0187C95.3174 31.3279 96.059 31.9406 96.3842 31.929C96.5375 31.9243 97.2741 31.4445 97.4554 31.3208C97.5836 31.2332 97.641 31.0451 97.7096 31.0202C98.1086 30.8752 98.0347 31.3624 98.2054 31.6631C98.325 31.8735 99.3141 32.664 99.5365 32.6905C100.016 32.7461 101.118 31.987 101.521 31.6782C101.783 31.4779 102.022 30.9874 102.413 30.9928C102.442 30.8409 102.324 30.9319 102.292 30.9069C102.14 30.7871 102.282 30.7195 102.36 30.6358L102.627 31.5537L103.018 31.88C103.821 31.3141 103.457 29.3345 104.609 29.2711C105.562 29.2189 105.957 30.6457 106.389 31.1959C106.622 31.4906 106.945 31.6861 107.157 32.0142L108.399 31.5894C108.667 31.5934 109.101 32.4547 109.77 32.3429C109.806 32.3367 110.372 32.0594 110.416 32.0289C110.584 31.9118 111.024 31.3746 111.21 31.2224C111.785 30.7519 111.765 31.0369 112.086 31.2912C112.267 31.4334 112.829 31.8817 113.01 31.902C113.358 31.9414 113.76 31.4281 114.113 31.3313L114.062 31.1521ZM96.2231 31.2307C96.0271 30.8053 95.9048 30.6305 96.1877 30.2029C96.4159 29.8585 97.83 28.5946 97.97 29.4428C98.0577 29.9741 96.8563 31.302 96.2231 31.2307Z" fill="black"/>
<path d="M127.224 32.5337C126.371 32.571 125.776 32.6169 124.91 32.4847C124.386 32.4053 123.468 31.829 123.321 31.2833C123.211 30.878 124.373 30.2844 124.651 29.993C124.755 29.8847 125.253 29.1921 125.28 29.0972C125.305 29.0059 125.374 28.3028 125.355 28.2348C125.343 28.196 124.919 27.5887 124.883 27.5682C124.282 27.2374 122.809 28.3276 122.528 28.8484C122.167 29.5189 122.256 29.8803 122.278 30.5447C122.296 31.0786 122.072 30.9873 121.879 31.1752C121.683 31.365 121.487 31.6162 121.272 31.7833C120.982 32.0102 118.993 33.3515 118.792 33.3796C118.656 33.3981 118.565 33.3906 118.501 33.2553C118.558 32.2768 119.352 30.6497 118.121 30.1158C117.217 29.7232 116.7 30.4509 115.878 30.0687C116.351 28.9482 117.706 28.5402 118.801 28.2844C118.998 28.2386 119.179 28.3932 119.337 28.0932C119.196 27.9803 119.013 27.8239 118.832 27.7955C117.816 27.6333 116.347 28.4434 115.632 29.1324C115.249 29.502 114.956 29.8418 114.999 30.3955C115.945 31.2521 116.901 30.5277 117.992 30.6018C118.484 31.8271 117.715 33.6323 117.059 34.7128C116.694 35.314 115.797 35.9729 116.544 36.7695C116.782 36.8142 117.158 35.9656 117.283 35.8052C118.414 34.3563 119.407 33.9786 120.748 32.9548C121.088 32.6956 122.419 31.2933 122.837 31.6705C122.863 31.6948 122.83 31.8414 122.878 31.8927C123.421 32.4783 123.437 32.2645 124.014 32.4982C124.148 32.5517 124.167 32.7318 124.334 32.812C125.088 33.1773 126.413 33.0607 127.199 32.8606C127.387 32.8124 127.533 32.6549 127.725 32.6146C127.718 32.4556 127.337 32.5282 127.224 32.5337ZM122.901 30.3025C122.893 29.5141 123.149 28.9992 123.817 28.5816C124.67 28.0492 125.228 28.3757 124.548 29.2355C124.479 29.3226 124.257 29.5557 124.174 29.6271C124.073 29.7141 123.229 30.3183 123.172 30.3411C123.075 30.3791 122.999 30.2858 122.901 30.3025Z" fill="black"/>
<path d="M40.6069 28.2114L39.0106 28.781L38.9956 30.4563C38.5854 30.6879 38.2979 29.7545 38.2683 29.4583C38.2399 29.1718 38.3618 28.9039 38.3218 28.5804C38.3062 28.451 38.0522 27.5834 37.9998 27.4389C37.6894 26.5861 37.1801 28.0701 37.0671 28.2676C36.6201 29.0487 35.6344 30.1001 34.7497 30.3666C34.1846 30.5372 33.227 30.4757 33.5492 29.6675C33.6251 29.4772 34.526 28.8635 34.7058 28.5701C34.9717 28.1367 35.0505 27.0635 34.4363 26.9401C33.4898 26.7503 33.2386 27.7043 32.9351 28.3733C32.7839 28.7096 32.5434 28.8116 32.655 29.3369L32.5463 29.4969C32.0488 29.64 31.5633 29.8717 31.075 30.0288C30.9219 30.078 30.7529 30.0573 30.6015 30.1046C30.3771 30.1742 29.8899 30.6247 29.5923 30.2863C29.3742 30.0383 29.0129 28.4595 29.0654 28.1124C29.1852 27.3297 29.7485 26.7316 30.4635 27.3806C30.7419 26.8793 30.1033 26.5218 29.6665 26.5016C29.0787 26.4736 28.5624 27.5009 28.5071 28.0205C28.3974 29.0279 28.8579 29.6431 29.1036 30.5669C28.9302 30.621 28.7367 30.6481 28.569 30.7181C28.0415 30.9366 27.561 31.0881 27.029 31.2721C26.3168 31.5183 26.9453 32.1445 27.4874 32.2262C27.5835 32.2398 28.3288 32.287 28.372 32.2779C28.4152 32.2679 29.0794 31.8362 29.1087 31.8034C29.258 31.6361 29.3366 31.2341 29.5923 31.0686C29.9676 30.8254 31.057 30.6258 31.5301 30.4629C31.8335 30.3575 32.4874 29.8736 32.7832 30.068C32.8517 30.1125 32.9828 30.4987 33.1141 30.6439C33.3732 30.9308 34.1839 31.2217 34.5588 31.0701C35.5852 30.6534 36.2113 29.9408 36.9556 29.1674L37.339 28.396C37.3905 28.3627 37.565 28.3539 37.6274 28.3692C37.838 28.4209 37.9551 29.6323 38.0115 29.8301C38.2924 30.8152 38.8146 31.7357 39.4237 32.5455C39.4876 32.5813 39.6375 32.5829 39.7034 32.559C40.2589 32.3575 39.5524 30.1668 39.5958 29.6288C39.5992 29.5878 39.871 28.8938 39.8968 28.862C40.3524 28.2844 42.1778 28.8612 42.7156 28.2014C42.0108 27.9265 41.3112 28.3591 40.6069 28.2114ZM27.7887 31.8621C27.5904 31.6253 28.599 31.3512 28.5897 31.6181C28.3575 31.8391 28.1042 31.9956 27.7887 31.8621ZM33.513 28.3927C33.6041 28.2411 34.2516 27.5715 34.4295 27.7324C34.714 28.1529 33.6191 29.2364 33.3832 29.02C33.3698 28.8025 33.3989 28.5831 33.513 28.3927Z" fill="black"/>
<path d="M115.539 117.359L115.528 117.091C114.798 117.071 114.3 117.251 113.705 117.679C113.422 117.882 112.208 118.961 112.796 119.276C112.952 119.296 113.313 119.39 113.433 119.344C113.704 119.237 114.141 118.661 114.442 118.644C114.822 118.622 114.96 118.889 115.197 118.966C116.471 119.383 118.102 119.115 118.93 118C119.029 117.867 119.205 117.29 119.359 117.356C119.604 117.461 119.494 118.439 119.537 118.74C119.58 119.04 119.899 120.188 120.072 120.395C120.299 120.669 120.54 120.494 120.563 120.257C120.633 119.544 119.83 118.548 120.794 118.018C121.421 117.983 122.012 117.751 122.614 117.643C123.535 117.479 124.534 117.509 125.401 117.135C125.9 116.92 126.41 116.42 127.026 116.443C127.118 117.225 126.224 117.379 125.754 117.735C125.533 117.902 124.912 118.708 124.82 118.954C124.582 119.587 125.019 120.541 125.672 120.69C126.743 120.936 128.421 120.031 129.342 119.484C129.386 119.458 129.842 119.05 129.708 119.394C129.562 119.773 127.783 120.526 127.339 120.741C127.061 120.876 126.867 121.156 126.466 121.227C125.706 121.361 124.618 121.085 124.181 120.412C124.134 120.339 123.923 119.882 123.915 119.814C123.867 119.395 124.398 118.792 124.115 118.266C124.026 118.166 123.915 118.144 123.787 118.138C123.444 118.12 121.675 118.54 121.306 118.682C121.201 118.723 121.088 118.746 121.015 118.844C120.946 119.569 121.242 120.207 120.882 120.916C120.813 121.052 120.651 121.127 120.58 121.244C120.448 121.46 120.341 122.142 120.011 121.662C119.929 121.542 119.954 121.346 119.889 121.239C119.788 121.074 119.518 120.839 119.419 120.621C119.088 119.89 119.185 118.318 118.122 118.901C117.198 119.409 116.741 119.758 115.556 119.608C114.863 119.52 114.575 118.915 113.759 119.401C113.579 119.509 113.184 119.981 113.031 120.014C112.915 120.04 112.381 119.917 112.274 119.829C111.867 119.495 112.026 119.006 112.28 118.65C112.634 118.153 113.679 117.16 114.222 116.852C114.668 116.6 115.026 116.464 115.565 116.549C115.975 116.613 116.023 117.344 115.54 117.361L115.539 117.359Z" fill="black"/>
<path d="M61.9191 55.3445C61.9903 55.284 63.3791 55.8877 63.6922 55.9253C64.1912 55.9848 64.6397 55.7612 65.0794 55.896C65.1549 55.615 64.7219 55.6756 64.7054 55.5835C64.6937 55.3998 64.7852 55.2268 64.7886 55.0463C64.8079 53.9327 64.7302 52.81 64.703 51.719C64.6426 49.2944 64.6972 46.8606 64.1538 44.4871C63.5356 44.3079 62.9322 44.8661 62.4194 44.9625C61.3645 45.1612 60.4022 44.698 60.0513 43.6782C59.9472 43.3767 60.1102 42.9442 59.6775 42.8758C59.2238 43.1761 58.4798 43.2862 58.0501 43.5156C57.9144 43.5883 57.9075 43.7388 57.7993 43.8072C57.4238 44.0424 56.6236 44.4606 56.4028 44.8538C56.1642 45.2784 56.4617 45.8996 55.7065 45.9495C55.5216 45.6474 55.3825 45.2988 55.202 44.9948C55.102 44.8266 54.5185 44.2598 54.8513 44.1643C55.1539 44.0972 55.2942 44.5329 55.5102 44.5862C55.8671 44.6742 56.9383 43.6011 57.3297 43.3629C58.205 42.8308 58.6529 42.7938 59.5576 42.5863C59.7402 42.5444 59.8565 42.3371 60.0194 42.3268C60.5985 42.291 60.6245 43.3314 60.7991 43.7209C61.446 45.1583 63.3491 43.8351 64.368 43.4781C64.9996 43.6962 65.0249 44.4601 65.0783 45.0366C65.26 47.0235 65.2526 49.0035 65.3132 50.973C65.3614 52.5498 65.6795 54.5644 65.2458 56.0963C65.1798 56.33 64.7313 56.4443 64.5097 56.449C64.3679 56.4525 63.4296 56.3132 63.27 56.2763C62.8944 56.1888 61.9661 55.7718 61.9191 55.3436L61.9191 55.3445Z" fill="black"/>
<path d="M46.7912 45.3623C46.4861 45.5726 45.8606 46.0629 45.4986 45.983C44.7994 45.8289 44.2861 44.8051 43.9082 44.2304C43.6759 43.877 43.6773 43.5445 43.1764 43.3374C42.3143 42.9793 42.0047 43.6867 41.4365 43.6964C41.1386 43.7021 41.0362 43.3632 40.8083 43.4365C40.3165 44.2711 40.2221 45.2176 39.487 45.8947C38.9815 46.3607 38.7778 46.3711 38.2067 46.5863C37.7094 46.7738 37.3431 47.0221 36.7925 46.9185C36.6677 46.8949 35.8482 46.4664 35.8152 46.4227C35.7592 46.3477 35.6596 45.7652 35.6069 45.6083C35.6629 45.3642 36.6807 44.9245 36.9074 44.557C36.944 44.4965 37.3122 43.6837 37.3234 43.6336C37.3401 43.5567 37.2785 42.9342 37.2254 42.9035C37.1686 42.8693 36.6689 42.8889 36.564 42.9111C36.3708 42.9533 35.4737 43.8949 35.3391 44.1169C34.7871 45.0277 35.3101 45.4076 33.8545 45.115C33.58 45.0596 33.0986 44.924 32.9143 44.7188C32.7875 44.5771 32.745 44.2945 32.5951 44.2236C31.9884 43.9347 32.1351 44.5524 32.0434 44.9317C31.9589 45.2769 31.5076 46.8084 31.3199 46.9669C31.0811 47.1675 30.9328 47.1624 30.6773 46.9811C29.9027 46.4324 29.9405 44.7814 30.0682 43.9283C29.3782 43.7517 29.8445 45.2372 29.835 45.6393C29.8313 45.8109 29.7084 45.9669 29.6892 46.123C29.6486 46.4511 29.8753 46.9674 30.0629 47.2392C30.1126 47.3117 30.806 47.979 30.8578 47.9963C30.9893 48.0393 31.1243 48.0119 31.2461 47.952C31.5535 47.7994 32.0251 46.6524 32.1657 46.279C32.268 46.008 32.2833 45.2671 32.5889 45.1839C32.8215 45.1203 33.5787 45.5068 33.8614 45.5691C34.1281 45.6291 34.3862 45.5231 34.6737 45.6377C34.9738 45.7565 35.1637 46.5074 35.5921 46.7928C37.0124 47.7371 37.8592 47.1603 39.1882 46.4675C39.3099 46.4041 39.4644 46.1975 39.521 46.1917C39.7492 46.1682 40.1868 46.9307 40.7367 46.1853C41.1391 45.641 41.4687 44.5268 42.0045 44.141C43.4333 43.1123 43.5489 45.0084 44.2728 45.6944C44.4954 45.9049 45.442 46.4183 45.7207 46.3553L46.925 45.5332L46.7912 45.3623ZM36.8066 43.7149C36.8727 43.7684 36.3098 44.6706 36.1439 44.7032C35.4044 44.8505 36.2541 43.4682 36.8066 43.7149Z" fill="black"/>
<path d="M143.693 72.9838C142.838 73.5385 143.142 74.684 143.72 75.3381C144.609 76.3446 146.05 76.4189 147.297 76.4696C147.917 76.495 148.688 76.29 149.236 76.5528L148.98 76.6179L148.929 76.8778C148.463 76.6921 148.147 76.9445 147.754 76.9854C146.536 77.11 145.012 76.8253 143.98 76.1735C143.335 75.7665 142.742 75.2034 142.568 74.4254C142.52 74.2079 142.571 73.2376 142.444 73.1527C141.879 73.0032 141.227 73.2631 140.647 73.3762C140.413 73.4221 140.163 73.3634 139.944 73.4089C139.724 73.4544 138.933 74.0262 138.872 74.2402C138.761 74.6012 139.251 75.1402 139.226 75.444C139.223 75.4885 139.065 75.9903 138.923 75.9556C138.539 75.9181 138.438 75.1391 138.059 75.0579L138.123 74.5318L137.95 74.7619C137.502 74.1934 137.221 73.7497 136.693 73.2641C136.577 73.1568 136.429 73.1285 136.466 72.9515C137.215 72.8546 137.426 73.7384 138.052 73.8908C138.818 72.6599 139.852 72.5959 141.177 72.474C141.902 72.407 142.667 72.6297 143.278 72.1913C143.484 72.0431 143.556 71.803 143.68 71.6959C144.022 71.4011 144.495 71.1262 144.828 70.8512C144.913 70.7806 144.926 70.6247 145.015 70.5665C145.064 70.5341 146.108 70.3961 146.166 70.4035C146.276 70.4177 146.662 70.817 146.667 70.9369C146.693 71.5141 145.83 72.0326 145.385 72.265C144.888 72.5255 144.124 72.7046 143.693 72.9838L143.693 72.9838Z" fill="black"/>
<path d="M73.705 71.8978C73.4199 71.9147 72.8324 72.3623 72.5438 72.3837C72.3526 72.3973 72.2538 72.2416 72.0944 72.2171C71.4561 72.1174 70.3239 72.9502 69.6486 73.2178C68.9952 73.4759 68.921 73.4173 68.8286 72.6986C68.6821 71.5554 68.6957 70.3202 69.4973 69.4254C70.0797 68.7761 70.7845 68.4794 71.6435 68.4322C72.5097 68.3848 72.0194 69.0638 72.4798 69.4977C73.2902 68.2809 71.9706 67.6773 70.8619 67.9565C70.1665 68.1312 69.3194 68.7657 68.9409 69.3788C68.0407 70.8353 68.4434 72.2263 68.4544 73.8379C67.8895 74.1969 67.2859 74.4591 66.627 74.6026C66.4053 74.8544 67.2943 74.866 67.3924 74.8547C67.9461 74.7929 68.2269 74.3894 68.782 74.4573C68.8284 75.2163 69.0225 76.0996 69.3176 76.8043C69.3978 76.9953 69.9094 77.988 70.0821 77.9401C70.2014 77.7807 70.4038 77.5747 70.3702 77.3693C70.3105 77.001 69.56 75.9244 69.3903 75.3419C69.302 75.0391 69.1266 74.479 69.3089 74.2122C69.7695 73.9766 71.4109 72.9373 71.8303 73.0425C72.3007 73.1605 72.2932 74.7094 72.4444 75.0844C72.4964 75.2146 72.9088 75.6053 73.0422 75.6535C73.8601 75.9496 74.8785 74.5347 74.9649 73.8027C75.058 73.0198 74.6402 71.8433 73.705 71.8978ZM74.3736 74.205C74.2422 74.555 73.4634 75.2981 73.1158 74.8382C72.7692 74.3793 72.6529 72.917 73.2682 72.6252C73.5487 72.492 73.9822 72.4847 74.1975 72.7265C74.442 73.0013 74.5016 73.8631 74.3736 74.205Z" fill="black"/>
<path d="M126.649 73.792C126.9 73.5075 127.175 73.121 127.42 72.81C127.586 72.5996 127.87 71.9533 128.192 71.9968C129.266 72.1425 129.036 74.5042 129.81 74.6467C130.582 74.7883 130.927 73.9441 131.583 73.7028L132.721 72.5045C133.062 72.6231 132.851 73.5165 132.889 73.8996C132.94 74.4166 133.264 75.4896 133.939 75.3394C134.078 75.3084 134.971 74.6664 135.062 74.5584C135.206 74.3868 135.169 74.2161 135.24 74.041C135.281 73.9386 135.614 73.8619 135.315 73.4684C135.113 73.2778 133.678 72.2539 133.656 72.1504C133.632 72.0381 133.635 71.87 133.734 71.7973L134.232 71.7449C134.044 72.459 134.996 72.5064 135.435 72.8813C136.091 73.441 135.843 74.1237 135.463 74.7653C135.378 74.9079 134.989 75.4039 134.882 75.4857C134.582 75.7136 133.197 76.3305 133.292 75.5529L133.026 75.652C132.837 75.3464 132.461 74.0472 132.2 73.9745C131.768 73.8537 131.65 74.2603 131.368 74.4682C131.228 74.5722 130.42 75.1329 130.34 75.1589C129.787 75.3353 129.086 75.1404 129.217 74.4854L128.907 74.4949C128.883 74.2804 128.661 74.1393 128.6 73.9799C128.49 73.6883 128.559 73.0056 128.142 72.9769C127.653 72.9429 127.301 73.8033 127.035 74.122C126.839 74.3563 125.789 75.5711 125.601 75.5624C125.063 74.8904 125.062 73.8156 124.422 73.203C123.603 72.4189 123.867 73.4631 123.575 73.8971C123.524 73.9722 122.954 74.3927 122.92 74.3704C122.599 73.7766 122.725 73.048 122.6 72.3968C123.629 72.8334 123.604 71.5334 124.569 72.3085C125.263 72.8664 125.302 73.7616 125.751 74.467C126.16 74.359 126.379 74.0975 126.647 73.793L126.649 73.792Z" fill="black"/>
<path d="M78.8331 72.262C78.8059 72.2751 78.8042 72.3854 78.74 72.4048C78.2797 72.5487 78.4571 71.8713 77.9581 72.17C77.1253 72.6673 76.2045 74.0807 76.6864 75.051C76.8255 75.3312 77.6705 75.8213 78.01 75.7435C78.3495 75.6657 79.6742 75.0512 80.0256 74.846C80.1751 74.7587 80.2766 74.5623 80.4406 74.4507C80.5958 74.3455 80.9071 74.311 81.009 74.2009C81.0488 74.1581 81.2706 73.3089 81.3006 73.1597C81.3928 72.6978 81.1737 72.056 81.8061 72.058C82.0997 72.0587 81.8605 72.4247 81.8755 72.6351C81.8921 72.8738 82.0059 73.9173 82.1032 74.0136C82.2887 74.1974 82.6293 74.0218 82.7906 73.8764C82.8791 73.7969 83.6118 73.0185 83.6606 72.9479C83.8293 72.7073 83.8221 72.1331 84.2156 72.1962C84.7178 72.277 84.9235 73.6623 85.1211 74.1153C85.4898 74.9595 86.0231 75.7206 87.0628 75.4448L87.0667 75.7106C86.7835 75.7327 86.6275 75.9135 86.3231 75.9087C86.0703 75.9043 85.3934 75.5763 85.2126 75.4047C84.9102 75.118 84.4198 73.5211 84.0919 73.5302C83.9111 73.5347 83.5225 74.1693 83.3417 74.3161C83.1227 74.494 82.2077 75.0752 81.9684 75.1167C81.761 75.0134 81.4138 74.3917 81.3741 74.3652C81.0277 74.1311 80.9194 74.5881 80.7715 74.7029C80.2782 75.0886 79.6604 75.3849 79.1599 75.6926C79.0463 75.7621 78.9887 75.9066 78.8863 75.9599C78.7532 76.029 77.6596 76.2749 77.4895 76.2819C76.9349 76.3037 76.0673 75.5128 75.9368 75.0075C75.6412 73.8609 76.5727 72.3797 77.4413 71.6815C77.5291 71.6108 78.1529 71.1952 78.2048 71.1788C78.4441 71.1026 79.221 71.0655 79.3557 71.3128C79.6904 71.9285 79.2764 72.0438 78.8313 72.262L78.8331 72.262Z" fill="black"/>
<path d="M94.1677 137.698C93.1715 137.546 93.5981 136.836 93.3934 136.202C93.3664 136.116 93.014 135.465 92.9497 135.375C92.7669 135.122 92.6519 134.989 92.3256 135.099C92.1998 135.142 91.4151 135.646 91.2952 135.747C91.1649 135.857 91.0302 136.214 90.8278 136.313C90.5063 136.472 90.296 136.258 90.0777 136.285C90.0149 136.292 90.0203 136.402 89.9855 136.431C89.2217 137.062 88.7823 137.296 87.9068 137.749C87.7851 137.812 87.6943 137.979 87.5474 138.028C87.2713 138.121 86.7579 137.982 86.5617 137.76C85.6482 136.728 86.4641 135.911 86.1858 134.921C86.1566 134.818 85.7947 134.282 85.702 134.229C84.789 133.711 84.1535 134.973 83.76 135.554C83.6848 135.666 83.6855 135.836 83.6145 135.943C83.4146 136.246 82.9832 136.445 82.8627 136.985C82.7917 137.303 83.0127 137.628 82.6357 137.733L82.5948 137.87C83.2546 138.579 83.7735 138.405 84.5168 137.946C84.8163 137.761 85.0338 137.305 85.4857 137.396C85.8403 137.748 86.1041 138.261 86.59 138.47C87.058 138.67 86.8904 138.318 87.0646 138.262C87.2019 138.218 87.4342 138.394 87.7349 138.292C88.0471 138.184 89.1054 137.022 89.3762 137.568C89.4481 137.713 89.4063 137.886 89.4606 138.034C89.4901 138.116 89.6362 138.533 89.7576 138.459C89.8917 138.112 90.3121 137.967 90.5093 137.768C90.7602 137.514 91.004 136.909 91.283 136.572C92.5185 135.084 92.3821 136.441 92.971 137.294C93.3436 137.833 93.7657 138.079 94.4185 137.977C94.5272 137.96 94.9431 137.816 95.0004 137.699C94.7245 137.694 94.4436 137.74 94.1677 137.698ZM84.7559 136.725C84.7061 136.755 84.6899 136.886 84.5769 136.945C84.457 137.009 83.6271 137.231 83.5663 137.172C83.4668 136.348 84.112 135.55 84.6807 135.025C84.8584 134.862 85.3399 134.394 85.5504 134.618C85.5804 134.652 85.8366 135.358 85.855 135.454C85.984 136.11 85.2429 136.442 84.7559 136.725Z" fill="black"/>
<path d="M123.928 143.87C123.928 142.79 123.723 142.646 123.527 141.711C123.246 140.367 123.481 138.786 122.559 137.645C122.337 137.369 121.684 137.07 121.575 136.828C121.43 136.507 121.658 136.455 121.806 136.26C121.986 136.022 122.196 135.93 121.933 135.534C121.757 135.416 120.294 135.566 120.019 135.654C119.519 135.814 118.692 136.532 118.291 136.644C118.006 136.724 117.664 136.655 117.37 136.69C117.699 136.972 117.423 137.783 117.913 137.92C118.458 138.073 118.842 137.631 119.24 137.549C119.838 137.426 120.821 137.478 121.461 137.418C122.095 137.688 122.378 138.13 122.526 138.791C122.721 139.667 122.552 140.368 122.61 141.199C122.676 142.155 123.359 144.158 123.11 144.931C122.888 145.619 121.901 145.937 121.396 146.286C121.24 146.393 120.969 146.639 120.79 146.692C120.424 146.801 119.976 146.818 119.606 146.998C119.904 147.398 120.287 147.041 120.553 146.977C120.776 146.923 121.269 146.896 121.421 146.843C122.143 146.589 122.769 146.187 123.255 145.596C123.36 145.469 124.007 144.554 124.018 144.488C124.035 144.384 123.928 144.071 123.928 143.87ZM119.081 136.78C119.012 136.491 120.33 136.129 120.57 136.089C120.784 136.052 121.219 136.04 121.307 136.29C121.571 137.042 119.215 137.338 119.081 136.78Z" fill="black"/>
<path d="M52.1251 44.4481C51.9996 44.2174 52.057 43.9937 51.8814 43.7812C51.406 43.208 49.4342 43.3755 48.7291 43.481C48.1791 43.3694 48.4555 42.9642 48.4628 42.652C48.4635 42.6102 48.3087 42.6274 48.291 42.5576C48.1476 41.9967 48.5783 39.6753 48.3921 39.4613C48.2452 39.4383 48.151 39.5384 48.0883 39.6538C47.9492 39.9106 47.685 41.409 47.7281 41.6782C47.7566 41.8606 47.957 41.9667 47.9726 42.1299C47.9798 42.2053 47.7762 42.5402 47.7619 42.6784C47.7075 43.2354 47.9127 43.641 47.5267 44.128C47.0404 44.0095 46.8431 44.3486 46.6353 44.7299L47.4387 44.9028C47.6706 45.3122 47.5224 45.6972 47.5869 46.0806C47.7118 46.8216 48.1387 47.652 48.8735 47.919C49.1926 46.9162 48.3355 46.6176 48.11 45.7208C48.0215 45.3692 47.9762 44.7969 48.1668 44.4765C48.2426 44.3484 48.9457 43.9851 49.0948 43.9547C49.2597 43.9194 50.7474 43.9695 50.8752 44.009C51.0307 44.0575 51.226 44.4901 51.2194 44.6547C51.1996 45.1744 49.9991 46.7894 50.6575 47.1953C51.4249 47.6687 52.5256 46.9967 53.0945 46.4447C53.143 46.3972 53.3842 46.1814 53.3917 46.1625C53.6209 45.5727 52.3611 44.8787 52.1251 44.4481ZM52.7628 46.2645C52.5313 46.5467 51.2927 46.8834 50.9146 46.6919C50.8192 46.4241 51.5348 44.9233 51.642 44.8833C51.9811 44.7575 53.0881 45.8661 52.7628 46.2645Z" fill="black"/>
<path d="M86.99 29.0306C87.4666 29.1849 87.3762 28.6538 87.5694 28.5787C88.425 28.248 89.2615 30.6044 89.6772 30.5932C90.2205 30.5796 91.0351 28.2514 92.0008 28.7447C91.994 29.0409 92.248 29.0551 92.3669 29.2352C92.6978 29.7364 92.4323 30.2942 92.8761 30.7348L92.7031 31.0538C93.015 31.1856 93.0785 32.057 93.32 32.3915C93.4055 32.5103 93.6196 32.5609 93.6959 32.7395L94.8507 32.532C95.0384 33.2279 94.0501 32.8267 93.6176 32.9077L92.6682 32.1055C92.5833 31.688 92.1944 31.1732 92.0837 30.8256C91.9509 30.4067 92.0144 29.8219 91.6132 29.4523C90.9858 29.3675 90.4653 31.3647 89.684 31.4722C89.4656 31.499 88.8886 31.0147 88.7362 30.8398C88.4897 30.5596 88.3517 29.9666 87.9692 30.1006C87.6202 30.2231 87.8633 31.899 87.0281 31.9074C86.8758 31.8481 86.8229 31.7543 86.7837 31.6015C86.5684 30.7578 86.5777 29.7796 86.4356 28.9182C86.3834 28.6012 86.1204 28.261 86.2332 27.843C87.0405 27.5322 86.8138 28.5407 86.9891 29.0288L86.99 29.0306Z" fill="black"/>
<path d="M108.121 73.4115C108.264 73.5831 108.203 73.8016 108.281 73.9881C108.293 74.0171 108.556 74.1742 108.614 74.2536C109.832 75.9293 110.444 78.8131 109.186 80.6634C108.764 81.2856 106.65 82.7368 106.586 81.1737C106.777 80.9253 106.868 81.252 106.998 81.303C107.271 81.4091 107.827 81.0796 108.058 80.9058C109.25 80.0066 109.196 78.782 109.054 77.3738C108.956 76.4081 108.499 74.6183 107.365 74.4314C107.128 74.392 106.373 74.6367 106.114 74.7445C105.71 74.9119 105.207 75.4667 104.778 75.1378C104.299 74.7684 105.038 74.1152 105.375 73.865C105.712 73.6148 106.897 73.0322 107.282 73.0404C107.458 73.044 108.023 73.294 108.12 73.4107L108.121 73.4115Z" fill="black"/>
<path d="M76.392 99.3464C76.9878 99.9085 77.1757 103.177 77.4549 104.096C77.8726 105.341 79.0982 102.741 79.2879 102.629C79.4146 102.555 79.6298 102.543 79.7666 102.585C80.3717 102.773 80.2801 105.468 81.3537 105.13C81.6599 105.034 82.6352 103.39 82.7595 103.037C82.8572 102.76 82.8394 102.401 82.9415 102.155C83.0343 101.93 83.1876 102.031 83.3275 102.164C83.779 102.595 83.3915 104.979 84.2781 105.433C84.8009 105.7 84.8232 105.347 85.0721 105.159C85.7485 104.649 85.4712 104.839 85.8125 104.19C85.9073 104.01 86.4377 103.478 86.3177 103.968C86.242 104.276 85.5875 105.164 85.3373 105.409C85.3113 105.434 84.8627 105.796 84.8329 105.809C84.245 106.059 83.495 105.504 83.3395 104.924C83.2438 104.569 83.3183 103.786 82.7901 103.769C82.6079 103.823 81.883 105.305 81.669 105.472C80.6704 106.253 79.6784 103.956 79.5512 103.231L79.3425 103.15C79.013 103.202 78.2087 105.659 77.2821 105.204C76.7869 104.977 76.6581 102.655 76.5621 102.079C76.4037 101.131 76.1603 100.191 76.055 99.241C76.0929 99.1965 76.3339 99.2927 76.392 99.3481L76.392 99.3464Z" fill="black"/>
<path d="M112.122 104.343C112.835 103.807 113.23 102.341 114.299 102.631C115.034 102.83 115.58 105.37 116.115 105.524C116.82 105.727 117.31 104.46 118.007 104.502C117.727 104.245 118.714 103.422 118.79 103.492L118.054 104.504C117.481 104.838 116.729 106.163 116.026 106.086C115.949 106.078 115.458 105.646 115.384 105.556C114.995 105.072 114.412 103.432 113.866 103.359C113.29 103.283 113.007 104.099 112.691 104.471C112.5 104.698 112.321 104.778 112.111 104.95C111.946 105.085 111.653 105.629 111.284 105.441C110.824 105.206 110.469 104.021 110.232 103.585C109.182 101.648 109.191 104.471 108.958 105.065C108.928 105.144 108.676 105.544 108.545 105.548C108.148 105.41 107.942 103.868 107.913 103.452L108.085 103.351L108.282 103.745L108.532 103.736C108.872 102.889 109.246 101.115 110.345 102.357C110.715 102.775 111.226 104.408 111.44 104.532C111.698 104.682 111.928 104.49 112.122 104.343Z" fill="black"/>
<path d="M134.122 58.319C134.261 58.7192 134.032 58.788 133.967 58.9363C133.795 59.3318 133.769 59.4667 133.394 59.7792C132.967 60.1339 132.485 60.0668 132.675 60.8142C132.784 61.2426 134.033 61.4595 134.439 61.4583C134.758 61.4574 135.093 61.2428 135.318 61.2621C135.514 61.2795 135.613 61.5063 135.683 61.5037C135.728 61.5026 135.832 61.3586 135.953 61.3405C136.198 61.3042 136.923 61.1981 137.12 61.2083C137.284 61.2166 137.241 61.3724 137.317 61.3927C137.5 61.4406 137.767 61.2553 137.71 61.5643L133.816 61.8294L132.77 61.7319L131.869 60.7169C131.185 60.8238 130.622 60.9231 129.952 60.6767L130.033 60.4151C129.766 60.299 129.432 60.1065 129.284 59.8559C129.092 59.5282 129.172 59.2381 129.079 58.9631C129.036 58.8379 128.911 58.7575 128.865 58.6333C128.767 58.3654 128.824 57.8137 128.354 57.9606C128.104 58.0379 127.491 58.8898 127.233 59.1158C127.037 59.2878 126.322 59.8266 126.112 59.8728C125.866 59.9269 126.006 59.5696 125.961 59.3973C125.944 59.3346 125.812 59.3388 125.789 59.2683C125.732 59.099 125.537 58.0788 125.796 58.0786C126.317 58.4479 125.92 59.2232 126.79 58.9348C127.023 58.8579 127.295 58.4102 127.467 58.2636C127.623 58.1299 127.913 58.0863 128.039 57.9284C128.251 57.6644 128.36 56.8269 128.902 57.0232C129.35 57.1845 129.092 57.5697 129.099 57.678C129.105 57.7632 129.278 57.8717 129.308 57.9848C129.509 58.7719 129.576 59.9393 130.568 60.1688C130.821 60.2274 131.786 60.142 132.005 60.0396C132.345 59.8809 132.484 59.2614 132.659 58.9921C132.986 58.4896 133.528 58.2485 134.122 58.3208L134.122 58.319Z" fill="black"/>
<path d="M81.2092 120.288C81.147 120.177 81.0048 120.164 80.9247 120.082C80.5406 119.688 80.3426 119.676 79.943 119.406C79.6065 119.18 79.6727 118.809 79.0762 119.179C79.315 119.83 79.0201 119.742 78.8197 120.027C78.6904 120.212 78.7113 120.443 78.5252 120.629C78.4058 120.75 77.2912 121.574 77.1764 121.629C76.9336 121.745 76.5662 121.805 76.3034 121.76C76.0541 121.718 75.3934 120.865 75.1999 120.613C75.0872 120.466 75.0412 120.257 74.9469 120.139C74.588 119.689 74.3628 120.331 74.1157 120.558C73.8122 120.836 73.1284 121.403 72.7133 121.295C72.5098 121.243 72.069 120.495 71.9018 120.297C71.517 119.84 71.2006 119.387 70.5583 119.411C69.9744 119.434 69.5425 121.602 68.9078 121.047C68.6431 120.815 68.9699 120.514 68.7099 120.33C68.4614 120.287 68.4864 120.685 68.4936 120.832C68.5157 121.292 68.7919 121.733 68.8728 122.202C68.908 122.408 68.7946 122.624 68.9102 122.848C69.0555 122.629 69.349 122.486 69.4726 122.286C69.7581 121.822 69.9588 120.623 70.2774 120.239C70.441 120.043 70.7803 120.062 70.9986 120.14C71.618 120.688 71.9614 121.478 72.4523 122.136C73.3621 121.92 73.8351 121.146 74.4908 120.556C74.9258 120.43 75.2769 121.495 75.4719 121.666C75.6178 121.794 76.2834 122.026 76.4911 122.031C77.3698 122.058 78.2645 120.775 78.5132 120.822C78.9124 120.897 78.7758 121.717 78.939 122.037C79.0071 122.172 79.532 122.63 79.652 122.818C80.5112 122.706 81.6576 121.092 81.2092 120.288ZM79.5597 122.212C79.1158 121.942 79.0727 119.609 79.3997 119.528C79.8965 119.572 80.8325 120.225 80.9058 120.71C80.9983 121.324 80.2621 122.639 79.5597 122.212Z" fill="black"/>
<path d="M94.2852 103.96C94.2615 103.972 94.2585 104.063 94.1839 104.097C93.7253 104.307 93.0973 104.265 92.7166 104.793C91.5937 106.351 92.7808 106.76 94.2242 106.318C95.2769 105.995 97.0101 105.189 98.1015 105.177C98.2079 105.177 98.4368 105.106 98.4175 105.259C98.0676 105.276 97.7457 105.524 97.459 105.62C96.3112 106.005 94.3924 106.803 93.2862 107.005C92.3707 107.173 91.3846 106.68 91.4983 105.653C91.525 105.409 91.7409 105.281 91.6274 105.071C91.4944 104.575 89.7957 105.093 90.2523 104.377C90.3598 104.208 90.8998 104.378 91.1521 104.36C92.9094 104.237 92.8935 102.603 94.6156 102.381C95.2309 102.302 96.0948 102.201 95.5755 103.033C95.2506 103.553 94.7953 103.72 94.2851 103.96L94.2852 103.96Z" fill="black"/>
<path d="M143.374 102.661C143.231 102.868 142.763 103.3 142.555 103.437C141.591 104.068 140.646 103.911 140.87 105.421C141.081 106.837 143.379 106.905 144.463 106.819C144.91 106.784 146.005 106.309 145.948 106.958C144.952 107.197 143.878 107.257 142.848 107.221C142.047 107.192 141.202 107.03 140.678 106.364C140.439 106.06 140.111 104.985 139.963 104.9C139.586 104.686 139.064 105.194 138.89 104.965C138.495 104.446 140.101 104.06 140.342 103.857C140.636 103.609 140.813 103.04 141.016 102.784C141.109 102.667 142.063 101.835 142.201 101.76C142.592 101.547 142.876 101.433 143.294 101.668C143.849 101.98 143.661 102.25 143.375 102.661L143.374 102.661Z" fill="black"/>
<path d="M90.4217 121.771C90.4093 121.771 90.3181 121.633 90.2174 121.617C89.0091 121.423 88.1244 121.225 88.2518 119.718C89.4067 119.084 91.1294 118.39 91.4257 116.971C90.7211 116.882 90.3242 116.829 89.6971 117.216C88.8918 117.712 88.6818 118.183 88.1867 118.849C88.1335 118.922 87.6544 119.305 87.5679 119.321C87.4955 119.335 86.3328 119.261 86.2436 119.24C85.9305 119.168 85.0671 118.402 84.6492 118.326C84.4577 118.29 83.7004 118.509 83.6546 118.662C83.6441 119.168 83.6439 120.083 82.9588 120.066C83.0727 120.259 83.0318 121.499 83.4412 121.272C83.8324 120.921 83.9568 120.396 84.025 119.893C84.0581 119.656 83.8897 118.845 84.3073 118.875C84.4681 118.886 85.1264 119.181 85.3526 119.254C85.67 119.356 86.2993 119.626 86.5432 119.664C86.8192 119.706 87.0715 119.688 87.3458 119.697C87.411 120.037 87.5937 120.356 87.6981 120.667C87.746 120.808 87.613 120.916 87.7489 121.067C87.8301 121.159 88.89 121.804 89.0313 121.85C89.3568 121.955 89.9944 122.028 90.339 122.044C90.7971 122.064 91.2717 121.997 91.7314 122.009L91.7246 121.738L90.4217 121.771ZM89.1215 118.07C89.3691 117.861 90.6326 116.996 90.8871 117.352C90.9255 117.469 90.91 117.593 90.8586 117.703C90.8182 117.789 89.4258 118.784 89.335 118.808C89.1703 118.851 89.0216 118.794 88.8747 118.733C88.7859 118.411 88.8905 118.264 89.1215 118.07Z" fill="black"/>
<path d="M125.253 125.888C125.69 126.591 125.905 127.402 126.198 128.176C127.13 130.636 127.984 133.397 128.314 136.02C128.426 136.904 128.145 137.811 127.758 138.592C127.522 138.472 127.801 138.024 127.823 137.818C127.849 137.568 127.913 136.864 127.901 136.648C127.891 136.48 127.722 136.567 127.697 136.393C127.57 135.509 127.646 134.516 127.29 133.753C127.105 133.358 127.135 133.209 127.039 132.836C126.588 131.086 125.847 128.632 125.082 126.947C124.64 125.975 124.022 125.251 123.365 124.408L123.489 124.189C124.405 124.351 124.591 125.053 125.025 125.717C125.086 125.812 125.226 125.845 125.252 125.888L125.253 125.888Z" fill="black"/>
<path d="M32.3754 60.7671L30.9343 62.3366C30.242 62.9193 29.7063 61.6347 29.5538 61.1051C29.3411 60.3636 29.4286 59.5329 29.175 58.8244C29.1207 58.6728 28.9436 58.3652 28.7643 58.3235C28.5083 58.3334 28.1892 58.8028 28.0156 59.0276C27.648 59.5061 27.2981 60.2332 26.9422 60.6857C26.7745 60.8988 26.1797 61.5128 25.9309 61.175C25.9153 61.154 25.7428 60.7067 25.7368 60.6802C25.7099 60.5617 25.815 60.4009 25.8023 60.3896C25.7868 60.3758 25.6314 60.4357 25.5234 60.3379C25.3346 60.1666 25.1486 59.4991 24.7862 59.1934C23.721 58.2981 23.1875 59.9881 23.153 60.8095C23.0032 60.9173 22.8229 61.7957 22.6438 61.729C22.5668 61.6998 22.4339 61.5244 22.391 61.4401C22.1878 61.0452 21.9255 60.0569 21.8495 59.6089C21.8101 59.3788 21.7682 58.5859 22.1223 58.9514C22.3398 59.1762 22.1555 60.5312 22.7761 60.2757C22.9543 60.2028 23.3186 58.3099 23.9903 58.2878C24.1073 58.284 24.5473 58.3619 24.6522 58.4064C24.6934 58.4241 25.1664 59.0053 25.2334 59.0943C25.4316 59.3605 25.5867 59.5691 25.7909 59.8254C25.995 60.0816 25.9642 60.5518 26.4738 60.4662C26.7707 60.425 26.7742 60.1004 26.9222 59.919C27.1055 59.6948 27.6897 59.153 27.8019 58.9582C27.875 58.831 27.8499 58.6423 27.9767 58.4613C28.1231 58.2514 28.2816 58.2777 28.3975 58.1592C28.5618 57.9907 28.6152 57.2168 29.0551 57.7508C29.4319 58.2081 29.6374 58.7666 29.7335 59.3466C29.8358 59.9637 29.8591 60.1187 30.0176 60.7112C30.1662 61.2658 30.0318 62.136 30.959 61.831C31.6257 61.6117 31.716 60.8582 32.3771 60.7671L32.3754 60.7671Z" fill="black"/>
<path d="M90.6619 43.3725L90.714 45.0728C91.1255 45.1408 91.0832 44.7622 91.2397 44.5654C91.8348 43.8171 92.437 43.3905 93.4167 43.3083C93.4961 43.5072 93.6799 43.4777 93.8282 43.594C94.9905 44.5048 94.249 45.3198 94.4434 46.4636C94.6013 47.3905 95.7901 46.3731 96.3157 46.328C97.4404 45.6581 93.5635 44.0736 95.3947 43.6065C95.7233 43.7673 95.3889 44.2619 95.4748 44.4002C95.4924 44.4282 95.9206 44.67 96.0294 44.7678C96.4231 45.1216 97.4326 46.0192 96.7687 46.4954C96.4463 46.7266 95.4178 47.2341 95.0434 47.2648C92.836 47.4434 95.0893 43.9138 92.9874 43.7706C91.8955 44.5099 91.2692 45.499 91.1224 46.8318L90.5903 47.3313C90.5103 46.9679 90.4251 46.6082 90.3521 46.242C90.2244 45.6024 90.1063 44.2096 90.2854 43.5686C90.3155 43.4594 90.3448 43.352 90.4432 43.2811L90.6628 43.3743L90.6619 43.3725Z" fill="black"/>
<path d="M110.131 42.2807C110.184 42.3114 110.134 42.4584 110.206 42.4246L110.382 42.2416L110.523 42.5065C110.081 42.6082 109.509 42.6269 109.089 42.7663C108.545 42.9479 106.858 44.0212 106.538 44.4675C106.219 44.9137 105.657 46.1573 106.675 45.9167C106.833 45.879 108.176 45.1939 108.374 45.0707C108.409 45.0494 108.967 44.6265 109.015 44.5862C109.163 44.4616 109.23 44.1701 109.504 44.0415C110.001 43.8095 110.154 44.196 110.215 44.6318C110.354 45.6232 109.907 47.1581 109.771 48.1643C109.742 48.3775 109.683 49.1356 109.694 49.3327C109.702 49.5014 109.87 49.4554 109.92 49.5724C110.053 49.8856 109.666 51.1914 109.253 51.1688C108.848 50.9611 109.095 50.6367 109.103 50.3315C109.128 49.4152 109.299 48.393 109.38 47.4442C109.461 46.4954 109.777 45.6429 109.677 44.6888C109.252 44.5829 109.257 44.9393 109.082 45.0673C108.812 45.2643 108.324 45.4773 108.006 45.6888C107.562 45.9853 106.607 46.9541 106.076 46.49C105.935 46.3664 106.039 46.1611 105.977 46.0479C105.903 45.9084 105.665 45.8432 105.655 45.647C105.919 44.9248 106.026 44.5318 106.61 44.007C107.267 43.4163 108.733 42.3031 109.593 42.1847C109.774 42.1598 109.97 42.1887 110.129 42.279L110.131 42.2807Z" fill="black"/>
<path d="M33.1598 139.105C33.2156 139.494 33.5487 140.44 33.8831 140.655C34.0336 140.752 34.5672 140.739 34.2411 141.105C33.8949 141.199 33.7383 140.822 33.5247 140.617C33.4311 140.527 33.2846 140.553 33.1859 140.438C32.8945 140.098 33.0774 139.43 32.8238 139.002C32.459 138.385 31.9907 139.632 31.8279 139.859C31.7388 139.984 31.0946 140.682 31.0011 140.74C30.6492 140.96 30.0453 140.643 29.9197 140.299C29.6207 139.478 30.2559 139.235 30.0417 138.506C29.9978 138.453 29.9394 138.42 29.8775 138.394C29.7278 138.33 27.9081 138.551 27.9549 139.038L28.4106 139.852L27.9647 140.001C28.055 139.744 27.5827 138.661 27.4163 138.567C26.9738 138.319 26.726 138.622 26.436 138.66C26.329 138.673 25.4918 138.639 25.3707 138.619C25.2995 138.607 24.785 138.353 24.7744 138.321C24.6616 137.992 25.3761 138.338 25.4552 138.345C25.7121 138.369 27.0452 138.302 27.1599 138.133C27.3076 137.549 26.9972 137.016 26.8981 136.456C26.8568 136.223 26.9023 135.983 26.8654 135.751C26.8181 135.452 26.5472 135.117 26.6649 134.716C26.7938 134.691 26.7938 134.872 26.8218 134.963C26.9947 135.528 27.1243 136.318 27.2536 136.913C27.3007 137.131 27.2314 137.373 27.2966 137.606C27.4299 138.081 27.9865 138.243 28.4165 138.275C28.7391 138.299 29.7624 138.258 30.0793 138.2C30.2285 138.172 30.4436 138.051 30.5671 137.953C30.7855 137.782 31.6844 136.237 32.0694 136.74C32.0441 137.042 31.9718 137.664 31.8212 137.918C31.6083 138.274 31.0197 138.354 30.7223 138.629C30.1796 139.128 30.0919 140.59 31.0922 140.124C31.1456 140.098 31.9191 139.393 31.9664 139.332C32.2422 138.976 32.5022 138.234 32.7676 137.853C32.8164 137.782 32.8824 137.727 32.9421 137.666L33.1243 137.753C33.1714 138.184 33.0978 138.683 33.158 139.104L33.1598 139.105Z" fill="black"/>
<path d="M55.1311 28.3869C55.2607 28.4966 55.2649 30.6239 55.5157 31.0782C55.9068 31.7868 56.7778 30.404 56.956 30.083C57.1529 29.7287 56.9892 29.3861 57.5384 29.5004C57.8834 29.5727 58.2852 30.7131 58.6425 31.0651C58.7134 31.1345 58.8543 31.1319 58.9187 31.1872C59.3754 31.5767 59.6019 31.9845 60.3459 31.7312C60.4224 31.7053 61.1659 31.0422 61.2234 30.9626C61.622 30.4112 61.7268 29.5614 61.7893 28.9046C62.5473 28.5736 62.2489 29.5154 62.5962 29.9993C62.7092 30.1565 63.4894 30.7158 63.4658 30.8355C63.3831 31.2554 63.1509 30.8007 63.1073 30.7573C62.8546 30.5103 62.4979 30.184 62.1254 30.2537C62.0103 30.2993 61.7352 31.0378 61.5878 31.2442C61.2184 31.7593 60.7074 32.2876 60.0365 32.2323C59.7201 32.2065 58.7946 31.7966 58.5048 31.626C58.215 31.4554 57.7296 30.663 57.4041 30.6969C57.2812 30.7097 56.7956 31.2241 56.6746 31.3525C56.5709 31.4626 56.5254 31.6985 56.4487 31.7528C56.3484 31.8229 55.7632 32.0055 55.6399 31.9668C55.597 31.9537 55.0852 31.3814 55.0363 31.3044C54.4728 30.4028 54.9031 29.4835 54.6775 28.5458L55.1302 28.3861L55.1311 28.3869Z" fill="black"/>
<path d="M116.742 43.725C116.781 43.748 116.791 43.8864 116.856 43.9239C116.974 43.9921 117.165 43.9385 117.205 43.9739C117.236 44.0016 117.219 44.2092 117.274 44.3136C117.743 45.1989 117.888 46.1421 118.301 47.0235C118.519 47.4901 118.69 47.6788 119.23 47.6013C119.565 47.5529 119.73 47.3106 119.968 47.246C120.193 47.1852 120.468 47.2824 120.668 47.1218C120.774 47.4206 120.008 47.8051 119.76 47.8468C119.703 47.8562 119.022 47.8874 118.984 47.883C118.647 47.8452 118.525 47.5291 118.348 47.3895C118.293 47.3464 118.175 47.352 118.122 47.3035C117.38 46.6082 117.479 45.1708 116.623 44.4267C115.723 44.1967 114.801 46.1462 113.862 46.439C113.127 46.668 113.522 45.9291 113.438 45.7623C113.383 45.6526 113.17 45.6312 113.137 45.5769C112.921 45.2249 113.087 44.3175 113.08 43.9336C113.061 42.8913 113.015 41.8656 113.089 40.82L113.455 40.8509C113.707 41.0144 113.491 43.5847 113.532 44.0984C113.559 44.432 113.708 45.7574 114.194 45.5239C114.682 45.2895 115.192 44.4215 115.658 44.1041C115.83 43.986 116.574 43.6242 116.742 43.725Z" fill="black"/>
<path d="M91.7445 61.179C91.762 60.7092 91.408 60.5606 91.2361 60.2804C90.6824 59.3803 90.2927 58.0521 88.9336 58.2807C88.2032 58.4029 86.8832 59.4591 86.4991 60.0936C86.4088 60.2426 86.0349 61.2156 85.9335 61.2412C85.4513 61.3599 85.319 60.7463 85.1479 60.5007C84.8931 60.1363 84.5768 59.7922 84.3403 59.4105C84.2728 59.3019 83.9629 58.8571 84.0393 58.7574C84.4828 58.725 85.3445 60.1704 85.5564 60.1669C85.8351 60.1422 85.8387 59.8203 85.9549 59.6805C86.6729 58.8144 87.8839 57.7627 89.0241 57.5707C89.8136 57.4373 90.5517 58.0501 91.0512 58.6279C91.1233 58.7115 91.511 59.2477 91.5438 59.318C91.6272 59.5008 91.5286 59.706 91.6079 59.7911C91.7792 59.9762 92.1851 59.8585 92.375 60.2876C92.6128 60.8258 92.0528 60.8833 91.7453 61.1781L91.7445 61.179Z" fill="black"/>
<path d="M20.2915 27.4663C20.3752 27.5149 20.4925 28.5184 20.5394 28.7297C20.8058 29.9152 21.0319 30.9462 21.7659 31.9663C22.195 32.5628 22.6153 32.9506 23.2993 32.4641C24.8165 31.387 24.5882 29.4866 24.7191 27.8378C24.4742 27.4038 23.9104 27.5219 24.0641 26.8184C25.2566 26.6998 25.0393 28.157 25.0264 28.9219C25.0035 30.3858 24.89 31.9515 23.6318 32.9572C22.8857 33.5528 22.5056 33.6014 21.8312 32.9132C21.3216 32.3934 20.5002 30.715 20.2971 30.0008C20.0939 29.2867 20.0563 28.347 19.7754 27.609C19.8136 27.4365 20.1478 27.4281 20.2915 27.4663Z" fill="black"/>
<path d="M109.268 120.79C109.136 120.945 109.275 121.194 108.844 121.23C108.715 121.241 107.751 120.93 107.647 120.865C107.604 120.837 107.011 120.26 106.912 120.16C106.745 119.993 106.642 119.428 106.209 119.583C106.078 119.63 105.788 120.305 105.669 120.481C105.408 120.87 105.033 121.392 104.73 121.739C104.317 122.211 103.747 122.942 103.156 122.221C102.754 121.732 102.72 121.274 102.607 120.674C102.547 120.361 102.51 119.961 102.447 119.648C102.412 119.468 102.27 119.324 102.272 119.133C102.549 119.08 102.668 119.132 102.764 119.396C102.963 119.948 103.185 121.495 103.636 121.807C104.113 122.138 104.226 121.64 104.439 121.416C104.83 121.005 105.192 120.63 105.53 120.151C105.819 119.741 106.203 119.237 106.311 118.762C107.224 118.896 107.76 120.64 108.724 120.568C108.856 120.557 109.35 120.315 109.433 120.223C109.506 120.143 109.737 118.811 109.731 118.63C109.72 118.242 109.158 117.637 109.514 117.466C110.077 117.195 109.884 117.698 109.917 117.892C110.118 119.085 110.317 119.442 109.578 120.515C109.469 120.673 109.346 120.696 109.267 120.79L109.268 120.79Z" fill="black"/>
<path d="M78.3157 89.0002C78.6064 89.5273 77.8285 91.05 78.5987 91.245L79.2749 90.0885C79.8889 89.6731 80.3404 88.8573 81.2229 89.0371C81.9654 89.1884 81.8441 90.6547 82.7105 90.5104C82.8042 90.4948 83.6733 90.0686 83.5723 90.5343C83.5612 90.587 82.7053 91.0111 82.6154 91.0347C82.2753 91.124 81.8494 90.9017 81.5946 90.6778C81.2963 90.415 81.1244 89.7819 80.6762 89.8766C79.8814 90.0449 79.8734 90.6132 79.4897 91.1268C79.2717 91.4176 78.9826 91.6675 78.7473 91.9401C78.6146 92.0937 78.6243 92.4855 78.1016 92.3278C77.746 92.2211 77.857 91.6965 77.8197 91.5143C77.7995 91.4152 77.674 91.3286 77.6471 91.139C77.5459 90.4214 77.8329 89.8764 77.9187 89.1906L78.3166 89.0002L78.3157 89.0002Z" fill="black"/>
<path d="M91.4706 87.4381C91.5517 87.5232 91.7586 87.9599 91.7803 88.0847C91.8341 88.3928 91.8386 88.9643 91.4448 88.8541L91.2311 87.9686C90.5017 87.8828 89.799 88.5449 89.676 89.2325C89.4214 90.6533 92.2313 92.1577 90.6968 93.2868C89.9117 93.2406 88.9318 92.8907 88.7348 92.0306C88.9957 91.8258 89.0568 92.1764 89.1995 92.2804C89.5437 92.5314 89.9189 92.8537 90.3722 92.7552C90.5032 92.031 89.777 91.5397 89.4435 91.0057C89.1803 90.5846 88.7811 89.8327 88.8682 89.3433C88.9422 88.9316 89.7172 88.0393 89.9822 87.6762C90.448 87.541 90.9524 86.8936 91.4706 87.4373L91.4706 87.4381Z" fill="black"/>
<path d="M83.3131 40.4814C83.494 42.1891 82.9578 44.0179 83.8868 45.5656C84.3869 45.5958 84.3749 45.0458 84.5706 44.7138C84.6795 44.5288 85.2124 43.5972 85.273 43.537C85.4183 43.392 85.6524 43.3542 85.8468 43.3235C86.7495 43.5695 87.2013 46.6414 87.5171 46.8238C87.9436 47.0701 89.0756 45.7661 89.465 45.5555C89.5342 45.6284 89.1119 46.1555 89.036 46.2445C88.9051 46.3998 87.7981 47.4924 87.7167 47.5371C87.3431 47.7411 87.5001 47.4234 87.4236 47.3417C87.3726 47.2879 87.191 47.3315 87.0827 47.1875C86.8094 46.8236 86.5375 45.2026 86.2737 44.6189C86.1348 44.3112 85.9808 44.0385 85.6775 43.8621L85.3405 44.042C84.8805 44.8679 84.5292 46.324 83.5562 46.6034C83.7048 46.0182 83.361 45.7459 83.2248 45.335C82.7462 43.8907 83.2627 42.659 83.0676 41.3419C83.0078 40.938 82.4758 40.5156 83.3131 40.4814Z" fill="black"/>
<path d="M24.9384 108.759C24.9329 108.718 24.7829 108.569 24.7538 108.399C24.681 107.971 24.9311 106.94 24.3548 107.016C24.8266 106.517 24.5081 106.298 24.4347 105.777C24.3884 105.446 24.4204 104.809 24.3596 104.472C24.2391 103.8 23.9378 103.095 23.737 102.442L23.9203 102.251C24.4371 102.777 24.3502 103.524 24.4683 104.171C24.4981 104.336 24.6228 104.462 24.6508 104.626C24.7318 105.098 24.6687 106.693 25.1561 106.858C25.2617 106.893 27.0558 106.572 27.2695 106.501C27.4102 106.455 27.4003 106.34 27.468 106.318C28.0415 106.129 28.9699 105.945 29.3546 105.471C29.5129 105.277 30.3609 103.256 30.8058 104.062L30.842 104.267C30.5784 104.475 30.5775 104.863 30.4261 105.087C30.1566 105.485 28.7398 106.317 29.9203 106.607C29.9282 106.178 30.4897 105.898 30.7873 105.63C30.9616 105.473 30.9854 105.147 31.32 105.226C31.8388 106.045 31.5662 107.313 32.1164 108.038C32.2191 108.173 32.6722 108.562 32.8164 108.582C33.1074 108.623 33.4503 108.252 33.743 108.36C33.7027 108.702 32.7274 108.852 32.516 108.769C32.4703 108.752 31.8313 108.129 31.8063 108.087C31.5867 107.706 31.3967 106.133 31.1088 106.042L30.8103 106.092L29.1919 107.802C28.079 108.271 28.6962 106.809 28.5292 106.55C28.2432 106.107 27.5587 106.577 27.2593 106.663C26.8217 106.788 26.3055 106.716 25.9644 106.835C25.9169 106.851 25.1942 107.354 25.1668 107.393C25.0435 107.571 25.0825 108.492 25.1174 108.754C25.1859 109.262 25.7017 109.923 25.201 110.328L24.9742 110.199C24.9255 109.737 25.001 109.208 24.9383 108.757L24.9384 108.759Z" fill="black"/>
<path d="M111.872 53.5659L111.885 53.8279C110.91 53.6264 109.604 54.6155 109.414 55.5608C109.295 56.1603 109.223 56.9258 109.276 57.5459C109.303 57.8679 109.523 59.2369 109.676 59.4135C110.36 59.7432 110.665 59.1729 111.298 59.1588L111.254 59.4382C110.889 59.5273 109.92 59.7577 109.812 60.1614C109.662 60.7252 110.695 62.5815 110.387 62.7732L110.042 62.7943C110.123 62.418 109.851 62.2487 109.732 61.9637C109.489 61.3785 109.218 60.7434 109.343 60.1109C108.852 60.0706 108.354 60.0804 107.861 60.0767C107.512 60.0738 107.442 60.2596 106.999 60.0359C106.664 59.8674 106.594 59.5891 107.042 59.7131C107.293 59.7824 108.33 59.7618 108.648 59.7343C109.381 59.6716 108.95 58.8698 108.954 58.4456C108.956 58.2873 109.093 58.1781 109.086 58.0156C109.073 57.6932 108.815 56.3012 108.924 56.1456L109.243 56.0541C108.902 55.731 108.941 55.5904 109.097 55.1678C109.48 54.1296 110.746 53.2135 111.872 53.565L111.872 53.5659Z" fill="black"/>
<path d="M103.167 75.674C102.989 76.1007 102.705 76.0633 102.377 76.1951C102.286 76.232 102.208 76.3486 102.11 76.3795C100.343 76.9357 100.352 74.0532 99.6092 73.7357C99.2425 73.5786 98.8812 73.9174 98.7734 74.2544C98.7084 74.4587 98.7629 74.6512 98.7164 74.8159C98.6162 75.1713 98.1943 76.6016 97.6401 76.1798C97.3095 75.8307 97.7556 75.3715 97.7295 74.9294C98.3889 74.4854 97.9774 74.1996 98.2769 73.6925C98.3373 73.5896 99.0178 72.8517 99.0713 72.8272C100.479 72.1894 101.113 75.7652 101.647 76.0319C101.887 76.1522 102.694 75.4244 103.167 75.674Z" fill="black"/>
<path d="M67.8833 103.363C67.9235 103.054 68.2482 103.056 68.3759 103.306C68.5811 103.708 68.2358 105.404 69.2502 104.936C69.4115 104.862 69.3993 104.62 69.5919 104.555C70.2972 104.316 70.587 105.018 71.0848 105.351C71.8064 105.834 72.526 106.063 73.2759 105.512C74.0257 104.96 74.0711 104.398 74.5469 103.738C74.6086 103.652 74.9279 103.262 74.9918 103.549C75.0117 103.638 74.4007 105.134 74.3177 105.255C74.263 105.335 73.6421 106.009 73.5707 106.062C73.1727 106.354 72.1896 106.373 71.7271 106.246C71.6583 106.228 70.939 105.869 70.8284 105.807C70.4856 105.613 70.4432 105.261 69.9127 105.293C69.6276 105.311 68.8356 106.343 68.3531 105.733C68.2844 105.646 67.9168 104.774 67.9153 104.715C67.9054 104.319 67.8348 103.726 67.8816 103.364L67.8833 103.363Z" fill="black"/>
<path d="M125.574 104.201C125.974 104.452 126.373 104.1 126.786 104.036C127.785 103.882 128.108 104.357 127.342 105.048C126.768 105.565 125.66 105.382 125.041 105.086C124.867 104.786 124.969 104.445 124.899 104.127C124.61 102.813 124.628 101.968 124.472 100.703C124.444 100.481 124.018 99.4891 124.318 99.3927C125.343 99.4125 124.638 100.823 125.12 101.4C125.131 102.341 125.328 103.293 125.574 104.201L125.574 104.201Z" fill="black"/>
<path d="M89.7763 74.4361C89.9496 74.6638 90.066 74.7809 90.2488 74.9977C90.4425 75.2284 90.6171 75.4721 90.8344 75.6836C90.8975 75.9034 90.5861 76.3273 90.3668 76.3532C89.6711 76.1572 88.8516 76.5127 88.2843 75.9535C88.2172 75.4351 88.818 75.2725 89.2161 75.3026C89.2101 75.5268 89.2496 75.7231 89.4669 75.8297L89.7641 75.513C89.4713 74.8695 88.8028 74.5208 88.4875 73.8983C88.2291 73.3873 87.9074 72.4352 88.6035 72.1112C88.7753 72.0313 88.9456 72.1711 88.9602 72.1538C88.9809 72.1284 88.9071 71.9436 89.0055 71.8718C89.0499 71.8395 89.9426 71.4697 90.0211 71.4499C90.4617 71.3358 91.1776 71.2753 91.4613 71.6958L91.2975 71.956C91.0189 71.9878 90.7395 71.8081 90.4597 71.8613C90.2628 71.8982 89.0018 72.4702 88.9253 72.6037C88.6176 73.1394 89.4645 74.0269 89.7772 74.4369L89.7763 74.4361Z" fill="black"/>
<path d="M42.4599 61.7635C42.3797 61.817 42.022 61.8055 41.9301 61.7482C41.74 61.6285 40.9198 59.6433 40.5606 59.2175C39.5682 58.0412 38.4279 60.3615 38.1244 61.1043C37.9489 61.5337 38.0354 62.1583 37.5005 62.2605C37.1391 61.9921 37.4551 61.5744 37.4744 61.3206C37.4839 61.203 37.4004 61.0539 37.4218 60.8827C37.4411 60.7293 37.5792 59.8671 37.61 59.8227C37.717 59.6663 38.0302 59.7785 38.1953 59.6775C38.2521 59.6423 38.6456 58.9932 38.799 58.8481C39.2512 58.418 39.6692 58.1809 40.3255 58.3584C41.1344 58.5782 41.7048 60.3234 42.1998 61.0063C42.3909 61.27 42.7486 61.2131 42.4617 61.7652L42.4599 61.7635Z" fill="black"/>
<path d="M74.8532 139.856C74.5213 140.275 74.2581 140.747 73.6442 140.738C73.4592 140.681 73.2749 140.403 73.477 140.258L74.2269 140.277C75.0031 139.609 75.3326 138.49 74.6732 137.619C74.2376 137.044 73.2356 136.585 73.0289 135.838C72.8769 135.288 72.9435 134.831 73.3293 134.403C73.4406 134.279 74.7251 133.367 74.9503 133.223C75.1136 133.119 75.5106 132.896 75.6846 132.866C75.7526 132.854 76.6123 132.83 76.6604 132.84C76.6969 132.848 76.8452 132.96 76.7623 133.015C76.4454 133.144 76.1015 133.151 75.7381 133.27C75.1109 133.474 73.7641 134.271 73.6385 134.961C73.4115 136.208 74.3693 136.42 75.11 137.066C75.2314 137.171 75.6058 137.496 75.6433 137.612C75.9183 138.467 75.3312 139.252 74.8532 139.856Z" fill="black"/>
<path d="M29.2362 46.6968L29.1461 47.1391L28.5619 47.3244C27.4813 47.0606 27.0601 44.5027 25.901 44.6081C25.3267 44.6606 25.3168 45.2974 25.1675 45.6754C24.9815 46.1468 24.8101 46.6703 24.5275 47.0045C24.3742 47.1861 24.5942 47.3655 23.9437 47.2795C23.8993 46.8477 24.0185 45.0142 24.3967 44.8536C24.5161 44.8027 24.6834 44.826 24.8448 44.7527C25.3718 44.5128 25.2519 43.9744 25.9726 43.8906C26.4325 43.8374 26.6279 43.9552 26.925 44.2785C27.4328 44.8322 28.0306 46.574 28.3771 46.8151C28.7688 47.0881 29.2061 46.662 29.2353 46.6968L29.2362 46.6968Z" fill="black"/>
<path d="M102.759 44.2141C102.77 44.2342 102.898 44.2257 102.951 44.34C103.404 45.2995 103.23 45.8523 104.353 46.4653C104.994 46.8147 105.129 46.7376 105.767 46.5021C105.845 46.5579 105.151 46.9797 105.026 46.9571C104.923 46.9383 104.848 46.7561 104.719 46.7238C104.55 46.6809 104.283 46.8511 103.976 46.6774C103.801 46.5778 103.753 46.3096 103.602 46.2414C103.462 46.1773 103.262 46.2329 103.149 46.1647C103.013 46.0827 103.005 45.7157 102.932 45.5611C102.874 45.4398 102.753 45.3664 102.702 45.2485C102.61 45.0366 102.629 44.5027 102.345 44.5107C102.101 44.5167 101.994 44.9319 101.859 45.0873C101.273 45.7616 100.347 46.2194 99.6243 46.7397C99.3851 46.5732 99.1899 46.3558 98.9784 46.1611C98.9339 46.1204 98.8114 46.151 98.7377 46.0755C98.208 45.5331 97.8552 44.2937 97.7789 43.547C98.1494 43.5031 98.0498 44.2017 98.114 44.3948C98.1284 44.4398 98.303 44.7519 98.3503 44.837C98.4338 44.986 99.1797 46.0191 99.2528 46.0351C99.4268 46.0743 99.6264 46.0071 99.7917 45.9488C99.9358 45.8972 101.35 45.0831 101.46 44.9897C101.772 44.7241 102.137 43.5121 102.174 43.0756C102.402 42.8743 102.754 43.6212 102.783 43.7752C102.812 43.9292 102.704 44.1087 102.758 44.2141L102.759 44.2141Z" fill="black"/>
<path d="M79.5125 42.6369C80.1749 42.9902 80.543 42.244 81.1045 42.07C81.1487 42.2449 81.0176 42.2855 80.9242 42.3812C80.5974 42.7183 80.1776 43.0968 79.7799 43.3307C79.9441 43.9756 80.4581 45.9169 80.1414 46.4493C80.0759 46.5603 79.7319 46.7431 79.6854 46.4785C79.6212 46.1085 79.7703 45.758 79.7468 45.4875C79.7271 45.2666 79.4374 44.3217 79.3631 44.0417C79.3072 43.8297 79.2875 43.6071 79.2317 43.396L79.0207 43.331C78.6065 43.5058 76.6009 44.0608 76.3753 43.5837C76.3594 43.5503 76.3377 43.3579 76.4149 43.3569C76.9966 43.3912 77.8353 43.5215 78.3906 43.3494C78.6203 43.2779 79.3655 42.8957 79.3037 42.6225C78.8586 42.2718 79.0088 41.8226 78.9056 41.3807C78.7915 40.8955 78.3565 39.8457 78.3461 39.4655C78.3281 38.7413 78.958 39.6067 79.0482 39.8445C79.313 40.5411 79.276 41.4764 79.4682 42.1766C79.5101 42.3275 79.4742 42.4867 79.5116 42.6369L79.5125 42.6369Z" fill="black"/>
<path d="M136.094 106.152C136.005 106.091 135.866 106.098 135.755 106.003C134.126 104.607 135.007 102.331 135.083 100.514C135.114 99.7887 135.012 99.0364 135.03 98.3087L135.305 98.3419L135.378 98.4494C135.335 99.0675 135.603 99.7338 135.625 100.321C135.688 101.939 134.778 103.888 135.886 105.401C135.954 105.494 136.409 105.948 136.48 105.976C137.06 106.207 137.449 105.582 137.918 106.033C138.028 106.441 136.636 106.535 136.372 106.461C136.189 106.408 136.187 106.216 136.093 106.153L136.094 106.152Z" fill="black"/>
<path d="M104.038 135.851L102.312 137.046C101.821 136.632 101.845 135.89 101.42 135.417C100.535 134.431 99.0872 135.708 98.3951 136.405C98.229 136.572 97.4872 137.767 97.1564 137.552C96.8614 136.999 97.2403 136.652 97.2897 136.142C97.3207 135.82 97.1479 135.079 97.4963 134.932C97.6983 134.889 97.6226 135.018 97.6357 135.151C97.6609 135.416 97.6198 135.687 97.6681 135.951C98.2362 136.47 98.7645 135.501 99.1733 135.213C99.2936 135.128 99.9726 134.762 100.116 134.705C100.839 134.419 101.383 134.541 101.905 135.091C102.176 135.376 102.376 136.234 102.673 136.318C103.244 136.477 103.475 135.778 104.037 135.851L104.038 135.851Z" fill="black"/>
<path d="M72.285 31.0251C72.3728 31.0984 72.002 31.5895 71.8432 31.4468C71.6813 31.2135 71.6048 31.0972 71.3173 31.0216C71.1024 30.5843 70.6841 30.2373 70.5652 29.7389C70.2967 28.6076 70.4361 27.1559 70.3641 25.9762C70.3443 25.6469 70.0325 23.5965 70.1189 23.5073C70.5454 23.43 70.6899 23.7126 70.755 24.0853C71.0087 25.5458 70.9324 27.1089 71.0461 28.5756C71.1036 29.3147 71.3663 31.0284 72.2849 31.0233L72.285 31.0251Z" fill="black"/>
<path d="M76.0792 30.3558C75.0781 28.9405 75.2004 27.6555 74.944 26.051C74.8598 25.5232 74.6029 24.9651 74.5588 24.3315C74.5328 23.9649 74.4538 23.1801 74.9841 23.6052C75.2999 23.8587 75.0512 23.9849 75.1031 24.2165C75.1211 24.297 75.2376 24.3812 75.2665 24.5103C75.6671 26.2801 75.5678 28.3434 76.502 29.9559C76.7105 30.3152 77.4552 30.838 76.8332 31.1798L76.0801 30.3558L76.0792 30.3558Z" fill="black"/>
<path d="M24.7123 74.4761C24.3331 74.5638 24.7209 74.1087 24.6024 73.9454L24.0845 73.8765C24.0347 74.1196 23.7804 74.2362 23.683 74.4182C23.6025 74.5687 23.1887 75.5463 23.1637 75.6811C22.8636 77.3022 23.9479 77.8228 25.2179 76.9359C26.142 76.2914 26.326 75.7045 26.9742 74.9176C27.0232 74.8585 27.7641 74.088 27.5908 74.5377C27.555 74.6301 27.2122 74.9321 27.0982 75.1243C26.6113 75.9436 26.1944 76.6537 25.3651 77.2531C24.9974 77.5183 24.14 77.9158 23.695 77.8184C23.514 77.7785 22.8302 77.4204 22.8238 77.2009C22.8079 76.6697 22.7449 76.9531 22.7032 76.8083C22.5574 76.2963 22.8904 75.8888 23.0052 75.4424C23.1791 74.7686 23.2872 74.052 23.6546 73.4241C23.7814 73.2085 24.2905 72.6072 24.5375 72.5868C25.3747 72.5171 24.6352 74.0513 24.7114 74.4761L24.7123 74.4761Z" fill="black"/>
<path d="M46.9911 105.913C47.0467 106.151 46.9338 106.069 46.8194 106.141C46.4964 106.344 44.5601 107.116 44.1922 107.157C43.3405 107.253 42.4509 107.213 41.7492 106.673C41.3947 106.4 41.3496 106.227 41.4637 105.785C41.5939 105.281 43.6955 103.208 44.1876 102.847C44.4097 102.684 44.7901 102.614 44.9677 102.267L45.1562 102.536C44.5501 102.982 44.0876 103.569 43.576 104.106C43.0989 104.606 41.8785 105.459 42.2772 106.295C42.4251 106.606 43.7584 106.833 44.082 106.794C44.3826 106.758 45.67 106.387 46.0334 106.272C46.3599 106.169 46.6165 105.861 46.9911 105.912L46.9911 105.913Z" fill="black"/>
<path d="M52.4533 101.361L50.9178 102.841C50.5634 103.459 51.4342 104.772 51.8613 105.219C52.2411 105.617 53.5626 106.155 52.49 106.709C51.5322 107.205 50.7897 106.774 49.8024 106.833L49.9439 106.569C50.3177 106.55 51.017 106.677 51.3466 106.59C51.6038 106.523 51.813 106.267 52.1274 106.324L52.0724 105.966L50.7804 104.834C50.2572 104.198 50.0846 103.07 50.5878 102.375C50.6804 102.247 51.1339 101.866 51.2975 101.707C51.3858 101.622 51.4314 101.459 51.4924 101.413C51.7257 101.236 52.1849 101.267 52.4525 101.362L52.4533 101.361Z" fill="black"/>
<path d="M27.4581 88.3151C27.0449 87.8551 26.2112 87.8546 25.679 88.1008C25.3564 88.2502 24.9252 88.8148 24.5839 88.7113L24.4405 88.5095L24.2513 88.4982C23.716 89.5081 23.0426 90.8496 23.8143 91.9212C24.6162 93.0329 26.0828 91.7766 26.7646 91.0893C27.3277 90.5213 27.8071 89.8986 27.7768 89.0406C27.7737 88.9171 27.5293 88.3951 27.4581 88.3151ZM24.7365 91.9506C24.5456 91.9794 24.3439 91.9969 24.1577 91.9286C24.0392 91.8729 23.8412 91.4369 23.8274 91.3083C23.7957 90.9979 23.9907 89.8196 24.1533 89.5479C24.5332 88.9179 24.7456 89.3624 25.0777 89.203C25.3774 89.0595 25.4826 88.5475 26.027 88.4335C26.2987 88.376 27.0455 88.3805 27.2319 88.599C27.5142 88.9307 27.5862 89.6819 27.3895 90.0824C27.1304 90.609 25.324 91.8613 24.7365 91.9506Z" fill="black"/>
<path d="M116.648 136.618C116.797 136.725 116.65 136.781 116.519 136.8C116.048 136.873 115.311 136.841 114.806 136.848C114.643 136.85 114.469 136.763 114.353 136.773C114.202 136.786 114.147 136.967 113.955 136.921C113.894 136.907 113.183 136.416 113.096 136.336C113.071 136.315 112.692 135.863 112.677 135.834C112.426 135.361 112.517 134.646 111.788 134.57C110.811 134.469 110.304 135.024 109.639 135.651C109.46 135.82 108.472 137.231 108.448 136.327C108.44 135.992 108.92 135.302 108.778 134.83C109.076 134.715 109.319 135.091 109.548 135.077C109.636 135.072 109.897 134.903 110.056 134.851C110.174 134.812 110.36 134.872 110.381 134.857C110.412 134.835 110.425 134.702 110.489 134.665C110.993 134.372 111.911 133.982 112.471 134.222C113.048 134.47 113.379 136.227 114.13 136.542C114.658 136.762 116.545 136.543 116.647 136.617L116.648 136.618Z" fill="black"/>
<path d="M136.248 42.5857C136.14 42.9476 136.543 43.0727 136.607 43.2711C136.684 43.5074 136.587 43.8005 136.663 44.044C136.682 44.1067 137.284 45.0794 137.352 45.1657C137.907 45.8684 138.716 45.153 139.031 46.0306L137.953 46.0575L137.944 45.6986C137.671 45.6582 137.842 45.9741 137.5 45.8892L137.486 45.6273L137.31 45.6655C137.292 45.3023 136.873 45.2879 136.786 45.1611C136.694 45.0274 136.69 44.2754 136.439 44.8337C136.174 44.7185 136.538 44.1983 135.872 44.2211C135.607 44.2304 135.106 44.6616 134.823 44.7878C134.247 45.0457 133.595 45.2389 132.959 45.1712C132.878 45.1626 132.681 44.9701 132.913 45.0346L133.068 44.9178C132.653 44.8579 131.949 44.2523 131.802 43.8923C131.769 43.8104 131.724 43.664 131.867 43.6853C131.888 43.9986 132.192 43.8737 132.387 44.0618C132.673 44.34 132.591 44.5705 133.203 44.6371C133.566 44.6769 135.125 44.1864 135.406 43.9589C135.652 43.7608 135.826 43.2141 136.08 43.1269L135.892 42.9929L135.98 42.5906L136.247 42.584L136.248 42.5857Z" fill="black"/>
<path d="M81.5484 57.7756C81.4792 57.7009 81.3618 57.654 81.2691 57.5639C81.0764 57.3775 80.9745 56.8831 80.4876 56.953C80.3716 57.2084 80.5289 57.5041 80.5081 57.702C80.5046 57.7412 80.058 58.1479 79.9796 58.2735C79.6751 58.7611 79.451 59.6273 79.6704 60.1712C79.8264 60.5594 80.3713 60.897 80.785 60.8049C81.0972 60.7349 81.7065 60.2014 81.9101 59.9376C82.6214 59.0166 82.1862 58.4567 81.5484 57.7756ZM80.2151 59.9665C80.015 59.4114 80.5362 58.4392 80.6178 57.8717C80.8375 57.5409 81.4765 58.3073 81.5926 58.5142C82.0873 59.3971 80.4219 60.541 80.2151 59.9665Z" fill="black"/>
<path d="M38.179 102.345L38.1857 102.616L37.8802 102.527C37.6861 102.889 37.1018 103.036 36.8081 103.281C36.5692 103.481 36.5147 103.818 36.2449 103.99C36.1987 104.235 36.3307 105.298 36.4202 105.541C36.4449 105.61 37.0785 106.37 37.1555 106.433C37.2533 106.514 37.4545 106.475 37.4824 106.563C37.7473 107.406 36.4285 108.933 35.5041 108.638C35.185 108.537 34.3698 107.928 34.8036 107.611C35.1015 107.394 35.1702 108.086 35.3032 108.194C35.7105 108.524 37.2513 107.679 36.8594 106.832C36.5352 106.134 35.9118 105.962 35.735 105.06C35.5725 104.234 36.2055 103.19 36.8078 102.664C36.9858 102.509 37.3902 102.298 37.6205 102.285C37.8508 102.272 37.9569 102.509 38.1799 102.345L38.179 102.345Z" fill="black"/>
<path d="M40.9738 108.831C41.1282 108.976 41.5866 108.971 41.6668 109.166C41.8207 109.538 41.228 109.884 40.8681 109.357C40.7806 109.229 40.8004 109.061 40.7408 108.981C40.6527 108.864 40.4033 108.785 40.3528 108.61C40.2975 108.418 40.3313 108.211 40.2783 108.038C39.7389 106.291 39.6279 104.611 39.2484 102.838C39.1922 102.574 38.7089 101.049 38.7755 100.98C38.8041 100.951 39.0573 100.971 39.1365 101.016C39.3712 101.148 39.8309 103.22 39.9109 103.619C40.1853 104.986 40.4386 106.572 40.5895 107.894C40.6156 108.122 40.8149 108.68 40.9738 108.831Z" fill="black"/>
<path d="M122.02 103.969C121.586 103.745 121.15 103.288 120.752 103.043C120.399 102.825 120.021 102.748 119.699 102.497C119.419 102.421 118.909 103.083 118.887 103.283C118.85 103.596 119.111 103.529 119.202 103.661C119.321 103.832 119.159 104.115 119.162 104.337C119.176 105.024 119.259 105.599 119.808 106.067C120.782 105.835 121.205 105.368 121.784 104.626C121.937 104.429 122.207 104.503 122.02 103.969ZM121.504 104.445C121.464 104.579 120.243 105.443 119.975 105.268C119.497 105.015 119.757 102.836 119.988 102.831C120.212 102.962 120.365 103.271 120.529 103.415C120.793 103.65 121.618 104.063 121.504 104.445Z" fill="black"/>
<path d="M46.9252 27.5107L46.932 27.7817L47.2025 27.8176C46.6588 27.9948 46.471 28.3222 46.6037 28.9136C46.6206 28.987 47.2523 30.0656 47.3521 30.2258C47.5166 30.4902 47.8379 30.5 47.882 31.0607C47.9012 31.2994 47.6181 31.6808 47.4408 31.8256C47.1757 32.0412 46.0091 32.1716 45.6448 32.1407C45.5257 32.1303 44.5619 31.8219 44.7804 31.6199C45.5882 31.7589 46.7059 31.7693 47.2897 31.1369C47.1494 30.2389 45.3635 29.1108 45.7303 28.1735C45.8204 27.9437 46.8435 27.4319 46.9252 27.5107Z" fill="black"/>
<path d="M45.2813 120.283C45.3643 120.733 44.9131 120.918 44.6901 121.258C44.1305 122.113 44.0474 122.834 44.2087 123.862C44.291 124.389 44.8817 125.493 45.5237 125.131C45.961 124.885 46.8974 123.741 47.0381 123.233C47.3749 122.014 46.9263 121.166 45.5875 121.717L45.6615 121.304C46.9064 120.975 47.5377 121.785 47.4194 122.981C47.3457 123.725 45.8794 125.811 45.1042 125.7C44.8719 125.667 44.8978 125.463 44.7754 125.389C44.5089 125.229 44.4813 125.476 44.2141 124.968C43.8837 124.34 43.7634 123.787 43.8218 123.068C43.8843 122.305 44.2686 121.426 44.6153 120.747C44.7962 120.392 44.8235 120.207 45.2822 120.284L45.2813 120.283Z" fill="black"/>
<path d="M105.421 57.8646C105.38 58.6417 104.552 58.1787 104.148 58.2706C103.953 58.3155 103.061 59.0996 102.985 59.2775C102.811 59.6846 103.443 60.7819 103.788 61.0169C104.862 61.7493 105.924 60.1644 105.723 59.163C106.181 58.9498 106.186 59.7062 106.337 59.995C106.396 60.1099 106.932 60.6282 106.841 60.7114C106.422 60.8925 106.311 60.2828 106.081 60.293C105.802 60.3052 105.839 60.595 105.716 60.7386C104.986 61.5951 104.287 62.2153 103.267 61.2868C102.616 60.6949 102.724 60.0993 102.708 59.2809L103.456 58.2319C104.137 58.0086 104.673 57.7775 105.421 57.8637L105.421 57.8646Z" fill="black"/>
<path d="M70.6452 131.186C70.8081 131.85 70.2619 131.96 69.9095 132.375C69.1177 133.308 67.7592 136.943 67.7576 138.156C67.757 138.455 68.0096 139.41 68.1305 139.703C68.3448 140.224 68.7728 140.709 69.3553 140.772L69.2639 141.125C68.7895 141.201 68.3286 140.889 68.0508 140.527C67.9664 140.416 67.5512 139.696 67.531 139.597C66.9543 136.851 68.8992 133.969 69.9322 131.542C70.1433 131.365 70.338 131.136 70.6443 131.186L70.6452 131.186Z" fill="black"/>
<path d="M81.2377 133.984C80.998 133.974 80.7373 133.974 80.6478 133.729C80.4657 134.003 80.0596 133.937 79.8421 134.105C79.3906 134.455 78.6155 135.632 78.5257 136.192C78.3276 137.422 78.8537 138.816 80.3115 138.596C80.7975 138.523 81.435 138.236 81.8797 138.07C82.0299 138.014 82.5957 137.762 82.5092 138.098C81.8829 138.235 81.2984 138.729 80.6627 138.845C79.5026 139.055 78.0528 138.78 77.9862 137.356C77.9216 135.973 78.5028 135.239 79.1812 134.133L79.4313 134.203C79.4685 133.918 79.7223 133.924 79.884 133.791C80.0925 133.621 80.0115 133.395 80.4437 133.407C80.8466 133.417 81.085 133.621 81.2377 133.984Z" fill="black"/>
<path d="M53.9602 133.694C54.0332 133.815 53.9694 134.063 53.9918 134.214C53.8397 134.235 53.9096 134.012 53.7513 133.961C53.6566 133.931 53.2478 133.935 53.151 133.964C53.0454 133.996 52.6854 134.676 52.6646 134.839C52.6322 135.105 52.9094 136.189 53.0102 136.5C53.1208 136.842 53.7516 136.89 53.4694 137.628C53.4477 137.684 52.8611 138.591 52.8196 138.635C52.7289 138.731 51.4581 139.413 51.3763 139.404L51.2378 139.15C51.7253 138.957 52.1697 138.642 52.5427 138.307C52.6129 138.244 52.7644 138.235 52.8336 138.165C53.1918 137.806 52.3355 136.612 52.2478 136.189C52.2064 135.99 52.2621 135.768 52.2234 135.568C52.1268 135.073 51.8553 134.783 52.1559 134.175C52.3838 133.714 53.7122 133.283 53.9601 133.692L53.9602 133.694Z" fill="black"/>
<path d="M37.5758 135.883C36.0274 136.774 37.7287 137.818 38.5853 138.38L39.3649 139.306C39.3742 139.43 39.0975 140.143 39.0188 140.294C38.692 140.916 37.7895 141.679 37.0483 141.578C36.8187 141.547 35.9603 140.877 36.1633 140.518L36.8699 141.112C37.4825 141.353 38.8334 140.436 38.8385 139.856C38.8396 139.759 38.6369 139.064 38.5966 139.013C38.5279 138.926 38.3619 138.952 38.3101 138.903C37.7214 138.34 37.1207 138.011 36.6583 137.356C36.6133 137.293 36.4597 137.288 36.4354 137.203C36.3099 136.759 37.0506 136.017 37.3544 135.717L37.575 135.884L37.5758 135.883Z" fill="black"/>
<path d="M33.4132 89.1582C33.5341 89.3108 33.6239 89.6419 33.7812 89.8336C34.3264 90.501 34.8158 90.9929 35.7394 91.0063C35.8804 91.0757 35.7712 91.2135 35.6954 91.2332C35.6161 91.2547 34.5385 91.0371 34.4432 90.9862C34.3111 90.9157 33.6314 90.1574 33.4666 89.9855C33.1197 89.6225 32.6298 88.719 32.0034 89.0289C31.9622 89.0495 31.3512 89.6204 31.3256 89.6584C31.2597 89.7542 31.2792 89.9333 31.2061 90.0267C30.8658 90.4628 30.4345 91.0906 29.8957 91.1093L29.5859 89.4946L29.881 90.1985C30.6634 90.3479 31.0069 89.4343 31.4586 88.9492C31.6936 88.697 31.9498 88.4799 32.2222 88.2705C32.6735 88.3374 32.8595 88.6849 33.1209 88.961C33.2074 89.0522 33.3573 89.0858 33.415 89.1582L33.4132 89.1582Z" fill="black"/>
<path d="M42.069 139.845C42.0597 139.825 41.924 139.825 41.8987 139.772C41.6318 139.207 41.363 137.602 41.291 136.918C41.1736 135.802 41.3471 134.649 41.1164 133.544C41.574 133.722 41.5852 133.957 41.6654 134.398C41.8658 135.502 42.0092 137.018 42.129 138.161C42.1592 138.448 42.0653 139.021 42.0936 139.159C42.1149 139.266 42.3255 139.282 42.3853 139.37C42.564 139.634 42.474 140.651 42.0089 140.138C41.9918 140.057 42.1084 139.929 42.069 139.845Z" fill="black"/>
<path d="M46.0716 135.546C45.5536 136.006 45.0381 136.282 44.528 136.666C44.2642 136.864 43.6425 137.292 43.6347 137.582C43.6175 138.243 44.2511 138.117 44.6796 138.301C45.4759 138.153 46.5426 137.649 47.2966 137.547C47.4575 137.525 47.6179 137.522 47.7794 137.524C47.7774 137.589 47.6998 137.677 47.6518 137.71C47.4774 137.828 45.8048 138.29 45.4803 138.365C44.6214 138.562 43.2443 138.891 42.8322 137.872C42.8249 137.79 42.8399 137.717 42.8816 137.646C42.9139 137.591 43.7018 136.858 43.8096 136.772C44.5948 136.145 45.6078 135.441 46.4489 134.888C46.5598 134.815 46.8447 134.257 46.8612 134.846C46.5403 135.031 46.3154 135.329 46.0707 135.546L46.0716 135.546Z" fill="black"/>
<path d="M125.248 55.928L124.699 56.6343C123.897 56.7974 123.102 57.6111 122.466 57.8919C122.021 58.0888 122.208 57.8343 122.088 57.808C121.814 57.7472 121.023 58.239 120.633 58.3421C120.489 58.3804 120.073 58.5401 120.004 58.356C119.955 58.223 120.467 57.9497 120.552 57.8258C120.997 57.6823 121.9 57.7157 122.083 57.184C122.113 57.0979 122.015 56.6923 122.02 56.5019C122.026 56.2848 122.111 56.0871 122.103 55.8766C122.091 55.5515 121.626 53.9362 121.69 53.8555C122.304 54.0233 122.13 54.6064 122.199 55.043C122.215 55.1386 122.344 55.2323 122.362 55.4114C122.397 55.76 122.311 56.163 122.344 56.4671C122.498 57.868 124.594 56.0972 125.248 55.9307L125.248 55.928Z" fill="black"/>
<path d="M88.5622 105.385C88.8377 105.798 89.1014 105.669 89.5238 105.571L89.4435 105.408L89.9642 105.201C89.8141 105.37 89.7322 105.713 89.5794 105.844C89.5455 105.874 88.9919 106.183 88.9564 106.184C88.5736 106.196 87.9455 105.369 87.7996 105.031C87.5229 104.392 86.9992 101.776 86.9846 101.084C86.9783 100.76 87.1878 100.522 87.2073 100.343C87.2319 100.119 86.995 99.9007 87.3539 99.6784C87.4775 100.189 87.3838 100.734 87.4393 101.252C87.5272 102.076 88.1412 104.752 88.5631 105.384L88.5622 105.385Z" fill="black"/>
<path d="M52.991 121.501C53.1505 121.817 53.5143 122.428 53.8408 122.682C54.0796 122.868 54.3926 122.616 54.3404 122.941C52.9224 123.195 52.7216 121.687 51.9994 120.858C51.8548 120.928 51.6516 120.956 51.5308 121.055C51.2891 121.253 50.862 122.192 50.6291 122.524C50.5057 122.699 49.3457 124.298 49.1437 123.558C49.0577 123.243 49.4983 123.235 49.6861 123.119C50.177 122.816 50.9585 121.438 51.4115 120.896C51.5958 120.676 51.8358 120.023 52.252 120.281C52.7384 120.582 52.7765 121.08 52.9901 121.5L52.991 121.501Z" fill="black"/>
<path d="M29.1308 74.9057C28.4356 74.9453 28.797 74.0766 28.4623 73.6689C28.1505 73.6153 27.9837 73.8942 27.7611 74.0393C27.679 73.9462 28.2869 72.93 28.3479 72.7098C28.4675 72.2783 28.569 71.1921 28.5804 70.725C28.5893 70.3701 28.2683 70.2305 28.7779 70.1449C28.9302 70.1705 29.0211 70.8981 29.0388 71.0746C29.0973 71.6776 28.972 72.2355 28.9839 72.7873C28.999 73.499 29.0981 74.1989 29.1307 74.9048L29.1308 74.9057Z" fill="black"/>
<path d="M45.4739 61.854C45.5855 62.0255 45.9614 62.1281 45.8151 62.5887C45.6041 62.6651 45.2909 62.6605 45.1237 62.4975C45.0664 62.4411 44.4605 61.1529 44.4392 61.0477C44.3665 60.6921 44.4469 58.1875 44.6292 58.0291L44.904 58.0623C45.1324 58.222 44.8267 59.764 44.8565 60.1385C44.8927 60.5954 45.2194 61.4638 45.474 61.8549L45.4739 61.854Z" fill="black"/>
<path d="M67.4445 31.7722C67.209 31.8235 67.1983 32.1047 66.8916 32.043C66.8426 32.0335 66.0541 31.6736 65.9794 31.631C65.4576 31.3328 64.7306 29.4911 65.1526 29.061C65.272 28.9389 65.6164 28.916 65.7163 29.1163C66.003 29.6941 65.7475 30.7237 66.4432 31.3082C66.7512 31.5673 67.3855 31.3274 67.4445 31.7722Z" fill="black"/>
<path d="M130.952 105.231C130.979 105.215 130.968 105.077 131.025 105.073L131.335 105.294C130.908 105.495 129.734 106.31 129.324 106.026C128.752 105.63 129.162 104.972 129.163 104.448C129.163 104.112 129.038 103.833 129.044 103.505C130.207 103.592 129.563 104.549 129.759 105.292C130.108 105.584 130.229 105.336 130.486 105.274C130.636 105.237 130.822 105.31 130.953 105.23L130.952 105.231Z" fill="black"/>
<path d="M20.467 42.8615C20.8008 42.8407 20.9969 43.0927 21.1226 43.367C21.6188 44.4517 21.6362 45.7563 22.0971 46.777C22.2211 47.0513 22.8568 47.543 21.9637 47.4711C21.8509 47.3921 21.8856 47.1138 21.8244 46.9714C21.3246 45.8139 21.2271 44.5343 20.63 43.4228C20.5063 43.1921 20.156 43.0844 20.467 42.8615Z" fill="black"/>
<path d="M87.0266 92.0272C86.8953 92.8448 85.7682 92.1368 85.6201 91.7102C85.2722 90.7063 85.7789 90.0038 85.6279 89.0376L86.0046 88.8131C86.1395 88.888 86.1321 88.9833 86.1496 89.1153C86.2802 90.0873 85.4609 92.1214 87.0266 92.0272Z" fill="black"/>
<path d="M132.249 42.9952C132.783 42.2547 134.445 41.6781 135.353 41.8199C135.676 41.8705 135.979 42.0363 136.06 42.3677C135.926 42.5675 135.932 42.4527 135.828 42.4322C135.355 42.3372 135.122 42.1981 134.576 42.2687C134.235 42.3127 132.862 42.8377 132.612 43.0333C132.384 43.2115 132.438 43.7115 132.275 43.7663C132.111 43.821 131.967 43.7188 131.948 43.5477C131.927 43.3455 132.138 43.15 132.249 42.9952Z" fill="black"/>
<path d="M34.2784 59.159C34.1487 59.436 34.2655 59.2847 34.2312 59.5798C34.1866 59.9587 33.8043 61.2013 34.4286 61.2364C34.5681 61.2445 35.3659 60.9837 35.3533 61.1885L34.3399 61.8041C34.1978 61.5845 33.6506 61.4052 33.6754 61.0499C33.6845 60.9163 34.0236 60.7851 33.6337 60.6926C33.9395 60.1507 33.8243 59.4441 33.9954 58.8371C34.0867 58.5139 34.3931 58.1764 34.4299 58.0173C34.4788 57.8062 34.2443 57.5774 34.5861 57.3795C34.9942 57.7765 34.5379 58.1861 34.4144 58.5324C34.3456 58.7252 34.4089 58.8828 34.2793 59.159L34.2784 59.159Z" fill="black"/>
<path d="M31.7107 122.746C32.205 123.293 32.8565 123.279 32.2036 124.126C31.9794 124.417 30.7031 125.479 30.5548 124.797C31.2227 124.661 31.7889 124.211 32.1331 123.647C31.846 122.944 30.0063 121.615 30.2032 120.905C30.2293 120.812 30.352 120.682 30.4506 120.653C30.5235 121.373 31.2191 122.202 31.7107 122.746Z" fill="black"/>
<path d="M76.4582 57.685C77.2279 58.0712 76.5375 59.6895 76.8283 60.1126C77.0197 60.3905 77.5541 59.7735 77.775 60.1299C77.5547 60.4012 77.2535 60.6967 76.8713 60.6289C75.6714 60.4161 76.4779 58.4731 76.4573 57.685L76.4582 57.685Z" fill="black"/>
<path d="M95.1454 72.5527C95.2651 72.5177 95.3237 72.5207 95.4043 72.6209C95.423 73.4419 94.5569 74.3827 95.4165 75.101C95.2142 75.4181 94.5337 75.1212 94.4414 74.8364C94.2934 74.3778 94.6902 72.6867 95.1454 72.5536L95.1454 72.5527Z" fill="black"/>
<path d="M126.111 54.4631C126.227 55.231 126.156 55.9831 126.072 56.7551C126.057 56.8959 125.92 56.9971 125.917 57.1217C125.909 57.4081 126.249 57.8949 125.661 57.9895C125.446 57.8055 125.768 56.3502 125.703 55.9615C125.651 55.6525 125.438 55.849 125.427 55.8324C125.306 55.6434 125.913 54.7232 125.842 54.4689L126.112 54.4622L126.111 54.4631Z" fill="black"/>
<path d="M106.08 134.809C106.082 135.126 105.868 135.125 105.839 135.499C105.772 136.349 105.83 136.457 106.663 136.551L106.519 136.784L105.651 136.787C105.267 136.535 105.309 136.048 105.119 135.684L104.392 135.573L105.321 135.54C105.51 135.484 105.637 134.689 106.08 134.809Z" fill="black"/>
<path d="M25.1397 120.425C25.2386 120.302 25.8337 121.121 25.8577 121.193C25.944 121.454 26.2053 122.721 26.1982 122.969C26.1934 123.132 26.2233 123.263 26.0673 123.374C25.7872 123.381 25.6578 122.176 25.6076 122.011C25.4415 121.467 25.113 120.99 25.1397 120.425Z" fill="black"/>
<path d="M31.6232 73.8524L31.667 75.6089L32.3102 76.0471C32.2845 76.6159 31.4829 76.587 31.3396 76.1389C31.2858 75.9705 31.37 74.2641 31.4224 74.053C31.4627 73.892 31.3883 73.8209 31.6232 73.8524Z" fill="black"/>
<path d="M29.1308 75.0878C29.3869 75.79 29.5612 76.6987 30.5193 76.4943C30.4306 77.6709 29.3243 76.6921 29.0646 76.1323C28.9241 75.83 28.9746 75.4749 28.7786 75.1873L29.1317 75.0887L29.1308 75.0878Z" fill="black"/>
<path d="M122.591 61.1295C122.504 60.8303 122.669 60.3861 122.619 60.1322C122.545 59.7633 122.266 59.0697 122.13 58.7042C122.075 58.5544 122.055 58.4171 122.07 58.2594C122.084 58.2395 122.337 58.3825 122.382 58.4383C122.505 58.5926 122.887 60.0864 122.926 60.3646C122.965 60.6428 122.958 61.1052 122.591 61.1295Z" fill="black"/>
<path d="M61.2298 107.089L60.9209 109.036L60.9118 110.52C60.7987 110.429 60.7146 110.362 60.6815 110.21C60.4901 109.329 60.678 108.578 60.9372 107.733C60.9987 107.532 61.0462 107.196 61.2298 107.09L61.2298 107.089Z" fill="black"/>
<path d="M140.759 61.2188L139.903 61.3335C139.139 61.0947 138.549 61.7078 137.794 61.3363C138.756 60.9834 139.771 61.0719 140.759 61.2179L140.759 61.2188Z" fill="black"/>
<path d="M37.1347 53.2591C36.6864 53.2525 36.3853 52.7805 36.2547 52.3826C36.1452 52.0473 36.2128 52.1266 36.5232 52.0477L36.6603 52.1359L37.1347 53.26L37.1347 53.2591Z" fill="black"/>
<path d="M22.3326 106.654C22.3586 106.669 22.3706 106.757 22.4406 106.789C22.8486 106.97 23.2938 106.934 23.7244 106.988C22.9505 107.395 22.1371 106.818 21.4742 106.447C21.4463 106.321 21.3982 106.134 21.5892 106.187C21.8329 106.354 22.0736 106.512 22.3326 106.654Z" fill="black"/>
<path d="M65.8594 22.1734C65.9295 22.636 65.4072 22.6881 65.0684 22.7313L64.9847 22.4336L65.1422 22.2366L65.8594 22.1734Z" fill="black"/>
<path d="M48.1678 27.3128L48.2784 27.6569C47.9936 27.4461 47.3952 28.001 47.2862 27.5456C47.2109 27.2316 48.0058 27.2946 48.1669 27.3128L48.1678 27.3128Z" fill="black"/>
<path d="M44.3343 53.4395C44.3355 53.8451 43.7701 53.9463 43.5319 53.6827C43.4675 53.4121 44.1836 53.3382 44.3343 53.4395Z" fill="black"/>
<path d="M116.155 145.732L116.455 146.896C116.365 146.855 116.227 146.83 116.184 146.744C116.132 146.643 115.797 145.4 116.155 145.732Z" fill="black"/>
<path d="M26.2187 124.004L26.4235 124.852L26.2989 125.442C26.0881 125.316 26.1979 125.234 26.1995 125.084C26.202 124.722 26.1779 124.363 26.2195 124.003L26.2187 124.004Z" fill="black"/>
</g>
<g filter="url(#filter1_d_767_102210)">
<path d="M17.657 31.9C17.657 36.622 14.272 41.1 9.55 41.1C4.82797 41.1 1 37.272 1 32.55C1 27.828 4.82797 24 9.55 24C14.272 24 17.657 27.178 17.657 31.9Z" fill="url(#paint2_linear_767_102210)"/>
</g>
<g filter="url(#filter2_d_767_102210)">
<circle cx="149.55" cy="11.55" r="8.55" fill="url(#paint3_linear_767_102210)"/>
</g>
<defs>
<filter id="filter0_f_767_102210" x="6.14227" y="3.69629" width="173.47" height="177.441" filterUnits="userSpaceOnUse" color-interpolation-filters="sRGB">
<feFlood flood-opacity="0" result="BackgroundImageFix"/>
<feBlend mode="normal" in="SourceGraphic" in2="BackgroundImageFix" result="shape"/>
<feGaussianBlur stdDeviation="3" result="effect1_foregroundBlur_767_102210"/>
</filter>
<filter id="filter1_d_767_102210" x="0.72" y="23.62" width="17.617" height="18.0596" filterUnits="userSpaceOnUse" color-interpolation-filters="sRGB">
<feFlood flood-opacity="0" result="BackgroundImageFix"/>
<feColorMatrix in="SourceAlpha" type="matrix" values="0 0 0 0 0 0 0 0 0 0 0 0 0 0 0 0 0 0 127 0" result="hardAlpha"/>
<feOffset dx="0.2" dy="0.1"/>
<feGaussianBlur stdDeviation="0.24"/>
<feComposite in2="hardAlpha" operator="out"/>
<feColorMatrix type="matrix" values="0 0 0 0 0.348633 0 0 0 0 0.132354 0 0 0 0 0.110134 0 0 0 0.66 0"/>
<feBlend mode="normal" in2="BackgroundImageFix" result="effect1_dropShadow_767_102210"/>
<feBlend mode="normal" in="SourceGraphic" in2="effect1_dropShadow_767_102210" result="shape"/>
</filter>
<filter id="filter2_d_767_102210" x="140.6" y="3" width="17.9" height="17.8996" filterUnits="userSpaceOnUse" color-interpolation-filters="sRGB">
<feFlood flood-opacity="0" result="BackgroundImageFix"/>
<feColorMatrix in="SourceAlpha" type="matrix" values="0 0 0 0 0 0 0 0 0 0 0 0 0 0 0 0 0 0 127 0" result="hardAlpha"/>
<feOffset dy="0.4"/>
<feGaussianBlur stdDeviation="0.2"/>
<feComposite in2="hardAlpha" operator="out"/>
<feColorMatrix type="matrix" values="0 0 0 0 0 0 0 0 0 0 0 0 0 0 0 0 0 0 0.25 0"/>
<feBlend mode="normal" in2="BackgroundImageFix" result="effect1_dropShadow_767_102210"/>
<feBlend mode="normal" in="SourceGraphic" in2="effect1_dropShadow_767_102210" result="shape"/>
</filter>
<linearGradient id="paint0_linear_767_102210" x1="99.8356" y1="85.2637" x2="120.336" y2="194.264" gradientUnits="userSpaceOnUse">
<stop offset="0.650819" stop-color="#717171" stop-opacity="0.2"/>
<stop offset="1" stop-color="#D7D7D7" stop-opacity="0"/>
</linearGradient>
<linearGradient id="paint1_linear_767_102210" x1="89.899" y1="-3.79855" x2="91.6865" y2="164.951" gradientUnits="userSpaceOnUse">
<stop stop-color="#878359"/>
<stop offset="0.0501" stop-color="#F6EEA8"/>
<stop offset="0.075" stop-color="#A9A870"/>
<stop offset="0.16" stop-color="#B3B276"/>
<stop offset="0.225" stop-color="#D2CD8A"/>
<stop offset="0.385" stop-color="#F5EDA7"/>
<stop offset="0.45" stop-color="#FDF6B1"/>
<stop offset="1" stop-color="#FCF7B1"/>
</linearGradient>
<linearGradient id="paint2_linear_767_102210" x1="7.25703" y1="23.9" x2="14.357" y2="50.55" gradientUnits="userSpaceOnUse">
<stop stop-color="#C62817"/>
<stop offset="0.38" stop-color="#B22415"/>
<stop offset="0.56" stop-color="#A51506"/>
<stop offset="0.765" stop-color="#C62817"/>
<stop offset="0.865" stop-color="#60130B"/>
<stop offset="0.975" stop-color="#60130B"/>
</linearGradient>
<linearGradient id="paint3_linear_767_102210" x1="147.25" y1="2.55" x2="157.75" y2="22.75" gradientUnits="userSpaceOnUse">
<stop stop-color="#C62817"/>
<stop offset="0.38" stop-color="#B22415"/>
<stop offset="0.56" stop-color="#A51506"/>
<stop offset="0.765" stop-color="#C62817"/>
<stop offset="0.865" stop-color="#60130B"/>
<stop offset="0.975" stop-color="#60130B"/>
</linearGradient>
<clipPath id="clip0_767_102210">
<rect width="136.761" height="126.321" fill="white" transform="translate(19.3796 23.332) rotate(-1.42835)"/>
</clipPath>
</defs>
</svg>
