<svg width="183" height="184" viewBox="0 0 183 184" fill="none" xmlns="http://www.w3.org/2000/svg">
<g filter="url(#filter0_f_767_102207)">
<path d="M12.1423 15.7832L163.62 9.69586L173.613 167.606L18.6907 175.138L12.1423 15.7832Z" fill="url(#paint0_linear_767_102207)"/>
</g>
<path d="M10.1923 13.2813L164.126 8.75393L168.653 162.687L14.7197 167.215L10.1923 13.2813Z" fill="#FDF7B2"/>
<path opacity="0.4" d="M10.1923 13.2813L164.126 8.75393L168.653 162.687L14.7197 167.215L10.1923 13.2813Z" fill="url(#paint1_linear_767_102207)"/>
<g clip-path="url(#clip0_767_102207)">
<path d="M118.05 114.516L117.944 114.704C118.192 115.051 118.503 115.548 118.332 115.997C118.24 116.238 117.163 117.083 116.84 117.041C116.174 116.953 115.006 115.669 115.089 114.931C114.305 114.611 114.373 115.892 114 116.352C113.488 116.983 112.756 117.189 112.032 116.754C111.332 116.333 111.478 115.125 110.523 114.961C109.641 114.809 109.493 115.364 109.897 116.042C110.191 116.534 110.843 116.741 110.571 117.474C110.485 117.705 110.032 118.195 109.753 118.075C108.866 117.693 109.71 116.495 109.349 115.86C108.457 115.715 108.706 116.915 108.362 117.384C108.184 117.626 107.457 118.119 107.142 118.035C107.062 118.014 106.584 117.573 106.517 117.484C105.984 116.777 105.857 116.027 105.887 115.15C105.907 114.557 106.458 113.124 105.502 113.194C105.112 113.878 104.583 114.453 104 114.982C103.865 115.105 103.034 115.822 102.96 115.836C102.849 115.857 102.837 115.788 102.783 115.721C102.622 115.517 102.305 114.262 102.247 113.935C102.17 113.489 102.072 112.77 102.241 112.355C102.381 112.013 103.501 111.119 103.789 111.291C103.925 111.373 104.089 112.068 104.341 111.661C104.7 111.08 104.124 110.897 103.654 110.87C103.048 110.836 102.521 110.869 102.037 111.254C101.706 111.517 101.522 111.906 101.482 112.329C101.435 112.816 101.621 113.907 101.715 114.427C101.776 114.761 102.185 116.074 102.134 116.268C101.992 116.811 101.171 116.486 100.904 116.56C100.648 116.631 100.417 116.862 100.678 117.093C101.188 117.548 102.023 116.913 102.278 117.08C102.394 117.593 102.637 118.508 101.842 118.283C101.638 118.226 99.7781 117.438 99.6212 117.335C99.4362 117.214 99.4383 116.946 99.25 116.832C99.0898 116.734 98.9806 116.901 98.8505 116.782C98.7637 116.656 98.7938 116.336 98.8677 116.202C98.9137 116.119 99.9594 115.417 100.021 115.477L100.073 115.87C100.157 115.984 100.211 115.912 100.27 115.824C100.429 115.586 100.745 114.879 100.386 114.718C99.7226 114.421 98.9044 115.216 98.4874 115.639C98.3596 115.768 98.1165 116.331 97.89 116.103C97.6965 115.887 97.8621 115.632 97.8292 115.359C97.7929 115.06 97.6681 114.714 97.649 114.423C97.6178 113.938 97.7912 113.136 97.7329 112.691C97.68 112.287 97.172 112.175 97.1174 112.575C97.055 113.029 97.1498 113.497 97.1363 113.884C97.0995 114.932 96.9575 115.701 97.1878 116.779C97.2938 117.275 97.5096 117.937 97.864 118.29C98.1536 118.442 98.5494 117.617 98.8682 117.731L102.647 119.143C102.757 118.875 103.034 118.586 103.082 118.296C103.153 117.866 102.953 117.136 103.086 116.783C103.155 116.6 103.672 116.285 103.844 116.125C104.02 115.961 104.199 115.801 104.376 115.636C104.473 115.544 105.077 114.8 105.172 114.9L105.227 116.43C105.231 116.556 105.635 117.538 105.725 117.685C106.107 118.313 107.385 119.122 108.015 118.463C108.116 118.358 108.207 117.978 108.372 118.009C109.094 118.735 109.546 119.435 110.556 118.597C110.961 118.261 111.069 117.918 111.293 117.466C112.576 117.899 113.575 117.888 114.442 116.763C114.512 116.672 114.528 116.46 114.597 116.441C114.872 116.368 115.291 116.996 115.558 117.196C115.942 117.483 116.811 117.935 117.283 117.828C117.545 117.769 118.159 117.28 118.331 117.057C118.525 116.806 119.064 115.824 119.067 115.538C119.073 114.943 118.604 114.586 118.05 114.516ZM110.769 115.877L110.535 115.885L110.529 115.729L110.763 115.721L110.769 115.877Z" fill="black"/>
<path d="M76.7937 120.254C76.5104 120.177 75.8188 120.265 75.4774 120.205C75.0594 120.133 74.0398 119.49 73.8034 119.149C73.7514 119.074 73.3193 118.184 73.3141 118.128C73.2884 117.86 73.6211 116.966 73.6464 116.535C73.6809 115.947 73.6011 113.924 73.1351 113.561C72.655 113.188 72.318 114.113 72.2692 114.491C72.2142 114.921 72.1623 115.756 72.1525 116.202C72.1376 116.868 72.2304 117.541 72.2682 118.202C72.2183 118.285 72.148 118.345 72.0708 118.401C70.9311 119.234 70.0917 120.398 68.5758 120.675C67.9904 120.783 66.7539 120.68 66.6435 119.942C66.547 119.296 66.902 119.393 67.2075 119.095C67.5187 118.792 67.7645 118.326 67.8846 117.907C68.0479 117.337 68.1714 116.761 67.4808 116.516C66.577 116.194 66.6928 116.777 66.3847 117.266C66.041 117.81 65.7342 117.983 65.6053 118.738C65.5335 119.159 65.7114 119.409 65.3922 119.828C65.0786 120.239 64.8366 120.114 64.4865 120.271C64.217 120.393 63.9823 120.863 63.5431 120.678C63.2554 120.557 62.6167 119.686 62.4753 119.382C62.1803 118.75 61.9982 118.243 62.7137 117.859C63.1615 117.618 63.6438 117.648 64.1365 117.632C64.0577 116.748 62.423 117.328 62.0255 117.672C61.8819 117.796 61.4179 118.439 61.4313 118.624C61.4574 118.981 61.9792 120.003 61.9314 120.307C61.8526 120.808 60.6595 121.387 60.1907 121.273C59.1313 121.016 59.1425 120.041 58.6574 119.258C58.3176 118.677 58.453 117.309 57.4381 117.789C57.2378 117.884 56.3476 118.706 56.1929 118.902C55.7918 119.41 55.0599 120.916 55.9639 121.264C56.8285 121.596 57.4766 120.091 58.1848 119.889C58.2351 120.207 58.3684 120.647 58.5764 120.894C58.6697 121.005 58.815 121.037 58.8903 121.126C59.005 121.263 59.0914 121.532 59.2123 121.635C59.5409 121.915 60.5317 121.799 60.9114 121.637C61.2448 121.494 62.1592 120.714 62.3912 120.77C62.6185 120.824 62.6722 121.121 62.5233 121.285C62.3941 121.428 61.5229 121.794 61.2629 121.965C61.0203 122.125 59.9951 122.798 60.7561 122.865C61.2356 122.906 62.576 122.237 63.068 121.981C63.783 121.61 64.5204 121.084 65.2123 120.645C65.3537 120.556 65.4396 120.35 65.6076 120.327C65.9776 120.276 66.2757 120.72 66.5345 120.876C67.3196 121.353 67.8766 121.323 68.7594 121.15C69.2326 121.057 69.6132 120.823 70.0742 120.794C70.5087 121.817 71.1071 121.808 71.8324 121.022L72.848 119.125C73.1154 119.051 73.0433 119.283 73.175 119.425C73.8645 120.171 75.1066 120.573 76.1135 120.58C76.2777 120.58 76.8978 120.609 76.9295 120.432C76.9451 120.344 76.8701 120.275 76.7937 120.254ZM57.8208 119.247C57.6913 119.438 56.8342 120.337 56.656 120.396C56.548 120.432 56.4358 120.427 56.3245 120.428C56.1387 119.804 57.1481 118.432 57.7192 118.348C58.1573 118.283 57.9912 118.994 57.8208 119.247ZM67.4114 117.201C67.4746 117.946 67.1956 118.48 66.5301 118.803C66.237 118.574 66.9481 117.177 67.4114 117.201ZM71.1031 120.682C70.8755 120.641 71.1462 120.258 71.199 120.166L71.9617 119.552C72.0415 119.873 71.3626 120.728 71.1031 120.682ZM73.0652 117.547C72.8704 117.568 72.9317 117.571 72.9068 117.435C72.7334 116.492 72.7439 115.967 73.0453 115.064C73.0789 114.963 73.0539 114.823 73.2009 114.793C73.1269 115.154 73.2507 115.492 73.239 115.851C73.2197 116.428 73.0132 116.972 73.0652 117.547Z" fill="black"/>
<path d="M107.112 128.498C107.047 128.28 106.823 127.96 106.555 128.055C106.249 128.164 106.672 128.626 106.697 128.87C106.759 129.472 106.326 130.204 105.865 130.561C104.986 131.243 104.03 130.82 103.527 129.916C103.324 129.55 103.27 128.875 102.752 128.903C102.486 128.979 102.334 130.306 102.226 130.616C101.995 131.276 101.322 132.413 100.508 132.028C100.406 131.98 99.828 131.569 99.7315 131.48C98.8681 130.68 99.3735 130.229 99.4812 129.344C99.554 128.744 99.4613 127.527 99.3327 126.937C99.2585 126.595 98.9006 126.178 98.5027 126.292C98.4034 126.321 98.0107 127.878 97.9883 128.102C97.943 128.555 98.0561 129.009 97.979 129.459C96.9788 130.02 96.1601 130.398 95.4671 131.361C95.2771 131.625 94.7563 132.766 94.6121 132.843C94.3057 133.007 94.1178 132.119 93.8953 131.991C93.9239 131.597 93.991 130.956 93.9055 130.585C93.8586 130.38 93.6412 130.394 93.5569 130.227C93.424 129.966 93.5411 129.67 93.3008 129.362C92.9928 128.968 92.1394 128.905 91.7112 129.146C91.5986 129.209 91.0458 129.746 90.9769 129.845C90.7292 130.202 90.1365 131.582 90.0012 132.024C89.8234 132.606 89.9054 133.154 90.4045 133.543C91.574 134.453 92.4225 132.528 93.2114 131.987C93.4344 132.346 93.5689 132.764 93.8513 133.088C94.0205 133.283 94.2018 133.344 94.3237 133.476C94.6858 133.869 94.8668 134.456 95.5668 134.418C97.1522 134.33 97.8484 132.855 98.6936 131.721C99.4829 131.964 100.08 132.895 100.999 132.811C101.956 132.723 102.453 131.183 102.871 130.461C103.707 131.082 104.745 132.076 105.82 131.392C106.684 130.841 107.42 129.532 107.112 128.498ZM91.3502 133.058C90.6871 133.338 90.5548 132.645 90.5912 132.119C90.6377 131.439 91.6911 129.504 92.4275 129.441C92.6471 129.423 92.8567 129.685 92.9067 129.876C92.9549 130.062 92.8653 130.164 92.879 130.304C92.8961 130.475 93.0728 130.649 93.1001 130.809C93.1723 131.236 91.7675 132.881 91.3502 133.058ZM97.2126 132.077C96.6648 132.369 96.4151 132.814 95.8382 133.072C94.5205 133.663 95.5714 132.126 95.905 131.694C96.4232 131.024 97.2765 130.375 98.1159 130.246C98.6436 131.127 97.5847 131.418 97.2126 132.077ZM98.7302 129.666L98.7569 129.351L98.8809 129.542L98.7302 129.666ZM98.8234 129.032C98.6229 129.036 98.6135 128.119 98.9877 128.164L98.8234 129.032Z" fill="black"/>
<path d="M136.249 131.99C136.153 131.528 135.551 130.679 135.375 130.155C135.055 129.206 134.821 127.699 135.03 126.726C135.11 126.354 135.401 126.101 135.496 125.795C135.765 124.933 135.114 123.575 134.868 122.715C134.743 122.28 134.867 121.623 134.144 121.726C134.009 121.776 133.87 122.2 133.836 122.35C133.666 123.095 133.527 124.56 133.595 125.309C133.632 125.717 133.84 126.193 133.757 126.599C133.663 126.826 132.767 127.161 132.501 127.323C131.885 127.698 131.23 128.322 130.606 128.588C129.121 129.22 127.696 129.802 126.031 129.71C125.803 129.697 125.265 129.552 125.465 129.251C125.511 129.18 126.694 128.587 126.927 128.412C127.507 127.977 128.127 127.095 127.236 126.619C126.395 126.171 125.501 127.055 125.03 127.706C124.805 128.016 124.548 128.75 124.302 128.923C124.125 129.046 123.198 129.406 122.95 129.482C122.017 129.765 120.014 130.239 120.335 128.555C120.396 128.235 120.646 128.252 120.801 128.083C120.906 127.969 120.946 127.773 121.07 127.651C121.315 127.41 122.356 126.919 122.478 126.691C122.533 126.589 122.514 126.483 122.507 126.376C122.33 126.211 120.866 127.065 120.631 127.241C119.842 127.833 119.014 129.073 119.841 129.983C120.137 130.309 120.924 130.634 121.37 130.586C121.702 130.549 122.639 130.353 122.982 130.27C123.345 130.182 123.936 129.66 124.382 129.687C124.823 129.714 125 130.336 125.375 130.417C125.493 130.443 126.551 130.489 126.688 130.474C126.85 130.457 127.507 130.312 127.692 130.267C128.545 130.06 129.445 129.657 130.258 129.319C130.549 129.28 130.742 129.645 131.026 129.591C131.788 129.447 133.169 127.977 133.805 128.01C133.913 128.016 133.993 128.073 134.046 128.165C134.245 128.757 134.413 129.372 134.663 129.944C134.804 130.268 135.715 132.078 135.877 132.223C136.124 132.444 136.316 132.318 136.249 131.99ZM126.742 127.177C127.012 127.144 126.978 127.577 126.793 127.759C126.69 127.861 125.731 128.411 125.705 128.108C125.69 127.924 126.547 127.201 126.742 127.177ZM134.594 125.862C134.479 125.794 134.479 125.714 134.462 125.597C134.417 125.285 134.319 124.541 134.337 124.259C134.35 124.073 134.461 123.605 134.704 123.748C134.979 123.909 135.183 125.728 134.594 125.862Z" fill="black"/>
<path d="M65.9009 147.715C66.0745 147.564 66.2592 147.131 66.3901 146.958C66.845 146.357 67.5571 145.64 67.7839 144.885C68.1167 143.777 67.1432 144.394 66.6857 144.77C66.4912 144.93 65.9427 145.717 65.6356 145.317C65.0864 144.602 67.3053 143.706 67.74 143.555C68.0904 142.981 67.5793 141.744 68.4507 141.754C68.5654 142.154 68.2521 143.152 68.5046 143.449C68.7137 143.695 69.8693 143.457 70.1655 143.697C70.2083 143.895 70.0157 143.802 69.8937 143.82C69.5066 143.877 68.5308 143.939 68.4678 144.389C68.6822 145.382 68.6203 146.418 69.1665 147.3C69.3142 147.538 69.6712 147.584 69.4973 148C69.3107 148.445 68.8344 148.035 68.6495 147.776C68.3747 147.39 68.0622 145.816 67.8441 145.786C67.5632 145.83 67.583 146.163 67.4737 146.339C67.2725 146.662 67.0444 147.021 66.8347 147.336C66.5544 147.757 66.037 148.439 65.5196 148.465C64.0653 148.538 64.0672 146.052 63.6312 146.032C62.7826 146.386 62.6953 147.915 61.5764 147.82C61.4007 147.806 61.3077 147.693 61.1765 147.675C60.7614 147.614 60.4914 147.888 60.1388 147.988C59.1233 148.276 57.764 148.189 57.0553 147.309C56.6784 146.841 56.7384 146.234 55.9829 146.385C55.7608 146.43 54.8409 146.751 54.6088 146.846C54.4312 146.92 54.2557 147.139 54.0755 147.185C53.9164 147.226 53.692 147.099 53.5468 147.258C53.3086 147.519 53.653 148.249 53.6577 148.609C53.6608 148.859 53.3397 148.69 53.1974 148.655C53.2142 148.329 53.0065 147.488 52.7835 147.267C52.4792 146.967 50.8448 147.251 50.909 146.313C51.4622 146.3 51.9236 146.608 52.4825 146.492C52.4285 145.797 52.3295 145.114 52.3258 144.413C52.3203 143.277 52.544 141.926 53.437 141.127C54.0539 140.575 55.1599 140.691 55.7784 141.188C56.0621 141.416 56.0845 141.886 55.7349 141.807C55.4789 141.749 55.4081 141.163 54.7052 141.242C52.7948 141.458 52.6531 143.739 52.8387 145.251C52.872 145.524 53.0441 146.418 53.2387 146.536C53.4827 146.683 53.5838 146.499 53.7921 146.462C54.5919 146.321 56.1851 145.95 56.754 145.359C57.1012 144.999 57.4057 144.37 57.8059 144.066C58.1576 143.799 58.818 143.499 59.0044 144.073C59.2648 144.875 57.5033 145.318 57.4011 145.963C57.2356 147.006 58.3513 147.554 59.2251 147.586C59.8015 147.608 61.0643 147.06 61.462 146.644C61.8472 146.241 62.0134 145.577 62.4672 145.155C62.5389 145.089 63.2525 144.577 63.3013 144.562C63.5976 144.467 64.1656 144.537 64.3123 144.869C64.4804 145.25 64.5958 146.061 64.7437 146.524C64.8814 146.954 65.1755 148.345 65.9013 147.715L65.9009 147.715Z" fill="black"/>
<path d="M55.0402 106.293C55.0088 105.889 54.7351 106.08 54.454 106.02C54.251 105.977 54.06 105.85 53.875 105.829C52.9872 105.723 52.1006 106.206 51.5578 106.878C51.3619 107.121 50.9385 108.009 50.5911 107.99C50.4951 107.99 50.447 107.94 50.3943 107.868C50.3683 107.832 50.1338 107.109 50.119 107.024C50.0183 106.444 49.9829 105.635 49.8945 104.984C49.853 104.681 49.8418 103.518 49.647 103.376C49.4228 103.212 49.0295 103.301 48.984 103.606C48.893 104.211 49.1868 105.17 49.1808 105.832C49.1764 106.296 48.3785 105.925 48.0742 105.885C47.8348 105.854 46.4424 105.814 46.2924 105.872C46.0904 106.14 46.0567 106.519 45.8732 106.845C45.7156 107.125 45.17 107.733 44.8569 107.797C43.9354 107.985 43.7613 105.779 42.868 106.372C42.5917 106.708 41.5774 108.034 41.188 108.013C41.0914 108.008 41.0346 107.975 41.0019 107.882C40.7809 107.48 40.0695 105.807 39.7318 105.666C38.851 105.298 39.2531 106.695 38.9914 107.134L38.6965 107.147L38.4217 106.099C38.1314 106.001 37.9798 106.144 37.9537 106.432C37.9328 106.667 38.107 107.406 38.1783 107.665C38.2837 108.049 38.5042 108.493 38.6366 108.882C38.74 109.188 38.6286 109.629 39.1347 109.57C39.2982 109.551 39.5617 108.881 39.5895 108.716C39.6706 108.236 39.4921 107.631 39.6285 107.121C39.8043 107.074 39.7567 107.144 39.8113 107.213C40.1278 107.613 40.4953 109.018 41.0738 109.033C41.2911 109.039 41.5571 108.799 41.7214 108.658C41.9779 108.438 42.86 107.262 42.9648 107.234C43.2086 107.169 43.5693 107.863 43.735 108.035C43.9092 108.216 44.1941 108.37 44.3579 108.588C44.9518 108.748 45.8388 107.684 45.9993 107.835C45.902 108.191 46.4713 108.669 46.7717 108.664C46.9315 108.661 47.5187 108.353 47.7132 108.259C47.9767 108.133 49.2857 107.309 49.4276 107.4C49.5851 107.899 49.7403 109.809 50.6385 109.244C50.8316 109.122 51.4779 108.232 51.6466 107.986C51.7363 107.855 51.7447 107.686 51.8312 107.552C52.3341 106.771 53.0521 106.372 53.9905 106.601L54.0219 106.83L51.493 109.132L51.5051 109.523C51.5808 109.633 51.6827 109.688 51.8188 109.671C52.0064 109.647 53.9252 107.965 54.1845 107.7C54.5307 107.347 55.0819 106.831 55.0402 106.293ZM48.7009 106.825C48.6802 106.979 48.0839 107.233 47.915 107.31C47.7122 107.402 47.0712 107.686 46.9045 107.637C46.6712 107.569 46.6548 106.523 47.0206 106.4C47.3191 106.299 48.7571 106.405 48.7009 106.825Z" fill="black"/>
<path d="M34.3295 36.0149C33.3706 35.9479 33.3662 34.7465 33.2345 34.0164C33.1166 33.3617 33.0967 32.9407 33.0201 32.2912C32.9537 31.7305 32.7739 30.2701 32.0162 30.4809C31.9874 29.8441 30.9404 28.701 30.3195 29.2384C30.2758 29.2762 29.8507 29.8341 29.8124 29.9027C29.6306 30.2302 29.4892 31.1792 29.2212 31.3228C28.368 31.4702 27.5321 31.6409 26.6898 31.8421C26.5281 31.8805 26.3418 31.8417 26.1682 31.886C25.7877 31.983 25.383 32.4101 24.8685 32.1913C24.4946 31.9823 24.4622 30.3504 24.3954 29.93C24.182 28.5832 23.819 27.2504 23.8715 25.8752C24.4909 25.3723 25.1089 24.7422 25.7973 24.3359C26.0436 24.1903 27.0564 23.803 27.1512 23.7041C27.2403 23.6113 27.2418 23.5107 27.2106 23.3943C27.0648 23.0019 26.1864 23.6818 25.9523 23.7979C24.9637 24.2881 24.8877 24.4197 24.0615 25.0667C23.8778 25.2109 23.2786 25.4729 23.1514 25.6602C22.9556 25.9489 23.2797 26.3959 23.3347 26.6721C23.6208 28.1137 23.9273 29.9802 24.058 31.4349C24.0973 31.8752 23.986 32.7688 24.0527 33.0639C24.0979 33.265 24.3404 33.5243 24.4174 33.7372C24.6577 34.4037 24.6808 35.1895 25.0222 35.8563C25.4141 36.6226 26.3614 37.466 27.2457 36.8546C27.5868 36.6191 28.2487 35.2035 28.4381 34.7625C28.5336 34.5402 28.9615 33.135 29.0947 33.0995C29.3745 33.025 29.4111 33.8803 29.5207 34.1059C29.6789 34.4307 30.1993 34.9534 30.5626 34.7038C30.9033 34.47 30.9553 33.8347 31.2974 33.5634L32.1068 31.8914C32.4708 31.7817 32.483 33.4725 32.5249 33.7213C32.5931 34.1259 32.7332 34.9496 32.8766 35.2985C32.9119 35.3844 33.541 36.2845 33.592 36.32C34.0355 36.6325 34.6105 36.1898 34.3295 36.0149ZM29.2198 32.1555C29.0824 32.6273 28.5988 33.3881 28.3869 33.8806C28.1598 34.4086 28.0737 34.9811 27.7628 35.4972C27.4972 35.9374 26.8448 36.6772 26.2777 36.4587C25.9809 36.3444 25.2834 35.296 25.1669 34.9669C25.0592 34.6616 24.7789 33.5246 24.9165 33.2981C25.2876 32.6874 28.4657 32.0522 29.2436 31.8372C29.2589 31.9462 29.2509 32.0491 29.2198 32.1555ZM31.3 30.3427C30.9333 30.4219 30.7927 30.836 30.381 30.7746C30.1835 29.9777 31.1086 29.2804 31.3 30.3427ZM30.8498 33.2974C30.6561 33.6529 30.3751 34.2618 30.052 33.6149C29.811 33.1323 29.7815 31.7133 30.203 31.3288C30.3893 31.159 31.8305 30.4506 31.9399 30.5618C32.0432 30.6669 31.006 33.0104 30.8498 33.2974Z" fill="black"/>
<path d="M83.6101 48.1142C82.2759 48.4314 81.1679 48.1635 80.0124 49.0703C79.629 49.3713 79.4884 49.7206 79.1261 49.9883C78.9082 50.0731 78.9834 49.5058 78.8489 49.4143C78.401 49.1102 78.1923 49.8772 78.0705 50.0639C77.3649 51.1467 76.5392 52.1576 75.3987 52.8057C74.4902 52.221 75.3468 50.8051 75.0799 49.8889C75.0361 49.7384 74.583 49.1574 74.4424 49.1047C73.9706 48.9291 73.041 49.9398 72.7679 50.2895C72.312 50.8725 72.0469 51.565 71.6516 52.1879C70.6743 52.4277 69.1826 53.835 68.225 53.7712C67.3353 53.7117 67.1297 52.7886 67.366 52.0563C67.5239 51.5665 68.2972 51.1245 68.6648 50.7659C68.8931 50.5431 70.0788 49.3669 69.3776 49.187C69.325 49.1731 68.5062 49.1342 68.4615 49.1444C68.1871 49.2066 67.5332 50.124 67.3732 50.3946C67.1886 50.7074 67.0502 51.1744 66.8827 51.4536C66.7282 51.7122 66.3388 51.868 66.407 52.2173C66.4272 52.3218 66.5342 52.3982 66.5519 52.4765C66.6476 52.8939 66.6381 53.3697 66.8973 53.7345C67.1008 54.0211 67.8201 54.4102 68.1696 54.4004C68.3587 54.3947 69.1761 54.1001 69.3709 54.0031C70.0007 53.6897 70.6788 53.1082 71.3444 52.8099C71.9314 52.669 71.9086 53.1347 72.2184 53.2167C72.6045 53.3187 72.9016 53.0825 73.1694 52.8461C73.3011 52.7294 73.7503 52.2531 73.8477 52.1176C73.9716 51.945 73.9801 51.5391 74.2558 51.5889C74.4286 51.6201 74.3912 52.5319 74.424 52.7146C74.51 53.1987 74.8694 53.6369 75.407 53.4958C75.8084 53.3902 76.9057 52.2368 77.2489 51.8755C77.5736 51.5337 77.7895 51.0116 78.2684 50.8942C78.409 51.0117 78.4684 53.8738 79.2394 52.8987C79.4905 52.5812 79.2636 52.1547 79.2597 51.8409C79.2517 51.2239 79.7361 50.2245 80.1556 49.7729C80.9761 48.8887 81.4279 49.1295 82.4497 48.9183C82.6672 48.8735 83.7046 48.4881 83.7374 48.2991L83.6101 48.1142ZM68.7504 49.8225C68.7765 49.9823 68.6265 50.0832 68.5299 50.1845C68.4679 50.2496 67.9758 50.6861 67.9184 50.6367C67.949 50.4529 68.5819 49.6808 68.7504 49.8225ZM72.448 52.3986C72.412 52.2046 73.0029 51.8988 73.0575 51.946C73.1739 52.0463 72.5068 52.7163 72.448 52.3986ZM72.9574 51.3201C72.9052 51.2748 73.355 50.4562 73.4286 50.3554C73.4603 50.3114 73.941 49.8183 73.9744 49.7982C74.1125 49.7158 74.1668 49.7449 74.3096 49.7826C74.5389 50.0875 73.4122 51.3835 72.9574 51.3201Z" fill="black"/>
<path d="M120.825 105.735L120.111 103.61C119.816 103.434 118.712 104.162 118.628 103.533C118.545 102.903 119.606 102.94 120.006 102.81C119.98 102.254 120.003 101.684 119.957 101.128C119.931 100.822 119.585 99.8936 119.923 99.7298C120.145 99.622 120.515 99.7125 120.569 99.9864L120.78 102.503C120.985 102.803 122.96 102.379 123.393 102.369C123.577 102.192 124.05 101.418 124.244 101.343C124.423 101.273 125.297 101.28 125.414 101.442C125.686 103.053 123.27 102.379 123.587 103.982C123.633 104.216 123.799 104.478 124.061 104.362C124.549 104.146 125.127 103.729 125.438 103.292C125.666 102.972 125.56 102.475 126.144 102.595C126.312 102.629 126.28 104.252 126.823 104.651C127.34 105.031 127.591 104.63 127.947 104.654C128.229 104.673 128.615 105.049 129.148 104.998C129.29 104.984 129.343 104.83 129.469 104.778C129.665 104.697 130.855 104.272 130.874 104.193C130.91 104.045 130.31 103.537 130.185 103.309C129.73 102.481 129.835 101.575 130.563 100.947C130.699 100.829 131.927 100.003 132.033 99.9668C132.259 99.8888 132.489 99.9729 132.711 100.001C132.994 100.688 132.454 100.502 132.062 100.678C131.477 100.941 130.914 101.718 130.487 102.181C130.633 102.957 131.261 103.602 131.957 103.931C132 104.588 131.261 104.812 130.764 105.001C130.214 105.211 129.1 105.616 128.569 105.458C127.847 105.244 127.816 105.235 127.026 105.244C126.893 105.246 126.779 105.322 126.647 105.331C126.517 105.324 126.175 104.99 126.081 104.88C125.911 104.679 125.682 104.116 125.509 104.115C125.241 104.114 125.208 104.381 125.055 104.527C124.795 104.774 124.17 105.37 123.835 105.353C123.534 105.337 122.886 104.794 122.782 104.523C122.62 104.096 122.941 103.412 122.656 103.185C122.547 103.099 121.116 103.306 121.017 103.489C120.797 103.896 121.158 104.218 121.233 104.481C121.382 105.01 121.553 106.047 121.477 106.572C121.41 107.037 120.875 107.147 120.866 106.913L120.824 105.736L120.825 105.735Z" fill="black"/>
<path d="M56.0868 132.794C56.3711 132.505 57.2183 131.82 57.5638 131.631C57.766 131.521 57.9707 131.428 58.2085 131.438C57.8282 131.803 57.3568 132.162 56.9934 132.54C56.5813 132.969 55.4858 134.258 55.4369 134.804C55.3572 135.694 55.8952 135.988 56.6671 135.647C57.4219 135.314 58.6723 134.247 59.2682 133.677C59.5769 133.381 60.1488 132.829 60.3131 132.452C60.4684 132.095 60.2842 131.168 60.2941 130.691C60.3001 130.389 60.301 129.422 60.6689 129.399C61.14 129.369 60.9099 130.262 60.9142 130.511C60.93 131.396 61.0081 132.273 61.1367 133.147C61.5073 133.33 61.7271 132.958 62.0196 132.832C62.8893 132.457 64.503 132.513 64.7545 133.634C64.8926 134.249 64.62 135.67 65.7087 134.78C66.0589 134.494 66.7677 133.611 66.7263 133.146C66.6108 131.85 65.3952 132.862 64.7508 132.333L64.7676 132.06C66.161 131.591 67.6942 131.761 67.2435 133.612C67.0636 134.352 65.89 135.726 65.144 135.826C64.0408 135.974 64.3296 134.579 64.1545 133.873C64.073 133.545 63.6805 133.146 63.3253 133.152C63.1597 133.155 62.6397 133.22 62.4692 133.252C62.1746 133.308 61.4745 134.052 61.4698 134.357C61.4617 134.874 62.4111 135.678 62.1291 136.12C61.947 136.406 61.6473 136.113 61.5023 135.915C61.3865 135.757 60.905 134.954 60.8202 134.775C60.5646 134.236 60.7671 133.537 60.2681 133.172C59.2281 134.184 58.3065 135.407 57.0717 136.178C56.8513 136.315 56.5021 136.378 56.3129 136.531C56.0597 136.737 56.0853 137.178 55.7153 137.187C55.4307 137.171 55.3359 136.648 55.204 136.425C55.0572 136.177 54.634 135.676 54.5933 135.449C54.5291 135.09 54.6707 134.429 54.6189 133.959C54.5887 133.685 54.4684 133.423 54.4406 133.173C54.2967 131.875 54.1743 130.396 54.3644 129.101C54.3927 128.908 54.5865 128.795 54.7014 128.656L54.8972 128.773C54.6335 129.818 54.8439 130.929 54.9401 131.983C54.9706 132.317 54.9328 132.673 54.9749 133.005C55.0054 133.243 55.0461 133.733 55.3493 133.665C55.5161 133.639 55.9276 132.954 56.086 132.793L56.0868 132.794Z" fill="black"/>
<path d="M48.2577 51.895C47.2366 52.1486 46.2182 52.5624 45.1447 52.4792C44.7148 52.4459 44.6322 52.263 44.71 51.8429C44.7832 51.4477 45.2935 51.5378 45.6773 51.381C46.1933 51.1703 47.2653 50.0017 47.3429 49.448C47.357 49.3488 47.3598 49.0128 47.3193 48.9537C47.3061 48.9345 46.9341 48.823 46.8739 48.8169C46.2204 48.7519 45.1751 49.8143 44.7534 50.2912C44.2932 50.8111 44.4587 51.1305 43.5034 50.8249C42.9143 50.6363 41.9734 49.4445 41.6627 50.5162C41.6021 50.7255 41.6264 50.9345 41.5742 51.1163C41.4488 51.5523 40.9765 53.1076 40.3265 52.6178C40.1706 52.5 39.4872 51.6491 39.3634 51.4551C39.032 50.9334 38.8903 49.4771 38.6796 49.3385C38.4725 49.2022 38.2443 49.2744 38.1215 49.4867C37.8197 50.008 37.6884 50.9345 37.3817 51.5263C37.3296 51.6261 36.7394 52.4505 36.6832 52.4678C36.2437 52.6034 36.3708 50.9073 36.1452 50.8431C35.5343 50.6697 34.8798 52.2697 34.5707 52.6942C33.9564 53.5376 32.7005 54.2558 32.9842 52.5792C33.0747 52.0442 34.0593 50.6445 34.5558 50.4055C34.7222 50.3252 35.0152 50.367 35.066 50.1993L35.0655 49.9337C34.8605 49.9996 34.5114 49.8797 34.3491 49.9209C34.1821 49.9631 33.4483 50.7168 33.2961 50.8983C32.6528 51.6649 31.4981 53.4546 32.7933 54.1338C34.0701 54.8035 34.9228 53.0509 35.5909 52.2768C35.979 52.4456 36.2137 53.4572 36.8323 53.2043C37.2934 53.0152 38.1655 50.7669 38.3463 50.7596C38.6268 51.183 38.7685 51.682 39.0729 52.0943C39.1916 52.255 40.2359 53.3154 40.3356 53.3413C40.5903 53.4068 40.9756 53.354 41.1763 53.172C41.3619 53.0034 41.8173 52.341 41.9134 52.1152C42.0232 51.8562 42.0764 51.1238 42.3543 51.0828L43.8303 51.6136C44.0299 51.8473 43.7568 52.546 44.3448 52.9335C45.3145 53.5729 47.4378 52.5783 48.3439 52.049L48.2577 51.895ZM46.7211 49.4365C46.6487 49.6898 46.4772 49.9679 46.2944 50.1588C46.2268 50.2292 45.3043 51.0215 45.2772 50.6272C45.4395 50.3463 46.3998 49.2198 46.7211 49.4365Z" fill="black"/>
<path d="M92.8971 32.5238C93.0131 32.5907 93.2945 32.4498 93.4092 32.3808C93.8488 32.1174 94.1834 31.6162 94.5278 31.2977C95.2134 30.6632 95.8999 30.0094 96.6439 29.4809C97.11 29.1498 97.786 28.4433 98.155 29.3445C98.5248 30.2467 98.5298 31.1711 98.9208 32.1057C99.0151 32.3317 99.2704 32.8723 99.3929 33.0636C99.5573 33.3202 99.9294 33.4463 99.7935 33.7852C99.7199 33.8959 99.2292 33.9147 99.1209 33.8455C99.0475 33.7986 99.0312 33.6169 98.9564 33.5335C97.8644 32.3146 98.1569 31.4576 97.5625 30.2267C97.4431 29.9799 97.2052 29.8584 96.9495 29.9933C96.6491 30.357 96.2151 30.5584 95.8649 30.8555C95.163 31.4513 94.5227 32.1801 93.7979 32.8156C93.5392 33.0426 92.9401 33.9274 92.5363 33.4417C92.0149 32.8152 91.9769 31.2448 91.7933 30.4521L91.5547 30.5098C91.3433 31.0691 91.2332 31.6806 91.1189 32.2729C91.0951 32.3964 91.1795 32.5085 91.1123 32.7329C91.0105 33.0722 90.7017 33.3021 90.395 33.0432L90.3635 30.0835C90.2166 29.877 89.1683 29.7661 88.9011 29.7793C88.5245 29.7979 87.9664 30.0474 87.6745 30.2866C87.2272 30.6532 86.7346 31.3146 86.6303 31.8904C86.5747 32.1982 86.6745 33.3596 86.2196 33.3281C85.7985 33.2988 85.2716 31.8862 85.0761 31.5376C84.9199 31.2596 83.8362 30.0427 84.463 29.8626C85.0897 29.6825 85.2596 31.5307 85.8321 31.4562C86.0533 31.4275 86.8675 30.063 87.222 29.7885C87.3501 29.6896 87.9283 29.3584 88.0766 29.2969C88.5457 29.1028 89.9808 29.2387 90.522 29.3367C90.7093 29.3708 90.8801 29.5655 91.0915 29.5371C91.4631 29.4872 91.5626 28.5165 92.1481 28.6389C92.5148 28.746 92.4649 30.3647 92.5083 30.7007C92.544 30.9741 92.7771 32.4546 92.8963 32.5234L92.8971 32.5238Z" fill="black"/>
<path d="M84.2617 30.4992C83.9927 30.3827 83.7189 30.2558 83.456 30.1253C83.3889 30.092 83.3741 29.9636 83.2587 29.9128C82.7948 29.7086 82.1526 29.7081 81.6559 29.6804C81.4145 29.3307 81.5279 28.7026 80.9597 28.7356C80.5816 28.7579 79.5994 29.2969 79.205 29.4962C79.1819 29.508 78.9919 29.8799 78.8463 29.4478C78.7664 29.211 78.7625 28.1325 78.7724 27.8178C78.8018 26.8811 78.9816 25.4176 79.5213 24.6492C79.7819 24.2791 80.1738 24.1051 80.4272 23.7542C80.5522 23.6774 80.7104 23.6854 80.8512 23.7004C81.0086 23.7179 81.3438 23.9747 81.4105 23.8332L81.1694 23.1554C80.3642 22.7866 79.2951 23.7304 78.8977 24.3707C77.8802 26.0101 78.1785 27.9865 78.2185 29.7969C78.2399 30.7738 77.1412 30.8616 76.5492 31.279C76.3482 31.4202 75.5243 32.1874 76.0912 32.3371C76.6138 32.4755 77.5643 31.5462 78.0302 31.2945C78.4648 31.0447 78.5321 31.8934 78.6089 32.2301C78.8033 33.0833 78.9633 33.9805 79.2193 34.8327C79.3096 35.1336 79.8411 36.7291 80.1484 36.742C80.8917 36.773 79.8514 34.9989 79.7621 34.7369C79.4468 33.8142 79.0282 31.9156 78.9586 30.9479C78.9354 30.6305 79.1616 30.4691 79.3829 30.2832C79.61 30.0927 80.6084 29.3821 80.8397 29.7447C81.1452 31.1149 80.3803 34.016 82.392 34.1551C82.9908 33.7969 83.468 33.4685 83.876 32.8837C84.4585 32.0493 84.4738 31.4928 84.2617 30.4992ZM82.1119 33.5141C81.9806 33.4379 81.6436 32.7509 81.6117 32.5811C81.5451 32.2236 81.4867 31.0653 81.5415 30.705C81.5593 30.59 81.6234 30.4643 81.741 30.433C81.982 30.3681 83.0301 30.6405 83.2851 30.7779C84.6533 31.515 83.1853 33.4205 82.1119 33.5141Z" fill="black"/>
<path d="M94.005 92.9867C93.9622 92.9941 93.9672 93.1111 93.9129 93.1476C93.3018 93.5582 92.9267 94.0224 92.1409 93.5288C91.9345 93.3991 91.5355 92.7772 91.4747 92.535C91.3118 91.8839 91.6792 90.9535 90.7083 90.8352C90.1242 90.7638 89.9379 91.0409 89.4694 91.11C88.0993 91.3121 87.206 91.0962 85.907 91.9563C85.7141 92.0839 85.0726 92.8032 84.9751 92.8276C84.7064 92.8942 84.673 92.5551 84.5417 92.4231C84.2388 92.1184 83.2494 91.5072 82.8549 91.3913C82.5377 91.2978 82.1896 91.3477 81.9249 91.5383C81.9116 91.114 81.7244 90.7235 81.6652 90.3083C81.6158 89.96 81.8294 89.8093 81.3421 89.5179C80.8331 89.9975 81.15 90.6172 81.2066 91.2109C81.2356 91.5167 81.3351 92.1482 81.333 92.3832C81.3306 92.6442 81.0686 93.082 80.9724 93.3404C81.1294 93.521 81.3474 93.3816 81.5313 93.551C81.7648 93.7662 82.0478 94.5113 82.0772 94.8375C83.5912 95.1611 82.2934 93.4619 82.2149 92.8144C82.1969 92.6638 82.1724 92.5157 82.2003 92.3638C82.2224 92.2613 82.2918 92.2493 82.3796 92.2289C83.2726 92.0215 84.3483 93.3448 84.8655 93.9518C85.0475 94.1649 85.5726 95.1693 85.9441 94.6451C86.2942 94.15 85.8332 93.8172 85.8255 93.32C86.0896 92.4264 87.2021 92.0776 87.9266 91.6417L89.0526 91.5179C88.7692 92.3544 87.8644 93.0298 88.4812 93.9676C89.2778 95.1779 90.0537 93.6191 90.725 93.1844C90.993 93.1732 91.0652 93.5356 91.333 93.7472C91.5273 93.9006 92.0898 94.2108 92.3217 94.2304C92.5281 94.2477 93.2992 94.2247 93.4555 94.1468C93.6371 94.0562 94.8087 92.8446 94.005 92.9867ZM90.5442 92.1126C90.4627 92.2877 89.7347 93.205 89.5836 93.3394C89.3824 93.5191 89.1117 93.5528 89.1155 93.2135C89.1211 92.7151 89.5652 92.2602 89.8941 91.958C89.9601 91.8975 89.976 91.7739 90.0226 91.74C90.277 91.5572 90.762 91.6427 90.5442 92.1126Z" fill="black"/>
<path d="M122.101 78.5646C121.675 78.6777 119.322 79.6905 119.16 78.9163C119.139 78.818 119.827 78.1005 119.948 77.9956C120.388 77.6104 120.977 77.3542 121.418 77.0221C121.519 76.9461 122.166 76.3473 122.198 76.2852C122.278 76.1322 122.283 75.8373 122.257 75.6681C122.235 75.5278 122.152 75.5615 122.125 75.5251C121.908 75.2252 121.871 75.181 121.491 75.1829C120.378 75.1891 119.091 76.2853 118.467 77.1455C118.113 77.6344 117.942 78.2182 117.663 78.745C116.441 78.8274 115.56 79.799 114.601 78.6177C113.307 77.0229 113.634 74.8004 113.537 72.9252C113.499 72.182 112.746 71.8927 112.601 72.5812C112.493 73.0967 112.639 75.3006 112.699 75.9397C112.809 77.1021 113.54 79.4865 114.8 79.8703C115.783 80.1698 116.626 79.3536 117.558 79.1318L118.041 79.5574C118.646 80.092 119.785 79.9214 120.532 79.7543L123.553 78.5749L123.638 78.2551C123.164 78.4399 122.581 78.4369 122.101 78.5646ZM119.508 77.0919C119.851 76.6603 120.558 76.0247 121.081 75.866C121.37 75.7786 121.489 75.9574 121.372 76.2155C121.321 76.3273 119.497 77.4632 119.415 77.3841C119.397 77.2755 119.443 77.1736 119.508 77.0919Z" fill="black"/>
<path d="M47.8466 136.204C47.3511 136.144 46.8039 135.582 47.0191 135.061C47.0945 134.879 47.7829 134.246 47.9878 133.919C48.2091 133.566 48.6838 132.58 48.7365 132.191C48.7823 131.854 48.7076 130.908 48.2806 130.923C47.93 130.936 47.4186 131.371 47.201 131.63C46.6825 132.248 46.2652 133.47 46.1726 134.272C46.1424 134.532 46.2667 134.939 46.1261 135.139C44.8609 135.825 43.6516 134.297 43.0149 133.341C42.6568 131.642 43.0715 130.02 42.8898 128.334C42.8751 128.197 42.9048 128.065 42.9417 127.936L42.8296 127.837C42.6267 127.816 42.4574 127.782 42.3486 127.974C42.2562 128.137 42.0215 129.173 42.0052 129.397C41.963 129.978 42.104 130.576 42.0227 131.158C41.9345 131.3 41.2661 131.401 41.0732 131.485C40.3614 131.795 39.0798 133.903 38.9941 134.701C38.9683 134.942 38.9605 135.554 39.0287 135.763C39.0596 135.857 39.571 136.426 39.6652 136.462C40.53 136.79 41.1265 135.811 41.4503 135.173C41.6018 134.875 42.0565 133.429 42.3354 133.417C42.5975 133.459 42.5985 133.792 42.7222 133.983C43.1798 134.69 44.2976 135.767 45.1649 135.834C45.66 135.872 46.1412 135.656 46.5825 136.018C46.7359 136.143 46.7776 136.333 47.0006 136.464C47.9545 137.024 48.8275 136.588 49.6334 135.985C49.7578 135.892 49.9934 135.763 49.9736 135.583C49.2156 135.852 48.729 136.311 47.8466 136.204ZM42.0677 132.412C41.9657 132.855 41.427 134.121 41.2055 134.566C41.014 134.951 40.7342 135.275 40.5566 135.666C39.603 136.138 39.4244 135.148 39.6856 134.436C39.8483 133.993 40.7556 132.448 41.0971 132.181C41.4759 131.885 42.2392 131.665 42.0677 132.412ZM46.7214 134.442C46.3897 134.141 47.5006 131.395 48.3406 131.556C48.347 131.745 48.3715 131.937 48.3431 132.127C48.3222 132.266 48.1257 132.979 48.0736 133.088C47.8786 133.495 47.2475 133.957 47.0323 134.391L46.7214 134.442Z" fill="black"/>
<path d="M74.2447 29.5988C73.9461 29.5545 73.6158 29.7499 73.5147 29.3248C73.5623 28.3722 73.553 27.3921 73.639 26.44C73.6917 25.8554 74.4618 23.1671 73.2339 24.1087C72.9639 25.8725 73.0396 27.6538 72.8597 29.4285C72.5658 30.0285 71.6106 29.66 71.9031 30.6138C72.0784 30.7804 73.3093 30.076 72.6824 31.6896C72.5081 32.1383 71.6249 33.2507 71.2666 33.629C71.1681 33.7327 70.9962 33.9118 70.8424 33.8415C70.2814 33.387 70.0013 32.6143 69.91 31.906C69.8421 31.3783 69.8991 30.3503 69.7422 29.886C69.7018 29.7656 69.5239 29.6887 69.4499 29.5491C69.3205 29.3066 69.3689 29.0628 69.291 28.8235C69.2654 28.7443 68.9304 28.1685 68.8961 28.1501C68.1782 27.7668 67.2714 29.4239 67.0925 29.9616C66.9811 30.2964 66.6985 31.3074 66.6833 31.6266C66.6355 32.6508 67.215 34.0226 68.0891 32.6355C68.2314 32.4099 68.2978 32.1195 68.4323 31.8942C68.5122 31.7609 68.9765 31.0302 69.0958 31.1116C69.3613 31.9017 69.2791 32.7126 69.662 33.4772C69.7482 33.6498 70.131 34.2058 70.2635 34.2961C70.5294 34.4767 71.1308 34.452 71.3778 34.2254C71.4278 34.1792 72.0465 33.3719 72.1074 33.2765C72.1971 33.135 72.5685 32.1959 72.7792 32.2366C73.0932 32.5892 72.9548 33.1085 73.0286 33.5169C73.056 33.6684 73.1503 33.7955 73.1755 33.9293C73.2253 34.1912 73.4299 36.0692 74.0307 35.3737C74.2489 35.1215 73.9327 34.9041 73.8544 34.6649C73.6294 33.9779 73.4577 32.426 73.4273 31.7009C73.4117 31.3227 73.2637 30.3873 73.727 30.2378C74.0485 30.1343 74.7617 30.2682 75.1354 30.1872L75.245 29.9888C75.0257 29.698 74.5941 29.6499 74.2447 29.5988ZM69.0229 29.6489C69.013 29.7239 68.4625 30.6624 68.3689 30.8489C68.1744 31.2367 67.9365 31.9545 67.6246 32.2388C67.5487 32.3079 67.4437 32.353 67.3403 32.3531C67.3164 32.2346 67.2624 32.1257 67.2478 32.0032C67.1893 31.5102 67.5182 30.3581 67.7641 29.906C67.8688 29.714 68.4348 28.8877 68.6512 28.9353C68.8388 28.9761 69.0439 29.4831 69.0229 29.6489Z" fill="black"/>
<path d="M104.65 45.9005C104.222 46.0707 103.36 47.2912 103.114 47.7275C102.85 48.196 102.666 49.0116 102.349 49.4195C102.252 49.5444 101.999 49.6235 101.977 49.6631C101.923 49.761 102.072 50.1207 102.07 50.3105C102.059 51.4929 99.9389 51.9585 99.0189 52.0042C97.7184 52.0686 96.3724 51.2851 96.9761 49.8099C97.3882 48.8025 100.222 48.4335 100.146 46.9277C99.2201 45.8705 97.9891 47.0755 97.359 47.8923C97.14 48.1768 96.8063 48.8785 96.5801 49.0611C96.371 49.2297 95.9967 49.172 95.8584 49.2603C95.8174 49.2861 95.7654 49.464 95.7103 49.5222C95.8809 49.7212 96.0746 49.814 96.1488 50.0892C96.2369 50.4133 96.0914 50.606 96.1654 50.8792C96.2901 51.3384 97.0407 52.0651 97.4985 52.2199C98.3997 52.5251 99.3628 52.4127 100.275 52.2058C100.495 52.1558 101.426 51.6693 101.499 51.9861C101.527 52.103 101.12 52.9177 101.087 53.1157C100.987 53.719 101.114 54.4535 100.983 55.0649C101.144 55.3951 101.429 55.6097 101.73 55.3073C102.291 54.7425 102.15 53.432 102.248 52.6826C102.367 51.7773 102.734 50.8455 102.878 49.9337C103.744 49.3434 104.872 48.9351 105.417 47.9807C105.877 47.1759 106.005 45.3626 104.65 45.9005ZM99.532 47.4193C99.2872 47.6281 98.1248 48.7014 97.8477 48.4614C97.5395 48.1939 99.1477 46.703 99.532 47.4193ZM104.34 48.3408C104.259 48.4184 103.52 48.8961 103.466 48.889C103.326 48.8708 103.347 48.6874 103.371 48.5753C103.424 48.3286 104.281 46.7743 104.476 46.6482C104.594 46.5729 104.685 46.5394 104.826 46.5645C105.079 47.1967 104.811 47.8925 104.34 48.3408Z" fill="black"/>
<path d="M56.3564 96.3088C56.2412 96.2084 55.9964 95.7669 55.9424 95.6144C55.481 94.3131 56.2672 92.2788 56.0523 90.9313C55.9981 90.5902 55.4465 90.355 55.3483 90.6631C55.1409 91.315 55.1502 92.2164 54.9827 92.8999C53.9713 93.3005 53.5131 93.8313 52.9867 94.7532C52.8422 95.0064 52.7644 95.4383 52.6146 95.6193C52.5305 95.7214 51.8162 96.1258 51.6693 96.1802C50.9418 96.448 50.4508 95.7285 50.267 95.128C50.1627 94.788 50.1174 93.7459 49.7452 93.6497C49.2869 93.5318 49.3517 94.3762 49.229 94.6592C49.1585 94.8221 48.9895 94.8513 48.907 94.9651C48.755 95.1737 48.3772 95.9469 48.1002 95.4256C47.8355 94.927 48.4497 93.8004 48.8084 93.4323C48.9928 93.2433 49.6157 92.9443 49.5285 92.6657C48.9843 92.3104 48.5694 92.5952 48.215 93.0488C47.6966 93.7127 46.822 95.4778 47.6979 96.1029C48.6297 96.7681 48.9192 96.0677 49.4295 95.3963C49.7475 95.4453 49.7032 95.8257 49.8528 96.0636C50.0851 96.4325 51.1477 96.8544 51.5752 96.7781C51.8937 96.7215 52.4646 96.2652 52.672 96.2798C52.9459 96.299 53.1168 96.7601 53.7795 96.6313C54.4651 96.4978 54.4981 95.3229 55.1001 95.0958C55.2357 96.4827 56.4509 97.1389 57.7526 96.9636C57.5431 96.4426 56.7739 96.6718 56.3564 96.3088ZM53.8746 95.7332L53.483 95.86C53.2647 95.6513 54.1115 93.9513 54.6721 94.0895L53.8746 95.7332Z" fill="black"/>
<path d="M95.5783 76.5803C95.6854 76.6294 95.8038 76.6511 95.9216 76.6579C97.0273 76.7215 98.9177 76.7365 99.9977 76.6289C100.345 76.5944 100.743 76.1518 101.091 76.0953C101.251 76.069 102.022 76.129 102.043 76.3192C102.088 76.7239 101.431 76.6732 101.211 76.7397C100.894 76.8356 99.5454 78.1293 99.7828 78.3255C100.839 78.2238 101.448 77.4554 102.445 78.2687C102.814 78.5698 103.009 79.0335 103.341 79.3406C103.541 79.5256 103.779 79.6208 103.989 79.7834C104.272 80.0023 104.392 80.3379 104.852 80.4078C105.442 80.4974 105.329 80.0759 105.6 79.7738C106.175 79.1331 105.9 80.3033 105.697 80.6226C105.443 81.0231 104.52 80.9376 104.127 80.7761C103.733 80.6146 102.841 79.8663 102.568 79.5221C102.404 79.3158 102.314 78.9886 102.153 78.8277C101.394 78.0675 100.772 78.9324 99.9869 79.0856C99.3242 79.2147 98.7376 79.2704 98.8641 78.4174C98.9439 77.879 99.469 77.5214 99.5776 76.9984C99.3389 77.029 99.0623 76.9863 98.8303 77.0205C98.0165 77.1414 97.0629 77.1788 96.2823 77.3727C95.4877 77.5702 95.6789 77.9197 95.9727 78.5595C96.1946 79.0431 96.5767 79.5999 96.8708 80.0432C96.7695 80.2971 96.4033 80.4883 96.1485 80.4083C95.919 80.3363 95.2267 78.9863 95.0912 78.6945C94.9706 78.4352 94.9577 77.9673 94.7016 77.8087C94.5457 77.7121 94.3052 77.8033 94.2895 77.5296C94.2747 77.2688 94.6158 77.1017 94.679 76.7866C94.7504 76.4304 94.6586 76.0361 94.6926 75.6615C94.7189 75.3679 95.0198 73.9275 95.2324 73.8146C95.4073 73.7214 95.681 73.7159 95.7113 73.9573L95.5787 76.5802L95.5783 76.5803Z" fill="black"/>
<path d="M39.4457 82.0522C39.7758 82.0914 40.0789 82.1296 40.4165 82.1124C40.9789 82.0835 42.8055 81.9138 43.2338 81.7086C43.6394 81.514 43.8768 80.9994 44.4333 81.0348C45.2966 81.8321 43.5964 81.9859 43.6077 82.7015C44.9045 82.2061 44.6882 83.698 45.2206 84.4274C45.8607 85.3043 46.0353 84.2866 46.309 83.9109C46.3778 83.8169 46.4551 83.8644 46.5471 83.8528C46.7582 84.0445 46.1374 85.2955 45.8965 85.4063C44.8642 85.8812 44.4072 84.2539 44.1164 83.5771C44.0822 83.4974 44.1534 83.4398 43.9909 83.4759C43.4344 83.8653 42.845 85.2708 42.0173 85.0259C41.6311 84.9117 42.019 84.2797 42.0685 84.1089C42.1163 83.9437 42.0987 83.7809 42.1713 83.5983C42.2334 83.442 42.8827 82.4721 42.8133 82.416C42.1932 82.4214 41.5958 82.6311 40.9825 82.7164C40.6409 82.7641 39.4957 82.6257 39.4698 83.1264C39.4652 83.2174 39.5603 83.8364 39.5851 83.9793C39.6658 84.4483 40.1276 85.3159 39.6623 85.6583C38.9169 85.9071 39.0033 84.256 38.942 83.8578C38.9063 83.6288 38.7422 83.3671 38.729 83.1094C38.5311 82.847 37.625 83.3122 37.3276 83.3139C37.1028 83.3153 37.0401 83.2605 37.032 83.0581C36.9951 82.1517 38.4904 82.4897 38.6598 82.1987C38.8314 81.9037 38.619 81.6198 38.6163 81.3484C38.611 80.7658 38.6092 80.0382 38.6307 79.4598C38.644 79.0997 38.6831 78.0735 39.2444 78.2294C39.3697 78.2713 39.3813 78.3769 39.389 78.4922C39.4187 78.9473 39.2825 79.6607 39.2818 80.1433C39.2813 80.4132 39.3051 81.9681 39.4461 82.0522L39.4457 82.0522Z" fill="black"/>
<path d="M110.189 93.193C109.086 93.0464 108.116 93.7465 107.087 92.9901C106.521 92.5739 106.308 91.5568 106.739 90.9971C107.145 90.4685 109.219 90.326 108.745 89.084C108.696 88.958 108.29 88.5227 108.163 88.4896C107.448 88.3031 106.548 89.1826 106.191 89.7275C106.044 89.9524 105.927 90.46 105.739 90.5949C105.616 90.683 104.689 90.9427 104.505 90.9618C103.684 91.0468 103.019 90.7088 102.568 90.0354C102.3 89.6348 102.254 88.9362 101.682 89.2357C101.284 89.4433 101.653 89.9374 101.702 90.2351C101.739 90.4609 101.737 90.8378 101.693 91.0649C101.62 91.4329 100.996 92.0806 100.621 92.1196C99.6811 92.2178 99.5346 90.6151 99.4955 89.9635C98.8495 90.1321 99.0088 91.4026 99.2117 91.8586C99.5625 92.6468 100.582 93.0919 101.341 92.6324C101.802 92.3526 102.285 91.7312 102.361 91.1957C102.439 91.1206 103.379 91.5913 103.595 91.6182C104.24 91.6979 104.937 91.4528 105.583 91.4724C105.527 92.326 105.733 92.9476 106.442 93.4401C107.315 94.0457 109.208 93.9929 110.061 93.4145C110.156 93.3498 110.223 93.3348 110.189 93.193ZM107.706 89.5112L107.711 89.6674L107.519 89.7517L107.399 89.6397C107.477 89.5154 107.562 89.4979 107.706 89.5112Z" fill="black"/>
<path d="M106.678 143.793C106.375 144.108 106.499 144.509 106.368 144.946C106.275 145.255 105.831 146.128 105.532 146.216C104.921 146.397 104.028 145.442 103.843 144.899C103.522 143.958 103.821 143.508 103.917 142.657C103.924 142.59 104.023 142.568 103.894 142.481C103.041 142.075 103.255 143.673 103.024 143.737C102.633 143.846 102.322 143.195 101.682 143.152C100.999 143.107 100.86 143.252 100.442 143.701C100.316 143.837 100.243 144.049 100.058 144.144C99.8826 144.198 99.8509 144.101 99.7758 143.983C99.5208 143.583 98.8501 141.254 98.74 140.699C98.6648 140.318 98.8471 139.373 98.2287 139.513C97.9945 140.975 98.5503 142.518 99.0276 143.893C99.1378 144.21 99.4558 144.739 99.5023 145.02C99.5926 145.559 98.7084 146 99.4979 146.565C99.8752 146.835 100.313 146.877 100.759 146.765C101.084 146.683 102.116 146.1 102.423 145.891C102.641 145.741 102.864 145.36 103.092 145.374C103.265 145.384 103.472 145.799 103.622 145.952C104.052 146.392 105.002 147.041 105.636 146.923C105.73 146.906 106.27 146.601 106.314 146.546C106.526 146.282 106.973 145.065 107.006 144.709C107.024 144.517 107.023 143.616 106.678 143.793ZM102.451 145.084C102.331 145.283 101.197 146.072 100.943 146.179C100.46 146.382 99.7769 146.544 99.814 145.811C100.371 145.605 100.209 145.529 100.392 145.133C100.592 144.697 100.928 144.039 101.414 143.888C102.054 143.689 102.81 144.49 102.451 145.084Z" fill="black"/>
<path d="M107.718 48.4204C107.915 48.6467 108.761 48.0053 108.944 47.8596C109.223 47.6374 109.427 47.1109 109.818 47.3189C110.114 47.6104 109.862 47.9853 109.837 48.3136C109.791 48.927 109.717 49.3847 109.944 49.9738C110.4 51.1508 111.587 50.6853 112.144 49.8594C112.298 49.6303 112.724 48.7297 112.776 48.4771C112.827 48.2277 112.867 47.15 112.992 47.0115C113.088 46.9059 113.405 46.8128 113.506 46.9518C113.699 47.2156 113.347 47.7599 113.652 47.8931C113.64 47.7859 113.708 47.7335 113.773 47.6656C114.399 47.0128 115.372 46.1302 116.209 45.7665C116.522 45.6303 117.1 45.5333 117.338 45.836C116.969 46.0685 116.49 45.9946 116.122 46.284C115.754 46.5735 114.874 47.4649 114.657 47.8825C114.397 48.3842 114.333 49.1363 114.137 49.5198C114.099 49.5922 113.547 50.2746 113.503 50.2966C113.194 50.4496 113.195 50.1195 113.048 50.0324C112.641 49.7912 112.514 50.3164 112.31 50.5069C112.015 50.7812 110.618 51.2746 110.244 51.1175C109.936 50.9879 109.279 50.2115 109.198 49.882C109.119 49.5555 109.301 48.8393 109.085 48.6789C108.767 48.4428 107.929 49.6738 107.236 49.3061C106.729 49.0379 106.893 48.465 107.12 48.0525C107.442 47.4684 108.891 45.839 109.504 45.6519C109.714 45.5882 109.913 45.5484 110.129 45.6185C110.355 45.7656 110.152 46.3992 109.881 46.4577C109.741 46.4878 109.577 46.4403 109.427 46.4889C109.295 46.5314 109.221 46.7176 109.109 46.7994C108.54 47.2167 107.937 47.7111 107.718 48.4196L107.718 48.4204Z" fill="black"/>
<path d="M41.1881 26.3006C41.2742 26.384 41.0856 27.6773 41.0898 27.9145C41.1104 29.0336 41.4223 30.2657 41.5958 31.3628C41.6956 31.9935 41.6731 32.6517 41.8406 33.2995C41.8751 33.4327 42.1821 34.2995 42.224 34.3534C42.3091 34.4627 42.3781 34.4319 42.4981 34.4241C42.9484 33.1489 43.1855 31.679 43.8622 30.5014C43.9828 30.2911 44.5419 29.495 44.7036 29.3909C44.9494 29.2332 45.2669 29.41 45.406 29.627C45.5841 29.9059 46.2582 31.3909 46.3436 31.7069C46.621 32.7304 46.7719 33.5828 47.2287 34.5837C47.4278 35.0194 47.8887 35.3066 48.0445 35.6613C48.0906 35.7665 48.1653 35.8157 48.0395 35.9157C47.6128 36.2081 46.9406 35.3544 46.7367 35.0328C46.0546 33.9583 45.8633 32.4728 45.3667 31.2929C44.9563 30.3178 44.7996 30.0779 44.2299 31.1475C43.5306 32.46 43.3121 34.4608 42.6383 35.6521C42.4456 35.9926 42.378 35.9011 42.0165 35.8407C41.8611 35.3327 41.6333 34.8375 41.4957 34.3234C41.096 32.8304 40.9406 31.2744 40.7629 29.7338C40.6615 28.8517 40.3811 28.0056 40.5944 27.0721C40.656 26.8019 40.8425 26.2561 41.1885 26.3002L41.1881 26.3006Z" fill="black"/>
<path d="M83.1866 139.567C83.1072 139.419 83.1246 139.02 82.8887 139.032C82.1777 139.298 82.3045 140.111 82.3613 140.742C82.3894 141.054 82.5285 142.134 82.7628 142.265C83.1487 142.481 84.1381 142.022 84.7197 142.113C84.8691 142.137 85.4303 142.499 85.5168 142.64C85.9818 143.398 85.3649 145.172 85.528 146.132C85.6329 146.751 86.2702 146.406 86.589 146.13C87.1016 145.685 87.4963 144.751 87.2008 144.085C87.0341 143.71 86.0566 143.332 86.0452 143.046C86.0137 142.268 87.2944 143.406 87.466 143.636C88.047 144.416 87.8448 145.332 87.398 146.126C87.0087 146.817 86.0657 147.575 85.3008 147.029C84.8677 146.72 84.882 146.334 84.9049 145.847C84.9397 145.105 85.351 143.521 85.0606 142.887C84.8238 142.37 83.6688 142.692 83.2319 142.845C82.7246 143.023 82.7851 143.245 82.8819 143.768C83.0171 144.499 83.6344 145.822 83.5787 146.507C83.5409 146.972 83.2182 146.888 83.0634 146.507C82.7535 145.746 82.5786 144.641 82.3598 143.841C82.3098 143.658 82.1871 143.495 82.1297 143.315C81.4694 143.324 80.9747 144.127 80.2788 143.842C80.2069 143.749 80.6516 143.38 80.735 143.321C81.0376 143.107 82.0272 142.785 82.0979 142.463C82.1532 142.213 81.8568 141.262 81.8198 140.919C81.7571 140.34 81.5853 138.612 82.3347 138.444C82.3732 138.436 82.8733 138.416 82.9216 138.421C83.3944 138.47 83.7938 139.095 83.4971 139.529L83.1866 139.568L83.1866 139.567Z" fill="black"/>
<path d="M118.289 130.515C117.686 130.678 117.322 130.661 116.983 130.086C116.579 129.402 116.672 128.286 115.566 128.348C114.941 128.382 114.73 128.876 114.385 129.299C114.293 129.412 114.148 129.457 114.047 129.59C113.881 129.807 113.793 130.264 113.639 130.423C112.857 131.234 111.075 129.959 110.93 129.023C110.868 128.622 111.234 128.25 110.862 127.838C110.321 127.239 109.74 128.043 109.409 128.295C108.92 128.666 108.722 128.709 108.31 129.242C107.893 129.782 107.028 131.022 108.183 131.256C109.126 131.448 109.441 130.77 110.071 130.199C110.196 130.086 110.167 129.885 110.439 129.895C110.647 129.904 110.758 130.189 110.934 130.329C111.347 130.659 111.999 131.097 112.532 131.134C112.808 131.154 113.117 131.075 113.388 131.108C113.619 131.136 113.775 131.332 114.012 131.307C114.312 131.219 114.846 129.199 115.512 129.098C115.562 129.09 115.741 129.12 115.773 129.15C115.876 129.246 116.162 130.252 116.352 130.522C117.192 131.709 118.86 131.244 119.427 130.061C118.986 129.98 118.709 130.402 118.289 130.515ZM110.263 128.939C110.16 129.366 108.752 130.83 108.396 130.497C108.159 130.275 109.222 129.103 109.434 128.926C109.702 128.701 110.433 128.235 110.263 128.939Z" fill="black"/>
<path d="M59.5704 32.0042C59.6987 31.9964 59.8435 32.0254 59.9595 31.9501C60.0392 31.8985 60.9683 30.57 61.0573 30.3966C61.4312 29.6696 62.3138 27.5918 60.937 27.4751C60.0291 27.3981 58.9897 27.6323 58.2649 28.1707C57.5875 28.6741 57.4968 29.0066 57.613 29.8744C57.4889 30.029 57.0947 29.4207 57.0621 29.2875C56.6851 27.747 58.863 26.9205 60.05 26.8024C61.6094 26.6473 62.4987 26.892 62.2362 28.6909C62.1202 29.4861 61.0044 31.5428 60.4275 32.0838C60.1667 32.3285 59.7459 32.3853 59.6475 32.7209C59.5176 33.1621 59.6573 34.7037 59.6841 35.2647C59.6949 35.4886 59.78 35.6762 59.7917 35.8824C59.8095 36.2036 59.9514 37.8163 59.6638 37.8934C59.0411 37.5543 59.2568 36.8628 59.1759 36.3014C58.9006 34.3871 58.6066 32.0514 58.7158 30.1075C58.7273 29.9051 58.76 29.5173 58.9846 29.4436C59.2074 29.3169 59.487 29.6848 59.4929 29.8469L59.5704 32.0045L59.5704 32.0042Z" fill="black"/>
<path d="M112.732 137.804C112.8 138.78 112.759 139.771 112.839 140.746C112.869 141.114 112.916 141.638 112.97 141.991C113.123 142.98 113.609 142.493 114.098 142.075C114.799 141.474 115.368 140.656 116.025 140.006L116.328 139.961C116.603 140.14 116.091 140.958 115.949 141.148C115.699 141.483 114.954 142.259 114.63 142.572C114.354 142.839 113.399 143.299 113.69 143.741C113.737 143.813 114.772 144.337 114.912 144.381C115.471 144.553 116.574 144.588 117.145 144.463C117.618 144.359 118.188 143.794 118.667 144.149C118.753 144.53 117.616 144.86 117.329 144.938C116.615 145.13 115.987 145.246 115.24 145.169C114.973 145.141 114.085 144.819 114.094 145.176C114.101 145.465 114.953 146.657 114.266 146.786C113.842 146.865 113.975 146.606 113.879 146.391C113.605 145.781 113.359 145.115 113.031 144.534C112.89 144.286 112.532 143.971 112.481 143.742C112.412 143.44 112.53 143.184 112.514 142.956C112.496 142.708 112.295 142.266 112.256 141.945C112.154 141.096 112.029 139.645 112.065 138.812C112.086 138.311 112.086 137.728 112.733 137.804L112.732 137.804Z" fill="black"/>
<path d="M52.7141 63.0683C52.0234 62.8959 51.3105 62.9365 50.617 62.8828C50.4731 62.8715 50.356 62.7621 50.2117 62.7488C50.0017 62.7297 49.5699 62.7393 49.3723 62.7912C49.0377 62.8791 48.2103 63.7029 47.9883 64.0021C47.7446 64.3303 47.6824 64.6371 47.4679 64.9599C47.1737 65.0601 46.886 64.0763 46.4836 64.567L47.2893 67.1205C47.6448 67.6999 48.0555 67.2344 48.1148 66.7674C48.1395 66.5728 48.019 66.3366 48.0233 66.0866C48.0426 64.955 49.007 63.4983 50.1642 63.303C50.4769 63.2501 51.5253 63.2006 51.7623 63.3611C51.9844 63.5119 51.865 64.539 51.7929 64.8225C51.6652 65.3262 51.2392 66.0979 51.1514 66.5761C51.1402 66.6355 51.127 67.2513 51.1351 67.2891C51.2514 67.8559 51.9424 68.0994 52.4564 67.8684C52.9056 67.6664 53.5887 66.25 53.6938 65.7625C53.8869 64.8679 53.786 63.3363 52.7141 63.0683ZM52.5001 66.7717C52.4058 66.9295 52.258 67.2881 52.0326 67.2305C51.9135 67.1657 51.8306 67.0166 51.8181 66.8862C51.7546 66.2326 52.3649 65.1053 52.505 64.424C52.536 64.2724 52.5293 63.7056 52.5618 63.6817C52.7767 63.5239 52.9725 63.9679 53.0122 64.1323C53.2426 65.0813 52.9827 65.9629 52.5001 66.7717Z" fill="black"/>
<path d="M112.194 79.8979C111.542 80.4081 110.062 80.5136 109.251 80.7538C108.493 80.9783 107.748 81.3886 106.97 81.5827C106.641 81.6649 106.158 81.764 105.961 81.4029C105.733 80.9859 106.843 81.0789 107.031 81.0332C107.631 80.887 108.534 80.4283 109.17 80.2235C109.552 80.1001 111.594 79.7229 111.632 79.3553C111.561 79.1713 111.141 78.9675 110.946 78.888C110.74 78.8039 109.356 78.3676 109.231 78.3791C108.596 78.4377 108.131 79.8706 107.803 80.0852C107.635 80.1949 107.214 80.225 107.071 80.0887C106.853 79.8808 106.592 77.9848 106.416 77.5758C106.467 76.6234 106.259 75.5927 106.231 74.6754C106.223 74.4152 106.418 74.0498 106.441 73.7727L106.794 73.8268C106.862 73.9843 106.821 74.1591 106.863 74.3218C107.121 75.3318 107.037 76.7511 107.295 77.8511C107.319 77.9539 107.51 78.5428 107.541 78.5641C107.844 78.7736 108.49 78.025 108.772 77.8809C110.018 77.2447 111.48 78.4539 112.541 79.0461C112.703 79.2331 112.32 79.7982 112.193 79.8979L112.194 79.8979Z" fill="black"/>
<path d="M139.247 100.14C139.047 100.404 137.706 101.456 137.391 101.629C137.174 101.748 136.938 101.769 136.755 101.871C136.233 102.162 135.742 102.518 135.18 102.737C134.968 102.912 135.375 103.137 135.511 103.195C136.858 103.769 138.152 103.724 139.584 103.524C139.743 103.502 139.86 103.359 140.051 103.35C140.308 103.338 140.682 103.555 140.961 103.558C141.081 103.704 139.664 104.046 139.52 104.071C139.222 104.122 138.668 104.185 138.362 104.204C137.423 104.262 136.478 104.139 135.543 104.06C135.244 104.998 134.471 104.131 134.163 103.67C133.41 102.544 133.368 100.043 133.417 98.679C133.432 98.2785 133.517 98.1061 133.98 98.2435C134.315 98.3426 134.219 99.2974 134.243 99.583C134.262 99.8142 134.382 100.009 134.27 100.294C134.435 100.615 134.384 102.114 134.698 102.203C134.793 102.231 134.873 102.199 134.96 102.168C135.714 101.898 137.828 100.699 138.44 100.18C138.608 100.038 138.617 99.8482 138.847 99.7271C139.289 99.4951 139.517 99.7824 139.248 100.139L139.247 100.14Z" fill="black"/>
<path d="M104.466 104.763C105.111 104.122 105.864 103.294 106.453 102.639C106.71 102.354 106.874 101.944 107.381 102.29L104.979 105.202C105.057 105.495 106.724 105.412 106.982 105.177C107.364 105.202 107.601 104.946 107.99 104.973C108.335 104.997 108.48 105.234 108.198 105.478C107.864 105.768 106.144 106.218 105.682 106.239C105.499 106.248 104.635 106.103 104.545 106.202C104.419 106.695 105.645 107.611 105.204 107.992C104.809 108.333 104.141 107.244 103.96 106.954C103.056 105.498 102.836 103.83 102.481 102.19C102.412 101.874 101.944 100.392 102.142 100.242C102.648 100.173 102.861 100.665 102.989 101.073C103.366 102.271 103.499 103.667 103.932 104.865C104.05 105.192 104.31 104.917 104.465 104.763L104.466 104.763Z" fill="black"/>
<path d="M67.253 95.3628C66.7428 95.8326 66.0156 95.823 65.6148 95.2154C65.4176 94.9164 65.502 94.5947 65.296 94.3353C65.0839 94.3004 64.5816 95.4026 64.0729 95.4539C63.2674 95.5355 63.0509 94.5052 62.7557 93.977C62.7172 93.9085 62.7722 93.8468 62.6162 93.8791C62.2946 93.9457 61.5688 95.1317 61.2496 95.19C60.7766 95.2761 60.2653 94.5059 59.9653 94.2141C59.3934 94.6225 59.7659 95.7746 59.3335 96.128C59.1302 96.2941 58.715 96.1236 58.6761 95.8597C58.8236 95.4835 58.4801 93.5794 58.8475 93.477C59.4163 93.745 59.577 93.1482 60.0721 93.1972C60.3226 93.5596 60.8379 93.7564 60.7985 94.2505C60.8728 94.2789 60.9511 94.3111 61.0331 94.2916C61.3408 94.2177 62.1657 93.2709 62.3894 92.9862C62.5355 92.8002 62.4714 92.4787 62.8805 92.532C63.4033 92.6001 63.3834 93.8786 63.5456 94.1821C63.6338 94.3478 63.8695 94.5166 63.9773 94.6927C64.019 94.6951 64.5488 94.2383 64.6268 94.164C64.8174 93.9815 65.3169 93.4677 65.4576 93.2716C65.6796 92.9623 65.523 92.2795 66.0832 92.3407C66.6493 92.4024 66.1287 93.4204 66.101 93.7951C66.0802 94.0784 66.1527 95.1348 66.5043 95.161C66.7711 95.1809 67.1643 94.8461 67.2534 95.3628L67.253 95.3628Z" fill="black"/>
<path d="M73.4549 131.308C73.2185 131.087 72.4955 130.836 72.1712 130.85C71.2553 130.889 70.3157 132.439 69.9813 133.21C69.8153 133.593 69.7313 134.005 69.5866 134.395C69.1137 134.558 69.2447 134.006 68.9858 133.801C68.4437 133.372 68.8094 134.499 68.827 134.706C68.9522 136.158 68.8069 136.838 69.3817 138.265C69.4893 138.532 69.6871 138.628 69.9689 138.543C70.5091 137.853 69.7518 136.558 70.0419 135.997C70.2606 135.572 70.5991 135.886 71.0214 135.852C71.7162 135.798 73.0124 134.926 73.3563 134.312C73.7794 133.556 74.1745 131.98 73.4549 131.308ZM71.1374 135.349C70.7972 135.467 70.3671 135.582 70.06 135.333C69.9364 135.143 70.2174 134.227 70.3056 133.967C70.499 133.395 71.003 132.177 71.4065 131.772C71.8474 131.328 72.5771 131.22 72.9336 131.829C73.6976 133.134 72.3821 134.918 71.1374 135.349Z" fill="black"/>
<path d="M115.869 26.7199C115.933 26.4614 116.337 26.6599 116.407 26.8743C116.379 27.4364 116.546 28.0442 116.567 28.579C116.583 28.9957 116.581 30.6473 116.472 30.922C116.288 31.3832 115.985 31.4299 115.53 31.4844C114.721 31.581 113.818 31.5605 113.041 31.3161C112.743 31.2219 112.59 30.904 112.16 31.0699C112.024 31.1223 111.719 32.4705 111.544 32.7731C111.494 32.8602 111.078 33.3486 111.042 33.3629C110.475 33.5828 109.572 33.1273 109.202 32.6812C108.373 31.6815 108.146 29.6955 108.289 28.4427C109.195 28.1555 108.842 29.5903 108.882 30.0922C108.946 30.9057 109.562 32.7673 110.565 32.7698C111.029 32.7708 111.314 31.786 111.435 31.3785C111.557 30.9627 111.648 29.7728 112.034 29.6555C112.292 29.5771 112.841 30.4423 113.161 30.6166C113.39 30.742 113.99 30.8851 114.257 30.9022C114.628 30.9258 115.813 30.9689 115.912 30.5523C115.854 30.3497 115.986 29.9881 115.982 29.859L115.869 26.7203L115.869 26.7199Z" fill="black"/>
<path d="M36.6007 64.3346L35.7908 65.2285C35.3163 65.3387 35.0928 65.6953 34.7748 65.9288C34.6019 66.0556 33.9813 66.3526 33.9127 66.5719C33.7486 67.0965 34.4946 68.3708 34.5663 68.9352C34.6477 69.5759 34.3648 69.7303 33.8582 69.3615C33.6083 68.959 33.3768 67.0435 33.1283 66.8131C32.9934 66.6883 32.202 66.8036 32.0828 66.3866C31.9009 65.7515 32.7349 66.2457 32.9743 65.9184C32.5607 65.4999 32.7045 64.9851 32.6086 64.5209C32.5128 64.0567 32.245 63.409 32.1729 62.9526C32.04 62.1098 32.0087 60.6193 32.562 59.92C32.8671 59.5346 33.4868 58.9091 33.8612 58.63C34.2711 58.3241 35.4263 58.1093 35.9305 58.1706C36.7279 58.2676 36.7474 59.2269 36.4572 59.231C36.1844 58.607 35.615 58.464 34.9841 58.6918C34.9172 58.7158 33.9092 59.3981 33.803 59.4852C33.3207 59.8802 32.9297 60.4487 32.8208 61.0711C32.6343 62.1395 33.0024 64.412 33.4463 65.4115C33.5256 65.5898 33.6169 65.8973 33.8541 65.8349L36.6015 64.3345L36.6007 64.3346Z" fill="black"/>
<path d="M86.4522 103.081C86.6786 103.143 86.5496 103.829 86.4119 103.955C86.2131 104.136 85.8107 103.798 85.4914 103.865C85.2934 103.907 84.4076 104.488 84.2368 104.653C84.1357 104.751 84.0829 104.907 83.978 105.018C83.6964 105.318 82.9039 105.999 83.2801 106.499C83.4245 106.691 84.2112 106.284 84.4015 106.171C84.7602 105.959 85.7084 104.865 86.0523 105.549C86.1194 105.683 86.2172 106.583 86.2374 106.817C86.3175 107.749 86.2259 108.667 86.2486 109.57C86.2659 110.259 86.5618 110.992 86.5684 111.601C86.5705 111.801 86.4956 112.355 86.2385 112.363C85.8087 112.377 85.9268 111.825 85.8955 111.652C85.7139 110.643 85.5008 109.784 85.6038 108.735C85.6517 108.248 85.6371 107.691 85.6031 107.157C85.5914 106.974 85.4965 106.123 85.2389 106.193C85.148 106.217 84.4986 106.866 84.3064 106.994C83.7018 107.395 83.2027 107.54 82.619 106.99C82.1631 106.56 82.4276 105.751 82.7321 105.297C82.7901 105.21 83.4682 104.398 83.5162 104.36C83.9493 104.023 84.4305 103.731 84.9113 103.424C84.966 103.389 85.0684 103.13 85.1999 103.125C85.4699 103.116 86.2702 103.031 86.4518 103.08L86.4522 103.081Z" fill="black"/>
<path d="M79.6111 77.891C80.2838 77.7682 82.3309 78.0439 82.7187 78.6599C82.8238 78.827 83.0082 79.4766 82.9826 79.6701C82.8847 80.4124 82.3171 81.2462 81.6858 81.6473C81.4172 81.818 80.8292 81.9189 80.7165 82.1862C80.5688 82.5358 80.9503 83.0993 80.8565 83.5188L81.3832 85.0791C80.9374 86.2704 80.3809 84.8625 80.2124 84.2948C80.0368 83.7043 79.8721 82.698 79.7821 82.0689C79.7523 81.8614 79.6434 81.123 79.6641 80.9776C79.6994 80.73 79.9158 80.6338 80.1468 80.6943C80.4392 80.771 80.4494 81.3168 80.6178 81.4141C80.8959 81.5747 81.6332 80.8487 81.8004 80.6168C82.3819 79.81 82.2688 79.1389 81.307 78.7959C80.1976 78.4 78.8329 78.4907 78.6889 79.9136C78.132 80.0625 78.0648 78.9997 78.2164 78.716C78.4283 78.3206 79.1864 77.9687 79.6107 77.891L79.6111 77.891Z" fill="black"/>
<path d="M50.9037 81.7373C50.6686 81.7819 50.1749 82.1431 49.9599 82.2978C49.7123 82.4756 49.2362 82.9871 49.0274 83.0964C48.9178 83.1537 48.8376 83.1806 48.7505 83.0686C48.6508 82.7268 48.717 82.366 48.6673 82.0173C48.5526 81.2131 48.4236 80.406 48.3499 79.5881C48.2264 79.1812 48.5013 77.9025 48.2466 77.6625C47.8273 77.2673 47.628 78.2329 47.6103 78.5125C47.5436 79.5562 47.8089 80.6049 47.8009 81.6465L48.2504 84.5039L48.8831 85.1661C49.0582 85.2175 49.229 85.1725 49.3918 85.1034C49.6203 85.0068 50.5612 84.4079 50.8175 84.2356C51.0949 84.0488 51.9204 83.3708 52.0238 83.0861C52.298 82.3304 51.6711 81.5918 50.9037 81.7373ZM51.2021 83.1164C51.1439 83.1782 50.9997 83.1881 50.9187 83.2665C50.5642 83.6089 50.1663 83.9749 49.6695 84.1511C49.406 84.2447 49.2413 84.1964 49.2441 83.8725C49.2469 83.5796 50.5062 82.4848 50.8595 82.4611C51.1809 82.4397 51.4179 82.8859 51.2021 83.1164Z" fill="black"/>
<path d="M62.4208 81.1489C62.5605 80.905 62.2421 79.6865 62.2083 79.3259C62.1207 78.3934 62.0964 77.2154 62.7378 76.4713C63.31 76.4413 63.0708 76.7863 63.0716 77.0928C63.0738 77.7847 62.8933 78.3232 62.8973 78.903C62.9006 79.3678 63.078 79.8318 63.0307 80.314L63.1582 80.5055C63.4936 80.3414 63.8561 80.1987 64.1861 80.0281C64.8186 79.7008 65.1942 79.4567 65.8888 79.1904C66.0233 79.1388 66.5921 78.7325 66.6651 79.0065L63.3244 81.4984C63.2446 81.8078 63.6256 83.0739 63.7459 83.4555C63.8533 83.7966 64.0263 84.3146 64.1659 84.6329C64.3951 85.1556 64.7844 85.2272 64.4991 85.8564C64.2827 86.3341 63.9742 86.157 63.8133 85.7463C63.5535 85.0817 63.2252 84.1783 63.0245 83.4991C62.887 83.0337 62.9232 82.5235 62.661 82.0971C62.5424 81.9364 62.1627 82.3504 61.9653 82.3544C61.4888 82.3636 61.7664 81.6177 61.9375 81.4186C62.0575 81.2791 62.3998 81.1851 62.4204 81.149L62.4208 81.1489Z" fill="black"/>
<path d="M26.9364 50.4604C27.0984 50.5972 27.5055 49.79 27.6096 49.6864C28.0083 49.2902 28.5296 49.2942 28.9807 49.6018C29.7789 50.146 30.265 51.7219 30.6414 52.6212C30.7215 52.8128 30.7091 53.0671 30.8125 53.2516C30.9055 53.418 31.1081 53.4418 31.1241 53.5029C31.2423 53.9572 30.5282 54.0725 30.2616 53.7638C29.8875 52.6896 29.5366 51.1882 28.7675 50.3207C28.1239 49.5945 27.7291 50.4185 27.6189 51.0594C27.5642 51.3785 27.4949 52.0345 27.4759 52.366C27.4491 52.8326 27.7907 53.5599 27.0863 53.5192C26.6324 53.493 26.6727 52.6743 26.6058 52.4051C26.3191 51.2543 26.0695 50.0872 25.8207 48.9314C25.6894 48.3212 25.36 47.2446 25.3401 46.6905C25.3301 46.4134 25.4309 46.3607 25.6984 46.4552C25.9803 46.9936 26.1485 47.5086 26.2934 48.0959C26.3392 48.2813 26.2943 48.492 26.3424 48.695C26.4736 49.2498 26.9172 49.839 26.9363 50.4596L26.9364 50.4604Z" fill="black"/>
<path d="M68.7566 108.045C67.7639 108.268 66.8014 108.843 65.7386 108.774C65.1734 108.738 63.8292 108.134 64.1233 107.42C64.1529 107.349 64.8767 106.707 65.0311 106.524C65.4945 105.973 66.0721 105.199 65.9349 104.447C64.8391 104.484 63.52 104.882 63.1025 106.013C62.9776 106.352 63.0035 106.91 62.889 107.103C62.7848 107.278 62.4938 107.294 62.4482 107.454L62.5534 107.928C62.7213 108.019 63.0205 107.961 63.1642 108.044C63.2178 108.075 63.7261 108.774 63.9796 108.958C65.2631 109.891 67.2866 109.249 68.539 108.508C68.6709 108.43 68.8021 108.362 68.891 108.229L68.7566 108.045ZM64.6782 105.437C64.9277 105.435 64.5562 105.968 64.5024 106.03C64.3339 106.226 64.1142 106.36 63.8934 106.485C63.8032 106.222 64.5388 105.438 64.6782 105.437Z" fill="black"/>
<path d="M133.596 139.122C133.3 138.919 132.68 138.85 132.327 138.915C131.738 139.022 131.234 139.838 131.041 140.368C130.939 140.647 130.954 141.03 130.801 141.261C130.63 141.517 130.332 141.539 130.194 142.004C129.793 143.347 130.104 144.911 130.779 146.111C130.944 146.404 131.24 146.905 131.469 146.379C131.725 145.79 131.48 145.645 131.416 145.18C131.346 144.68 131.21 143.93 131.188 143.462C131.165 142.965 131.305 142.301 131.302 141.786C132.138 141.388 133.723 141.337 134 140.248C134.1 139.853 133.929 139.349 133.596 139.122ZM133.421 140.003C133.398 140.38 131.976 141.329 131.502 141.053C131.423 140.41 132.235 139.474 132.884 139.516C133.101 139.531 133.435 139.768 133.421 140.003Z" fill="black"/>
<path d="M95.4109 93.7128C95.3129 93.0141 95.0421 92.3487 94.944 91.6489C94.8771 91.1699 94.9735 90.6702 94.803 90.2107C94.5773 90.4506 94.2809 90.609 94.039 90.8236C93.949 90.9035 93.7228 91.3902 93.5078 91.1991C93.3265 91.0379 94.446 89.7728 94.6534 89.6455C94.6933 89.2197 94.0882 87.8649 94.2468 87.5669C95.3243 87.25 95.0934 88.6976 95.3581 89.2465C95.4516 89.4404 95.7796 89.4934 95.9212 89.6176C96.0506 89.7308 96.0775 89.911 96.1731 89.9984C96.6888 90.4679 96.9387 90.3992 97.2844 91.1644C97.4193 91.4633 97.2679 91.798 97.7775 91.6606C98.0872 91.5772 98.2124 91.1805 98.6137 91.6934C98.6751 91.9847 97.5193 92.3819 97.3199 92.6001C96.6639 92.8072 96.4531 91.6603 96.2284 91.2428C96.1171 91.0358 95.9768 90.8043 95.7987 90.6476C95.5153 90.6562 95.9154 91.8776 95.9469 92.0349C95.9842 92.2206 95.9483 92.4325 96.0131 92.697C96.0975 93.0397 96.3959 93.2636 96.1386 93.6178C95.9523 93.8744 95.6797 93.8116 95.4104 93.7124L95.4109 93.7128Z" fill="black"/>
<path d="M57.8288 83.1571C57.5769 83.4844 57.4005 83.9969 56.8995 84.1092C56.8228 83.9068 56.8438 83.7799 56.9578 83.5963C57.3494 82.9664 57.8197 82.4474 58.1591 81.7597C58.2098 81.6565 58.3438 81.5688 58.3708 81.5018C58.4276 81.3591 58.1506 81.3054 58.0563 81.3543C57.9382 81.4155 57.1118 82.5589 57.0205 82.7449C56.942 82.9045 56.7087 83.6202 56.6795 83.7784C56.6503 83.9366 56.6626 84.627 56.726 84.7457C56.8403 84.9605 57.3573 85.1258 57.6009 85.1123C58.7902 85.0472 59.523 84.2424 60.5168 83.8082C60.771 83.6973 61.0541 83.6691 61.3088 83.5613C61.8299 83.341 62.1985 82.9466 62.7314 82.8799C62.3297 83.5317 61.5775 83.7332 60.9822 84.0905C60.0686 84.6397 58.6312 85.7712 57.6173 85.8638C57.0893 85.9123 56.6038 85.7376 56.2396 85.3507C55.9242 85.0158 55.9052 84.3233 55.9557 83.874C56.021 83.2932 57.1137 81.1517 57.6021 80.7844C57.6784 80.727 58.16 80.4775 58.2377 80.4597C58.6162 80.3727 59.1046 80.9308 59.0577 81.3054C59.0449 81.4068 58.2657 82.7091 58.1442 82.8825C58.0383 83.0328 57.8921 83.0766 57.8296 83.1574L57.8288 83.1571Z" fill="black"/>
<path d="M132.556 87.7142C132.605 87.8606 132.767 87.8167 132.874 87.7861C133.546 87.5938 134.441 86.5478 135.19 86.9956C135.709 87.3062 135.683 89.1968 135.766 89.7977C135.838 90.3143 136.058 90.8384 136.681 90.6663C136.739 90.6505 136.739 90.5369 136.792 90.5142C137.69 90.129 137.393 90.7629 136.901 91.0855C136.617 91.2717 136.115 91.5873 135.814 91.2947C135.771 91.253 135.297 90.6076 135.282 90.5645C135.032 89.8803 135.173 88.9797 134.967 88.2142C134.908 87.9939 134.815 87.4613 134.491 87.5402C134.111 87.8155 132.887 88.0874 132.759 88.5887C132.599 89.2173 133.449 90.6316 133.857 91.1222C134.014 91.3115 134.406 91.477 134.197 91.747C133.658 92.2198 132.916 91.1411 132.649 90.711C132.078 89.7908 131.817 87.709 131.974 86.6396C132.041 86.1822 132.497 86.0762 132.505 86.3018L132.556 87.7142Z" fill="black"/>
<path d="M126.847 48.7555L126.803 48.9936C126.472 48.9898 126.23 49.3281 125.951 49.3975C125.437 49.5252 124.671 49.4396 124.646 48.7964C124.613 47.9229 125.124 47.0495 124.978 46.1636C124.783 44.98 123.054 45.8932 122.8 46.6847C122.668 47.0946 122.607 48.0504 122.689 48.4676C122.738 48.7192 123.19 49.336 123.183 49.3877C123.112 49.9102 122.332 49.3276 122.193 49.0021C122.143 48.8872 122.086 48.6173 122.068 48.4848C122.022 48.161 121.909 47.2197 121.928 46.9369C121.981 46.144 122.623 45.2592 122.716 44.4464C123.289 44.1307 122.981 44.7583 123.027 45.0835C123.104 45.6372 123.609 45.1554 123.941 45.0955C124.466 45.0008 124.998 45.1015 125.398 45.4679C126.245 46.2445 125.305 47.8678 125.451 48.8339L125.516 48.9259L126.847 48.7554L126.847 48.7555Z" fill="black"/>
<path d="M85.6856 116.963C86.2164 116.405 86.287 117.026 86.4961 117.296C86.7743 117.655 87.8397 118.678 88.2676 118.656C88.5058 118.644 89.0012 118.137 89.079 117.893C89.2537 117.345 89.2329 116.808 89.2422 116.263C90.3762 116.252 89.6263 118.239 89.3128 118.793C88.3288 120.534 86.7391 118.659 85.9598 117.713L84.927 119.406C84.7258 119.618 84.129 118.932 84.0105 118.752C83.6409 118.194 83.2047 116.766 83.1234 116.115C83.0898 115.846 83.1639 115.718 83.4588 115.755C83.8426 115.804 83.7241 116.432 83.7874 116.71C83.8552 117.006 84.3815 118.152 84.6629 118.218C85.141 118.33 85.4239 117.237 85.6855 116.962L85.6856 116.963Z" fill="black"/>
<path d="M62.3355 65.4028C62.1581 65.4599 61.6235 65.9781 61.3648 66.097C60.8317 66.3422 60.4864 66.3408 60.1256 65.8402C59.8991 65.5257 59.7867 64.916 60.0567 64.6104C60.2028 64.4452 60.9975 64.1302 61.3124 63.8112C62.7147 62.3894 61.2096 60.7656 60.0075 62.5555C59.73 62.9686 59.4808 64.0896 59.2988 64.2828C59.1184 64.4748 58.1803 64.7234 58.2662 65.0756C58.36 65.4604 58.9713 65.1127 59.0383 65.1775C58.9498 65.6927 59.5864 66.6584 60.0596 66.8076C60.3926 66.9128 61.0403 66.827 61.3671 66.7056C61.579 66.6269 62.5415 65.8571 62.6259 65.6765C62.702 65.5134 62.5064 65.3479 62.3355 65.4028ZM61.1723 62.4299C61.4191 62.4725 61.127 62.9915 61.0666 63.0884C60.9932 63.2054 60.5076 63.7902 60.3975 63.714C60.1056 63.409 61.0145 62.4026 61.1723 62.4299Z" fill="black"/>
<path d="M99.8684 104.72C99.7477 104.84 99.7221 104.664 99.6867 104.626C99.4451 104.369 99.3306 103.996 99.003 103.821C98.8871 103.803 98.3326 104.173 98.2109 104.274C98.0225 104.43 97.3018 105.352 97.2299 105.555C97.0645 106.022 97.2593 107.157 97.8267 107.288C98.2731 107.39 99.1452 106.872 99.6312 106.81C99.8432 106.788 100.694 105.971 100.791 106.378C100.857 106.653 99.7683 107.333 99.5264 107.471C99.2834 107.61 98.6289 107.956 98.3835 107.996C97.3102 108.171 96.2857 107.303 96.2583 106.224C96.2365 105.367 97.5478 103.475 98.3262 103.166C98.8443 102.96 99.6741 102.99 99.8285 103.665C99.8656 103.826 99.9588 104.63 99.8687 104.72L99.8684 104.72Z" fill="black"/>
<path d="M84.423 77.8703C84.4965 77.8217 84.7304 77.8325 84.8238 77.859C85.3385 78.004 84.9702 79.0864 85.031 79.5023C85.0545 79.6634 85.542 80.6042 85.6575 80.6335C85.8604 80.6105 86.1415 80.4617 86.2957 80.3367C86.8886 79.8564 87.0457 79.3438 86.9468 78.5863C86.8847 78.1126 86.7181 78.0459 86.2768 77.9227C85.8762 77.8106 84.936 77.8503 85.6828 77.2603C86.3722 77.3515 86.8212 77.2092 87.3857 77.7056C87.8854 78.145 87.7431 79.5156 87.4544 80.0526C87.2065 80.5134 86.3807 81.3061 85.8737 81.4588C84.0432 82.0098 84.0184 78.1375 84.423 77.8695L84.423 77.8703Z" fill="black"/>
<path d="M142.272 89.9192C142.499 89.891 142.669 90.0212 142.901 89.9425C143.389 89.7773 144.414 88.7113 145.014 88.344C145.393 88.1115 145.756 87.8249 146.221 87.8349C146.747 87.9701 146.908 90.1671 147.67 90.2627C147.876 90.2887 148.52 90.0074 148.489 90.5189C148.482 90.6386 147.804 91.03 147.676 91.0574C147.155 91.1697 146.509 90.6522 146.263 90.2233C146.027 89.8113 146.024 89.2224 145.716 88.8531C145.589 88.8282 144.354 89.811 144.161 89.9747C143.957 90.1486 143.051 91.1077 142.965 91.1368C142.688 91.2312 142.439 91.0189 142.341 90.7745C142.268 90.5921 142.423 90.1735 142.273 89.9188L142.272 89.9192Z" fill="black"/>
<path d="M67.0853 60.8182C67.3364 60.7302 68.4825 60.7059 68.1822 61.1591C68.1342 61.2316 67.1651 61.3497 66.9314 61.4328C66.5859 61.556 65.6137 62.066 65.6028 62.4708C65.5999 62.577 65.795 63.1641 65.8599 63.2466C65.933 63.3395 66.1512 63.4146 66.2697 63.5384C66.485 63.7637 66.6711 64.0332 66.8876 64.2581C67.2955 64.6823 67.7029 64.6575 67.1523 65.4305C66.8543 65.8491 65.6519 66.0723 65.135 66.1259C64.9219 66.1481 63.543 66.1383 63.4552 66.0825C63.3309 66.0033 63.337 65.7913 63.4421 65.6869C63.4887 65.6408 64.5187 65.561 64.7401 65.5294C64.9916 65.4937 65.0854 65.4981 65.3752 65.4398C65.7098 65.3724 66.6116 65.3447 66.3524 64.8369C65.9182 64.4234 64.6302 63.1671 64.6653 62.5862C64.7049 61.9333 65.7586 61.3661 66.2928 61.1402C66.497 61.0539 66.9134 60.8778 67.0849 60.8178L67.0853 60.8182Z" fill="black"/>
<path d="M120.562 118.038L120.601 117.877C120.85 117.694 121.089 117.878 121.299 117.856C121.581 117.826 123.128 117.419 123.191 117.189C123.149 116.677 122.508 116.35 122.272 115.995C122.191 115.871 121.915 115.242 121.885 115.106C121.482 113.275 123.596 112.249 125.113 112.687C125.288 113.455 124.812 113.152 124.435 113.191C123.317 113.308 122.574 113.664 122.732 114.927C122.883 116.124 123.412 116.005 124.003 116.735C124.565 117.429 123.699 117.813 123.112 118.03C122.313 118.326 121.319 118.53 120.562 118.037L120.562 118.038Z" fill="black"/>
<path d="M51.2343 121.819C51.446 121.549 51.6807 121.341 52.0484 121.367C52.1184 121.428 51.577 122.195 52.4399 121.542C52.8786 121.21 53.6076 120.583 53.4096 119.959C53.3968 119.919 52.812 119.436 52.7606 119.422C52.6027 119.379 52.4213 119.347 52.2656 119.408C51.9592 119.529 51.5098 121.045 51.0769 120.58C50.8678 120.355 50.9435 119.277 50.8638 118.936C50.8249 118.768 50.6765 118.729 50.6347 118.612C50.4134 117.992 50.3961 116.988 50.2133 116.295C50.1443 116.035 49.8903 115.793 49.968 115.522C50.023 115.33 50.2902 115.318 50.4146 115.508C50.6775 115.91 50.7215 116.731 50.8218 117.188C50.8817 117.46 51.002 117.72 51.0569 117.995C51.12 118.311 51.1027 119.456 51.4713 119.409C52.0088 118.695 52.5279 118.4 53.3339 118.964C54.1361 119.525 54.2546 120.106 53.7442 120.94C53.4555 121.411 51.9458 122.557 51.4261 122.576C51.2077 122.584 51.0369 122.541 50.9818 122.304C50.9627 122.145 51.1343 121.948 51.2347 121.82L51.2343 121.819Z" fill="black"/>
<path d="M128.619 139.799C128.335 139.444 127.676 139.49 127.27 139.579C126.734 139.697 125.739 140.525 125.476 141.015C125.032 141.84 124.887 142.726 125.709 143.342C126.372 143.839 127.16 143.884 127.859 143.39C128.794 142.731 129.381 140.748 128.619 139.799ZM128.346 141.721C128.216 142.142 127.502 142.883 127.06 142.949C126.046 143.1 125.365 141.944 126.131 141.247C126.316 141.078 126.487 141.099 126.642 140.965C126.864 140.773 127.009 140.11 127.437 139.964C128.539 139.589 128.565 141.013 128.346 141.721Z" fill="black"/>
<path d="M70.1547 93.218C70.5796 92.8714 70.8687 92.2477 71.5369 92.5026C71.935 92.6545 72.4913 94.0468 72.8248 94.3743C73.2513 94.7936 73.1496 94.1339 73.4852 94.3144C73.8824 94.528 73.4726 95.1287 73.1617 95.2337C72.9874 95.2577 72.1952 94.8453 72.0549 94.7156C71.8134 94.4924 71.4166 93.4064 71.0801 93.5069C70.5232 93.8877 70.5771 95.6155 69.9434 95.7781C69.8654 95.7982 69.5951 95.7573 69.5373 95.7169C69.3733 95.6025 69.3684 93.8101 69.3831 93.5223C69.3993 93.2094 69.4809 92.3278 69.9741 92.5549C70.2065 92.697 70.1393 92.9859 70.1551 93.2183L70.1547 93.218Z" fill="black"/>
<path d="M89.255 77.5256C89.7766 77.4176 89.9605 77.6841 90.2526 78.0379C90.3442 78.0358 90.483 76.7726 90.5478 76.5706C90.7719 75.8702 91.6193 75.1375 92.326 74.9672C92.387 74.9524 92.4914 74.848 92.5333 75.0124C92.5945 75.2534 92.1633 75.4661 92.0059 75.6565C91.1768 76.6584 91.129 78.0551 91.3603 79.2909C91.4841 79.9532 92.2586 80.8221 90.7763 80.5716C90.2196 79.6042 89.4057 78.6782 89.255 77.5256Z" fill="black"/>
<path d="M138.018 138.311C137.836 138.355 137.013 138.911 136.985 139.095C136.971 139.242 137.003 139.371 137.063 139.503C137.089 139.561 137.671 140.391 137.744 140.48C137.902 140.674 138.665 141.316 138.876 141.38C139.109 141.45 140.599 141.267 140.526 141.637C140.462 141.965 138.995 141.835 138.614 142.166C138.191 142.533 138.09 142.582 137.47 142.687C137.066 142.755 135.815 143 135.853 142.396C136.268 142.204 137.714 142.402 137.699 141.823C137.67 140.696 136.354 140.529 136.216 139.436C136.194 139.257 136.183 138.98 136.269 138.821C136.305 138.754 137.38 137.967 137.501 137.905C137.977 137.662 138.593 137.851 139.095 137.95L139.152 138.27C138.817 138.329 138.328 138.235 138.018 138.311L138.018 138.311Z" fill="black"/>
<path d="M38.2774 30.3335C37.9975 30.3169 37.669 30.2045 37.3903 30.3021C37.075 30.4129 36.4802 31.8532 36.4207 32.2027C36.2848 33.0021 36.3479 33.5912 37.0026 34.1123C37.6573 34.6334 38.6373 34.9149 39.4725 34.6711C39.7064 34.603 40.3195 33.9129 40.4474 34.027C40.3563 34.5132 39.4939 35.1662 39.0352 35.2491C37.8867 35.4562 36.3316 34.9789 35.7536 33.9097C35.3074 33.084 35.8346 31.5412 36.2426 30.747C36.3301 30.5768 36.8522 29.6994 36.9422 29.6188C37.3852 29.2209 38.494 29.5446 38.2774 30.3335Z" fill="black"/>
<path d="M63.8795 24.1555C64.1974 24.0372 64.3649 24.4697 64.4029 24.7178C64.5207 25.4881 64.4113 26.0638 64.4121 26.762C64.4125 27.1785 64.5376 27.7025 64.5287 28.1752C64.4941 30.0142 64.2702 31.754 64.7355 33.5691C64.7829 33.7541 65.389 34.2093 65.0192 34.3217C64.8618 34.3694 64.7581 34.2289 64.6593 34.1405C63.3168 32.9427 63.8134 28.0952 63.8352 26.3143C63.8427 25.7144 63.7147 24.9996 63.7603 24.4246C63.7686 24.3178 63.7554 24.2016 63.8799 24.1555L63.8795 24.1555Z" fill="black"/>
<path d="M30.2717 64.9561C30.5102 65.4765 30.6761 65.8725 30.6366 66.4649C30.614 66.8056 30.1996 68.1286 29.9703 68.3451C29.4799 68.8087 28.7725 68.3913 28.3594 68.0392C27.5618 67.3597 27.3691 66.6075 27.3166 65.5724C27.3 65.2433 27.5522 64.4751 27.7067 64.185C27.9912 63.6506 29.1527 63.5425 29.1578 64.2425C29.1661 65.2898 28.8405 64.7569 28.5161 64.7799C27.7731 64.833 28.1267 66.6691 28.38 67.1201C28.5554 67.4321 29.2882 68.1512 29.6363 67.8062C29.6707 67.7724 30.0886 67.0029 30.0923 66.9548C30.1004 66.8516 30.0068 65.9166 29.9778 65.806C29.9192 65.5826 29.6423 65.4452 29.6614 65.1797L30.2713 64.9562L30.2717 64.9561Z" fill="black"/>
<path d="M61.4424 49.22C60.8672 49.177 60.7121 48.6564 60.1477 49.1871C59.5094 49.7873 58.9518 51.1292 59.0406 52.0054C59.0927 52.5191 59.3848 52.9589 59.9139 53.0275C60.719 53.1322 61.3278 52.9649 61.9925 52.5009C62.306 52.2822 63.025 51.3447 63.2029 51.2794C63.3878 51.2114 63.2861 51.3381 63.2649 51.4131C63.0708 52.0959 61.3205 53.5927 60.619 53.7209C59.9619 53.8408 59.1702 53.5953 58.7206 53.0909C57.8509 52.1146 58.4945 50.3531 59.18 49.4211C59.3683 49.1652 60.0412 48.4361 60.3144 48.3516C60.7 48.2324 61.5765 48.7318 61.4427 49.2195L61.4424 49.22Z" fill="black"/>
<path d="M124.979 91.3544C124.057 90.0452 124.126 88.1908 124.23 86.6188C124.237 86.5219 124.34 86.4074 124.352 86.2769C124.394 85.8211 124.273 85.3119 124.395 84.8399C125.594 84.4923 125.035 85.8374 124.992 86.4955C124.895 87.9843 124.857 89.4376 125.524 90.8098C125.57 90.9048 125.945 91.5028 125.988 91.5318C126.234 91.6959 126.71 91.4328 126.753 91.7743C126.799 92.1479 126.093 92.2998 125.8 92.2231C125.557 92.1596 125.128 91.5667 124.979 91.3548L124.979 91.3544Z" fill="black"/>
<path d="M140.006 47.7792C140.085 47.873 140.219 48.089 140.236 48.1009C140.426 48.2336 141.055 47.9968 140.942 48.5624C140.908 48.6018 140.035 48.3475 139.936 48.3019C139.01 47.8739 138.857 46.5387 137.545 46.7206C136.611 46.8504 134.707 48.3319 133.958 48.9836C133.699 49.2087 133.726 49.4894 133.244 49.5205C133.023 49.5347 132.591 48.9636 132.569 48.7412C132.56 48.6535 132.664 47.9456 132.694 47.9162C132.833 47.7764 133.031 48.343 133.18 48.4108C133.711 48.6514 134.546 47.6599 134.935 47.3924C135.558 46.9629 136.802 46.2043 137.521 46.0904C138.862 45.8779 139.299 46.9409 140.006 47.7784L140.006 47.7792Z" fill="black"/>
<path d="M120.635 49.2913C120.075 49.4223 119.69 49.0432 119.625 48.504C119.584 48.168 119.785 47.4558 119.706 47.2013C119.671 47.0854 119.17 46.3796 119.039 46.3639C118.326 46.2779 117.245 47.3498 116.865 47.8963C116.435 48.515 116.475 49.1057 117.269 49.2654L118.646 48.3577C118.981 48.559 119.09 49.1457 119.383 49.3395C119.486 49.4077 120.197 49.5971 120.339 49.6128C120.813 49.6645 121.305 49.4944 121.29 48.9554C120.994 48.8969 120.859 49.2393 120.635 49.2913ZM117.736 48.1397C117.739 48.026 117.833 47.7499 117.901 47.6827C117.935 47.6496 118.051 47.6674 118.081 47.633C118.281 47.4057 118.393 47.0547 118.795 47.0812C119.082 47.4815 117.843 48.2329 117.736 48.1397Z" fill="black"/>
<path d="M130.504 46.4852C130.358 46.0681 130.311 45.696 130.325 45.2523C129.563 45.4483 130.058 46.4191 129.873 46.84C129.818 46.9657 129.508 47.0987 129.386 47.2217C129.153 47.456 128.595 48.0239 128.42 48.2518C128.308 48.3972 128.209 48.8008 128.196 48.9903C128.077 50.7074 130.032 49.9224 130.797 49.2402C131.955 48.2076 130.851 47.4803 130.504 46.4852ZM130.483 48.6228C130.376 48.91 129.314 49.4346 129.071 49.2921C129.03 49.268 128.969 49.0305 128.972 48.9593C128.985 48.659 129.892 47.1084 130.117 47.1451C130.501 47.395 130.626 48.2428 130.483 48.6228Z" fill="black"/>
<path d="M59.3529 102.968C59.5349 102.898 59.8171 102.9 59.8589 103.135C59.907 103.406 59.6891 104.332 59.6773 104.712C59.6601 105.257 59.6719 106.296 59.7707 106.81C59.8088 107.009 60.4127 108.361 60.5285 108.521C60.6996 108.756 61.2106 108.801 61.2369 108.899C61.1432 109.455 60.2208 109.257 59.9533 108.977C59.3373 108.334 58.8729 107.045 58.7854 106.161C58.7331 105.633 58.8392 103.167 59.3529 102.969L59.3529 102.968Z" fill="black"/>
<path d="M52.9219 78.615C52.9697 78.6597 52.9892 78.7332 53.0005 78.7973L52.9733 81.7791C53.0209 82.4934 53.4306 84.5487 53.8141 85.1113C54.0102 85.399 54.3248 85.4537 54.2226 85.9344C54.0192 86.1512 53.3744 85.493 53.2443 85.3177C52.6798 84.5572 52.2228 82.671 52.185 81.7269C52.1745 81.4687 52.2634 81.2274 52.2507 81.0157C52.2216 80.5322 51.8894 78.9747 52.3185 78.6599C52.4395 78.5711 52.7994 78.5004 52.9223 78.615L52.9219 78.615Z" fill="black"/>
<path d="M108.177 138.292C108.351 138.226 108.602 138.283 108.667 138.478C108.831 138.972 108.712 140.227 108.846 140.811C109.145 142.159 109.19 143.475 109.712 144.768C109.828 145.055 110.311 145.815 110.329 145.978C110.364 146.287 109.907 146.225 109.722 146.141C109.383 145.987 108.867 144.579 108.752 144.172C108.395 142.908 108.372 141.574 108.122 140.287C108.211 139.741 107.982 138.984 108.056 138.483C108.07 138.389 108.077 138.329 108.177 138.291L108.177 138.292Z" fill="black"/>
<path d="M78.4935 94.1752C78.9324 94.0911 79.2607 94.5127 79.6798 94.5727C79.9862 94.6163 79.9478 94.3996 79.7903 94.2037C79.2841 93.5735 78.0912 93.4392 78.2865 92.2757C78.4075 91.5539 80.1143 90.5392 80.6944 90.9471C81.1664 91.279 80.4815 91.3673 80.3798 91.4166C80.0359 91.5833 79.1241 92.0322 79.1419 92.4631C79.4271 93.2132 80.2542 93.4935 80.7973 94.0158C81.058 94.9134 80.2462 95.2974 79.4653 95.1243C79.1275 95.0492 78.3569 94.6179 78.4935 94.1752Z" fill="black"/>
<path d="M126.462 23.8651C126.979 24.1149 126.468 24.7891 126.366 25.2167C125.683 28.085 125.894 30.7781 126.388 33.6426C126.431 33.8894 126.779 34.3489 126.374 34.4738L125.625 31.9376C125.244 29.7818 125.252 26.8273 125.931 24.7353C126.049 24.3715 126.158 24.1134 126.462 23.8651L126.462 23.8651Z" fill="black"/>
<path d="M55.9151 59.5777C56.129 59.849 56.0587 61.5459 56.1018 62.0257C56.1742 62.8294 56.3579 64.0496 56.6369 64.7905C56.7847 65.1836 57.3307 66.0945 57.3304 66.4572C57.3304 66.5766 57.2022 66.7365 57.1007 66.8018C56.9162 66.8249 56.5762 66.2407 56.5029 66.0755C56.4146 65.8771 56.3242 65.3577 56.2828 65.2936C56.245 65.2356 56.059 65.2506 55.9955 65.0737C55.7701 64.4499 55.4262 62.5691 55.3918 61.8944C55.3718 61.5026 55.4634 61.139 55.439 60.7882C55.4094 60.3668 55.1474 59.9373 55.2268 59.4739C55.2776 59.2305 55.8182 59.4546 55.9154 59.5773L55.9151 59.5777Z" fill="black"/>
<path d="M52.7084 131.007C52.5899 131.765 51.401 131.733 51.4245 132.506C51.4496 133.347 52.4462 133.905 52.653 134.774C52.8865 135.756 52.6266 136.874 51.8878 137.558C51.5052 137.912 50.5959 138.167 50.6654 137.365L51.2408 137.491C51.8719 136.887 52.2785 136.295 52.1639 135.382C52.0394 134.393 50.4344 133.118 50.6691 132.171C50.7554 131.823 52.5098 130.845 52.7083 131.006L52.7084 131.007Z" fill="black"/>
<path d="M91.9686 103.984C93.2265 104.509 92.2922 106.108 91.7176 106.857C91.2973 107.404 90.9196 107.886 90.1637 107.721C89.9006 107.663 89.0651 107.05 88.867 106.836C88.7153 106.672 88.1786 105.815 88.1046 105.618C87.9468 105.198 88.5282 105.217 88.7682 105.395C88.9545 105.532 88.9078 105.704 89.0195 105.857C89.2001 106.106 89.7639 106.802 90.019 106.902C90.3008 107.012 90.8724 106.757 91.0774 106.563C91.1926 106.454 91.8706 105.445 91.9167 105.299C92.0842 104.768 91.7136 104.402 91.969 103.985L91.9686 103.984Z" fill="black"/>
<path d="M65.4441 53.6306C65.2991 53.1384 64.8729 52.7839 64.633 52.3442C63.9207 51.0389 63.7196 48.3097 63.7822 46.8162C63.7915 46.5946 63.8623 45.8832 64.1116 45.8298C64.189 45.8145 64.2625 45.8739 64.3068 45.9309C64.4802 46.1545 64.4363 48.2022 64.4759 48.6825C64.5484 49.5664 64.7784 51.2112 65.1086 51.9943C65.3006 52.4499 66.3209 53.5292 65.4445 53.6298L65.4441 53.6306Z" fill="black"/>
<path d="M91.7031 51.9029C91.6419 51.4214 92.393 51.5288 92.7103 51.4407C92.9575 51.3717 93.6655 51.1082 93.5474 50.7878C93.2599 50.7035 93.1113 50.4726 92.8921 50.3379C92.6068 50.1627 92.2483 50.0875 91.9793 49.8544C91.7702 49.6729 91.3425 49.1762 91.3607 48.8986C91.3718 48.7359 91.877 48.0749 92.0112 47.962C92.3646 47.664 93.9444 46.8119 94.3828 46.7773C94.568 46.7627 94.7337 46.7705 94.8927 46.878L94.9663 46.9622L94.9053 47.195C94.3113 47.2934 93.6841 47.5395 93.1508 47.8326C91.8132 48.5668 91.5268 48.9818 92.8908 49.9316C93.1279 50.0968 94.282 50.6549 94.3714 50.7865C94.4707 50.9334 94.1884 51.2658 94.0734 51.3477C93.7826 51.5554 93.576 51.4631 93.3158 51.5506C92.7753 51.7327 92.3031 52.1014 91.7031 51.9029Z" fill="black"/>
<path d="M118.134 91.8869C118.848 92.1002 119.398 91.6875 118.773 91.0749C118.46 90.7683 117.974 90.5641 117.722 90.3323C117.601 90.2204 117.298 89.7664 117.249 89.6149C117.126 89.2366 118.243 88.5324 118.58 88.3969C118.963 88.2428 119.925 87.9127 120.037 88.4958C120.12 88.9246 119.612 88.6906 119.408 88.7141C119.17 88.7415 118.01 89.2795 117.973 89.5044C118.178 90.0444 118.763 90.19 119.094 90.4842C119.145 90.5291 119.614 91.0883 119.632 91.1262C120.081 92.0782 118.29 93.2782 118.134 91.8861L118.134 91.8869Z" fill="black"/>
<path d="M92.0963 117.457C92.0352 117.153 91.6166 116.767 91.5337 116.434C91.4288 116.012 91.738 115.588 91.3455 115.331C90.8536 115.218 90.7306 115.601 90.6141 115.99C90.4535 116.525 90.3079 117.272 90.3966 117.821C90.4863 118.374 91.0811 119.54 91.7409 118.974C92.0656 118.695 92.1782 117.862 92.0963 117.457ZM91.416 118.066L91.1764 118.041L90.9871 116.982C91.5157 116.948 91.5437 117.682 91.416 118.066Z" fill="black"/>
<path d="M122.742 90.1766C122.544 89.8497 121.825 89.628 121.516 89.4611C121.468 89.4349 121.475 89.2779 121.29 89.2543C121.186 89.2407 120.723 89.3265 120.703 89.4062C120.901 90.1991 120.477 90.8565 120.555 91.6796C120.654 92.7248 121.961 92.3285 122.525 91.8497C122.984 91.4595 123.048 90.6792 122.742 90.1766ZM122.309 91.3466C122.023 91.4567 121.578 91.8385 121.289 91.623C121.043 91.4255 121.18 90.2885 121.417 90.205C121.879 90.0418 122.619 90.8478 122.309 91.3466Z" fill="black"/>
<path d="M96.1695 115.146C96.2513 115.534 95.853 115.715 95.6516 115.989C95.4174 116.308 94.8504 117.007 94.7153 117.314C94.5802 117.622 94.441 119.048 94.2348 119.056C93.2462 118.468 93.2039 117.083 92.6138 116.157L92.7858 115.818C93.1147 115.954 93.6072 117.206 93.853 117.197C94.1355 117.186 94.3168 116.506 94.4871 116.426C94.5703 116.387 94.7018 116.49 94.808 116.416C94.9055 116.348 94.8052 116.206 94.8654 116.094C94.9804 115.881 96.0006 114.983 96.1691 115.146L96.1695 115.146Z" fill="black"/>
<path d="M141.175 88.4109C141.41 88.6889 141.514 89.152 141.469 89.5116C141.396 90.095 140.39 90.726 139.836 90.7169C139.377 90.709 138.812 90.1678 138.695 89.739C138.535 89.1506 138.726 88.0922 139.465 88.1348C139.578 88.2341 138.863 89.1911 139.442 89.7499C139.786 90.0821 140.507 89.8833 140.768 89.5399C141.168 89.0119 140.222 88.4943 140.111 88.1312C140.032 87.8712 140.038 87.6336 140.348 87.6241C140.725 87.6125 140.687 87.9789 140.876 88.2047C140.965 88.3123 141.121 88.3468 141.175 88.4109Z" fill="black"/>
<path d="M123.068 24.3003C123.193 24.7685 122.891 25.1346 122.818 25.5459C122.506 27.312 121.884 29.692 122.073 31.4452C122.097 31.6652 122.192 31.872 122.237 32.085C122.261 32.1973 122.264 32.2125 122.137 32.1919C121.777 32.1341 121.644 31.597 121.607 31.2966C121.402 29.6473 121.89 27.8281 122.272 26.2496C122.356 25.9036 122.53 24.4965 122.757 24.3508C122.853 24.2888 122.962 24.3033 123.068 24.3007L123.068 24.3003Z" fill="black"/>
<path d="M93.8882 106.153C93.9318 106.459 94.1477 107.287 94.512 107.274C94.6674 107.269 95.1851 107.009 95.1848 107.286C95.1848 107.6 94.426 107.966 94.1637 107.898C94.1258 107.888 93.586 107.479 93.5398 107.425C93.0033 106.792 93.0186 105.038 93.1356 104.237C93.1661 104.028 93.3172 103.107 93.5733 103.146C93.6252 103.173 93.7859 103.306 93.7867 103.328C93.818 104.198 93.7702 105.323 93.8882 106.153Z" fill="black"/>
<path d="M129.599 91.0585C129.016 91.5907 127.712 90.8972 127.42 90.314C127.324 90.1198 127.065 89.0167 127.196 88.8917C127.529 88.5744 128.072 90.0253 128.398 90.2611C128.952 90.6613 129.469 90.2317 129.614 89.6697C129.659 89.4944 129.515 88.114 130.001 88.4302C130.262 88.6004 130.245 89.4721 130.196 89.758C130.153 90.0087 129.77 90.9022 129.599 91.0581L129.599 91.0585Z" fill="black"/>
<path d="M73.8509 106.026C73.3884 105.509 74.6741 105.076 75.0632 104.89C75.7285 104.572 77.5384 103.656 78.1696 103.687C78.8412 103.719 78.0638 104.221 77.8323 104.365C77.0726 104.836 76.1747 105.159 75.4004 105.584C75.0058 105.801 74.322 106.552 73.8509 106.026Z" fill="black"/>
<path d="M83.1463 130.552C83.4107 130.529 83.3849 130.966 83.1824 131.045C82.323 131.467 81.4077 131.808 80.5498 132.228C79.9649 132.515 79.3651 133.107 78.6844 133.051C78.225 133.013 78.057 132.777 78.4162 132.436C79.627 131.847 80.8616 131.33 82.1435 130.91C82.2786 130.865 82.4485 130.903 82.5766 130.859C82.7585 130.796 82.9638 130.568 83.1463 130.552Z" fill="black"/>
<path d="M92.5206 142.224C92.5456 142.547 92.1929 142.427 91.9858 142.52C91.8551 142.579 91.1762 143.129 91.07 143.258C90.4614 143.998 90.5265 145.157 90.1094 146.001L90.03 146.082C89.4455 146.031 89.532 145.439 89.3665 145.011C89.227 144.65 89.0439 144.168 88.8754 143.829C88.801 143.679 88.6373 143.636 88.6487 143.463C88.7456 143.369 89.1592 143.733 89.2103 143.794C89.3721 143.989 89.4407 144.491 89.8049 144.355C89.948 144.302 90.2867 143.347 90.4507 143.134C90.8487 142.618 91.8593 142.106 92.521 142.223L92.5206 142.224Z" fill="black"/>
<path d="M56.7101 108.6C56.3302 108.278 55.9916 107.155 55.9912 106.663C55.9907 106.399 56.2475 105.519 56.4023 105.315C56.5105 105.172 56.8905 105.105 57.0266 105.285C57.2583 105.591 56.9882 105.817 56.9412 106.102C56.8403 106.718 56.7551 107.52 57.2081 108.023C57.4677 108.311 57.877 108.088 57.8549 108.466C57.8302 108.891 56.9906 108.838 56.7097 108.6L56.7101 108.6Z" fill="black"/>
<path d="M72.3554 81.8513C71.9272 82.2773 71.5854 82.644 71.0138 82.9106C70.8146 83.0034 69.5861 83.4825 69.4425 83.4987C68.9094 83.5583 68.8908 82.8985 69.2758 82.6536C70.1295 82.3242 71.0203 82.0867 71.7997 81.5962C71.9154 81.5233 72.7437 80.6829 72.779 81.293C72.8029 81.7091 72.5155 81.6927 72.3558 81.8513L72.3554 81.8513Z" fill="black"/>
<path d="M75.1897 92.2753C75.4571 92.4763 75.3846 93.0966 75.4503 93.4212C75.588 94.1012 75.8806 94.4797 76.4039 94.9194C76.4749 95.1959 75.7124 95.1753 75.5242 95.0721C75.4918 95.0544 75.0626 94.5821 75.0262 94.5284C74.7704 94.1494 74.4798 92.7358 74.5986 92.3233C74.6602 92.1097 75.0403 92.1628 75.1897 92.2749L75.1897 92.2753Z" fill="black"/>
<path d="M113.072 106.308C113.256 106.468 112.903 107.277 112.855 107.549C112.701 108.434 112.828 109.293 112.902 110.176L112.795 110.301C112.582 110.375 112.329 110.177 112.282 109.968C112.201 109.608 112.162 108.015 112.202 107.622C112.222 107.432 112.601 106.298 112.706 106.233C112.78 106.187 113.005 106.249 113.071 106.308L113.072 106.308Z" fill="black"/>
<path d="M119.011 27.6014C119.101 27.5722 119.191 27.5639 119.276 27.6131C119.417 27.7078 119.316 28.915 119.323 29.1852C119.334 29.7089 119.355 30.2379 119.38 30.7612C119.391 30.9844 119.589 31.982 119.39 32.0532C119.012 32.1882 119.119 31.5042 119.082 31.3271C119.024 31.0467 118.865 30.7962 118.825 30.5446C118.691 29.69 118.915 28.7405 118.812 27.8738C118.823 27.7555 118.898 27.6389 119.011 27.6018L119.011 27.6014Z" fill="black"/>
<path d="M73.5379 146.537C73.8788 146.449 74.215 146.556 74.0638 146.951C73.8402 147.534 73.0701 147.073 73.2874 146.685C73.3529 146.612 73.4436 146.561 73.5379 146.537Z" fill="black"/>
<path d="M76.0598 62.1504C76.675 62.0626 76.6032 62.8877 76.0769 62.9089C75.5506 62.9302 75.6018 62.216 76.0598 62.1504Z" fill="black"/>
<path d="M74.5833 60.1548C75.0549 59.9956 75.107 60.4648 74.9486 60.8006C74.4415 61.0829 74.1478 60.302 74.5833 60.1548Z" fill="black"/>
</g>
<g filter="url(#filter1_d_767_102207)">
<path d="M17.657 31.9C17.657 36.622 14.272 41.1 9.55 41.1C4.82797 41.1 1 37.272 1 32.55C1 27.828 4.82797 24 9.55 24C14.272 24 17.657 27.178 17.657 31.9Z" fill="url(#paint2_linear_767_102207)"/>
</g>
<g filter="url(#filter2_d_767_102207)">
<circle cx="118.55" cy="14.55" r="8.55" fill="url(#paint3_linear_767_102207)"/>
<circle cx="118.55" cy="14.55" r="8.55" fill="url(#paint4_linear_767_102207)" fill-opacity="0.87"/>
<circle cx="118.55" cy="14.55" r="8.55" fill="url(#paint5_radial_767_102207)" fill-opacity="0.32"/>
</g>
<defs>
<filter id="filter0_f_767_102207" x="6.14227" y="3.69629" width="173.47" height="177.441" filterUnits="userSpaceOnUse" color-interpolation-filters="sRGB">
<feFlood flood-opacity="0" result="BackgroundImageFix"/>
<feBlend mode="normal" in="SourceGraphic" in2="BackgroundImageFix" result="shape"/>
<feGaussianBlur stdDeviation="3" result="effect1_foregroundBlur_767_102207"/>
</filter>
<filter id="filter1_d_767_102207" x="0.72" y="23.62" width="17.617" height="18.0596" filterUnits="userSpaceOnUse" color-interpolation-filters="sRGB">
<feFlood flood-opacity="0" result="BackgroundImageFix"/>
<feColorMatrix in="SourceAlpha" type="matrix" values="0 0 0 0 0 0 0 0 0 0 0 0 0 0 0 0 0 0 127 0" result="hardAlpha"/>
<feOffset dx="0.2" dy="0.1"/>
<feGaussianBlur stdDeviation="0.24"/>
<feComposite in2="hardAlpha" operator="out"/>
<feColorMatrix type="matrix" values="0 0 0 0 0.348633 0 0 0 0 0.132354 0 0 0 0 0.110134 0 0 0 0.66 0"/>
<feBlend mode="normal" in2="BackgroundImageFix" result="effect1_dropShadow_767_102207"/>
<feBlend mode="normal" in="SourceGraphic" in2="effect1_dropShadow_767_102207" result="shape"/>
</filter>
<filter id="filter2_d_767_102207" x="109.6" y="6" width="17.9" height="17.8996" filterUnits="userSpaceOnUse" color-interpolation-filters="sRGB">
<feFlood flood-opacity="0" result="BackgroundImageFix"/>
<feColorMatrix in="SourceAlpha" type="matrix" values="0 0 0 0 0 0 0 0 0 0 0 0 0 0 0 0 0 0 127 0" result="hardAlpha"/>
<feOffset dy="0.4"/>
<feGaussianBlur stdDeviation="0.2"/>
<feComposite in2="hardAlpha" operator="out"/>
<feColorMatrix type="matrix" values="0 0 0 0 0 0 0 0 0 0 0 0 0 0 0 0 0 0 0.25 0"/>
<feBlend mode="normal" in2="BackgroundImageFix" result="effect1_dropShadow_767_102207"/>
<feBlend mode="normal" in="SourceGraphic" in2="effect1_dropShadow_767_102207" result="shape"/>
</filter>
<linearGradient id="paint0_linear_767_102207" x1="99.8356" y1="85.2637" x2="120.336" y2="194.264" gradientUnits="userSpaceOnUse">
<stop offset="0.650819" stop-color="#717171" stop-opacity="0.2"/>
<stop offset="1" stop-color="#D7D7D7" stop-opacity="0"/>
</linearGradient>
<linearGradient id="paint1_linear_767_102207" x1="89.899" y1="-3.79855" x2="91.6865" y2="164.951" gradientUnits="userSpaceOnUse">
<stop stop-color="#878359"/>
<stop offset="0.0501" stop-color="#F6EEA8"/>
<stop offset="0.075" stop-color="#A9A870"/>
<stop offset="0.16" stop-color="#B3B276"/>
<stop offset="0.225" stop-color="#D2CD8A"/>
<stop offset="0.385" stop-color="#F5EDA7"/>
<stop offset="0.45" stop-color="#FDF6B1"/>
<stop offset="1" stop-color="#FCF7B1"/>
</linearGradient>
<linearGradient id="paint2_linear_767_102207" x1="7.25703" y1="23.9" x2="14.357" y2="50.55" gradientUnits="userSpaceOnUse">
<stop stop-color="#C62817"/>
<stop offset="0.38" stop-color="#B22415"/>
<stop offset="0.56" stop-color="#A51506"/>
<stop offset="0.765" stop-color="#C62817"/>
<stop offset="0.865" stop-color="#60130B"/>
<stop offset="0.975" stop-color="#60130B"/>
</linearGradient>
<linearGradient id="paint3_linear_767_102207" x1="125.55" y1="4.2" x2="108.9" y2="26" gradientUnits="userSpaceOnUse">
<stop stop-color="#C62817"/>
<stop offset="0.23" stop-color="#C62817"/>
<stop offset="0.38" stop-color="#B22415"/>
<stop offset="0.56" stop-color="#A51506"/>
<stop offset="0.765" stop-color="#C62817"/>
<stop offset="0.865" stop-color="#60130B"/>
<stop offset="0.975" stop-color="#60130B"/>
</linearGradient>
<linearGradient id="paint4_linear_767_102207" x1="112.55" y1="9.5" x2="120.95" y2="26.65" gradientUnits="userSpaceOnUse">
<stop stop-color="#C62817"/>
<stop offset="0.23" stop-color="#C62817"/>
<stop offset="0.38" stop-color="#B22415"/>
<stop offset="0.56" stop-color="#A51506"/>
<stop offset="0.765" stop-color="#C62817"/>
<stop offset="0.865" stop-color="#60130B"/>
<stop offset="0.975" stop-color="#60130B"/>
</linearGradient>
<radialGradient id="paint5_radial_767_102207" cx="0" cy="0" r="1" gradientUnits="userSpaceOnUse" gradientTransform="translate(117.225 15.1) rotate(127.371) scale(13.7155)">
<stop stop-color="#C62817"/>
<stop offset="0.23" stop-color="#C62817"/>
<stop offset="0.38" stop-color="#B22415"/>
<stop offset="0.56" stop-color="#A51506"/>
<stop offset="0.765" stop-color="#C62817"/>
<stop offset="0.865" stop-color="#60130B"/>
<stop offset="0.975" stop-color="#60130B"/>
</radialGradient>
<clipPath id="clip0_767_102207">
<rect width="123" height="127" fill="white" transform="translate(23 23.418) rotate(-2.05864)"/>
</clipPath>
</defs>
</svg>
