<svg width="176" height="179" viewBox="0 0 176 179" fill="none" xmlns="https://www.w3.org/2000/svg">
<g filter="url(#filter0_f_767_102206)">
<path d="M10.8787 15.7832L162.356 9.69586L167.236 158.5L17.2364 170.5L10.8787 15.7832Z" fill="url(#paint0_linear_767_102206)"/>
</g>
<path d="M8.92878 13.2813L162.862 8.75393L162.862 137C139.613 154.967 89.2364 161 89.2364 161L13.4562 167.215L8.92878 13.2813Z" fill="#FDF7B2"/>
<path opacity="0.4" d="M8.92878 13.2813L162.862 8.75393L162.862 137C139.613 154.967 89.2364 161 89.2364 161L13.4562 167.215L8.92878 13.2813Z" fill="url(#paint1_linear_767_102206)"/>
<path fill-rule="evenodd" clip-rule="evenodd" d="M89.2364 161C89.2364 161 139.613 154.967 162.862 137C158.987 136 150.336 133.7 146.736 132.5C142.236 138.833 124.436 153.4 89.2364 161Z" fill="url(#paint2_linear_767_102206)"/>
<g clip-path="url(#clip0_767_102206)">
<path d="M69.8639 85.6578C69.3489 85.5441 69.2434 86.1416 68.9246 86.4871C67.2012 88.354 65.7524 86.0283 66.082 84.2563L66.616 84.2409C66.6462 83.6716 66.3574 83.2705 65.9297 82.9321C65.1788 82.3379 64.8191 82.3574 64.0079 82.8587C63.5035 83.1708 62.2925 84.5386 62.1653 85.0734C62.0889 85.3949 62.2813 86.1654 62.0659 86.3364C61.2305 86.6336 60.3681 86.6055 59.5745 86.2044C59.2932 86.0627 58.5779 85.4561 58.3915 85.2223C57.9379 84.6503 57.6699 83.3479 56.8727 83.2254C55.9058 83.0765 55.5218 84.278 55.1226 84.9536C54.4169 85.0313 54.1567 82.7256 53.9089 82.4448C53.7785 82.2962 53.2244 82.3132 53.0179 82.3289C52.0208 82.4086 50.6341 83.4242 50.0788 84.2344C49.9697 84.3933 49.9805 84.6546 49.8232 84.8262C49.2424 85.4631 46.6696 86.6823 45.8024 87.0605C44.6616 87.5573 43.7438 88.231 42.5468 87.4075C42.0783 87.0858 41.8339 86.3493 41.9362 85.7908C42.0255 85.3065 42.5186 85.2605 42.8507 84.9864C43.6992 84.2848 45.154 83.0766 44.3169 81.9055C43.9333 81.9393 43.4952 81.8638 43.1304 82.0121C43.0729 82.0357 42.1959 82.74 42.157 82.7885C41.3781 83.7393 41.8607 85.3887 39.9838 84.9977C39.8284 84.9067 39.5295 81.855 39.6753 81.4368L39.5824 78.7271C39.307 78.6064 38.8973 78.4837 38.8525 78.8909L39.1845 84.5398L38.2599 85.1093C38.4337 85.5163 39.2653 85.618 39.4007 85.8836C39.4973 86.071 39.4919 86.4467 39.5637 86.7002C39.6262 86.9201 39.7895 87.0754 39.8208 87.314C39.8733 87.7262 39.5751 88.1334 39.9985 88.4267C40.6804 88.1586 40.1478 87.424 40.2367 86.8838L39.9081 86.8319L40.1265 86.6566L39.9896 85.8678L41.019 85.9392C41.4507 86.9031 41.503 87.6877 42.5922 88.1278C44.0228 88.7072 45.2926 88.0014 46.5857 87.3869C47.1775 87.1053 48.7 86.0747 49.1567 85.9663C49.8359 85.8038 49.6242 86.3776 50.1314 86.6825C50.6513 86.1885 50.4977 85.7039 50.5979 85.1455C50.7295 84.4112 52.2274 82.7325 52.92 82.5992C53.4056 82.5059 53.5614 83.5031 53.707 83.9182C53.9573 84.6388 54.1983 85.2013 54.5039 85.9342C54.6398 86.2621 54.5997 86.7262 54.9568 86.9883C55.8029 86.616 55.7259 85.5588 56.0549 84.904C56.1898 84.6369 56.4855 84.4682 56.6046 84.1646C56.9777 84.0899 57.3438 85.0913 57.6054 85.4191C58.4066 86.4224 59.5496 87.0289 60.8456 86.9512C61.2611 86.9272 61.9519 86.6768 62.3306 86.7022C62.6807 86.7261 62.8089 87.0373 63.0162 87.0933C63.5808 87.247 64.6067 86.0779 65.0056 85.684C65.086 85.605 65.0764 85.5166 65.2549 85.5596C65.4684 85.9056 65.5331 86.3428 65.7084 86.6813C65.9735 87.1884 67.2553 87.9402 67.8233 87.849C68.0189 87.8177 68.9855 87.2356 69.1735 87.0664C69.5206 86.755 70.0186 86.1434 69.8639 85.6578ZM43.9817 82.8231C43.7024 83.0569 43.5563 83.4667 43.326 83.715C43.075 83.985 42.6939 84.2867 42.3054 84.2057C42.1281 84.0445 43.5524 81.8275 43.9817 82.8231ZM65.8613 84.0456L65.2256 83.9612C65.1688 84.1841 65.0909 84.4066 64.9584 84.5966C64.7514 84.8918 63.4851 86.3717 63.1273 86.041C63.0528 85.4247 63.1736 84.8088 63.5605 84.3129C63.8511 83.9385 65.0106 82.9624 65.4909 83.3354C65.5878 83.41 65.957 83.9419 65.8613 84.0456Z" fill="black"/>
<path d="M43.131 100.124C43.1892 99.5361 42.907 99.5684 42.4189 99.6017C41.1042 99.6925 40.1846 100.675 40.4366 102.014C40.5644 102.694 41.6901 104.003 41.6991 104.278C41.7172 104.877 39.8758 105.616 39.5126 105.404C39.1353 105.184 39.9372 104.898 39.9202 104.643L39.4518 104.49C39.3153 104.525 38.8598 105.485 38.72 105.596C38.5543 105.727 38.3998 105.588 38.2441 105.653C37.5051 105.961 36.9114 106.505 35.9593 106.397C35.1163 106.301 34.5988 104.901 34.979 104.224C35.1428 103.933 36.3572 103.422 36.7118 103.157C36.9129 103.007 37.7991 102.124 37.8883 101.93C38.0796 101.513 38.1025 100.908 38.4067 100.483C38.5369 99.9443 38.08 99.7088 37.6061 99.7185C35.629 99.7573 34.422 102.726 33.9867 104.325C33.8357 104.876 33.9875 105.332 33.4685 105.823L33.288 105.91C32.7872 105.943 31.7579 105.493 31.4696 105.071C30.5149 103.67 30.4553 102.595 30.5085 100.916C30.5373 99.9939 31.2123 98.1385 30.1144 97.7745C29.7951 98.6475 29.912 99.5232 29.8557 100.4C29.7507 102.034 29.454 101.192 28.3637 101.3C27.2397 101.413 25.9926 102.647 25.5997 103.662C25.5105 103.895 25.5629 104.22 25.4399 104.453C25.3673 104.593 25.1672 104.615 25.1443 104.713C25.0957 104.921 25.1569 106.024 25.2311 106.245C25.2835 106.399 26.0465 107.18 26.1734 107.23C26.6886 107.434 27.2353 107.167 27.5603 106.777C27.7305 106.571 28.1352 106.072 28.2657 105.882C28.6377 105.342 29.2635 103.588 29.8834 103.546C30.0536 103.511 30.0243 103.604 30.077 103.686C30.7047 104.674 31.5819 106.186 32.8701 106.347C33.546 106.431 33.7337 105.955 34.3123 106.034C34.6578 106.081 34.6166 106.336 34.8303 106.478C35.7236 107.066 36.3904 106.953 37.3798 106.609C37.8028 106.463 38.5832 105.868 38.9331 105.841C39.2377 105.816 39.459 106.05 39.6975 106.086C40.6007 106.223 41.9604 105.482 42.3322 104.638C42.655 103.904 42.3358 104.062 42.0563 103.611C41.0253 101.948 40.6226 100.369 43.131 100.124ZM37.243 100.529C38.2063 100.282 37.5143 101.163 37.2134 101.546C36.7333 102.156 36.0855 102.562 35.3817 102.884C35.0161 102.495 36.7151 100.665 37.243 100.529ZM28.3397 104.7C28.1282 105.029 27.2304 106.249 26.961 106.416C26.1176 106.94 25.6105 105.918 25.7003 105.113C25.79 104.307 26.4786 103.501 26.9918 102.949C27.179 102.747 27.2267 102.543 27.5144 102.35C27.9185 102.079 28.8095 101.773 29.1653 102.234L29.2387 102.424C29.2022 103.292 28.7982 103.986 28.3397 104.7Z" fill="black"/>
<path d="M80.053 138.478C80.0266 138.438 79.7563 138.398 79.6432 138.308C79.1165 137.896 79.1637 137.799 78.3748 137.796C76.8401 137.789 75.1851 138.59 74.0015 139.531C73.7643 139.718 72.9945 140.738 72.7262 140.524C72.5714 140.157 72.519 139.921 72.0475 140.072C71.7301 140.175 71.752 140.501 71.6219 140.663C70.9048 141.553 69.0627 143.444 68.1593 144.104C67.7879 144.375 67.5716 144.549 67.0588 144.441C67.0145 144.021 66.6687 143.62 66.5935 143.23C66.5206 142.849 66.6137 142.217 66.5259 141.876C66.4662 141.642 66.2286 141.428 66.2232 141.213C66.2151 140.846 66.8439 140.439 66.6791 139.97C66.6245 139.816 65.9758 139.082 65.8308 138.985C65.124 138.508 64.4634 139.12 64.0376 139.666C63.6805 140.125 62.993 141.312 62.7151 141.854C62.5157 142.245 62.4756 142.924 62.081 143.234C61.1779 143.947 59.4045 144.404 58.4106 145.077C57.2304 145.054 56.1362 145.091 55.5303 143.877C55.348 143.51 55.2013 142.369 55.4105 142.035C55.4917 141.904 55.6823 141.924 55.7639 141.849C56.1787 141.462 57.3737 140.383 57.4833 139.908C57.6692 139.104 57.5615 138.088 56.5019 138.455C55.5627 138.78 54.9282 140.861 54.5589 141.721C54.2548 142.147 53.7228 141.988 53.5207 142.142C53.273 142.332 53.3826 142.619 53.77 142.653C53.9996 142.672 54.2507 142.576 54.4792 142.676C54.8584 144.415 55.8887 145.67 57.8086 145.54C58.7943 145.473 60.6835 144.536 61.5364 143.968C61.7598 143.82 62.0789 143.7 62.0968 143.403C62.5353 143.58 62.5339 144.329 62.9807 144.501C64.1782 144.964 65.0813 143.615 65.7759 142.885C66.2574 143.983 66.7287 145.899 68.3124 144.783C69.0223 144.282 69.4095 143.634 69.9526 143.094C70.5576 142.492 71.2064 141.915 71.8416 141.343C72.1845 141.332 71.7902 143.051 72.4453 143.233C73.1822 143.438 72.9762 142.585 73.1479 142.06C73.6334 140.567 76.0532 138.675 77.5577 138.318C78.3367 138.133 79.5844 138.193 79.9772 138.998C80.1711 139.023 80.0826 138.522 80.053 138.478ZM56.5 139.396C56.6155 139.284 56.5638 139.202 56.8493 139.255C57.0777 139.479 56.322 140.641 55.9736 140.56C55.4668 140.44 56.367 139.524 56.5 139.396ZM65.0484 141.617C65.2466 141.604 65.4748 141.61 65.4834 141.869C65.5028 142.394 64.2556 143.704 63.7355 143.772C63.1955 143.843 63.1395 143.079 63.4192 142.732C63.6917 142.394 64.8086 142.165 65.0484 141.617C64.615 141.646 63.9408 142.008 63.7162 142.403L63.3514 142.3C63.2621 142.193 64.5364 140.102 64.7366 139.912C65.1523 139.516 65.9936 139.373 66.163 140.067C66.3629 140.885 65.3711 141.008 65.0484 141.617Z" fill="black"/>
<path d="M131.535 63.5838C132.443 63.6687 132.938 62.6996 133.752 62.5053C135.255 62.1461 136.936 62.7877 137.443 64.2909C136.839 64.3872 136.795 63.9568 136.262 63.7697L136.35 63.3561C135.955 63.4947 135.622 63.2002 135.318 63.1677C135.209 63.1557 134.003 63.2111 133.858 63.2315C132.788 63.3848 132.804 64.4319 132.393 64.709C132.255 64.8021 131.583 64.9423 131.36 65.0839L131.3 64.6466L131.029 64.6639C131.221 64.1243 130.877 63.5496 130.355 63.397C130.157 64.481 129.119 65.2062 128.2 65.6807C127.217 66.1883 126.271 66.5589 125.281 65.8157C124.887 65.5196 125.052 65.3973 124.904 65.1679C124.867 65.1118 124.72 65.1007 124.675 65.0301C124.505 64.7591 124.647 64.4422 124.103 64.4094C123.608 64.3795 123.742 64.6125 123.524 64.7867C123.011 65.1982 122.446 65.688 121.735 65.6425L121.838 65.4289C121.391 65.4454 121.347 65.0783 121.174 64.7482L121.393 64.6352C120.89 64.0137 121.362 63.4946 121.559 62.8673C121.044 62.7588 120.631 63.0044 120.197 63.0859C119.792 63.1614 117.897 63.3732 117.768 63.6032C117.773 63.9417 117.874 64.3632 118.014 64.6688C118.231 65.1433 119.211 65.8731 118.374 66.1587C117.777 65.9901 117.768 65.3469 117.572 64.9161C117.51 64.7795 117.323 64.801 117.314 64.7242C117.298 64.5812 117.48 64.2243 117.413 64.1479C117.207 63.9136 117.235 64.4266 117.099 64.3677C117.025 64.2008 117.018 63.8434 116.922 63.7277C116.799 63.5788 116.443 63.7058 116.424 63.1019L116.735 63.0878L116.729 62.4519C116.575 62.4452 116.426 62.4541 116.274 62.4896C115.784 62.6052 114.104 63.1924 113.681 63.4203C113.603 63.4623 112.817 64.1749 112.763 64.267C112.391 64.8955 112.537 66.4214 111.517 66.0048C111.498 65.5169 110.705 64.8046 110.78 64.3671C110.865 63.8745 111.191 64.6142 111.216 64.6526C111.494 65.0919 111.923 64.0453 111.98 63.9912C112.082 63.8926 112.665 63.6872 112.764 63.5908C112.857 63.4999 112.846 63.3018 112.95 63.1948C113.82 62.2902 115.633 62.5098 116.72 61.9732C116.828 61.8787 116.898 60.2092 116.99 59.8304C117.078 59.4738 117.231 59.568 117.525 59.7179L117.499 62.6331L121.704 62.4301C122.425 62.1527 122.782 61.4223 123.623 61.3232C124.21 61.2537 124.834 61.5346 124.444 62.1899C124.243 62.5272 122.999 62.6605 122.584 63.057C122.11 63.5086 121.851 64.128 121.874 64.7856C122 64.946 122.09 64.8952 122.25 64.8269C122.547 64.6992 123.431 63.904 123.692 63.639C123.85 63.479 123.87 62.9806 124.398 63.0054C124.81 63.0247 124.895 63.9255 125.05 64.3056C125.134 64.5134 125.392 65.1114 125.524 65.2336C125.764 65.4576 126.765 65.688 127.067 65.5813C127.085 65.5745 127.098 65.436 127.169 65.4099C127.781 65.1858 128.279 64.8485 128.779 64.6599C128.913 64.6091 129.094 64.7227 129.209 64.6597C129.399 64.5579 129.363 64.2962 129.448 64.2023C130.055 63.53 130.613 63.3874 130.548 62.2635C130.496 61.3892 130.266 60.3612 130.254 59.4902C130.248 59.0357 130.361 58.4517 130.442 57.9981L130.219 57.8908L130.506 57.7444C131.203 57.9243 130.953 58.785 131.013 59.3626C131.059 59.8098 131.094 60.2857 131.15 60.7548C131.262 61.694 131.496 62.6312 131.541 63.5805L131.535 63.5838Z" fill="black"/>
<path d="M76.9339 60.9014C77.0297 61.0593 76.9414 61.5404 76.9813 61.7852C77.3555 64.047 77.2893 66.7269 77.8477 68.8776C77.954 69.2863 78.3013 69.6173 78.4874 69.9661C78.5948 70.167 78.906 71.0432 78.9931 71.1043C79.8111 71.6778 80.122 69.7882 80.3979 70.0977C80.5398 70.8326 79.8841 72.1907 79.0269 72.038C78.4509 71.9353 77.643 70.4101 77.4299 69.869C77.0985 69.0281 77.0418 68.0696 76.631 67.3056C76.2704 67.2006 75.8178 68.2372 75.6392 68.4442C74.3234 69.9728 73.0461 70.7979 71.0374 69.7794C70.5197 69.517 68.949 67.8104 68.721 67.815C68.3006 68.1515 68.096 68.7547 67.6245 69.0734C66.7241 69.6834 66.7242 69.2625 66.1983 68.8853C66.0908 68.8078 65.8961 68.876 65.688 68.7039C65.0841 68.2032 65.2087 67.1853 64.4179 66.8981C63.3594 67.3949 62.2521 68.1345 61.0747 68.2251C60.9266 68.8068 61.5415 70.2156 61.25 70.6374C61.0808 70.8821 60.7323 70.7589 60.6206 70.5138C60.3782 69.9808 60.3933 68.8507 60.166 68.2488C59.8441 67.9583 59.4548 68.0608 59.0372 67.7885C58.6196 67.5162 58.1324 66.6982 58.829 66.8064C59.0145 66.8355 59.6253 67.6114 60.0909 67.3952L60.1012 63.6998C60.1113 63.5139 60.2343 63.2355 60.3654 63.1151C60.4305 63.0555 61.6358 62.518 61.7805 62.4775C62.2262 62.3525 63.5093 62.138 63.7794 62.5964L63.7283 62.9184C63.0976 62.6124 61.0467 63.4177 60.8866 64.0272C60.8412 64.1971 60.7962 64.8502 60.785 65.0783C60.7661 65.4627 60.7978 67.2404 61.0539 67.4313C61.7918 67.2504 62.5512 67.0026 63.2381 66.6785C64.119 66.262 64.6567 65.3351 65.3809 66.7243C65.6083 67.1616 65.6257 67.7308 65.8893 68.0555C66.0604 68.2653 66.6474 68.6389 66.915 68.6153C67.1005 68.5991 67.7705 68.0666 67.8893 67.917C68.1923 67.5329 68.0614 66.5192 68.6965 66.5772C68.8764 66.5939 70.3922 68.3831 70.7715 68.6869C71.5506 69.312 72.4936 69.8581 73.512 69.4487C74.1498 69.1923 74.5883 68.482 75.1736 68.1531C75.8056 67.3673 76.5076 67.0165 76.5057 65.8804C76.5047 65.4184 76.3125 64.8251 76.2907 64.3752C76.267 63.8906 76.1557 60.8227 76.3116 60.6796C76.4479 60.6382 76.8887 60.8255 76.9349 60.9014L76.9339 60.9014Z" fill="black"/>
<path d="M116.147 103.546C116.117 103.51 115.798 103.727 115.603 103.484C115.248 103.042 114.856 101.553 114.794 100.962C114.653 99.6294 114.491 97.2347 114.699 95.9594C114.761 95.5771 115.289 94.2053 115.136 93.9654C115.117 93.9342 114.671 93.6901 114.618 93.7431C114.806 94.0939 114.504 94.1499 114.422 94.4452C114.211 95.2089 113.938 96.7769 113.864 97.5667C113.713 99.2108 114.258 98.9483 112.961 100.256C112.785 100.434 112.473 100.546 112.359 100.676C112.258 100.791 112.25 101.062 112.13 101.133C112.057 101.178 111.878 101.073 111.777 101.113C111.38 101.273 110.612 101.915 110.107 101.721C110.018 101.686 108.872 100.472 108.799 100.345C108.678 100.136 108.682 99.8879 108.576 99.7018C108.121 98.904 107.262 97.2398 106.192 97.3667C105.771 97.4162 105.65 97.8021 105.354 98.0384C105.24 98.1299 104.607 98.6288 104.562 98.651C104.3 98.7757 103.957 98.4783 103.705 98.6618C103.233 99.5554 103.165 101.193 102.357 101.818C102.171 101.961 101.788 102.098 101.551 102.255C101.41 102.349 101.392 102.548 101.314 102.601C101.217 102.669 99.4832 103.472 99.3676 103.496C99.0661 103.559 98.105 103.431 97.8356 103.299C97.641 103.204 96.8275 102.302 96.7828 102.117C96.4152 100.629 98.6115 100.744 99.283 99.6803C99.6182 99.1477 99.7168 98.5671 99.0541 98.2915C96.8612 97.382 95.6553 100.65 96.1409 102.336C96.3467 103.051 97.5278 103.703 98.1103 104.109C99.4863 104.191 100.71 103.536 101.858 102.862C102.047 102.751 102.298 102.385 102.597 102.301C103.159 102.144 103.34 102.816 103.769 102.067C104.371 101.019 104.72 100.033 105.494 99.0075C105.735 98.6871 106.157 98.0353 106.62 98.1313C106.88 98.2577 107.025 98.5242 107.184 98.7502C107.792 99.6105 108.228 100.621 108.885 101.455L110.306 102.497C110.73 102.471 111.111 102.279 111.476 102.086C111.545 102.051 112.068 101.714 112.134 101.664C112.57 101.338 113.054 100.678 113.442 100.398C113.532 100.332 113.588 100.238 113.713 100.337C113.985 100.469 114.022 101.511 114.126 101.883C114.249 102.32 115.03 103.99 115.351 104.215C115.847 104.562 116.299 104.07 116.147 103.546ZM98.0695 98.7886C98.1794 98.7057 98.5227 98.5821 98.628 98.7367C99.0466 99.3465 97.6014 100.13 97.1656 100.275L97.0457 99.9555L98.0695 98.7886Z" fill="black"/>
<path d="M41.6006 39.5436C41.1427 39.7302 40.0278 40.0428 39.5433 40.0939C37.007 40.3628 36.2795 38.631 38.634 37.5522C38.5262 36.8713 38.664 37.2719 38.9321 37.01C39.2506 36.6982 39.7629 34.7952 39.6365 34.3869C39.6044 34.2822 39.5414 34.2131 39.4502 34.1563C38.5929 34.1239 38.5647 34.2216 38.0785 34.8403C37.2954 35.8356 36.7844 37.0266 36.5055 38.2508C36.2982 38.5767 35.0856 38.2293 34.7613 38.0981C33.7094 37.6739 33.1145 36.5147 32.4633 35.6828C32.3323 35.5152 32.1007 35.2035 31.9332 35.0916C30.2437 33.9586 30.3694 36.5009 29.7856 37.3994L29.5635 37.3016C29.4038 36.1051 28.8968 35.0017 28.5445 33.8734C28.4825 33.6745 28.5493 33.4323 28.4976 33.2638C28.0999 31.9678 27.4851 30.5633 26.6279 29.5182C26.3753 29.5519 26.0903 29.6012 25.8551 29.6967C25.4201 29.8711 24.7143 30.4921 24.2905 30.6092C24.0546 30.6752 23.6522 30.5913 23.5071 30.7004C23.3931 30.7866 23.4454 31.107 23.2688 31.3087C23.0757 31.5287 22.4832 31.6521 22.2531 31.91L20.1328 32.5578C19.9706 32.9152 20.6309 33.0527 20.8383 33.0275C20.912 33.0183 21.924 32.4361 22.1367 32.3253C22.4484 32.1635 22.754 31.9682 23.1912 31.8834C24.2496 31.6766 24.0622 32.5505 24.2656 33.21C24.694 34.5938 25.1812 36.3032 25.3901 37.7337C25.5086 38.5472 25.093 39.5829 26.2001 39.6797C26.1752 39.2774 26.2146 38.865 26.1571 38.4645C25.9557 37.0381 25.4839 35.5636 25.125 34.1728C25.0501 33.8824 25.1194 33.5664 25.0526 33.2621C24.881 32.4774 23.9467 31.7285 25.0257 30.9959C25.2479 30.8448 25.5019 30.8216 25.7015 30.6942C25.821 30.6174 25.8416 30.4291 25.8843 30.4017C26.0153 30.3204 26.4921 30.4266 26.6218 30.5458C26.7482 30.6608 27.4729 32.0256 27.5697 32.2637C28.2199 33.8593 28.8158 36.4552 29.2444 38.185C29.3078 38.4398 29.2763 38.7032 29.2901 38.9603C29.9537 38.9332 30.3315 38.0292 30.2164 37.4393L30.4313 37.5426C30.5131 37.0543 30.8031 36.3181 31.0543 35.8889C31.1181 35.7797 31.1382 35.6937 31.2976 35.6929C31.7589 35.6424 32.5446 37.0374 32.8953 37.4231C33.7683 38.3824 34.8135 39.0051 36.1469 38.9465C36.4845 39.9497 36.9262 40.5948 38.1086 40.4535L38.0063 40.6681C38.572 40.6993 38.9156 40.6686 39.4107 40.4073C39.8996 40.1504 39.5841 40.3313 40.0859 40.2977C40.8398 40.2462 40.8604 39.8891 41.1735 39.7378C41.6994 39.4853 42.0838 39.4852 42.6556 39.1629C42.8608 39.047 43.249 39.1175 43.4236 38.8758C42.6892 38.7306 42.1839 39.3065 41.6006 39.5436ZM38.7343 35.517C38.9787 36.2556 38.4039 37.1761 37.7131 37.4665C37.7727 36.7625 38.0089 35.8178 38.7343 35.517Z" fill="black"/>
<path d="M128.179 76.3237C128.797 76.822 128.101 78.2971 128.651 78.3921C128.913 78.4373 130.223 77.7179 130.601 77.5682C130.921 77.441 131.36 77.3646 131.686 77.2426C132.044 77.1081 131.982 76.8175 132.648 76.9496C133.208 77.0612 133.408 78.2471 133.509 78.7878C133.766 80.1633 133.672 81.6709 134.32 82.9818C134.447 83.2381 134.65 83.4693 134.779 83.7267C135.306 83.7937 135.375 83.2508 135.651 82.9918C135.785 82.8661 136.025 82.8538 136.061 82.8086C136.117 82.7387 136.08 82.4432 136.189 82.2474C136.253 82.133 136.582 81.9423 136.661 81.7546C136.791 81.7134 137.387 81.9528 137.514 82.0435C137.99 82.3818 138.336 83.2466 138.822 83.5763C140.004 84.3759 141.109 84.2091 142.355 83.6232C142.63 83.494 143.497 82.8321 143.65 82.6099C143.911 82.2289 143.647 81.8178 144.516 82.0947C144.805 82.8564 143.572 83.729 143.745 84.3839C143.776 84.5034 144.383 85.0526 144.522 85.1072C145.246 85.3908 147.049 85.2224 147.855 85.0905C148.798 84.9373 149.668 84.5474 150.636 84.498C150.822 84.7592 150.651 84.8352 150.434 84.9323C149.421 85.3859 148.018 85.5137 146.927 85.6706C146.33 85.7562 145.416 85.992 144.791 85.9233C144.566 85.8983 143.482 85.4147 143.443 85.2575L143.527 84.8925C143.034 85.0303 142.858 84.3786 142.811 84.3671C142.303 84.2384 140.928 85.0438 139.966 84.8442C139.844 84.8187 139.091 84.4525 138.96 84.3661C138.837 84.2858 138.796 84.0664 138.689 84.0026C138.61 83.955 138.393 84.0585 138.227 83.9635C138.123 83.9038 137.96 83.583 137.759 83.4329C137.559 83.2829 137.005 82.8916 136.791 82.9149C136.44 82.9648 136.428 83.3575 136.26 83.5684C136.109 83.7589 135.318 84.8071 135.246 84.8448C135.15 84.8946 134.815 84.9916 134.742 84.9533L134.28 83.7433C134.066 83.8478 133.979 83.7477 133.905 83.5312C133.578 82.5752 133.12 81.1246 132.941 80.1554C132.85 79.6619 132.813 78.0731 132.38 77.778C132.299 77.722 131.625 77.7082 131.587 77.725C131.574 77.7306 131.571 77.8868 131.442 77.9502C130.721 78.3004 130.014 78.6218 129.343 78.9782C129.047 79.1364 128.714 79.246 128.416 79.4011L128.707 82.1861L129.809 84.4402C129.744 85.3902 129.132 84.9255 128.892 84.2964C128.823 84.1157 128.857 83.9081 128.799 83.7355C128.671 83.3547 128.313 83.0672 128.474 82.4851L128.265 82.599C128.138 82.1169 128.026 81.6313 127.916 81.1435C127.88 80.9873 127.974 80.814 127.943 80.6682C127.88 80.3681 127.466 80.121 127.657 79.726L127.335 79.734C127.198 79.614 127.804 79.0356 127.832 78.8967C127.865 78.7334 127.727 78.4921 127.722 78.2834C127.706 77.6435 127.732 77.0004 127.699 76.3662L127.839 76.1908C127.964 76.2056 128.083 76.2449 128.181 76.3247L128.179 76.3237Z" fill="black"/>
<path d="M54.2944 68.9323C52.5926 69.595 50.8908 70.9307 49.0066 70.753C48.1222 70.2255 47.9283 69.3959 48.1705 68.4363C48.2864 68.2562 48.7725 68.3548 49.0054 68.2899C50.4495 67.8847 51.465 66.4691 51.1326 64.9553C51.0787 64.868 50.0819 64.9582 49.9329 64.9968C49.6118 65.0797 48.6759 65.7929 48.4488 66.0865C48.2207 66.3823 47.8982 67.2986 47.6019 67.3608C47.5357 67.3751 46.7868 67.282 46.7025 67.2482C46.3322 67.096 46.4371 66.4721 45.6236 66.7983C45.8252 67.5137 44.8591 69.2615 44.2341 69.3952C43.2467 69.6076 41.401 68.0945 40.9569 67.2269L40.5961 67.2412L40.5487 67.4575L40.4813 67.2556L40.2774 67.2491C39.7844 67.8933 39.2851 70.1462 38.383 68.7425C38.0281 68.1902 37.9908 67.4981 37.3263 67.1085C37.2164 67.1482 37.2821 67.3691 37.2952 67.4701C37.3895 68.2009 38.2231 70.3742 39.1254 70.3907C39.5839 70.3993 40.2676 68.5521 40.3778 68.523C41.0083 68.3554 41.4072 69.107 41.8358 69.3959C42.2805 69.695 43.6373 70.3225 44.1533 70.2632C44.5956 70.2121 44.4785 70.0072 44.6615 69.8497C44.8869 69.6553 45.2885 69.4111 45.4639 69.2042C45.9831 68.5963 45.8056 67.7442 46.8263 68.1059C47.7682 68.4389 47.2497 69.0763 47.4334 69.8808C47.6799 70.9538 48.8737 71.6909 49.9607 71.4929C50.4033 71.4123 52.2226 70.4682 52.615 70.1546C52.7258 70.0664 52.7338 69.8784 52.7857 69.8402C52.8219 69.8119 53.0585 69.8956 53.2425 69.8225C53.5531 69.6987 54.4034 69.2397 54.2944 68.9323ZM48.8725 66.6477C49.1623 66.2818 49.6562 66.0153 49.9779 65.6602L50.3318 65.6229L50.6194 65.8889C50.6706 66.0796 50.2632 66.6826 50.1215 66.8454C49.4491 67.6185 47.8068 67.997 48.8725 66.6477Z" fill="black"/>
<path d="M95.7506 84.4792L95.0564 85.2275C93.8401 85.4508 92.7265 85.7687 91.4412 85.7659C90.1559 85.7632 88.9858 85.3008 88.6061 84.0064C87.753 84.2281 87.055 84.1854 86.2218 84.1904C86.4048 85.3018 84.9663 86.5666 83.9569 86.6624C82.0921 86.8387 79.8558 85.1624 79.2846 83.3897C79.0317 82.6059 78.9015 81.9604 79.9498 82.198C79.8851 83.1194 80.5305 84.3966 81.1993 84.9991C81.4618 85.2352 82.6059 85.8459 82.931 85.9222C83.9869 86.1691 85.5302 85.2962 85.5753 84.14C85.5912 83.7156 85.3668 83.6104 85.324 83.295C85.1531 82.0282 86.5916 83.179 87.2077 83.1964C87.4836 83.2043 88.378 82.99 88.6134 82.8607C88.9375 82.6828 89.0387 82.041 89.2561 81.697C89.4146 81.4473 90.3881 80.3776 90.6136 80.2739C90.9696 80.111 91.3872 80.127 91.5352 80.5167C91.7467 81.0758 91.383 81.1893 91.2386 81.4936C91.1292 81.7241 91.1234 81.9595 90.9824 82.1888C90.7652 82.5423 89.595 83.3035 89.5398 83.6287C90.2511 86.1089 93.9118 84.5567 95.7506 84.4771L95.7506 84.4792Z" fill="black"/>
<path d="M52.4726 122.513C52.395 121.984 52.2283 121.99 51.9514 121.688C51.87 121.598 51.9228 121.429 51.73 121.32C51.6893 121.297 50.9155 121.012 50.871 121.006C50.2553 120.923 48.9945 121.82 48.6124 122.294C48.341 122.632 47.7334 124.058 47.2445 123.723C46.6591 122.014 46.5942 120.385 46.6974 118.595C46.7145 118.304 47.0521 117.021 46.7005 116.94C46.2257 116.831 46.091 118.372 46.0714 118.731C46.0201 119.639 46.2178 120.62 46.2154 121.498C46.2146 122.23 45.127 123.633 44.467 123.888C43.0925 124.418 42.5103 121.95 42.4616 121.012L41.8356 121.021C41.8481 122.202 40.0584 124.756 38.9618 123.09C38.4481 122.309 38.4075 121.274 38.3867 120.353C37.7286 120.432 37.9052 122.181 38.0412 122.636C38.1887 123.129 38.9341 124.18 39.4275 124.361C40.8867 124.896 41.3553 122.938 42.0418 122.938C42.2889 122.938 42.8186 123.895 43.2199 124.107C43.7069 124.365 44.6932 124.322 45.1199 123.984C45.5641 123.631 45.8141 123.068 46.2628 122.723L46.982 124.713C48.4402 125.299 49.8008 125.314 51.2226 124.565C52.1577 124.072 52.6395 123.661 52.4726 122.513ZM51.3487 123.776C50.9166 124.148 48.291 125.497 48.3371 124.338C48.3468 124.091 49.5875 122.308 49.8358 122.099C50.2744 121.732 51.0998 121.415 51.5684 121.872C52.1616 122.451 51.9132 123.289 51.3487 123.776Z" fill="black"/>
<path d="M62.6909 104.414C63.0373 103.989 63.1158 103.198 63.0036 102.68C62.8628 102.031 61.6169 102.128 61.8978 101.155C62.7825 101.438 63.6375 102.099 63.7656 103.086C63.9041 104.151 63.0559 105.882 61.8528 105.871C59.812 105.854 61.1793 102.706 60.5677 101.727C60.2829 101.273 59.5301 101.365 59.0781 101.451C58.5547 101.55 56.5186 102.231 56.3124 102.683C56.1361 103.071 56.4623 104.588 56.8487 104.754C57.1925 104.903 57.6197 104.585 57.3145 105.305C57.2058 105.562 56.8953 105.732 56.6281 105.647C56.1267 105.487 55.3372 103.599 55.4643 103.02C55.2495 102.666 54.5201 103.189 54.2807 102.734C53.8999 101.905 54.8813 102.173 55.2727 101.902C55.6091 101.669 55.5017 100.202 55.5456 99.7605C55.6148 99.0605 55.6796 98.3142 55.8262 97.627C55.9038 97.2664 56.0604 96.2646 56.5638 96.3754C57.3252 96.5432 56.5836 98.5247 56.5003 98.9983C56.3626 99.7845 56.3488 100.587 56.1226 101.343C56.2261 101.765 57.4227 101.048 57.6942 100.968C58.6639 100.679 61.0107 100.22 61.3494 101.563C61.5158 102.224 61.1414 104.7 61.6707 104.962C61.9348 105.093 62.5249 104.616 62.6909 104.413L62.6909 104.414Z" fill="black"/>
<path d="M31.7902 124.156C31.467 124.238 30.9343 125.155 30.58 125.302C29.3612 125.806 29.2994 123.879 29.3635 123.103C29.4624 121.903 30.0988 120.742 30.4128 119.611C30.7044 118.56 31.0665 116.942 31.2003 115.873C31.2365 115.589 31.1796 114.83 30.9598 114.656C30.8413 114.562 30.55 114.951 30.5137 115.017C29.8664 116.209 29.9696 117.256 29.7483 118.459C29.7149 118.645 29.5509 118.803 29.5138 118.967C29.4273 119.351 29.4503 119.764 29.2653 120.139C29.0047 120.317 28.1361 119.874 27.8268 119.882C27.2041 119.895 26.3777 120.466 25.9774 120.93C25.1757 121.858 24.1177 124.278 23.963 125.486C23.8906 126.057 23.8003 126.628 24.2021 127.072C25.2903 128.274 26.761 126.226 27.3748 125.388C27.5913 125.092 28.1291 123.913 28.4 123.852C28.9198 123.733 28.7988 124.514 28.8849 124.789C28.9962 125.145 29.7321 125.901 30.1283 125.91C30.494 125.92 31.7991 124.767 31.9367 124.399C31.9862 124.266 32.0064 124.102 31.7902 124.156ZM28.7764 121.919C28.3351 123.114 26.5922 125.554 25.618 126.381C25.5291 126.457 25.5067 126.618 25.3492 126.697C24.7526 126.998 24.4945 126.388 24.3818 125.891C24.8082 124.952 24.9445 123.894 25.3669 122.959C25.6961 122.23 26.813 120.772 27.6374 120.627C28.5574 120.466 29.0988 121.045 28.7764 121.919Z" fill="black"/>
<path d="M74.0773 48.7063C73.4015 48.4162 71.5778 49.7348 71.0469 50.2101C70.7459 50.2967 70.148 49.4002 70.0479 50.0863C70.0145 50.316 70.0973 50.585 70.059 50.8265C69.7892 52.5432 68.995 52.7127 67.6795 53.5757C67.4634 53.7172 67.332 53.9536 67.049 54.1252C66.535 54.4355 65.2589 54.8428 64.7017 54.6035C64.3441 54.45 63.574 53.5515 63.6108 53.1645C63.6861 52.3746 64.2511 52.5852 64.3223 52.0086L64.7409 51.9834L64.6263 51.6666C65.4065 51.952 65.5435 51.1342 65.9469 50.6695L66.1537 50.6623L66.2647 50.8768C66.5711 50.6709 66.7234 50.512 66.7284 50.1174C66.449 50.2203 66.431 49.9243 66.2478 49.9047C65.4643 49.8219 64.6226 50.3724 64.0691 50.8756C63.6127 51.2931 63.3393 51.9772 62.9226 52.2914C62.5899 52.5423 61.364 53.1456 60.9694 53.1576C60.3415 53.1764 59.3274 52.1067 59.2715 51.5195C59.2404 51.2017 59.4302 50.8531 59.3489 50.5134C59.0018 50.4429 58.6479 50.7365 58.5547 51.0627C58.1693 52.4204 60.1195 53.0416 60.0786 53.6481C60.0531 54.0201 58.7647 54.3191 58.7085 54.8616L59.018 55.0311L58.9331 55.2273C59.5246 55.4003 61.1959 55.5496 61.6474 55.1491C62.1134 54.7366 61.5941 54.7918 61.4827 54.4728C62.4304 54.5315 61.2586 54.085 61.4073 53.7785C61.5931 53.3973 62.4895 52.9214 62.8173 53.236C62.9266 53.3398 63.1328 53.86 63.3127 54.0865C63.859 54.7765 64.8242 55.2397 65.708 55.0647C65.791 55.049 65.771 54.8406 65.9765 54.7796C66.2417 54.7012 66.9791 54.7092 67.1366 54.4616C67.1924 54.3716 67.1331 54.1948 67.1525 54.169C67.17 54.1475 67.431 54.3256 67.6184 54.2576C67.7586 54.2067 67.9913 53.6291 68.422 53.7049L68.3196 53.4522L68.4646 53.2966L68.9524 53.3752L68.7312 53.0611C69.3139 53.4748 69.9142 52.0094 70.1623 51.9642C70.5933 51.886 70.6211 52.533 70.7794 52.6545C70.7955 52.6679 71.0897 52.6479 71.185 52.7858C71.3742 52.3676 71.0398 52.0858 71.0452 51.668C71.0501 51.2702 71.6571 50.5862 71.9607 50.3086C72.318 49.9822 72.9225 49.7024 73.1867 49.4141C73.2987 49.2911 73.3005 49.0653 73.3571 49.0069C73.5209 48.8404 74.2076 49.1883 74.2538 49.1808C74.5787 49.1231 74.1819 48.7511 74.0773 48.7063ZM61.3853 54.8476C60.9419 54.7247 59.3337 55.538 59.5755 54.6459C59.6394 54.4123 60.6407 53.9094 60.912 54.0335C61.0327 54.0885 61.498 54.7478 61.3853 54.8476Z" fill="black"/>
<path d="M55.7012 33.0613C57.1031 33.0369 58.5474 33.3195 59.9319 33.0624C60.2297 33.0222 60.2006 32.7012 60.3588 32.5243C60.9044 31.9158 61.8639 30.837 62.7673 31.2797L62.8359 31.4889C61.5795 32.0107 60.148 33.6414 60.3564 35.1393C60.3923 35.3927 60.5617 35.8336 60.8572 35.8241C61.3384 35.8079 62.6396 33.7818 62.6241 33.202L63.3092 33.1912C63.3312 33.9871 63.2294 34.7323 63.7944 35.369C64.718 36.4082 64.9212 35.2418 65.649 34.7373C65.787 34.6411 65.8923 34.6269 65.9184 34.7865C65.977 35.1458 64.9576 36.1512 64.5912 36.2363C64.3161 36.3012 63.8836 36.3214 63.6231 36.2077C63.3626 36.0939 62.8709 35.2212 62.6652 35.2295C62.1893 35.2487 61.6063 36.5154 61.0949 36.5482C60.4718 36.5879 60.1729 36.377 59.8606 35.8806C59.2778 34.9553 59.8291 34.3614 59.5727 33.4395C59.2473 33.2229 57.9187 33.5598 57.4815 33.5612C57.1119 33.562 56.8443 33.3313 56.5126 33.4577C56.3515 33.5187 55.8334 33.9156 55.7771 34.0742L56.3788 38.5508C56.4358 38.8057 55.9337 38.9131 55.8462 38.8341C55.6647 38.6719 55.4547 34.6107 55.1394 34.0352C54.8594 33.691 52.7281 34.1945 52.5013 33.3141C52.5763 32.8091 53.7261 33.3057 54.1509 33.3173C54.4426 33.3248 54.9822 33.3662 55.1196 33.0737L54.6278 28.5955C55.5958 28.6219 55.3404 29.9859 55.4332 30.6555C55.4601 30.8469 55.6523 31.0594 55.6529 31.0836L55.7023 33.0613L55.7012 33.0613Z" fill="black"/>
<path d="M156.508 68.6295L152.387 68.7322C152.35 68.7332 152.132 68.6331 151.958 68.6216C151.798 68.6119 151.529 68.7547 151.493 68.7356C151.474 68.7265 151.448 68.5721 151.351 68.5049C150.361 67.8334 149.62 67.6187 149.194 66.2696C148.784 64.9655 149.292 65.2472 150.04 64.623C150.917 63.8923 151.874 61.9117 149.987 62.1676C149.211 62.2724 149.396 62.7034 149.163 62.9023C149.059 62.9924 148.808 62.9544 148.684 63.0735C148.318 63.4255 148.474 64.4427 147.896 64.5668C147.1 64.7385 145.386 64.6135 144.463 64.646C143.444 64.682 142.827 64.9358 141.737 64.5558C141.003 64.2988 140.211 63.0316 140.014 62.3055C139.547 60.5745 140.048 59.2666 139.841 57.6611C139.796 57.3215 139.535 56.9619 139.589 56.5545L139.284 56.4365L139.288 60.562C138.75 61.0511 139.271 61.2312 139.295 61.3234C139.565 62.3336 139.069 62.0675 139.84 63.2001C140.256 63.81 140.495 64.3252 141.197 64.6779L140.998 65.0573C141.57 64.696 141.735 65.3111 142.045 65.335C142.294 65.3541 142.468 65.2253 142.657 65.2333C142.829 65.2395 142.97 65.3858 143.123 65.4052C143.575 65.4604 145.081 65.4967 145.437 65.3601C145.593 65.3004 145.57 65.0551 145.665 65.0443C145.711 65.039 146.546 65.1184 146.605 65.1317C146.689 65.1496 146.676 65.3103 146.696 65.3245C146.823 65.4068 146.95 65.1916 147.079 65.1452C147.216 65.0964 147.512 65.128 147.532 65.1096C147.589 65.0533 147.401 64.6593 147.627 64.68L148.757 67.059L149.075 66.8897L149.088 67.4231L149.406 67.3087L149.352 67.6381C149.607 67.7214 150.026 68.0116 150.185 68.2207C150.334 68.4164 150.203 68.8183 150.776 68.7777C150.863 68.7724 150.774 68.4222 151.045 68.5526C150.817 68.8642 151.334 69.1467 151.602 69.2265C151.912 69.3179 153.609 69.4919 153.682 69.1251L153.897 69.1197C154.101 69.66 154.168 69.1699 154.199 69.1523C154.63 68.9042 155.202 69.2201 155.607 69.1826C155.719 69.1724 156.738 68.8179 156.508 68.6295ZM149.292 63.7039C149.541 62.9878 150.005 62.8939 150.692 62.9992L150.597 63.5353L150.272 63.3293C150.436 63.9233 148.965 64.6467 149.292 63.7039Z" fill="black"/>
<path d="M114.695 78.796C113.332 78.4904 112.747 79.0429 111.612 79.1229C111.03 79.1638 110.265 78.9983 109.648 79.1044L109.601 77.2332C109.6 77.1805 109.394 76.8997 109.307 76.8776L108.846 77.0674C108.707 77.5403 109.098 79.2436 108.802 79.5021C108.395 79.8571 106.896 79.9008 106.381 80.2386C105.752 80.114 105.711 80.3428 105.96 80.8925C106.424 81.0877 108.85 80.1243 109.035 80.2958C109.08 80.8316 109.011 81.4125 109.087 81.9412C109.14 82.3143 109.364 82.6821 109.415 83.0237C109.458 83.3085 109.305 85.3355 110.063 84.6668C110.471 84.3064 109.877 82.0744 109.816 81.5053C109.77 81.0708 109.803 80.6164 109.793 80.1809C110.425 79.931 111.603 79.7202 112.096 80.3176C112.186 80.4261 112.458 81.1873 112.482 81.3396C112.6 82.0941 112.261 83.899 113.48 83.9023C113.959 83.9041 115.193 83.041 115.516 82.6501C116.767 81.1358 116.894 79.2887 114.695 78.796ZM114.549 82.6657C114.387 82.7869 113.289 83.4419 113.279 83.0255C113.265 82.4604 113.307 81.7463 113.234 81.208C113.215 81.0682 113.106 80.6732 113.059 80.5141C112.977 80.2471 112.384 79.5204 112.83 79.3626C112.919 79.3309 114.41 79.2198 114.525 79.2518C114.653 79.2866 115.597 79.7894 115.663 79.8648C116.23 80.5162 115.123 82.2358 114.549 82.6657Z" fill="black"/>
<path d="M89.5974 52.434C88.5465 52.938 87.4086 53.343 86.2373 53.4661C85.4273 53.5506 84.9731 53.3773 84.4657 52.7212C84.0041 52.1251 83.6967 50.8501 84.4112 50.3671C84.5524 50.2707 84.9475 50.4012 85.1751 50.2953C85.3609 50.2084 85.3845 49.8418 85.4895 49.778C85.5873 49.7186 85.7632 49.7838 85.863 49.7212C85.9109 49.6926 86.5102 48.9508 86.5391 48.8393C86.5632 48.748 86.5864 48.0671 86.5794 47.9575C86.5283 47.1761 85.0546 46.947 84.5757 47.3493C84.3916 47.5047 83.8073 48.552 83.6675 48.8329C83.4954 49.1758 83.3895 49.7987 83.2281 50.059C82.889 50.6044 81.1324 49.8718 80.7872 49.4522C80.5857 49.2082 80.6195 48.8709 80.484 48.7287C80.4374 48.6803 79.9712 48.4925 79.9187 48.5033C79.6802 48.5547 79.813 49.5619 79.6731 49.9219C79.6106 50.0849 79.0573 50.8075 78.9077 50.9906C78.7396 51.1962 77.708 52.3053 77.5476 52.3093C76.2359 51.7576 76.6467 49.7664 75.2814 49.4755C75.5536 49.974 75.55 50.5511 75.7145 51.048C75.96 51.7888 77.0069 53.1572 77.8902 53.0022C78.1898 52.9494 78.967 52.0577 79.1881 51.7768C79.439 51.4594 79.4173 51.3967 79.5591 51.1948C79.6631 51.0456 80.0968 50.3976 80.1526 50.3467C80.4242 50.0983 81.2679 50.4349 81.6255 50.5462C81.782 50.5961 81.9128 50.7606 82.0349 50.786C82.3184 50.8454 82.4264 50.6033 82.7592 50.7775C83.277 51.0473 83.0683 51.486 83.1836 51.8734C83.3956 52.5833 84.0376 53.3426 84.6525 53.7345C84.7001 53.3968 85.0705 53.5553 84.9749 53.8319L85.0925 53.9313C85.6996 53.7959 86.2788 54.0695 86.8446 53.6777L86.8526 54.0003C87.0366 54.0506 87.0886 53.8499 87.2211 53.8266C87.3462 53.8045 87.4856 53.8906 87.7058 53.8271C87.8631 53.781 89.9129 52.7215 89.5974 52.434ZM84.5348 48.7174C84.6656 48.4979 85.2548 47.9019 85.4921 47.8465C85.6779 47.8038 85.8623 47.7866 85.9372 47.9946C86.0472 48.5088 85.9337 48.827 85.547 49.1584C85.4456 49.2453 84.4123 49.9029 84.3423 49.8899C84.0123 49.8296 84.4334 48.8876 84.5348 48.7174Z" fill="black"/>
<path d="M78.0489 126.378C77.8509 124.833 77.6323 123.184 77.5066 121.571C77.4912 121.376 77.6234 121.172 77.5974 120.937C77.5535 120.531 77.0644 120.142 76.922 119.769L77.4304 119.361C77.5705 119.096 76.9746 118.618 76.7433 118.533C74.9784 117.887 71.9546 120.841 73.1284 122.217C74.102 123.357 75.8753 120.61 76.5716 120.792C76.7342 120.835 76.8636 122.043 76.8876 122.33C76.9304 122.858 76.8691 123.41 76.9245 123.937C77.1424 126.025 77.717 128.145 77.8334 130.232C77.8503 130.53 77.8096 130.845 77.6415 131.091C76.0523 131.478 74.9257 130.43 73.7953 129.525C73.7209 129.505 73.7278 129.612 73.7445 129.688C73.8204 130.021 75.2217 131.036 75.5756 131.168C75.6961 131.212 77.0836 131.587 77.1661 131.592C77.6611 131.622 78.2726 131.54 78.4434 131.018C78.7554 130.063 78.1944 127.515 78.0489 126.378ZM76.8216 119.765C76.7835 120.272 76.1499 120.231 75.8276 120.392C75.0985 120.755 74.5346 121.776 73.6503 121.505C73.6077 121.451 74.1749 120.479 74.264 120.367C74.7156 119.802 75.3916 119.298 76.1201 119.204C76.5369 119.15 76.8565 119.301 76.8216 119.765Z" fill="black"/>
<path d="M28.4641 65.0036C27.8229 64.8687 26.5332 65.7511 26.2445 66.2836C26.091 66.567 25.9724 67.3178 25.9367 67.6615C25.8925 68.0941 25.8743 68.8023 25.8635 69.2615C25.8482 69.9169 26.2771 71.4906 25.4961 71.4679C25.2764 70.9153 25.0607 68.5304 24.7289 68.2686C24.6028 68.1684 24.4959 68.1595 24.3423 68.1812C24.295 68.233 24.4834 69.394 24.5291 69.5753C24.5959 69.8395 25.1627 71.0131 25.1649 71.1017C25.1645 71.2546 24.9769 71.3542 24.982 71.5155C24.9972 72.0436 25.7429 73.5725 25.9401 74.2363C26.0829 74.7138 26.2395 75.2352 26.2434 75.7288L26.6589 75.7047C26.6921 75.3421 26.8459 74.9437 26.857 74.5869C26.8869 73.6684 26.3423 71.8613 26.5722 71.0835C26.6823 70.7115 27.0815 71.0929 27.3006 70.9471C27.417 70.8715 27.4922 70.5394 27.6664 70.4517L27.7788 70.7686C28.2626 70.5192 28.2675 69.9505 28.7833 69.8427L28.7666 69.4686C30.6518 68.7518 30.4909 65.433 28.4641 65.0036ZM29.041 68.5746C28.9057 68.654 28.5533 68.5826 28.3093 68.6636C27.794 68.8357 27.1704 69.9588 26.415 69.7329C26.5945 68.5059 26.2223 67.512 26.931 66.4142C27.2686 65.891 28.0177 65.6529 28.6223 65.7138C29.3348 65.7867 29.6672 66.962 29.5536 67.5713C29.5237 67.7293 29.1254 68.5261 29.041 68.5746Z" fill="black"/>
<path d="M70.4707 84.1989L70.2007 84.0432C69.8756 84.3056 69.6757 84.2082 69.2926 84.1745C69.2743 83.6507 70.2218 83.4478 70.3159 83.1131C70.4903 82.4864 69.6291 79.7547 69.9247 79.452C70.9494 79.3399 70.6968 80.4328 70.839 81.1803C70.8803 81.3965 71.082 82.4137 71.1724 82.48C71.7397 82.5724 72.1649 82.0924 72.7183 82.049C73.6079 81.9794 74.3796 82.5182 74.7926 83.2832C75.2753 84.1783 75.2351 86.0802 76.4735 86.2349C77.1155 86.3149 77.9452 86.2584 78.5741 86.1541C79.2073 86.0497 78.9625 86.3965 78.5459 86.5461C77.7368 86.8374 77.2645 86.615 76.5865 86.6572C76.3577 86.6714 76.1992 86.8378 76.0558 86.8487C75.8166 86.8674 75.1809 86.4876 75.021 86.3028C74.324 85.4984 74.423 83.4126 73.4137 83.0844C72.8036 82.8866 71.5256 83.0482 71.1432 83.64C71.298 84.595 71.2281 85.6874 71.509 86.6203C71.6529 87.0977 72.3119 87.5634 71.9706 88.0202C71.3001 88.9156 70.5292 86.418 70.5192 86.0142L70.4738 84.1968L70.4707 84.1989Z" fill="black"/>
<path d="M132.083 28.4526C132.007 28.3859 132.01 28.1411 131.776 27.9518C130.845 27.1987 128.334 27.9733 127.459 28.6586C125.758 29.9932 126.342 33.2033 127.315 34.8289C127.429 35.018 128.11 35.9567 128.232 35.9653C129.111 36.0257 128.564 34.2861 128.539 33.7636C128.508 33.105 128.485 32.2628 128.486 31.6246C128.486 31.1858 128.872 30.5285 129.285 30.3916C129.558 30.3025 129.973 30.3797 130.306 30.3176C130.698 30.2445 132.386 29.3459 132.481 29.044C132.665 28.455 132.222 28.5757 132.084 28.4526L132.083 28.4526ZM131.625 28.6708C131.553 28.8065 131.577 29.0422 131.509 29.1146C131.264 29.3781 129.89 29.7583 129.513 29.8785C129.377 29.922 129.273 30.0817 129.12 30.132C128.795 30.2382 127.968 30.1333 127.861 30.2931L127.673 33.1934L127.354 33.2013C127.268 32.9092 127.268 32.5969 127.213 32.3019C127.184 32.1402 127.022 32.0292 127.02 31.89C127.019 31.7403 127.271 30.4123 127.331 30.2061C127.594 29.3177 129.15 28.3696 130.013 28.153C130.112 28.1283 130.883 28.0933 130.943 28.114C131.149 28.1858 131.41 28.712 131.839 28.4893C131.885 28.6559 131.675 28.5735 131.625 28.6708Z" fill="black"/>
<path d="M45.7404 98.0426C45.6883 99.2539 45.4912 100.456 45.4676 101.672C45.4533 102.412 46.1654 101.532 46.3868 101.393C46.809 101.126 48.2589 100.318 48.6737 100.224C49.1084 100.123 49.2957 100.224 49.5669 100.555L48.1491 101.084C47.5601 101.347 45.7664 102.728 45.689 103.349C45.6414 103.727 46.3765 104.071 46.7079 104.104C47.9444 104.225 48.3523 103.683 49.3132 103.34C49.8533 103.146 50.695 103.062 51.2351 102.87C51.6696 102.716 52.1814 102.318 52.7145 102.182C52.9023 102.134 52.9668 102.136 53.0383 102.339C52.3284 102.541 51.768 103.063 51.104 103.372C50.5487 103.631 49.9235 103.76 49.366 104.017C48.87 104.245 48.3976 104.656 47.926 104.84C47.5045 105.006 46.9718 104.99 46.6836 105.12C46.1719 105.353 45.6289 106.871 45.0463 105.4C44.6225 104.329 44.6779 101.976 44.7548 100.782C44.8157 99.8357 45.1616 98.8872 45.1105 97.937L45.7405 98.0437L45.7404 98.0426Z" fill="black"/>
<path d="M66.0283 103.619L66.5661 103.712C66.6517 102.869 66.8326 101.779 67.1549 100.983C68.1378 98.556 69.8963 99.6641 70.4716 101.642C70.6587 102.286 70.909 104.108 70.0388 104.36C69.9308 104.391 68.6531 104.272 68.5542 104.204C68.4436 104.128 68.3671 104.025 68.392 103.882C70.1894 104.218 70.0821 102.878 69.5646 101.608C68.5792 99.1916 67.6524 101.622 67.3666 102.865C67.137 103.864 67.3902 106.227 67.6314 107.259C67.7401 107.724 68.0077 108.376 68.2991 108.753C67.951 108.939 68.0094 109.925 67.4702 109.183C67.3598 109.031 66.9087 108.177 66.8322 107.988C66.7174 107.704 66.0777 105.558 66.0734 105.385L66.0294 103.621L66.0283 103.619Z" fill="black"/>
<path d="M98.7628 67.1647C98.7393 67.1515 98.5439 66.7281 98.5363 66.6798C98.4224 66.0065 99.3378 66.4204 99.6373 66.3633C100.125 66.271 101.012 65.8607 101.139 65.3312C101.265 64.8016 101.026 64.7812 100.782 64.4561C100.746 64.4085 100.815 64.2633 100.805 64.2551C100.753 64.2174 100.082 64.1117 99.8966 64.0562C99.2847 63.87 98.93 63.4094 98.4739 64.2615C97.7192 65.6727 97.7014 67.5434 97.746 69.0793C97.7697 69.9036 98.2096 70.8135 97.3537 71.3897C96.8999 70.0022 96.1904 68.4862 95.8774 67.0699C95.8166 66.7951 95.8678 66.5185 95.8241 66.2485C95.7604 65.8524 95.4621 65.5792 95.6989 65.1208L96.0649 65.4408C96.4481 66.158 96.7596 67.0026 96.6196 67.8236C97.3027 68.0724 97.0158 66.5605 97.1347 66.1219C97.4095 65.1119 97.8571 64.3022 98.5146 63.521C98.6715 63.3346 98.6615 62.9298 99.0176 62.8956C99.3724 62.852 101.444 64.0271 101.719 64.3378C103.03 65.822 99.1916 67.4198 98.7618 67.1678L98.7628 67.1647Z" fill="black"/>
<path d="M46.9703 141.949C47.0008 141.986 47.1814 141.987 47.2339 142.059C47.3126 142.169 47.0632 142.543 47.562 142.807C48.3143 143.204 48.2643 142.639 48.6101 142.279C49.5736 141.276 50.2295 140.43 50.9953 139.293C51.2173 138.963 51.1458 138.426 51.9043 138.521C51.921 139.021 52.0469 139.453 52.0523 139.966C52.0808 142.507 51.8076 147.265 51.1662 149.666C51.0503 150.098 50.9796 150.652 50.3977 150.526C49.7782 149.567 50.3861 149.169 50.7036 148.391C51.2003 147.179 51.3027 144.082 51.3642 142.652C51.3977 141.879 51.3442 141.09 51.3988 140.314C51.3435 140.128 51.0414 140.082 50.8937 140.173C50.8333 140.209 50.1839 141.145 50.0635 141.312C49.6766 141.847 49.2979 142.542 48.8087 143.043C47.8469 144.026 47.0641 143.424 46.6793 142.308C46.4881 141.755 46.497 139.569 46.5546 138.918C46.5687 138.761 46.5615 138.642 46.7122 138.546L47.0947 138.808C47.0006 139.733 47.0395 140.658 47.0563 141.589C47.0593 141.708 46.9539 141.929 46.9703 141.949Z" fill="black"/>
<path d="M124.493 27.616C123.439 27.7646 121.587 28.6304 120.978 29.5443C120.64 30.0517 120.551 30.4875 120.096 30.9967C120.053 31.0442 119.252 31.4946 119.183 31.6007L119.288 31.904L119.762 31.5894L119.999 31.8314C119.822 32.7388 119.547 33.9239 119.678 34.8394C119.764 35.4386 120.267 35.9756 120.046 36.5919C121.356 37.016 120.799 34.4644 120.825 33.6262C120.856 32.6487 120.946 31.6496 121.214 30.7083C121.691 30.3177 122.359 30.3633 122.908 30.1777C123.518 29.9726 124.619 29.6023 125.189 29.3201C126.763 28.5425 126.023 27.3996 124.493 27.616ZM121.805 29.8085C121.734 29.7502 122.41 28.8958 122.456 28.8619C122.717 28.6698 123.607 28.7647 123.373 28.2726C123.911 28.4333 124.549 28.0872 125.076 27.9095C125.684 29.466 122.811 29.5197 121.805 29.8085Z" fill="black"/>
<path d="M73.2376 32.8587C73.2057 32.8088 73.0131 32.7915 72.9314 32.6922C72.8116 32.5465 72.8456 32.3431 72.6389 32.227C72.309 32.0421 71.2578 31.985 70.8814 32.0914C70.572 32.1804 69.4617 33.1374 69.2015 33.4171C69.1027 33.5219 68.61 34.5141 68.3725 34.3492C67.7496 32.62 67.7505 30.7507 67.5773 28.9301L67.056 28.8208C67.1263 29.8612 67.0454 30.9339 67.1346 31.9728C67.1938 32.6528 67.7188 35.8349 68.2149 36.1611C68.8033 35.9587 69.3898 35.7172 69.9782 35.5117C70.1498 35.4515 70.3762 35.5081 70.5636 35.4411C70.9121 35.3154 72.4634 34.5478 72.7054 34.3456C73.0013 34.0987 73.4794 33.2376 73.2376 32.8587ZM71.2137 34.4946C70.8404 34.6842 69.4007 35.4374 69.4501 34.7052L70.0977 33.4865C70.5381 32.9787 72.4832 32.2519 72.6275 33.127C72.7221 33.6996 71.6622 34.2671 71.2137 34.4946Z" fill="black"/>
<path d="M30.0064 138.808C30.1999 139.073 30.2499 139.089 30.183 139.539C29.9982 140.766 28.6241 140.634 29.3293 139.355L29.0625 139.198C28.4764 139.411 27.9928 139.966 27.6646 140.484C27.1464 141.302 26.0652 143.809 26.685 144.652C27.3048 145.495 28.1463 143.961 28.4642 143.54C28.5736 143.396 28.7812 143.334 28.8536 143.233C29.0894 142.903 29.8595 141.052 29.9768 141.01L30.4304 140.989C30.8201 141.879 30.7644 144.007 32.066 143.946C32.2749 143.937 33.0943 143.552 32.9732 143.86C32.7795 144.351 31.8243 144.499 31.3817 144.327C31.3252 144.305 30.5456 143.536 30.5127 143.485C30.2865 143.138 30.5294 142.46 29.9031 142.502C29.179 143.238 28.0508 146.061 26.7723 145.657C26.4658 145.56 26.4378 145.075 26.328 144.861C26.298 144.804 26.1099 144.8 26.0537 144.661C25.4528 143.178 27.1378 139.518 28.4116 138.592C29.036 138.138 29.5407 138.176 30.0054 138.81L30.0064 138.808Z" fill="black"/>
<path d="M111.949 117.197C111.901 117.291 111.366 117.849 111.251 117.94C110.652 118.418 108.844 119.117 108.878 119.914C108.883 120.039 109.152 120.857 109.216 120.969C109.366 121.232 110.219 121.551 110.542 121.557C111.483 121.579 112.525 121.218 113.362 120.886C113.462 120.846 113.707 120.737 113.688 120.935C113.427 120.926 113.433 121.215 113.267 121.316C112.938 121.52 112.183 121.641 111.784 121.787C111.533 121.879 111.299 122.139 111.087 122.177C110.195 122.335 108.713 121.701 108.177 120.962C107.786 120.425 107.912 119.72 107.439 119.323L107.435 119.167C107.996 118.924 108.28 118.175 108.684 117.693C109.279 116.984 110.31 116.106 111.281 116.08C111.873 116.063 112.249 116.615 111.949 117.197Z" fill="black"/>
<path d="M27.1596 82.9942L27.5038 84.0078L27.2108 84.5826C26.7553 84.6108 26.8987 83.8847 26.4206 83.9799C26.3397 83.9957 25.5228 84.7386 25.4428 84.8334C25.1855 85.1436 24.4857 86.8974 24.4133 87.2969C24.3289 87.7642 24.2324 88.9364 24.9042 88.8142C25.0892 88.78 26.9023 86.9922 27.1068 86.7255C27.3575 86.3996 27.7365 85.7625 27.8994 85.3914C28.0623 85.0202 27.8512 84.5593 28.5396 84.5537L28.6624 84.6498C28.7503 85.1655 29.6737 87.0866 30.1158 87.2401C30.74 87.4566 31.401 86.437 31.6762 85.9533C31.7572 85.811 32.1174 84.6312 32.3603 84.8825C32.3865 85.0021 32.3508 85.0958 32.3187 85.2074C32.2331 85.5017 31.5748 86.7143 31.3842 87.0334C30.8388 87.9457 30.3245 88.0324 29.4496 87.3348C29.0607 87.0249 28.5883 85.9101 28.0748 86.0727C27.7053 86.2475 27.7093 86.7453 27.5325 87.025C27.2247 87.5126 26.7209 87.9767 26.3417 88.3975C25.9039 88.8831 25.3666 89.8649 24.5496 89.6289C23.6455 89.3688 23.8908 87.3911 24.1035 86.6886C24.2977 86.0498 24.6526 85.4565 24.9661 84.9012C25.49 83.9736 25.8098 82.6935 27.1584 82.9921L27.1596 82.9942Z" fill="black"/>
<path d="M142.858 97.7722C143.389 97.701 143.946 97.5848 144.278 98.0839C144.135 98.2615 144.042 98.3957 143.806 98.4648C142.74 98.7741 141.132 98.8205 139.983 99.0064C137.664 99.3827 135.353 99.7178 133.043 100.135C132.652 100.206 131.914 100.682 131.534 100.391C130.946 99.2391 131.92 99.5165 132.585 99.387C135.876 98.7459 139.498 98.2241 142.859 97.7733L142.858 97.7722Z" fill="black"/>
<path d="M81.8484 33.6926C81.5125 33.3908 83.4804 31.5886 83.2832 30.8383C83.1922 30.4924 82.2769 31.0553 82.1131 31.1786C81.2258 31.8484 80.5926 33.5172 80.8245 34.6021C80.8903 34.9106 81.3746 35.7835 81.6589 35.9188C82.6989 36.4161 84.6759 35.5282 85.547 34.8873C85.5813 34.8622 86.2944 33.9847 86.0323 34.6948C85.9215 34.9951 85.2168 35.3238 84.9306 35.5788C84.8252 35.6722 84.778 35.8949 84.645 35.9847C84.4031 36.149 84.1321 36.0376 83.9449 36.1551C83.8586 36.2089 83.823 36.3934 83.7321 36.4737C83.3467 36.8145 82.2101 36.4652 81.6762 36.6948C80.8331 36.0903 80.2203 35.6984 79.9923 34.6007C79.8387 33.8598 80.1226 32.4118 80.5309 31.7634C80.7026 31.4901 80.9156 31.4363 81.0808 31.2423C81.246 31.0483 81.3498 30.6786 81.561 30.55C81.9604 30.3048 83.5946 29.9824 83.7861 30.5071C83.8711 30.7403 83.8492 31.5552 83.7766 31.8207C83.6577 32.2614 82.2762 34.0775 81.8484 33.6926Z" fill="black"/>
<path d="M93.7496 29.9738C93.8048 30.1992 93.6395 30.2191 93.51 30.3184C92.569 31.0359 91.2691 31.5947 90.2376 32.3229C89.5765 32.7888 89.7442 33.7983 89.9085 34.501C90.269 36.0395 90.8032 35.1021 90.8801 35.1793C91.0098 35.6782 91.182 35.8511 90.902 36.3528C90.7264 36.2169 90.3099 36.3697 90.281 36.3546C90.2522 36.3395 90.0278 35.9379 89.9309 35.8222C89.0383 34.7537 89.2093 34.9224 89.009 33.5793C88.7594 31.9115 88.7536 29.7334 88.8828 28.0097C88.9074 27.6842 88.9078 26.8941 89.3201 26.9967C89.9545 27.1549 89.549 28.5532 89.5457 29.0564C89.5422 29.6356 89.5495 30.3116 89.5966 30.8853C89.607 31.0085 89.6232 31.5724 89.773 31.5666C91.0397 30.9042 92.3194 30.1772 93.7496 29.9727L93.7496 29.9738Z" fill="black"/>
<path d="M99.9732 116.984L99.6302 117.119C99.2618 116.363 98.1244 117.38 97.8096 117.798C97.6736 117.979 97.0276 119.049 96.9893 119.21C96.9282 119.469 96.9003 120.3 97.0235 120.497C97.1765 120.661 97.6316 120.783 97.8114 120.668C97.8603 120.638 97.8838 120.436 97.9791 120.364C98.4455 120.008 98.9274 119.683 99.3553 119.266C99.6904 118.939 99.8442 118.25 100.468 118.547C100.772 118.95 100.258 119.767 101.102 120.168C101.69 120.446 102.191 119.812 102.515 119.346C102.695 119.088 102.688 118.458 103.237 118.416C103.321 118.94 102.96 119.494 102.631 119.874C102.54 119.979 101.779 120.676 101.721 120.691C101.513 120.745 101.399 120.533 101.309 120.535C101.238 120.537 101.143 120.704 101.01 120.7C100.564 120.689 99.928 119.534 99.6937 119.581C99.4431 119.696 99.3334 120.042 99.1745 120.19C98.9825 120.369 97.8723 121.287 97.7146 121.361C96.8638 121.758 96.1926 120.718 96.2058 119.932C96.2176 119.219 96.8513 117.993 97.2746 117.395C97.3807 117.244 98.2001 116.394 98.3369 116.288C99.0476 115.737 100.087 115.955 99.9732 116.984Z" fill="black"/>
<path d="M95.2535 116.046C94.9494 116.092 94.7521 115.847 94.4502 115.849C93.6488 115.857 91.5609 117.128 91.5924 118.01C91.6129 118.576 93.4145 119.378 93.8848 119.733C94 119.82 94.6061 120.366 94.6641 120.45C94.8799 120.76 94.9029 121.3 94.8529 121.666C94.6456 123.182 90.9587 123.344 90.6979 122.201C90.6018 121.779 90.7296 120.891 91.3095 121.064L91.3626 122.218C91.9404 122.606 92.6506 122.455 93.2652 122.244C96.3721 121.183 91.6103 119.364 91.0343 118.667C90.3516 117.842 91.291 117.061 91.9136 116.576C92.1188 116.416 92.6377 116.219 92.6654 116.188C92.7117 116.138 92.6496 115.977 92.7476 115.886C93.1152 115.548 94.5965 115.282 95.0637 115.423C95.3152 115.516 95.2456 115.817 95.2545 116.045L95.2535 116.046Z" fill="black"/>
<path d="M114.578 28.3999L114.712 28.9124C113.86 29.0117 112.035 29.5752 111.889 30.564C111.863 30.7366 111.823 30.9845 111.927 31.1306C112.155 31.453 113.819 31.2068 114.209 31.1054C114.504 30.9777 115.351 29.0041 115.797 29.4244C115.983 30.2731 114.861 31.5997 115.33 32.3833C115.395 32.4924 115.626 32.6934 115.778 32.6928C115.959 32.6915 117.244 32.4527 117.429 32.3869C117.682 32.2972 117.738 31.9973 118.271 32.0357C118.588 32.3316 117.625 32.7702 117.432 32.8109C117.188 32.8623 117.369 32.4918 117.056 32.6019L116.965 32.9849C116.503 32.9638 116.06 33.3303 115.634 33.2766C115.499 33.2599 115.389 33.1382 115.278 33.1167C115.112 33.086 114.893 33.1643 114.741 33.0583C114.296 32.7435 114.52 31.8771 114.249 31.7647C113.764 31.5637 112.713 31.8726 112.181 31.7582C112.105 31.7422 112.121 31.5941 112.024 31.5565C111.927 31.5188 111.759 31.5799 111.638 31.5408C111.472 31.4869 111.376 31.0663 111.021 31.1458C111.319 30.8409 111.071 30.4768 111.247 30.1075C111.295 30.0061 112.469 28.9916 112.642 28.8775C113.246 28.4774 113.847 28.3042 114.578 28.3999Z" fill="black"/>
<path d="M120.715 114.985L120.505 115.149C120.738 115.24 120.756 115.229 120.73 115.517C120.239 115.435 117.794 115.879 117.657 116.304C117.439 117.731 118.074 118.588 118.636 119.742C118.759 119.994 118.774 120.255 118.844 120.432C118.87 120.497 119.03 120.478 119.038 120.536C119.055 120.64 118.701 121.316 118.629 121.403C118.237 121.88 117.138 121.779 116.572 121.692C115.85 121.58 115.098 121.365 115.183 120.478C115.67 120.172 115.948 121.023 116.317 121.082C116.96 121.185 117.909 121.161 118.391 120.657C118.294 120.552 118.153 120.549 118.069 120.42C117.949 120.235 116.77 117.548 116.73 117.357C116.527 116.411 116.666 115.988 117.491 115.52C118.444 114.979 119.64 114.722 120.714 114.985L120.715 114.985Z" fill="black"/>
<path d="M27.3012 53.5599C28.0125 53.5812 28.0097 54.2342 28.4122 54.7463C28.7427 55.1664 29.6191 55.7563 30.1581 55.6015C30.8082 55.4155 31.3728 53.4942 31.4446 52.8553C31.486 52.484 31.372 52.104 31.4747 51.7364C32.8335 51.3819 31.8514 52.2713 31.6702 52.7569C31.3484 53.6172 31.6969 54.7573 31.0352 55.4963C30.915 55.6312 30.7374 55.5839 30.6815 55.6275C30.6525 55.6504 30.879 56.0076 30.3623 56.2114C29.8457 56.4152 28.8829 55.876 28.4706 55.5624C28.1778 55.3397 27.7843 54.6818 27.4875 54.723C27.4139 54.7332 26.9241 55.2085 26.8649 55.2891C26.6688 55.5567 26.4276 56.2621 26.0783 56.526C26.0296 56.5631 25.3288 56.9203 25.2846 56.9277C23.7288 57.1732 23.5246 54.0654 23.541 53.0703C23.5429 52.9363 23.7069 52.8204 23.7102 52.6568C23.7143 52.4837 23.5032 51.7263 23.6062 51.6204L23.9335 51.6597L24.0201 51.7873C23.9754 53.1291 23.9695 54.5449 24.6179 55.7682C25.4933 57.4204 27.1691 54.445 27.2991 53.5621L27.3012 53.5599Z" fill="black"/>
<path d="M67.931 122.794C68.5476 123.336 70.0339 122.717 70.7889 122.755C70.5355 123.055 69.9341 123.035 69.5137 123.16C69.086 123.287 68.6996 123.632 68.2375 123.52C67.0857 123.241 66.7014 121.719 66.4445 120.734C65.2416 120.522 64.6912 122.209 64.4279 123.126C64.3841 123.278 64.2223 123.395 64.193 123.533C64.1136 123.907 64.3906 124.343 63.7264 124.643C63.3205 124.586 63.0907 124.474 63.0239 124.042L63.4781 121.545C64.3699 122.074 64.549 120.7 65.1036 120.324C65.2604 120.218 65.4402 120.226 65.5765 120.148C65.8836 119.969 65.8682 119.605 66.428 119.818C67.4344 120.2 67.2378 122.185 67.931 122.794Z" fill="black"/>
<path d="M132.254 46.3733L132.513 46.9777C131.633 46.1652 130.124 46.4623 129.253 47.1665C128.886 47.4626 128.818 47.7533 128.581 48.0978C128.51 48.2019 128.287 48.2201 128.262 48.3347C128.195 48.6254 128.445 49.7922 128.781 49.8175C129.172 49.581 129.609 49.6724 130.012 49.5558C130.743 49.3456 131.166 48.6399 131.69 48.245C132.363 47.7388 132.838 49.4432 133.045 49.7112C133.213 49.9275 134.099 50.4328 134.42 50.3521L134.308 50.7662C134.218 50.8244 133.976 50.8051 133.866 50.7699C133.834 50.7601 133.293 50.4899 133.266 50.4694C133.247 50.4562 133.347 50.2723 133.192 50.158C133.037 50.0437 132.856 50.1664 132.802 50.1255C132.7 50.05 132.715 49.826 132.578 49.706C132.542 49.6752 131.793 49.2635 131.745 49.2574C131.509 49.2253 130.637 49.8736 130.296 50.0329C130.166 50.0931 129.376 50.4409 129.324 50.4485C129.258 50.4586 128.588 50.3814 128.554 50.3622C128.476 50.3178 128.415 49.9743 128.092 50.0795C128.314 49.7944 127.936 49.4272 127.656 49.6631C127.691 49.1971 127.533 48.6145 127.675 48.1689C127.818 47.7234 128.593 46.8771 128.999 46.6085C129.173 46.4924 130.265 45.9704 130.406 45.9553C131.176 45.8728 131.561 46.148 132.255 46.3691L132.254 46.3733Z" fill="black"/>
<path d="M78.9369 35.9805C79.3503 36.2972 79.9567 35.839 80.0879 36.1459C80.1552 36.3035 80.1486 36.4186 79.9332 36.4208C79.7368 36.4225 78.6923 36.3769 78.5687 36.3367C78.2707 36.2407 77.267 35.2088 77.0781 34.9171C76.1083 33.4212 76.39 30.1494 76.9868 28.5006C77.0924 28.2068 77.6308 26.9687 77.8803 26.9393C78.8849 26.8204 77.9421 28.1888 77.8128 28.5528C77.2299 30.2034 76.8205 32.8022 77.6653 34.4098C77.7706 34.6098 78.77 35.8528 78.9369 35.9805Z" fill="black"/>
<path d="M142.154 118.961L142.339 118.937L142.336 118.725L142.032 118.715L141.996 118.428L141.735 118.43C141.775 117.918 141.457 117.695 141.312 117.331C141.159 116.945 141.093 115.751 140.374 116.07C139.602 116.413 138.231 118.954 137.777 119.045C137.618 119.044 137.351 118.795 137.318 118.669C137.296 118.584 137.369 116.994 137.415 116.919C137.655 116.521 137.912 117.435 138.233 117.281C138.553 117.127 139.134 116.148 139.476 115.851C139.682 115.672 140 115.555 140.241 115.356C140.365 115.253 140.417 115.027 140.522 114.974C140.764 114.849 141.378 115.186 141.529 115.46C141.968 116.26 142.069 117.657 142.463 118.428C142.61 118.713 143.001 118.942 143.085 119.315L142.931 119.554C142.62 119.752 141.952 119.224 142.155 118.962L142.154 118.961Z" fill="black"/>
<path d="M105.249 114.109C105.359 114.255 105.345 115.975 105.325 116.275C105.256 117.301 104.931 118.284 104.994 119.395C105.018 119.832 105.165 120.987 105.724 120.997C106.13 121.004 106.565 120.464 107.039 120.567C107.399 120.891 105.822 121.616 105.621 121.627C105.105 121.655 104.634 121.024 104.44 120.608C103.763 119.162 104.233 115.996 104.634 114.469C104.672 114.327 104.619 114.144 104.628 113.994C104.665 113.952 105.183 114.019 105.249 114.109Z" fill="black"/>
<path d="M36.183 120.916C36.2965 121.023 36.5591 120.879 36.6743 121.437C36.8292 122.185 36.7238 122.785 36.4494 123.47C35.9294 124.766 34.7756 125.805 33.3667 124.909C32.4975 124.357 32.4961 123.326 32.5483 122.372C32.5606 122.145 32.8035 120.702 32.8736 120.594C32.9591 120.463 33.1573 120.448 33.2913 120.489C33.7415 120.626 33.1369 122.299 33.099 122.685C32.9319 124.373 34.2532 125.35 35.4813 123.907C36.1359 123.138 36.499 122.07 35.8984 121.153C35.6282 120.903 34.1307 121.329 34.2208 120.832C34.5935 120.319 35.4649 120.156 35.9726 120.528C36.1512 120.659 36.1073 120.846 36.1819 120.916L36.183 120.916Z" fill="black"/>
<path d="M104.794 47.6702C104.874 48.0943 104.558 47.7246 104.394 47.8099C104.23 47.8952 103.947 48.0489 103.73 48.1724C102.88 48.6525 102.411 49.5703 102.619 50.5556C102.78 51.3174 103.835 50.9304 104.285 50.6818C104.896 50.3438 104.849 49.5327 105.53 49.2499C105.819 49.2406 106.065 50.207 106.254 50.4692C106.496 50.8028 107.158 51.0184 107.027 51.3571C107.69 51.3479 107.963 50.8633 108.564 50.6764C108.821 50.6025 108.756 50.9754 108.682 51.1059C108.661 51.1444 107.976 51.4695 107.891 51.5022C107.755 51.5541 107.601 51.4409 107.464 51.5065C107.327 51.5722 107.264 51.8512 106.999 51.7797C106.836 51.7363 106.58 51.2406 106.588 51.0505L106.009 51.1694L105.899 51.0646C106.065 50.8853 105.283 50.5377 105.132 50.5383L104.992 50.5734C104.897 50.8859 104.329 51.2988 104.033 51.3832C103.888 51.4248 102.599 51.6152 102.535 51.5767C102.525 51.5706 102.621 51.4321 102.575 51.3616C102.487 51.2266 102.158 51.1884 102.115 50.988C102.087 50.8621 102.213 50.5773 102.193 50.3553C102.17 50.0984 102.05 49.8493 102.047 49.6078C102.039 48.953 102.694 48.1508 103.218 47.7896C103.918 47.307 104.007 47.4187 104.795 47.6712L104.794 47.6702Z" fill="black"/>
<path d="M112.482 46.7277L112.683 46.2954C112.391 46.6804 112.247 46.2261 112.041 46.3589C111.858 46.6325 111.569 47.3285 111.663 47.6342C111.699 47.7567 111.876 47.8335 111.913 47.9286C112.24 48.7538 113.091 49.9309 113.27 50.5677C113.319 50.7416 113.252 50.8287 113.229 50.9875L113.659 50.9768C114.052 51.3478 112.518 51.7405 112.229 51.7614C111.645 51.8045 111.379 51.5885 110.938 51.5742C110.753 51.5683 110.525 51.7047 110.418 51.6832C110.24 51.6475 109.941 51.0674 110.014 50.8557C111.008 50.9364 111.767 51.5767 112.798 50.9951C112.85 50.92 112.622 50.3466 112.564 50.2351C112.462 50.0362 112.231 49.6179 112.092 49.3809C111.828 48.9307 111.306 48.3245 111.094 47.8003C110.821 47.1246 110.795 46.0429 111.537 45.6753C111.823 45.5331 112.589 45.3548 112.879 45.4889C113.337 45.7011 113.029 46.8069 112.481 46.7277L112.482 46.7277Z" fill="black"/>
<path d="M34.2645 66.2936C34.5985 65.8812 35.0152 65.7358 35.5233 65.6546C35.4116 65.3684 34.8479 65.4204 34.6028 65.4571C34.4197 65.4849 34.4487 65.7173 34.1402 65.7534C33.8359 65.7884 33.654 65.5662 33.3262 65.5933C32.9921 65.6196 32.7952 65.9821 32.4247 65.9481C32.3634 66.3684 32.7374 65.9931 32.9603 66.0413C33.2793 66.2527 32.6562 68.8812 33.4355 69.7678C34.1138 70.54 34.7692 69.7599 34.9558 69.0274C35.1944 68.0942 34.1737 66.5902 34.2645 66.2936ZM34.3252 69.1085L33.7748 69.0579L33.7501 67.5184C34.5359 67.4777 34.2551 68.5829 34.3252 69.1085Z" fill="black"/>
<path d="M85.8386 99.2721C85.2112 99.2688 85.4 98.6238 84.6031 98.7702C84.4297 98.802 83.3584 99.6325 83.2579 99.7943C82.9959 100.214 83.0288 102.17 83.2578 102.586C83.2854 102.636 83.8629 103.307 83.9058 103.332C84.6686 103.769 85.5595 102.31 86.2402 102.42C86.23 102.647 86.0043 102.869 85.8483 103.01C85.5283 103.303 84.6327 103.938 84.2472 104.066C83.7319 104.236 82.7379 103.085 82.5585 102.663C82.0009 101.352 82.5803 99.1751 83.8178 98.448C84.8368 97.8488 85.6925 98.0743 85.8397 99.2731L85.8386 99.2721Z" fill="black"/>
<path d="M108.404 66.2322C108.139 66.5837 107.467 67.2133 107.026 67.276C106.723 67.3194 106.51 67.0041 106.41 67.4222C105.917 67.1644 105.185 66.9664 104.968 66.4086C104.903 66.2404 104.59 65.1047 104.574 64.95C104.526 64.4607 104.808 63.8798 104.866 63.3921C105.591 63.5766 105.191 64.2437 105.209 64.7211C105.264 66.1058 106.273 67.3602 107.606 66.2605C107.9 66.018 108.291 65.3563 108.22 64.9762C108.212 64.9268 107.903 64.0812 107.879 64.0375C107.773 63.846 106.533 63.5193 107.153 62.91C108.396 63.4064 109.096 64.5113 108.711 65.849C108.629 66.1327 108.5 66.1032 108.403 66.2322L108.404 66.2322Z" fill="black"/>
<path d="M55.159 114.92C55.2164 114.979 55.221 116.348 55.2116 116.563C55.1474 118.057 54.8185 119.563 54.7906 121.068C54.7767 121.827 54.7192 123.162 55.1348 123.775C55.6643 124.558 56.2727 124.051 57.0056 124.007C57.0167 124.201 56.7724 124.314 56.6283 124.38C56.0769 124.629 55.3591 124.852 54.8669 124.386C54.7036 124.231 54.2151 123.106 54.1961 122.894C54.0121 120.851 54.5506 118.6 54.6764 116.575C54.7058 116.1 54.5816 115.523 54.6391 115.079C54.68 114.768 55.0507 114.811 55.1579 114.919L55.159 114.92Z" fill="black"/>
<path d="M33.5614 78.2479C33.6686 78.3539 33.8108 79.2291 33.831 79.4448C34.0556 81.8021 33.8285 84.2993 34.3925 86.5912C34.4794 86.9434 35.3519 88.8542 34.8602 88.9983L34.3904 89.0047L34.0982 86.7335C33.9381 86.4938 33.7412 86.3911 33.6816 86.0741C33.2719 83.8754 33.5773 81.4691 33.2803 79.2549C33.2452 78.9932 32.8533 78.2276 33.2173 78.1257C33.2781 78.1084 33.5073 78.1965 33.5604 78.249L33.5614 78.2479Z" fill="black"/>
<path d="M57.5726 65.2129C55.5669 64.2291 55.5331 65.1603 55.6899 66.917C55.7604 67.7106 56.3247 69.2946 55.9177 69.9525C55.6761 70.3435 55.4754 70.1723 55.3406 69.8065C55.1615 69.3173 55.0122 67.9455 54.9512 67.3637C54.8863 66.7514 54.5754 64.4479 55.2679 64.2218C56.0734 63.9591 57.2464 64.4119 57.5737 65.2128L57.5726 65.2129Z" fill="black"/>
<path d="M38.5839 47.7415C38.9229 48.0379 38.6124 49.2208 38.6571 49.5751C38.8847 51.3764 39.1156 53.4361 39.707 55.1745C39.8336 55.5469 40.211 55.6904 39.9991 56.1292C40.5586 56.0773 41.0096 55.9943 41.485 55.665C41.2423 56.6478 40.2892 56.6684 39.6227 56.0289C39.1056 55.5323 39.0664 54.4711 38.681 53.8383C38.4674 51.793 38.2009 49.7469 38.1809 47.6714C38.2182 47.5998 38.5688 47.7282 38.5839 47.7415Z" fill="black"/>
<path d="M88.9676 95.8792L89.4791 96.0226C89.293 96.9038 89.3378 97.8099 89.2449 98.7004C89.2246 98.9013 89.0764 99.059 89.0569 99.2525C88.9722 100.09 88.7204 102.231 89.0209 102.892C89.1371 103.147 89.5139 103.22 89.4763 103.408L88.8984 103.694C88.2445 103.646 88.1923 101.973 88.2451 101.509C88.4336 99.8778 88.7215 98.2082 88.9784 96.5699C89.0131 96.3496 88.9563 96.1042 88.9676 95.8803L88.9676 95.8792Z" fill="black"/>
<path d="M43.9621 48.0203C44.0825 49.6333 44.0813 51.8274 44.7048 53.3288C44.9284 53.8665 45.3868 54.2516 45.6424 54.76C45.7013 54.8778 45.8021 54.9829 45.591 55.0293C45.487 55.0519 44.5695 54.1697 44.4603 54.0237C43.7731 53.1073 43.3306 50.0993 43.3533 48.9352C43.3588 48.645 43.4927 48.3389 43.4471 48.0342L43.961 48.0214L43.9621 48.0203Z" fill="black"/>
<path d="M121.561 98.6719C121.478 98.77 121.103 98.9587 120.967 98.9937C120.007 99.2444 118.787 99.3339 117.852 99.6863C117.515 99.8129 116.091 100.843 115.859 100.557C115.807 100.357 115.967 100.301 116.063 100.178C117.312 98.5891 118.891 98.7501 120.652 98.3802C120.894 98.3299 121.186 98.1022 121.332 98.0859C121.629 98.0521 121.77 98.4251 121.561 98.673L121.561 98.6719Z" fill="black"/>
<path d="M60.3123 123.549C59.4717 124.014 59.1235 124.072 58.489 123.318C58.6203 121.888 59.0136 120.255 60.2633 119.382C60.3912 119.384 60.4143 119.547 60.3746 119.693C60.0831 120.75 59.1494 121.678 59.2164 122.884C59.2584 123.637 60.2278 122.871 60.3123 123.549Z" fill="black"/>
<path d="M134.749 119.448C134.539 119.459 134.113 119.478 133.987 119.289C133.917 119.186 133.784 118.349 133.798 118.236C133.814 118.117 134.027 118.033 134.065 117.805C134.192 117.026 134.121 115.941 134.238 115.153C134.264 114.983 134.519 114.066 134.58 113.914C134.634 113.782 134.586 113.776 134.767 113.771L135.099 113.87C135.319 114.161 134.943 114.829 134.881 115.138C134.782 115.634 134.329 118.439 134.431 118.739C134.501 118.941 134.871 119.082 134.749 119.448Z" fill="black"/>
<path d="M88.2787 68.6307C88.5332 68.9683 87.3608 70.6979 87.2268 71.2108C87.0735 71.7969 86.9437 72.8201 87.2284 73.351C86.6419 73.3794 85.9247 72.6947 86.6752 72.3448C86.6325 72.157 86.4688 72.0271 86.4543 71.8271C86.4043 71.1363 87.306 69.8575 87.5981 69.1635C87.7716 68.7499 87.5085 68.3229 88.2787 68.6307Z" fill="black"/>
<path d="M134.279 66.1879L134.698 65.8578L133.842 65.8791C134.104 66.4359 133.27 66.0453 133.125 65.8727C133.098 65.8397 133.192 65.6981 133.093 65.6277C132.976 65.5442 132.214 65.5695 132.32 64.954C132.487 64.7779 133.394 65.5896 133.485 65.7878C134.343 65.4763 135.474 65.7952 136.301 65.553C136.532 65.4861 137.157 65.1382 137.03 64.8366L137.247 64.905L137.356 65.1491L137.448 64.3989C137.943 64.9193 138.031 65.2462 137.407 65.6658C136.43 66.3241 135.376 66.035 134.279 66.1879Z" fill="black"/>
<path d="M92.4857 99.5359C92.5347 99.5958 92.3132 100.453 92.3016 100.665C92.2547 101.536 92.5784 102.913 93.4363 103.311L93.2771 103.574C92.681 103.516 92.3472 103.469 92.0613 102.888C91.7798 102.315 91.5027 101.07 91.7827 100.482C91.9012 100.234 92.2393 100.243 92.0715 99.6126C92.0901 99.3822 92.4694 99.5173 92.4847 99.5359L92.4857 99.5359Z" fill="black"/>
<path d="M33.4676 51.9072C34.245 52.1653 34.0222 52.9746 34.1599 53.5387C34.2728 54.0021 34.5549 54.3443 34.5285 54.8534L35.4814 55.3349C35.1461 56.1576 34.2191 55.8315 34.5085 54.9847C34.131 55.0489 33.7844 54.701 33.6842 54.3681C33.6507 54.255 33.5082 53.5349 33.5063 53.458L33.4676 51.9083L33.4676 51.9072Z" fill="black"/>
<path d="M136.558 50.3007L136.56 50.8228C135.852 51.1347 135.297 50.5863 134.536 50.7772C134.478 50.4728 134.596 50.5985 134.778 50.5434C135.358 50.3675 135.973 50.4777 136.557 50.2996L136.558 50.3007Z" fill="black"/>
<path d="M62.4369 49.7947C61.9926 49.637 61.536 50.2128 61.146 49.9915C61.0711 49.949 61.1841 49.6561 60.9353 49.6729C61.0009 49.4666 62.4766 49.2674 62.4369 49.7947Z" fill="black"/>
<path d="M69.3828 113.59C69.5376 114.291 69.0021 114.414 68.4352 114.255C68.4013 113.7 68.9039 113.526 69.3828 113.59Z" fill="black"/>
<path d="M105.664 91.1837C105.033 91.3376 104.959 90.8574 104.579 90.5166C105 90.0578 105.664 90.6826 105.664 91.1837Z" fill="black"/>
<path d="M84.7894 143.051L84.6836 143.68C84.1364 143.8 83.9033 143.601 84.1639 143.082L84.7894 143.051Z" fill="black"/>
<path d="M152.077 84.2504C152.343 84.4526 151.252 84.8237 151.125 84.7014L151.114 84.2744L152.077 84.2504Z" fill="black"/>
<g filter="url(#filter1_d_767_102206)">
<path d="M110.657 136.9C110.657 141.622 107.272 146.1 102.55 146.1C97.828 146.1 94 142.272 94 137.55C94 132.828 97.828 129 102.55 129C107.272 129 110.657 132.178 110.657 136.9Z" fill="url(#paint3_linear_767_102206)"/>
</g>
</g>
<g filter="url(#filter2_d_767_102206)">
<circle cx="151.55" cy="19.55" r="8.55" fill="url(#paint4_linear_767_102206)"/>
</g>
<g filter="url(#filter3_d_767_102206)">
<circle cx="21.55" cy="16.55" r="8.55" fill="url(#paint5_linear_767_102206)"/>
<circle cx="21.55" cy="16.55" r="8.55" fill="url(#paint6_linear_767_102206)" fill-opacity="0.87"/>
<circle cx="21.55" cy="16.55" r="8.55" fill="url(#paint7_radial_767_102206)" fill-opacity="0.32"/>
</g>
<g filter="url(#filter4_d_767_102206)">
<circle cx="165.55" cy="38.55" r="8.55" fill="url(#paint8_linear_767_102206)"/>
</g>
<defs>
<filter id="filter0_f_767_102206" x="3.87872" y="2.69629" width="170.358" height="174.804" filterUnits="userSpaceOnUse" color-interpolation-filters="sRGB">
<feFlood flood-opacity="0" result="BackgroundImageFix"/>
<feBlend mode="normal" in="SourceGraphic" in2="BackgroundImageFix" result="shape"/>
<feGaussianBlur stdDeviation="3.5" result="effect1_foregroundBlur_767_102206"/>
</filter>
<filter id="filter1_d_767_102206" x="93.72" y="128.62" width="17.617" height="18.0596" filterUnits="userSpaceOnUse" color-interpolation-filters="sRGB">
<feFlood flood-opacity="0" result="BackgroundImageFix"/>
<feColorMatrix in="SourceAlpha" type="matrix" values="0 0 0 0 0 0 0 0 0 0 0 0 0 0 0 0 0 0 127 0" result="hardAlpha"/>
<feOffset dx="0.2" dy="0.1"/>
<feGaussianBlur stdDeviation="0.24"/>
<feComposite in2="hardAlpha" operator="out"/>
<feColorMatrix type="matrix" values="0 0 0 0 0.348633 0 0 0 0 0.132354 0 0 0 0 0.110134 0 0 0 0.66 0"/>
<feBlend mode="normal" in2="BackgroundImageFix" result="effect1_dropShadow_767_102206"/>
<feBlend mode="normal" in="SourceGraphic" in2="effect1_dropShadow_767_102206" result="shape"/>
</filter>
<filter id="filter2_d_767_102206" x="142.6" y="11" width="17.9" height="17.8996" filterUnits="userSpaceOnUse" color-interpolation-filters="sRGB">
<feFlood flood-opacity="0" result="BackgroundImageFix"/>
<feColorMatrix in="SourceAlpha" type="matrix" values="0 0 0 0 0 0 0 0 0 0 0 0 0 0 0 0 0 0 127 0" result="hardAlpha"/>
<feOffset dy="0.4"/>
<feGaussianBlur stdDeviation="0.2"/>
<feComposite in2="hardAlpha" operator="out"/>
<feColorMatrix type="matrix" values="0 0 0 0 0 0 0 0 0 0 0 0 0 0 0 0 0 0 0.25 0"/>
<feBlend mode="normal" in2="BackgroundImageFix" result="effect1_dropShadow_767_102206"/>
<feBlend mode="normal" in="SourceGraphic" in2="effect1_dropShadow_767_102206" result="shape"/>
</filter>
<filter id="filter3_d_767_102206" x="12.6" y="8" width="17.9" height="17.8996" filterUnits="userSpaceOnUse" color-interpolation-filters="sRGB">
<feFlood flood-opacity="0" result="BackgroundImageFix"/>
<feColorMatrix in="SourceAlpha" type="matrix" values="0 0 0 0 0 0 0 0 0 0 0 0 0 0 0 0 0 0 127 0" result="hardAlpha"/>
<feOffset dy="0.4"/>
<feGaussianBlur stdDeviation="0.2"/>
<feComposite in2="hardAlpha" operator="out"/>
<feColorMatrix type="matrix" values="0 0 0 0 0 0 0 0 0 0 0 0 0 0 0 0 0 0 0.25 0"/>
<feBlend mode="normal" in2="BackgroundImageFix" result="effect1_dropShadow_767_102206"/>
<feBlend mode="normal" in="SourceGraphic" in2="effect1_dropShadow_767_102206" result="shape"/>
</filter>
<filter id="filter4_d_767_102206" x="156.6" y="30" width="17.9" height="17.8996" filterUnits="userSpaceOnUse" color-interpolation-filters="sRGB">
<feFlood flood-opacity="0" result="BackgroundImageFix"/>
<feColorMatrix in="SourceAlpha" type="matrix" values="0 0 0 0 0 0 0 0 0 0 0 0 0 0 0 0 0 0 127 0" result="hardAlpha"/>
<feOffset dy="0.4"/>
<feGaussianBlur stdDeviation="0.2"/>
<feComposite in2="hardAlpha" operator="out"/>
<feColorMatrix type="matrix" values="0 0 0 0 0 0 0 0 0 0 0 0 0 0 0 0 0 0 0.25 0"/>
<feBlend mode="normal" in2="BackgroundImageFix" result="effect1_dropShadow_767_102206"/>
<feBlend mode="normal" in="SourceGraphic" in2="effect1_dropShadow_767_102206" result="shape"/>
</filter>
<linearGradient id="paint0_linear_767_102206" x1="102.736" y1="90" x2="166.634" y2="163.153" gradientUnits="userSpaceOnUse">
<stop offset="0.66423" stop-color="#717171" stop-opacity="0.2"/>
<stop offset="1" stop-color="#D7D7D7" stop-opacity="0"/>
</linearGradient>
<linearGradient id="paint1_linear_767_102206" x1="88.6355" y1="-3.79855" x2="90.4229" y2="164.951" gradientUnits="userSpaceOnUse">
<stop stop-color="#878359"/>
<stop offset="0.0501" stop-color="#F6EEA8"/>
<stop offset="0.075" stop-color="#A9A870"/>
<stop offset="0.16" stop-color="#B3B276"/>
<stop offset="0.225" stop-color="#D2CD8A"/>
<stop offset="0.385" stop-color="#F5EDA7"/>
<stop offset="0.45" stop-color="#FDF6B1"/>
<stop offset="1" stop-color="#FCF7B1"/>
</linearGradient>
<linearGradient id="paint2_linear_767_102206" x1="126.236" y1="129.5" x2="141.736" y2="170" gradientUnits="userSpaceOnUse">
<stop stop-color="#B1AE91" stop-opacity="0.77"/>
<stop offset="0.2" stop-color="#CBC68E" stop-opacity="0.81715"/>
<stop offset="1" stop-color="#DDDAB4"/>
</linearGradient>
<linearGradient id="paint3_linear_767_102206" x1="100.257" y1="128.9" x2="107.357" y2="155.55" gradientUnits="userSpaceOnUse">
<stop stop-color="#C62817"/>
<stop offset="0.38" stop-color="#B22415"/>
<stop offset="0.56" stop-color="#A51506"/>
<stop offset="0.765" stop-color="#C62817"/>
<stop offset="0.865" stop-color="#60130B"/>
<stop offset="0.975" stop-color="#60130B"/>
</linearGradient>
<linearGradient id="paint4_linear_767_102206" x1="145.332" y1="12.5545" x2="159.75" y2="30.75" gradientUnits="userSpaceOnUse">
<stop stop-color="#C62817"/>
<stop offset="0.53" stop-color="#B22415"/>
<stop offset="0.645" stop-color="#99180B"/>
<stop offset="0.72" stop-color="#C62817"/>
<stop offset="0.81" stop-color="#60130B"/>
<stop offset="0.975" stop-color="#60130B"/>
</linearGradient>
<linearGradient id="paint5_linear_767_102206" x1="28.55" y1="6.2" x2="11.9" y2="28" gradientUnits="userSpaceOnUse">
<stop stop-color="#C62817"/>
<stop offset="0.23" stop-color="#C62817"/>
<stop offset="0.38" stop-color="#B22415"/>
<stop offset="0.56" stop-color="#A51506"/>
<stop offset="0.765" stop-color="#C62817"/>
<stop offset="0.865" stop-color="#60130B"/>
<stop offset="0.975" stop-color="#60130B"/>
</linearGradient>
<linearGradient id="paint6_linear_767_102206" x1="15.55" y1="11.5" x2="23.95" y2="28.65" gradientUnits="userSpaceOnUse">
<stop stop-color="#C62817"/>
<stop offset="0.23" stop-color="#C62817"/>
<stop offset="0.38" stop-color="#B22415"/>
<stop offset="0.56" stop-color="#A51506"/>
<stop offset="0.765" stop-color="#C62817"/>
<stop offset="0.865" stop-color="#60130B"/>
<stop offset="0.975" stop-color="#60130B"/>
</linearGradient>
<radialGradient id="paint7_radial_767_102206" cx="0" cy="0" r="1" gradientUnits="userSpaceOnUse" gradientTransform="translate(20.225 17.1) rotate(127.371) scale(13.7155)">
<stop stop-color="#C62817"/>
<stop offset="0.23" stop-color="#C62817"/>
<stop offset="0.38" stop-color="#B22415"/>
<stop offset="0.56" stop-color="#A51506"/>
<stop offset="0.765" stop-color="#C62817"/>
<stop offset="0.865" stop-color="#60130B"/>
<stop offset="0.975" stop-color="#60130B"/>
</radialGradient>
<linearGradient id="paint8_linear_767_102206" x1="163.25" y1="29.55" x2="173.75" y2="49.75" gradientUnits="userSpaceOnUse">
<stop stop-color="#C62817"/>
<stop offset="0.38" stop-color="#B22415"/>
<stop offset="0.56" stop-color="#A51506"/>
<stop offset="0.765" stop-color="#C62817"/>
<stop offset="0.865" stop-color="#60130B"/>
<stop offset="0.975" stop-color="#60130B"/>
</linearGradient>
<clipPath id="clip0_767_102206">
<rect width="135.494" height="122.89" fill="white" transform="translate(20 28.377) rotate(-1.42821)"/>
</clipPath>
</defs>
</svg>
