<svg width="32" height="32" viewBox="0 0 32 32" fill="none" xmlns="https://www.w3.org/2000/svg">
<path fill-rule="evenodd" clip-rule="evenodd" d="M16.0103 4C9.2566 4 3.79688 9.49998 3.79688 16.3042C3.79688 21.7432 7.29511 26.3472 12.1481 27.9767C12.7548 28.0992 12.9771 27.7119 12.9771 27.3862C12.9771 27.1009 12.9571 26.1232 12.9571 25.1044C9.5596 25.8379 8.8521 23.6377 8.8521 23.6377C8.30611 22.2117 7.49711 21.8452 7.49711 21.8452C6.38511 21.0914 7.57811 21.0914 7.57811 21.0914C8.8116 21.1729 9.45885 22.3544 9.45885 22.3544C10.5506 24.2284 12.3098 23.6989 13.0176 23.3729C13.1186 22.5784 13.4423 22.0284 13.7861 21.7229C11.0763 21.4377 8.22536 20.3784 8.22536 15.6522C8.22536 14.3077 8.71035 13.2077 9.47885 12.3522C9.3576 12.0467 8.93285 10.7835 9.60035 9.09273C9.60035 9.09273 10.6316 8.76673 12.9568 10.3557C13.9524 10.0864 14.979 9.94938 16.0103 9.94823C17.0416 9.94823 18.0928 10.091 19.0636 10.3557C21.3891 8.76673 22.4203 9.09273 22.4203 9.09273C23.0878 10.7835 22.6628 12.0467 22.5415 12.3522C23.3303 13.2077 23.7953 14.3077 23.7953 15.6522C23.7953 20.3784 20.9443 21.4172 18.2143 21.7229C18.6593 22.1099 19.0433 22.8432 19.0433 24.0044C19.0433 25.6544 19.0233 26.9787 19.0233 27.3859C19.0233 27.7119 19.2458 28.0992 19.8523 27.9769C24.7053 26.3469 28.2035 21.7432 28.2035 16.3042C28.2235 9.49998 22.7438 4 16.0103 4Z" fill="#3D405B"/>
</svg>
