<svg width="124" height="132" viewBox="0 0 124 132" fill="none" xmlns="https://www.w3.org/2000/svg">
<path d="M0 0H44C79.3462 0 108 28.6538 108 64V108H0V0Z" fill="#81B29A" fill-opacity="0.7"/>
<path d="M24.667 34.1406C25.2193 34.1406 25.667 34.5883 25.667 35.1406V35.2394C25.667 35.7917 25.2193 36.2394 24.667 36.2394C24.1147 36.2394 23.667 35.7917 23.667 35.2394V35.1406C23.667 34.5883 24.1147 34.1406 24.667 34.1406Z" fill="#6A6A6A"/>
<path d="M24.667 39.1806C25.2193 39.1806 25.667 39.6283 25.667 40.1806V40.2794C25.667 40.8317 25.2193 41.2794 24.667 41.2794C24.1147 41.2794 23.667 40.8317 23.667 40.2794V40.1806C23.667 39.6283 24.1147 39.1806 24.667 39.1806Z" fill="#6A6A6A"/>
<path d="M24.667 44.2206C25.2193 44.2206 25.667 44.6683 25.667 45.2206V45.3195C25.667 45.8717 25.2193 46.3195 24.667 46.3195C24.1147 46.3195 23.667 45.8717 23.667 45.3195V45.2206C23.667 44.6683 24.1147 44.2206 24.667 44.2206Z" fill="#6A6A6A"/>
<path d="M24.667 49.2606C25.2193 49.2606 25.667 49.7083 25.667 50.2606V50.3595C25.667 50.9117 25.2193 51.3595 24.667 51.3595C24.1147 51.3595 23.667 50.9117 23.667 50.3595V50.2606C23.667 49.7083 24.1147 49.2606 24.667 49.2606Z" fill="#6A6A6A"/>
<path d="M24.667 54.3006C25.2193 54.3006 25.667 54.7483 25.667 55.3006V55.3995C25.667 55.9517 25.2193 56.3995 24.667 56.3995C24.1147 56.3995 23.667 55.9517 23.667 55.3995V55.3006C23.667 54.7483 24.1147 54.3006 24.667 54.3006Z" fill="#6A6A6A"/>
<path d="M24.667 59.3406C25.2193 59.3406 25.667 59.7883 25.667 60.3406V60.4395C25.667 60.9917 25.2193 61.4395 24.667 61.4395C24.1147 61.4395 23.667 60.9917 23.667 60.4395V60.3406C23.667 59.7883 24.1147 59.3406 24.667 59.3406Z" fill="#6A6A6A"/>
<path d="M24.667 64.3806C25.2193 64.3806 25.667 64.8283 25.667 65.3806V65.4795C25.667 66.0317 25.2193 66.4795 24.667 66.4795C24.1147 66.4795 23.667 66.0317 23.667 65.4795V65.3806C23.667 64.8283 24.1147 64.3806 24.667 64.3806Z" fill="#6A6A6A"/>
<path d="M24.667 69.4206C25.2193 69.4206 25.667 69.8683 25.667 70.4206V70.5195C25.667 71.0717 25.2193 71.5195 24.667 71.5195C24.1147 71.5195 23.667 71.0717 23.667 70.5195V70.4206C23.667 69.8683 24.1147 69.4206 24.667 69.4206Z" fill="#6A6A6A"/>
<path d="M24.667 74.4606C25.2193 74.4606 25.667 74.9083 25.667 75.4606V75.5595C25.667 76.1117 25.2193 76.5595 24.667 76.5595C24.1147 76.5595 23.667 76.1117 23.667 75.5595V75.4606C23.667 74.9083 24.1147 74.4606 24.667 74.4606Z" fill="#6A6A6A"/>
<path d="M24.667 79.5006C25.2193 79.5006 25.667 79.9483 25.667 80.5006V80.5995C25.667 81.1517 25.2193 81.5995 24.667 81.5995C24.1147 81.5995 23.667 81.1517 23.667 80.5995V80.5006C23.667 79.9483 24.1147 79.5006 24.667 79.5006Z" fill="#6A6A6A"/>
<path d="M24.667 84.5406C25.2193 84.5406 25.667 84.9883 25.667 85.5406V85.6395C25.667 86.1917 25.2193 86.6395 24.667 86.6395C24.1147 86.6395 23.667 86.1917 23.667 85.6395V85.5406C23.667 84.9883 24.1147 84.5406 24.667 84.5406Z" fill="#6A6A6A"/>
<path d="M24.667 89.5806C25.2193 89.5806 25.667 90.0284 25.667 90.5806V90.6795C25.667 91.2317 25.2193 91.6795 24.667 91.6795C24.1147 91.6795 23.667 91.2317 23.667 90.6795V90.5806C23.667 90.0284 24.1147 89.5806 24.667 89.5806Z" fill="#6A6A6A"/>
<path d="M24.667 94.6206C25.2193 94.6206 25.667 95.0684 25.667 95.6206V95.7195C25.667 96.2717 25.2193 96.7195 24.667 96.7195C24.1147 96.7195 23.667 96.2717 23.667 95.7195V95.6206C23.667 95.0684 24.1147 94.6206 24.667 94.6206Z" fill="#6A6A6A"/>
<path d="M24.667 99.6606C25.2193 99.6606 25.667 100.108 25.667 100.661V100.759C25.667 101.312 25.2193 101.759 24.667 101.759C24.1147 101.759 23.667 101.312 23.667 100.759V100.661C23.667 100.108 24.1147 99.6606 24.667 99.6606Z" fill="#6A6A6A"/>
<path d="M24.667 104.701C25.2193 104.701 25.667 105.148 25.667 105.701V105.799C25.667 106.352 25.2193 106.799 24.667 106.799C24.1147 106.799 23.667 106.352 23.667 105.799V105.701C23.667 105.148 24.1147 104.701 24.667 104.701Z" fill="#6A6A6A"/>
<path d="M24.667 109.741C25.2193 109.741 25.667 110.188 25.667 110.741V110.839C25.667 111.392 25.2193 111.839 24.667 111.839C24.1147 111.839 23.667 111.392 23.667 110.839V110.741C23.667 110.188 24.1147 109.741 24.667 109.741Z" fill="#6A6A6A"/>
<path d="M24.667 114.781C25.2193 114.781 25.667 115.228 25.667 115.781V115.879C25.667 116.432 25.2193 116.879 24.667 116.879C24.1147 116.879 23.667 116.432 23.667 115.879V115.781C23.667 115.228 24.1147 114.781 24.667 114.781Z" fill="#6A6A6A"/>
<path d="M24.667 119.821C25.2193 119.821 25.667 120.268 25.667 120.821V120.919C25.667 121.472 25.2193 121.919 24.667 121.919C24.1147 121.919 23.667 121.472 23.667 120.919V120.821C23.667 120.268 24.1147 119.821 24.667 119.821Z" fill="#6A6A6A"/>
<path d="M24.667 124.861C25.2193 124.861 25.667 125.308 25.667 125.861V125.959C25.667 126.512 25.2193 126.959 24.667 126.959C24.1147 126.959 23.667 126.512 23.667 125.959V125.861C23.667 125.308 24.1147 124.861 24.667 124.861Z" fill="#6A6A6A"/>
<path d="M24.667 129.901C25.2193 129.901 25.667 130.348 25.667 130.901V130.999C25.667 131.552 25.2193 131.999 24.667 131.999C24.1147 131.999 23.667 131.552 23.667 130.999V130.901C23.667 130.348 24.1147 129.901 24.667 129.901Z" fill="#6A6A6A"/>
<path d="M32.667 35.1406C32.667 34.5883 32.2193 34.1406 31.667 34.1406C31.1147 34.1406 30.667 34.5883 30.667 35.1406V35.2394C30.667 35.7917 31.1147 36.2394 31.667 36.2394C32.2193 36.2394 32.667 35.7917 32.667 35.2394V35.1406Z" fill="#6A6A6A"/>
<path d="M32.667 40.1806C32.667 39.6283 32.2193 39.1806 31.667 39.1806C31.1147 39.1806 30.667 39.6283 30.667 40.1806V40.2794C30.667 40.8317 31.1147 41.2794 31.667 41.2794C32.2193 41.2794 32.667 40.8317 32.667 40.2794V40.1806Z" fill="#6A6A6A"/>
<path d="M32.667 45.2206C32.667 44.6683 32.2193 44.2206 31.667 44.2206C31.1147 44.2206 30.667 44.6683 30.667 45.2206V45.3195C30.667 45.8717 31.1147 46.3195 31.667 46.3195C32.2193 46.3195 32.667 45.8717 32.667 45.3195V45.2206Z" fill="#6A6A6A"/>
<path d="M32.667 50.2606C32.667 49.7083 32.2193 49.2606 31.667 49.2606C31.1147 49.2606 30.667 49.7083 30.667 50.2606V50.3595C30.667 50.9117 31.1147 51.3595 31.667 51.3595C32.2193 51.3595 32.667 50.9117 32.667 50.3595V50.2606Z" fill="#6A6A6A"/>
<path d="M32.667 55.3006C32.667 54.7483 32.2193 54.3006 31.667 54.3006C31.1147 54.3006 30.667 54.7483 30.667 55.3006V55.3995C30.667 55.9517 31.1147 56.3995 31.667 56.3995C32.2193 56.3995 32.667 55.9517 32.667 55.3995V55.3006Z" fill="#6A6A6A"/>
<path d="M32.667 60.3406C32.667 59.7883 32.2193 59.3406 31.667 59.3406C31.1147 59.3406 30.667 59.7883 30.667 60.3406V60.4395C30.667 60.9917 31.1147 61.4395 31.667 61.4395C32.2193 61.4395 32.667 60.9917 32.667 60.4395V60.3406Z" fill="#6A6A6A"/>
<path d="M32.667 65.3806C32.667 64.8283 32.2193 64.3806 31.667 64.3806C31.1147 64.3806 30.667 64.8283 30.667 65.3806V65.4795C30.667 66.0317 31.1147 66.4795 31.667 66.4795C32.2193 66.4795 32.667 66.0317 32.667 65.4795V65.3806Z" fill="#6A6A6A"/>
<path d="M32.667 70.4206C32.667 69.8683 32.2193 69.4206 31.667 69.4206C31.1147 69.4206 30.667 69.8683 30.667 70.4206V70.5195C30.667 71.0717 31.1147 71.5195 31.667 71.5195C32.2193 71.5195 32.667 71.0717 32.667 70.5195V70.4206Z" fill="#6A6A6A"/>
<path d="M32.667 75.4606C32.667 74.9083 32.2193 74.4606 31.667 74.4606C31.1147 74.4606 30.667 74.9083 30.667 75.4606V75.5595C30.667 76.1117 31.1147 76.5595 31.667 76.5595C32.2193 76.5595 32.667 76.1117 32.667 75.5595V75.4606Z" fill="#6A6A6A"/>
<path d="M32.667 80.5006C32.667 79.9483 32.2193 79.5006 31.667 79.5006C31.1147 79.5006 30.667 79.9483 30.667 80.5006V80.5995C30.667 81.1517 31.1147 81.5995 31.667 81.5995C32.2193 81.5995 32.667 81.1517 32.667 80.5995V80.5006Z" fill="#6A6A6A"/>
<path d="M32.667 85.5406C32.667 84.9883 32.2193 84.5406 31.667 84.5406C31.1147 84.5406 30.667 84.9883 30.667 85.5406V85.6395C30.667 86.1917 31.1147 86.6395 31.667 86.6395C32.2193 86.6395 32.667 86.1917 32.667 85.6395V85.5406Z" fill="#6A6A6A"/>
<path d="M32.667 90.5806C32.667 90.0284 32.2193 89.5806 31.667 89.5806C31.1147 89.5806 30.667 90.0284 30.667 90.5806V90.6795C30.667 91.2317 31.1147 91.6795 31.667 91.6795C32.2193 91.6795 32.667 91.2317 32.667 90.6795V90.5806Z" fill="#6A6A6A"/>
<path d="M32.667 95.6206C32.667 95.0684 32.2193 94.6206 31.667 94.6206C31.1147 94.6206 30.667 95.0684 30.667 95.6206V95.7195C30.667 96.2717 31.1147 96.7195 31.667 96.7195C32.2193 96.7195 32.667 96.2717 32.667 95.7195V95.6206Z" fill="#6A6A6A"/>
<path d="M32.667 100.661C32.667 100.108 32.2193 99.6606 31.667 99.6606C31.1147 99.6606 30.667 100.108 30.667 100.661V100.759C30.667 101.312 31.1147 101.759 31.667 101.759C32.2193 101.759 32.667 101.312 32.667 100.759V100.661Z" fill="#6A6A6A"/>
<path d="M32.667 105.701C32.667 105.148 32.2193 104.701 31.667 104.701C31.1147 104.701 30.667 105.148 30.667 105.701V105.799C30.667 106.352 31.1147 106.799 31.667 106.799C32.2193 106.799 32.667 106.352 32.667 105.799V105.701Z" fill="#6A6A6A"/>
<path d="M32.667 110.741C32.667 110.188 32.2193 109.741 31.667 109.741C31.1147 109.741 30.667 110.188 30.667 110.741V110.839C30.667 111.392 31.1147 111.839 31.667 111.839C32.2193 111.839 32.667 111.392 32.667 110.839V110.741Z" fill="#6A6A6A"/>
<path d="M32.667 115.781C32.667 115.228 32.2193 114.781 31.667 114.781C31.1147 114.781 30.667 115.228 30.667 115.781V115.879C30.667 116.432 31.1147 116.879 31.667 116.879C32.2193 116.879 32.667 116.432 32.667 115.879V115.781Z" fill="#6A6A6A"/>
<path d="M32.667 120.821C32.667 120.268 32.2193 119.821 31.667 119.821C31.1147 119.821 30.667 120.268 30.667 120.821V120.919C30.667 121.472 31.1147 121.919 31.667 121.919C32.2193 121.919 32.667 121.472 32.667 120.919V120.821Z" fill="#6A6A6A"/>
<path d="M32.667 125.861C32.667 125.308 32.2193 124.861 31.667 124.861C31.1147 124.861 30.667 125.308 30.667 125.861V125.959C30.667 126.512 31.1147 126.959 31.667 126.959C32.2193 126.959 32.667 126.512 32.667 125.959V125.861Z" fill="#6A6A6A"/>
<path d="M32.667 130.901C32.667 130.348 32.2193 129.901 31.667 129.901C31.1147 129.901 30.667 130.348 30.667 130.901V130.999C30.667 131.552 31.1147 131.999 31.667 131.999C32.2193 131.999 32.667 131.552 32.667 130.999V130.901Z" fill="#6A6A6A"/>
<path d="M38.667 34.1406C39.2193 34.1406 39.667 34.5883 39.667 35.1406V35.2394C39.667 35.7917 39.2193 36.2394 38.667 36.2394C38.1147 36.2394 37.667 35.7917 37.667 35.2394V35.1406C37.667 34.5883 38.1147 34.1406 38.667 34.1406Z" fill="#6A6A6A"/>
<path d="M38.667 39.1806C39.2193 39.1806 39.667 39.6283 39.667 40.1806V40.2794C39.667 40.8317 39.2193 41.2794 38.667 41.2794C38.1147 41.2794 37.667 40.8317 37.667 40.2794V40.1806C37.667 39.6283 38.1147 39.1806 38.667 39.1806Z" fill="#6A6A6A"/>
<path d="M38.667 44.2206C39.2193 44.2206 39.667 44.6683 39.667 45.2206V45.3195C39.667 45.8717 39.2193 46.3195 38.667 46.3195C38.1147 46.3195 37.667 45.8717 37.667 45.3195V45.2206C37.667 44.6683 38.1147 44.2206 38.667 44.2206Z" fill="#6A6A6A"/>
<path d="M38.667 49.2606C39.2193 49.2606 39.667 49.7083 39.667 50.2606V50.3595C39.667 50.9117 39.2193 51.3595 38.667 51.3595C38.1147 51.3595 37.667 50.9117 37.667 50.3595V50.2606C37.667 49.7083 38.1147 49.2606 38.667 49.2606Z" fill="#6A6A6A"/>
<path d="M38.667 54.3006C39.2193 54.3006 39.667 54.7483 39.667 55.3006V55.3995C39.667 55.9517 39.2193 56.3995 38.667 56.3995C38.1147 56.3995 37.667 55.9517 37.667 55.3995V55.3006C37.667 54.7483 38.1147 54.3006 38.667 54.3006Z" fill="#6A6A6A"/>
<path d="M38.667 59.3406C39.2193 59.3406 39.667 59.7883 39.667 60.3406V60.4395C39.667 60.9917 39.2193 61.4395 38.667 61.4395C38.1147 61.4395 37.667 60.9917 37.667 60.4395V60.3406C37.667 59.7883 38.1147 59.3406 38.667 59.3406Z" fill="#6A6A6A"/>
<path d="M38.667 64.3806C39.2193 64.3806 39.667 64.8283 39.667 65.3806V65.4795C39.667 66.0317 39.2193 66.4795 38.667 66.4795C38.1147 66.4795 37.667 66.0317 37.667 65.4795V65.3806C37.667 64.8283 38.1147 64.3806 38.667 64.3806Z" fill="#6A6A6A"/>
<path d="M38.667 69.4206C39.2193 69.4206 39.667 69.8683 39.667 70.4206V70.5195C39.667 71.0717 39.2193 71.5195 38.667 71.5195C38.1147 71.5195 37.667 71.0717 37.667 70.5195V70.4206C37.667 69.8683 38.1147 69.4206 38.667 69.4206Z" fill="#6A6A6A"/>
<path d="M38.667 74.4606C39.2193 74.4606 39.667 74.9083 39.667 75.4606V75.5595C39.667 76.1117 39.2193 76.5595 38.667 76.5595C38.1147 76.5595 37.667 76.1117 37.667 75.5595V75.4606C37.667 74.9083 38.1147 74.4606 38.667 74.4606Z" fill="#6A6A6A"/>
<path d="M38.667 79.5006C39.2193 79.5006 39.667 79.9483 39.667 80.5006V80.5995C39.667 81.1517 39.2193 81.5995 38.667 81.5995C38.1147 81.5995 37.667 81.1517 37.667 80.5995V80.5006C37.667 79.9483 38.1147 79.5006 38.667 79.5006Z" fill="#6A6A6A"/>
<path d="M38.667 84.5406C39.2193 84.5406 39.667 84.9883 39.667 85.5406V85.6395C39.667 86.1917 39.2193 86.6395 38.667 86.6395C38.1147 86.6395 37.667 86.1917 37.667 85.6395V85.5406C37.667 84.9883 38.1147 84.5406 38.667 84.5406Z" fill="#6A6A6A"/>
<path d="M38.667 89.5806C39.2193 89.5806 39.667 90.0284 39.667 90.5806V90.6795C39.667 91.2317 39.2193 91.6795 38.667 91.6795C38.1147 91.6795 37.667 91.2317 37.667 90.6795V90.5806C37.667 90.0284 38.1147 89.5806 38.667 89.5806Z" fill="#6A6A6A"/>
<path d="M38.667 94.6206C39.2193 94.6206 39.667 95.0684 39.667 95.6206V95.7195C39.667 96.2717 39.2193 96.7195 38.667 96.7195C38.1147 96.7195 37.667 96.2717 37.667 95.7195V95.6206C37.667 95.0684 38.1147 94.6206 38.667 94.6206Z" fill="#6A6A6A"/>
<path d="M38.667 99.6606C39.2193 99.6606 39.667 100.108 39.667 100.661V100.759C39.667 101.312 39.2193 101.759 38.667 101.759C38.1147 101.759 37.667 101.312 37.667 100.759V100.661C37.667 100.108 38.1147 99.6606 38.667 99.6606Z" fill="#6A6A6A"/>
<path d="M38.667 104.701C39.2193 104.701 39.667 105.148 39.667 105.701V105.799C39.667 106.352 39.2193 106.799 38.667 106.799C38.1147 106.799 37.667 106.352 37.667 105.799V105.701C37.667 105.148 38.1147 104.701 38.667 104.701Z" fill="#6A6A6A"/>
<path d="M38.667 109.741C39.2193 109.741 39.667 110.188 39.667 110.741V110.839C39.667 111.392 39.2193 111.839 38.667 111.839C38.1147 111.839 37.667 111.392 37.667 110.839V110.741C37.667 110.188 38.1147 109.741 38.667 109.741Z" fill="#6A6A6A"/>
<path d="M38.667 114.781C39.2193 114.781 39.667 115.228 39.667 115.781V115.879C39.667 116.432 39.2193 116.879 38.667 116.879C38.1147 116.879 37.667 116.432 37.667 115.879V115.781C37.667 115.228 38.1147 114.781 38.667 114.781Z" fill="#6A6A6A"/>
<path d="M38.667 119.821C39.2193 119.821 39.667 120.268 39.667 120.821V120.919C39.667 121.472 39.2193 121.919 38.667 121.919C38.1147 121.919 37.667 121.472 37.667 120.919V120.821C37.667 120.268 38.1147 119.821 38.667 119.821Z" fill="#6A6A6A"/>
<path d="M38.667 124.861C39.2193 124.861 39.667 125.308 39.667 125.861V125.959C39.667 126.512 39.2193 126.959 38.667 126.959C38.1147 126.959 37.667 126.512 37.667 125.959V125.861C37.667 125.308 38.1147 124.861 38.667 124.861Z" fill="#6A6A6A"/>
<path d="M38.667 129.901C39.2193 129.901 39.667 130.348 39.667 130.901V130.999C39.667 131.552 39.2193 131.999 38.667 131.999C38.1147 131.999 37.667 131.552 37.667 130.999V130.901C37.667 130.348 38.1147 129.901 38.667 129.901Z" fill="#6A6A6A"/>
<path d="M46.667 35.1406C46.667 34.5883 46.2193 34.1406 45.667 34.1406C45.1147 34.1406 44.667 34.5883 44.667 35.1406V35.2394C44.667 35.7917 45.1147 36.2394 45.667 36.2394C46.2193 36.2394 46.667 35.7917 46.667 35.2394V35.1406Z" fill="#6A6A6A"/>
<path d="M46.667 40.1806C46.667 39.6283 46.2193 39.1806 45.667 39.1806C45.1147 39.1806 44.667 39.6283 44.667 40.1806V40.2794C44.667 40.8317 45.1147 41.2794 45.667 41.2794C46.2193 41.2794 46.667 40.8317 46.667 40.2794V40.1806Z" fill="#6A6A6A"/>
<path d="M46.667 45.2206C46.667 44.6683 46.2193 44.2206 45.667 44.2206C45.1147 44.2206 44.667 44.6683 44.667 45.2206V45.3195C44.667 45.8717 45.1147 46.3195 45.667 46.3195C46.2193 46.3195 46.667 45.8717 46.667 45.3195V45.2206Z" fill="#6A6A6A"/>
<path d="M46.667 50.2606C46.667 49.7083 46.2193 49.2606 45.667 49.2606C45.1147 49.2606 44.667 49.7083 44.667 50.2606V50.3595C44.667 50.9117 45.1147 51.3595 45.667 51.3595C46.2193 51.3595 46.667 50.9117 46.667 50.3595V50.2606Z" fill="#6A6A6A"/>
<path d="M46.667 55.3006C46.667 54.7483 46.2193 54.3006 45.667 54.3006C45.1147 54.3006 44.667 54.7483 44.667 55.3006V55.3995C44.667 55.9517 45.1147 56.3995 45.667 56.3995C46.2193 56.3995 46.667 55.9517 46.667 55.3995V55.3006Z" fill="#6A6A6A"/>
<path d="M46.667 60.3406C46.667 59.7883 46.2193 59.3406 45.667 59.3406C45.1147 59.3406 44.667 59.7883 44.667 60.3406V60.4395C44.667 60.9917 45.1147 61.4395 45.667 61.4395C46.2193 61.4395 46.667 60.9917 46.667 60.4395V60.3406Z" fill="#6A6A6A"/>
<path d="M46.667 65.3806C46.667 64.8283 46.2193 64.3806 45.667 64.3806C45.1147 64.3806 44.667 64.8283 44.667 65.3806V65.4795C44.667 66.0317 45.1147 66.4795 45.667 66.4795C46.2193 66.4795 46.667 66.0317 46.667 65.4795V65.3806Z" fill="#6A6A6A"/>
<path d="M46.667 70.4206C46.667 69.8683 46.2193 69.4206 45.667 69.4206C45.1147 69.4206 44.667 69.8683 44.667 70.4206V70.5195C44.667 71.0717 45.1147 71.5195 45.667 71.5195C46.2193 71.5195 46.667 71.0717 46.667 70.5195V70.4206Z" fill="#6A6A6A"/>
<path d="M46.667 75.4606C46.667 74.9083 46.2193 74.4606 45.667 74.4606C45.1147 74.4606 44.667 74.9083 44.667 75.4606V75.5595C44.667 76.1117 45.1147 76.5595 45.667 76.5595C46.2193 76.5595 46.667 76.1117 46.667 75.5595V75.4606Z" fill="#6A6A6A"/>
<path d="M46.667 80.5006C46.667 79.9483 46.2193 79.5006 45.667 79.5006C45.1147 79.5006 44.667 79.9483 44.667 80.5006V80.5995C44.667 81.1517 45.1147 81.5995 45.667 81.5995C46.2193 81.5995 46.667 81.1517 46.667 80.5995V80.5006Z" fill="#6A6A6A"/>
<path d="M46.667 85.5406C46.667 84.9883 46.2193 84.5406 45.667 84.5406C45.1147 84.5406 44.667 84.9883 44.667 85.5406V85.6395C44.667 86.1917 45.1147 86.6395 45.667 86.6395C46.2193 86.6395 46.667 86.1917 46.667 85.6395V85.5406Z" fill="#6A6A6A"/>
<path d="M46.667 90.5806C46.667 90.0284 46.2193 89.5806 45.667 89.5806C45.1147 89.5806 44.667 90.0284 44.667 90.5806V90.6795C44.667 91.2317 45.1147 91.6795 45.667 91.6795C46.2193 91.6795 46.667 91.2317 46.667 90.6795V90.5806Z" fill="#6A6A6A"/>
<path d="M46.667 95.6206C46.667 95.0684 46.2193 94.6206 45.667 94.6206C45.1147 94.6206 44.667 95.0684 44.667 95.6206V95.7195C44.667 96.2717 45.1147 96.7195 45.667 96.7195C46.2193 96.7195 46.667 96.2717 46.667 95.7195V95.6206Z" fill="#6A6A6A"/>
<path d="M46.667 100.661C46.667 100.108 46.2193 99.6606 45.667 99.6606C45.1147 99.6606 44.667 100.108 44.667 100.661V100.759C44.667 101.312 45.1147 101.759 45.667 101.759C46.2193 101.759 46.667 101.312 46.667 100.759V100.661Z" fill="#6A6A6A"/>
<path d="M46.667 105.701C46.667 105.148 46.2193 104.701 45.667 104.701C45.1147 104.701 44.667 105.148 44.667 105.701V105.799C44.667 106.352 45.1147 106.799 45.667 106.799C46.2193 106.799 46.667 106.352 46.667 105.799V105.701Z" fill="#6A6A6A"/>
<path d="M46.667 110.741C46.667 110.188 46.2193 109.741 45.667 109.741C45.1147 109.741 44.667 110.188 44.667 110.741V110.839C44.667 111.392 45.1147 111.839 45.667 111.839C46.2193 111.839 46.667 111.392 46.667 110.839V110.741Z" fill="#6A6A6A"/>
<path d="M46.667 115.781C46.667 115.228 46.2193 114.781 45.667 114.781C45.1147 114.781 44.667 115.228 44.667 115.781V115.879C44.667 116.432 45.1147 116.879 45.667 116.879C46.2193 116.879 46.667 116.432 46.667 115.879V115.781Z" fill="#6A6A6A"/>
<path d="M46.667 120.821C46.667 120.268 46.2193 119.821 45.667 119.821C45.1147 119.821 44.667 120.268 44.667 120.821V120.919C44.667 121.472 45.1147 121.919 45.667 121.919C46.2193 121.919 46.667 121.472 46.667 120.919V120.821Z" fill="#6A6A6A"/>
<path d="M46.667 125.861C46.667 125.308 46.2193 124.861 45.667 124.861C45.1147 124.861 44.667 125.308 44.667 125.861V125.959C44.667 126.512 45.1147 126.959 45.667 126.959C46.2193 126.959 46.667 126.512 46.667 125.959V125.861Z" fill="#6A6A6A"/>
<path d="M46.667 130.901C46.667 130.348 46.2193 129.901 45.667 129.901C45.1147 129.901 44.667 130.348 44.667 130.901V130.999C44.667 131.552 45.1147 131.999 45.667 131.999C46.2193 131.999 46.667 131.552 46.667 130.999V130.901Z" fill="#6A6A6A"/>
<path d="M52.667 34.1406C53.2193 34.1406 53.667 34.5883 53.667 35.1406V35.2394C53.667 35.7917 53.2193 36.2394 52.667 36.2394C52.1147 36.2394 51.667 35.7917 51.667 35.2394V35.1406C51.667 34.5883 52.1147 34.1406 52.667 34.1406Z" fill="#6A6A6A"/>
<path d="M52.667 39.1806C53.2193 39.1806 53.667 39.6283 53.667 40.1806V40.2794C53.667 40.8317 53.2193 41.2794 52.667 41.2794C52.1147 41.2794 51.667 40.8317 51.667 40.2794V40.1806C51.667 39.6283 52.1147 39.1806 52.667 39.1806Z" fill="#6A6A6A"/>
<path d="M52.667 44.2206C53.2193 44.2206 53.667 44.6683 53.667 45.2206V45.3195C53.667 45.8717 53.2193 46.3195 52.667 46.3195C52.1147 46.3195 51.667 45.8717 51.667 45.3195V45.2206C51.667 44.6683 52.1147 44.2206 52.667 44.2206Z" fill="#6A6A6A"/>
<path d="M52.667 49.2606C53.2193 49.2606 53.667 49.7083 53.667 50.2606V50.3595C53.667 50.9117 53.2193 51.3595 52.667 51.3595C52.1147 51.3595 51.667 50.9117 51.667 50.3595V50.2606C51.667 49.7083 52.1147 49.2606 52.667 49.2606Z" fill="#6A6A6A"/>
<path d="M52.667 54.3006C53.2193 54.3006 53.667 54.7483 53.667 55.3006V55.3995C53.667 55.9517 53.2193 56.3995 52.667 56.3995C52.1147 56.3995 51.667 55.9517 51.667 55.3995V55.3006C51.667 54.7483 52.1147 54.3006 52.667 54.3006Z" fill="#6A6A6A"/>
<path d="M52.667 59.3406C53.2193 59.3406 53.667 59.7883 53.667 60.3406V60.4395C53.667 60.9917 53.2193 61.4395 52.667 61.4395C52.1147 61.4395 51.667 60.9917 51.667 60.4395V60.3406C51.667 59.7883 52.1147 59.3406 52.667 59.3406Z" fill="#6A6A6A"/>
<path d="M52.667 64.3806C53.2193 64.3806 53.667 64.8283 53.667 65.3806V65.4795C53.667 66.0317 53.2193 66.4795 52.667 66.4795C52.1147 66.4795 51.667 66.0317 51.667 65.4795V65.3806C51.667 64.8283 52.1147 64.3806 52.667 64.3806Z" fill="#6A6A6A"/>
<path d="M52.667 69.4206C53.2193 69.4206 53.667 69.8683 53.667 70.4206V70.5195C53.667 71.0717 53.2193 71.5195 52.667 71.5195C52.1147 71.5195 51.667 71.0717 51.667 70.5195V70.4206C51.667 69.8683 52.1147 69.4206 52.667 69.4206Z" fill="#6A6A6A"/>
<path d="M52.667 74.4606C53.2193 74.4606 53.667 74.9083 53.667 75.4606V75.5595C53.667 76.1117 53.2193 76.5595 52.667 76.5595C52.1147 76.5595 51.667 76.1117 51.667 75.5595V75.4606C51.667 74.9083 52.1147 74.4606 52.667 74.4606Z" fill="#6A6A6A"/>
<path d="M52.667 79.5006C53.2193 79.5006 53.667 79.9483 53.667 80.5006V80.5995C53.667 81.1517 53.2193 81.5995 52.667 81.5995C52.1147 81.5995 51.667 81.1517 51.667 80.5995V80.5006C51.667 79.9483 52.1147 79.5006 52.667 79.5006Z" fill="#6A6A6A"/>
<path d="M52.667 84.5406C53.2193 84.5406 53.667 84.9883 53.667 85.5406V85.6395C53.667 86.1917 53.2193 86.6395 52.667 86.6395C52.1147 86.6395 51.667 86.1917 51.667 85.6395V85.5406C51.667 84.9883 52.1147 84.5406 52.667 84.5406Z" fill="#6A6A6A"/>
<path d="M52.667 89.5806C53.2193 89.5806 53.667 90.0284 53.667 90.5806V90.6795C53.667 91.2317 53.2193 91.6795 52.667 91.6795C52.1147 91.6795 51.667 91.2317 51.667 90.6795V90.5806C51.667 90.0284 52.1147 89.5806 52.667 89.5806Z" fill="#6A6A6A"/>
<path d="M52.667 94.6206C53.2193 94.6206 53.667 95.0684 53.667 95.6206V95.7195C53.667 96.2717 53.2193 96.7195 52.667 96.7195C52.1147 96.7195 51.667 96.2717 51.667 95.7195V95.6206C51.667 95.0684 52.1147 94.6206 52.667 94.6206Z" fill="#6A6A6A"/>
<path d="M52.667 99.6606C53.2193 99.6606 53.667 100.108 53.667 100.661V100.759C53.667 101.312 53.2193 101.759 52.667 101.759C52.1147 101.759 51.667 101.312 51.667 100.759V100.661C51.667 100.108 52.1147 99.6606 52.667 99.6606Z" fill="#6A6A6A"/>
<path d="M52.667 104.701C53.2193 104.701 53.667 105.148 53.667 105.701V105.799C53.667 106.352 53.2193 106.799 52.667 106.799C52.1147 106.799 51.667 106.352 51.667 105.799V105.701C51.667 105.148 52.1147 104.701 52.667 104.701Z" fill="#6A6A6A"/>
<path d="M52.667 109.741C53.2193 109.741 53.667 110.188 53.667 110.741V110.839C53.667 111.392 53.2193 111.839 52.667 111.839C52.1147 111.839 51.667 111.392 51.667 110.839V110.741C51.667 110.188 52.1147 109.741 52.667 109.741Z" fill="#6A6A6A"/>
<path d="M52.667 114.781C53.2193 114.781 53.667 115.228 53.667 115.781V115.879C53.667 116.432 53.2193 116.879 52.667 116.879C52.1147 116.879 51.667 116.432 51.667 115.879V115.781C51.667 115.228 52.1147 114.781 52.667 114.781Z" fill="#6A6A6A"/>
<path d="M52.667 119.821C53.2193 119.821 53.667 120.268 53.667 120.821V120.919C53.667 121.472 53.2193 121.919 52.667 121.919C52.1147 121.919 51.667 121.472 51.667 120.919V120.821C51.667 120.268 52.1147 119.821 52.667 119.821Z" fill="#6A6A6A"/>
<path d="M52.667 124.861C53.2193 124.861 53.667 125.308 53.667 125.861V125.959C53.667 126.512 53.2193 126.959 52.667 126.959C52.1147 126.959 51.667 126.512 51.667 125.959V125.861C51.667 125.308 52.1147 124.861 52.667 124.861Z" fill="#6A6A6A"/>
<path d="M52.667 129.901C53.2193 129.901 53.667 130.348 53.667 130.901V130.999C53.667 131.552 53.2193 131.999 52.667 131.999C52.1147 131.999 51.667 131.552 51.667 130.999V130.901C51.667 130.348 52.1147 129.901 52.667 129.901Z" fill="#6A6A6A"/>
<path d="M60.667 35.1406C60.667 34.5883 60.2193 34.1406 59.667 34.1406C59.1147 34.1406 58.667 34.5883 58.667 35.1406V35.2394C58.667 35.7917 59.1147 36.2394 59.667 36.2394C60.2193 36.2394 60.667 35.7917 60.667 35.2394V35.1406Z" fill="#6A6A6A"/>
<path d="M60.667 40.1806C60.667 39.6283 60.2193 39.1806 59.667 39.1806C59.1147 39.1806 58.667 39.6283 58.667 40.1806V40.2794C58.667 40.8317 59.1147 41.2794 59.667 41.2794C60.2193 41.2794 60.667 40.8317 60.667 40.2794V40.1806Z" fill="#6A6A6A"/>
<path d="M60.667 45.2206C60.667 44.6683 60.2193 44.2206 59.667 44.2206C59.1147 44.2206 58.667 44.6683 58.667 45.2206V45.3195C58.667 45.8717 59.1147 46.3195 59.667 46.3195C60.2193 46.3195 60.667 45.8717 60.667 45.3195V45.2206Z" fill="#6A6A6A"/>
<path d="M60.667 50.2606C60.667 49.7083 60.2193 49.2606 59.667 49.2606C59.1147 49.2606 58.667 49.7083 58.667 50.2606V50.3595C58.667 50.9117 59.1147 51.3595 59.667 51.3595C60.2193 51.3595 60.667 50.9117 60.667 50.3595V50.2606Z" fill="#6A6A6A"/>
<path d="M60.667 55.3006C60.667 54.7483 60.2193 54.3006 59.667 54.3006C59.1147 54.3006 58.667 54.7483 58.667 55.3006V55.3995C58.667 55.9517 59.1147 56.3995 59.667 56.3995C60.2193 56.3995 60.667 55.9517 60.667 55.3995V55.3006Z" fill="#6A6A6A"/>
<path d="M60.667 60.3406C60.667 59.7883 60.2193 59.3406 59.667 59.3406C59.1147 59.3406 58.667 59.7883 58.667 60.3406V60.4395C58.667 60.9917 59.1147 61.4395 59.667 61.4395C60.2193 61.4395 60.667 60.9917 60.667 60.4395V60.3406Z" fill="#6A6A6A"/>
<path d="M60.667 65.3806C60.667 64.8283 60.2193 64.3806 59.667 64.3806C59.1147 64.3806 58.667 64.8283 58.667 65.3806V65.4795C58.667 66.0317 59.1147 66.4795 59.667 66.4795C60.2193 66.4795 60.667 66.0317 60.667 65.4795V65.3806Z" fill="#6A6A6A"/>
<path d="M60.667 70.4206C60.667 69.8683 60.2193 69.4206 59.667 69.4206C59.1147 69.4206 58.667 69.8683 58.667 70.4206V70.5195C58.667 71.0717 59.1147 71.5195 59.667 71.5195C60.2193 71.5195 60.667 71.0717 60.667 70.5195V70.4206Z" fill="#6A6A6A"/>
<path d="M60.667 75.4606C60.667 74.9083 60.2193 74.4606 59.667 74.4606C59.1147 74.4606 58.667 74.9083 58.667 75.4606V75.5595C58.667 76.1117 59.1147 76.5595 59.667 76.5595C60.2193 76.5595 60.667 76.1117 60.667 75.5595V75.4606Z" fill="#6A6A6A"/>
<path d="M60.667 80.5006C60.667 79.9483 60.2193 79.5006 59.667 79.5006C59.1147 79.5006 58.667 79.9483 58.667 80.5006V80.5995C58.667 81.1517 59.1147 81.5995 59.667 81.5995C60.2193 81.5995 60.667 81.1517 60.667 80.5995V80.5006Z" fill="#6A6A6A"/>
<path d="M60.667 85.5406C60.667 84.9883 60.2193 84.5406 59.667 84.5406C59.1147 84.5406 58.667 84.9883 58.667 85.5406V85.6395C58.667 86.1917 59.1147 86.6395 59.667 86.6395C60.2193 86.6395 60.667 86.1917 60.667 85.6395V85.5406Z" fill="#6A6A6A"/>
<path d="M60.667 90.5806C60.667 90.0284 60.2193 89.5806 59.667 89.5806C59.1147 89.5806 58.667 90.0284 58.667 90.5806V90.6795C58.667 91.2317 59.1147 91.6795 59.667 91.6795C60.2193 91.6795 60.667 91.2317 60.667 90.6795V90.5806Z" fill="#6A6A6A"/>
<path d="M60.667 95.6206C60.667 95.0684 60.2193 94.6206 59.667 94.6206C59.1147 94.6206 58.667 95.0684 58.667 95.6206V95.7195C58.667 96.2717 59.1147 96.7195 59.667 96.7195C60.2193 96.7195 60.667 96.2717 60.667 95.7195V95.6206Z" fill="#6A6A6A"/>
<path d="M60.667 100.661C60.667 100.108 60.2193 99.6606 59.667 99.6606C59.1147 99.6606 58.667 100.108 58.667 100.661V100.759C58.667 101.312 59.1147 101.759 59.667 101.759C60.2193 101.759 60.667 101.312 60.667 100.759V100.661Z" fill="#6A6A6A"/>
<path d="M60.667 105.701C60.667 105.148 60.2193 104.701 59.667 104.701C59.1147 104.701 58.667 105.148 58.667 105.701V105.799C58.667 106.352 59.1147 106.799 59.667 106.799C60.2193 106.799 60.667 106.352 60.667 105.799V105.701Z" fill="#6A6A6A"/>
<path d="M60.667 110.741C60.667 110.188 60.2193 109.741 59.667 109.741C59.1147 109.741 58.667 110.188 58.667 110.741V110.839C58.667 111.392 59.1147 111.839 59.667 111.839C60.2193 111.839 60.667 111.392 60.667 110.839V110.741Z" fill="#6A6A6A"/>
<path d="M60.667 115.781C60.667 115.228 60.2193 114.781 59.667 114.781C59.1147 114.781 58.667 115.228 58.667 115.781V115.879C58.667 116.432 59.1147 116.879 59.667 116.879C60.2193 116.879 60.667 116.432 60.667 115.879V115.781Z" fill="#6A6A6A"/>
<path d="M60.667 120.821C60.667 120.268 60.2193 119.821 59.667 119.821C59.1147 119.821 58.667 120.268 58.667 120.821V120.919C58.667 121.472 59.1147 121.919 59.667 121.919C60.2193 121.919 60.667 121.472 60.667 120.919V120.821Z" fill="#6A6A6A"/>
<path d="M60.667 125.861C60.667 125.308 60.2193 124.861 59.667 124.861C59.1147 124.861 58.667 125.308 58.667 125.861V125.959C58.667 126.512 59.1147 126.959 59.667 126.959C60.2193 126.959 60.667 126.512 60.667 125.959V125.861Z" fill="#6A6A6A"/>
<path d="M60.667 130.901C60.667 130.348 60.2193 129.901 59.667 129.901C59.1147 129.901 58.667 130.348 58.667 130.901V130.999C58.667 131.552 59.1147 131.999 59.667 131.999C60.2193 131.999 60.667 131.552 60.667 130.999V130.901Z" fill="#6A6A6A"/>
<path d="M66.667 34.1406C67.2193 34.1406 67.667 34.5883 67.667 35.1406V35.2394C67.667 35.7917 67.2193 36.2394 66.667 36.2394C66.1147 36.2394 65.667 35.7917 65.667 35.2394V35.1406C65.667 34.5883 66.1147 34.1406 66.667 34.1406Z" fill="#6A6A6A"/>
<path d="M66.667 39.1806C67.2193 39.1806 67.667 39.6283 67.667 40.1806V40.2794C67.667 40.8317 67.2193 41.2794 66.667 41.2794C66.1147 41.2794 65.667 40.8317 65.667 40.2794V40.1806C65.667 39.6283 66.1147 39.1806 66.667 39.1806Z" fill="#6A6A6A"/>
<path d="M66.667 44.2206C67.2193 44.2206 67.667 44.6683 67.667 45.2206V45.3195C67.667 45.8717 67.2193 46.3195 66.667 46.3195C66.1147 46.3195 65.667 45.8717 65.667 45.3195V45.2206C65.667 44.6683 66.1147 44.2206 66.667 44.2206Z" fill="#6A6A6A"/>
<path d="M66.667 49.2606C67.2193 49.2606 67.667 49.7083 67.667 50.2606V50.3595C67.667 50.9117 67.2193 51.3595 66.667 51.3595C66.1147 51.3595 65.667 50.9117 65.667 50.3595V50.2606C65.667 49.7083 66.1147 49.2606 66.667 49.2606Z" fill="#6A6A6A"/>
<path d="M66.667 54.3006C67.2193 54.3006 67.667 54.7483 67.667 55.3006V55.3995C67.667 55.9517 67.2193 56.3995 66.667 56.3995C66.1147 56.3995 65.667 55.9517 65.667 55.3995V55.3006C65.667 54.7483 66.1147 54.3006 66.667 54.3006Z" fill="#6A6A6A"/>
<path d="M66.667 59.3406C67.2193 59.3406 67.667 59.7883 67.667 60.3406V60.4395C67.667 60.9917 67.2193 61.4395 66.667 61.4395C66.1147 61.4395 65.667 60.9917 65.667 60.4395V60.3406C65.667 59.7883 66.1147 59.3406 66.667 59.3406Z" fill="#6A6A6A"/>
<path d="M66.667 64.3806C67.2193 64.3806 67.667 64.8283 67.667 65.3806V65.4795C67.667 66.0317 67.2193 66.4795 66.667 66.4795C66.1147 66.4795 65.667 66.0317 65.667 65.4795V65.3806C65.667 64.8283 66.1147 64.3806 66.667 64.3806Z" fill="#6A6A6A"/>
<path d="M66.667 69.4206C67.2193 69.4206 67.667 69.8683 67.667 70.4206V70.5195C67.667 71.0717 67.2193 71.5195 66.667 71.5195C66.1147 71.5195 65.667 71.0717 65.667 70.5195V70.4206C65.667 69.8683 66.1147 69.4206 66.667 69.4206Z" fill="#6A6A6A"/>
<path d="M66.667 74.4606C67.2193 74.4606 67.667 74.9083 67.667 75.4606V75.5595C67.667 76.1117 67.2193 76.5595 66.667 76.5595C66.1147 76.5595 65.667 76.1117 65.667 75.5595V75.4606C65.667 74.9083 66.1147 74.4606 66.667 74.4606Z" fill="#6A6A6A"/>
<path d="M66.667 79.5006C67.2193 79.5006 67.667 79.9483 67.667 80.5006V80.5995C67.667 81.1517 67.2193 81.5995 66.667 81.5995C66.1147 81.5995 65.667 81.1517 65.667 80.5995V80.5006C65.667 79.9483 66.1147 79.5006 66.667 79.5006Z" fill="#6A6A6A"/>
<path d="M66.667 84.5406C67.2193 84.5406 67.667 84.9883 67.667 85.5406V85.6395C67.667 86.1917 67.2193 86.6395 66.667 86.6395C66.1147 86.6395 65.667 86.1917 65.667 85.6395V85.5406C65.667 84.9883 66.1147 84.5406 66.667 84.5406Z" fill="#6A6A6A"/>
<path d="M66.667 89.5806C67.2193 89.5806 67.667 90.0284 67.667 90.5806V90.6795C67.667 91.2317 67.2193 91.6795 66.667 91.6795C66.1147 91.6795 65.667 91.2317 65.667 90.6795V90.5806C65.667 90.0284 66.1147 89.5806 66.667 89.5806Z" fill="#6A6A6A"/>
<path d="M66.667 94.6206C67.2193 94.6206 67.667 95.0684 67.667 95.6206V95.7195C67.667 96.2717 67.2193 96.7195 66.667 96.7195C66.1147 96.7195 65.667 96.2717 65.667 95.7195V95.6206C65.667 95.0684 66.1147 94.6206 66.667 94.6206Z" fill="#6A6A6A"/>
<path d="M66.667 99.6606C67.2193 99.6606 67.667 100.108 67.667 100.661V100.759C67.667 101.312 67.2193 101.759 66.667 101.759C66.1147 101.759 65.667 101.312 65.667 100.759V100.661C65.667 100.108 66.1147 99.6606 66.667 99.6606Z" fill="#6A6A6A"/>
<path d="M66.667 104.701C67.2193 104.701 67.667 105.148 67.667 105.701V105.799C67.667 106.352 67.2193 106.799 66.667 106.799C66.1147 106.799 65.667 106.352 65.667 105.799V105.701C65.667 105.148 66.1147 104.701 66.667 104.701Z" fill="#6A6A6A"/>
<path d="M66.667 109.741C67.2193 109.741 67.667 110.188 67.667 110.741V110.839C67.667 111.392 67.2193 111.839 66.667 111.839C66.1147 111.839 65.667 111.392 65.667 110.839V110.741C65.667 110.188 66.1147 109.741 66.667 109.741Z" fill="#6A6A6A"/>
<path d="M66.667 114.781C67.2193 114.781 67.667 115.228 67.667 115.781V115.879C67.667 116.432 67.2193 116.879 66.667 116.879C66.1147 116.879 65.667 116.432 65.667 115.879V115.781C65.667 115.228 66.1147 114.781 66.667 114.781Z" fill="#6A6A6A"/>
<path d="M66.667 119.821C67.2193 119.821 67.667 120.268 67.667 120.821V120.919C67.667 121.472 67.2193 121.919 66.667 121.919C66.1147 121.919 65.667 121.472 65.667 120.919V120.821C65.667 120.268 66.1147 119.821 66.667 119.821Z" fill="#6A6A6A"/>
<path d="M66.667 124.861C67.2193 124.861 67.667 125.308 67.667 125.861V125.959C67.667 126.512 67.2193 126.959 66.667 126.959C66.1147 126.959 65.667 126.512 65.667 125.959V125.861C65.667 125.308 66.1147 124.861 66.667 124.861Z" fill="#6A6A6A"/>
<path d="M66.667 129.901C67.2193 129.901 67.667 130.348 67.667 130.901V130.999C67.667 131.552 67.2193 131.999 66.667 131.999C66.1147 131.999 65.667 131.552 65.667 130.999V130.901C65.667 130.348 66.1147 129.901 66.667 129.901Z" fill="#6A6A6A"/>
<path d="M74.667 35.1406C74.667 34.5883 74.2193 34.1406 73.667 34.1406C73.1147 34.1406 72.667 34.5883 72.667 35.1406V35.2394C72.667 35.7917 73.1147 36.2394 73.667 36.2394C74.2193 36.2394 74.667 35.7917 74.667 35.2394V35.1406Z" fill="#6A6A6A"/>
<path d="M74.667 40.1806C74.667 39.6283 74.2193 39.1806 73.667 39.1806C73.1147 39.1806 72.667 39.6283 72.667 40.1806V40.2794C72.667 40.8317 73.1147 41.2794 73.667 41.2794C74.2193 41.2794 74.667 40.8317 74.667 40.2794V40.1806Z" fill="#6A6A6A"/>
<path d="M74.667 45.2206C74.667 44.6683 74.2193 44.2206 73.667 44.2206C73.1147 44.2206 72.667 44.6683 72.667 45.2206V45.3195C72.667 45.8717 73.1147 46.3195 73.667 46.3195C74.2193 46.3195 74.667 45.8717 74.667 45.3195V45.2206Z" fill="#6A6A6A"/>
<path d="M74.667 50.2606C74.667 49.7083 74.2193 49.2606 73.667 49.2606C73.1147 49.2606 72.667 49.7083 72.667 50.2606V50.3595C72.667 50.9117 73.1147 51.3595 73.667 51.3595C74.2193 51.3595 74.667 50.9117 74.667 50.3595V50.2606Z" fill="#6A6A6A"/>
<path d="M74.667 55.3006C74.667 54.7483 74.2193 54.3006 73.667 54.3006C73.1147 54.3006 72.667 54.7483 72.667 55.3006V55.3995C72.667 55.9517 73.1147 56.3995 73.667 56.3995C74.2193 56.3995 74.667 55.9517 74.667 55.3995V55.3006Z" fill="#6A6A6A"/>
<path d="M74.667 60.3406C74.667 59.7883 74.2193 59.3406 73.667 59.3406C73.1147 59.3406 72.667 59.7883 72.667 60.3406V60.4395C72.667 60.9917 73.1147 61.4395 73.667 61.4395C74.2193 61.4395 74.667 60.9917 74.667 60.4395V60.3406Z" fill="#6A6A6A"/>
<path d="M74.667 65.3806C74.667 64.8283 74.2193 64.3806 73.667 64.3806C73.1147 64.3806 72.667 64.8283 72.667 65.3806V65.4795C72.667 66.0317 73.1147 66.4795 73.667 66.4795C74.2193 66.4795 74.667 66.0317 74.667 65.4795V65.3806Z" fill="#6A6A6A"/>
<path d="M74.667 70.4206C74.667 69.8683 74.2193 69.4206 73.667 69.4206C73.1147 69.4206 72.667 69.8683 72.667 70.4206V70.5195C72.667 71.0717 73.1147 71.5195 73.667 71.5195C74.2193 71.5195 74.667 71.0717 74.667 70.5195V70.4206Z" fill="#6A6A6A"/>
<path d="M74.667 75.4606C74.667 74.9083 74.2193 74.4606 73.667 74.4606C73.1147 74.4606 72.667 74.9083 72.667 75.4606V75.5595C72.667 76.1117 73.1147 76.5595 73.667 76.5595C74.2193 76.5595 74.667 76.1117 74.667 75.5595V75.4606Z" fill="#6A6A6A"/>
<path d="M74.667 80.5006C74.667 79.9483 74.2193 79.5006 73.667 79.5006C73.1147 79.5006 72.667 79.9483 72.667 80.5006V80.5995C72.667 81.1517 73.1147 81.5995 73.667 81.5995C74.2193 81.5995 74.667 81.1517 74.667 80.5995V80.5006Z" fill="#6A6A6A"/>
<path d="M74.667 85.5406C74.667 84.9883 74.2193 84.5406 73.667 84.5406C73.1147 84.5406 72.667 84.9883 72.667 85.5406V85.6395C72.667 86.1917 73.1147 86.6395 73.667 86.6395C74.2193 86.6395 74.667 86.1917 74.667 85.6395V85.5406Z" fill="#6A6A6A"/>
<path d="M74.667 90.5806C74.667 90.0284 74.2193 89.5806 73.667 89.5806C73.1147 89.5806 72.667 90.0284 72.667 90.5806V90.6795C72.667 91.2317 73.1147 91.6795 73.667 91.6795C74.2193 91.6795 74.667 91.2317 74.667 90.6795V90.5806Z" fill="#6A6A6A"/>
<path d="M74.667 95.6206C74.667 95.0684 74.2193 94.6206 73.667 94.6206C73.1147 94.6206 72.667 95.0684 72.667 95.6206V95.7195C72.667 96.2717 73.1147 96.7195 73.667 96.7195C74.2193 96.7195 74.667 96.2717 74.667 95.7195V95.6206Z" fill="#6A6A6A"/>
<path d="M74.667 100.661C74.667 100.108 74.2193 99.6606 73.667 99.6606C73.1147 99.6606 72.667 100.108 72.667 100.661V100.759C72.667 101.312 73.1147 101.759 73.667 101.759C74.2193 101.759 74.667 101.312 74.667 100.759V100.661Z" fill="#6A6A6A"/>
<path d="M74.667 105.701C74.667 105.148 74.2193 104.701 73.667 104.701C73.1147 104.701 72.667 105.148 72.667 105.701V105.799C72.667 106.352 73.1147 106.799 73.667 106.799C74.2193 106.799 74.667 106.352 74.667 105.799V105.701Z" fill="#6A6A6A"/>
<path d="M74.667 110.741C74.667 110.188 74.2193 109.741 73.667 109.741C73.1147 109.741 72.667 110.188 72.667 110.741V110.839C72.667 111.392 73.1147 111.839 73.667 111.839C74.2193 111.839 74.667 111.392 74.667 110.839V110.741Z" fill="#6A6A6A"/>
<path d="M74.667 115.781C74.667 115.228 74.2193 114.781 73.667 114.781C73.1147 114.781 72.667 115.228 72.667 115.781V115.879C72.667 116.432 73.1147 116.879 73.667 116.879C74.2193 116.879 74.667 116.432 74.667 115.879V115.781Z" fill="#6A6A6A"/>
<path d="M74.667 120.821C74.667 120.268 74.2193 119.821 73.667 119.821C73.1147 119.821 72.667 120.268 72.667 120.821V120.919C72.667 121.472 73.1147 121.919 73.667 121.919C74.2193 121.919 74.667 121.472 74.667 120.919V120.821Z" fill="#6A6A6A"/>
<path d="M74.667 125.861C74.667 125.308 74.2193 124.861 73.667 124.861C73.1147 124.861 72.667 125.308 72.667 125.861V125.959C72.667 126.512 73.1147 126.959 73.667 126.959C74.2193 126.959 74.667 126.512 74.667 125.959V125.861Z" fill="#6A6A6A"/>
<path d="M74.667 130.901C74.667 130.348 74.2193 129.901 73.667 129.901C73.1147 129.901 72.667 130.348 72.667 130.901V130.999C72.667 131.552 73.1147 131.999 73.667 131.999C74.2193 131.999 74.667 131.552 74.667 130.999V130.901Z" fill="#6A6A6A"/>
<path d="M80.667 34.1406C81.2193 34.1406 81.667 34.5883 81.667 35.1406V35.2394C81.667 35.7917 81.2193 36.2394 80.667 36.2394C80.1147 36.2394 79.667 35.7917 79.667 35.2394V35.1406C79.667 34.5883 80.1147 34.1406 80.667 34.1406Z" fill="#6A6A6A"/>
<path d="M80.667 39.1806C81.2193 39.1806 81.667 39.6283 81.667 40.1806V40.2794C81.667 40.8317 81.2193 41.2794 80.667 41.2794C80.1147 41.2794 79.667 40.8317 79.667 40.2794V40.1806C79.667 39.6283 80.1147 39.1806 80.667 39.1806Z" fill="#6A6A6A"/>
<path d="M80.667 44.2206C81.2193 44.2206 81.667 44.6683 81.667 45.2206V45.3195C81.667 45.8717 81.2193 46.3195 80.667 46.3195C80.1147 46.3195 79.667 45.8717 79.667 45.3195V45.2206C79.667 44.6683 80.1147 44.2206 80.667 44.2206Z" fill="#6A6A6A"/>
<path d="M80.667 49.2606C81.2193 49.2606 81.667 49.7083 81.667 50.2606V50.3595C81.667 50.9117 81.2193 51.3595 80.667 51.3595C80.1147 51.3595 79.667 50.9117 79.667 50.3595V50.2606C79.667 49.7083 80.1147 49.2606 80.667 49.2606Z" fill="#6A6A6A"/>
<path d="M80.667 54.3006C81.2193 54.3006 81.667 54.7483 81.667 55.3006V55.3995C81.667 55.9517 81.2193 56.3995 80.667 56.3995C80.1147 56.3995 79.667 55.9517 79.667 55.3995V55.3006C79.667 54.7483 80.1147 54.3006 80.667 54.3006Z" fill="#6A6A6A"/>
<path d="M80.667 59.3406C81.2193 59.3406 81.667 59.7883 81.667 60.3406V60.4395C81.667 60.9917 81.2193 61.4395 80.667 61.4395C80.1147 61.4395 79.667 60.9917 79.667 60.4395V60.3406C79.667 59.7883 80.1147 59.3406 80.667 59.3406Z" fill="#6A6A6A"/>
<path d="M80.667 64.3806C81.2193 64.3806 81.667 64.8283 81.667 65.3806V65.4795C81.667 66.0317 81.2193 66.4795 80.667 66.4795C80.1147 66.4795 79.667 66.0317 79.667 65.4795V65.3806C79.667 64.8283 80.1147 64.3806 80.667 64.3806Z" fill="#6A6A6A"/>
<path d="M80.667 69.4206C81.2193 69.4206 81.667 69.8683 81.667 70.4206V70.5195C81.667 71.0717 81.2193 71.5195 80.667 71.5195C80.1147 71.5195 79.667 71.0717 79.667 70.5195V70.4206C79.667 69.8683 80.1147 69.4206 80.667 69.4206Z" fill="#6A6A6A"/>
<path d="M80.667 74.4606C81.2193 74.4606 81.667 74.9083 81.667 75.4606V75.5595C81.667 76.1117 81.2193 76.5595 80.667 76.5595C80.1147 76.5595 79.667 76.1117 79.667 75.5595V75.4606C79.667 74.9083 80.1147 74.4606 80.667 74.4606Z" fill="#6A6A6A"/>
<path d="M80.667 79.5006C81.2193 79.5006 81.667 79.9483 81.667 80.5006V80.5995C81.667 81.1517 81.2193 81.5995 80.667 81.5995C80.1147 81.5995 79.667 81.1517 79.667 80.5995V80.5006C79.667 79.9483 80.1147 79.5006 80.667 79.5006Z" fill="#6A6A6A"/>
<path d="M80.667 84.5406C81.2193 84.5406 81.667 84.9883 81.667 85.5406V85.6395C81.667 86.1917 81.2193 86.6395 80.667 86.6395C80.1147 86.6395 79.667 86.1917 79.667 85.6395V85.5406C79.667 84.9883 80.1147 84.5406 80.667 84.5406Z" fill="#6A6A6A"/>
<path d="M80.667 89.5806C81.2193 89.5806 81.667 90.0284 81.667 90.5806V90.6795C81.667 91.2317 81.2193 91.6795 80.667 91.6795C80.1147 91.6795 79.667 91.2317 79.667 90.6795V90.5806C79.667 90.0284 80.1147 89.5806 80.667 89.5806Z" fill="#6A6A6A"/>
<path d="M80.667 94.6206C81.2193 94.6206 81.667 95.0684 81.667 95.6206V95.7195C81.667 96.2717 81.2193 96.7195 80.667 96.7195C80.1147 96.7195 79.667 96.2717 79.667 95.7195V95.6206C79.667 95.0684 80.1147 94.6206 80.667 94.6206Z" fill="#6A6A6A"/>
<path d="M80.667 99.6606C81.2193 99.6606 81.667 100.108 81.667 100.661V100.759C81.667 101.312 81.2193 101.759 80.667 101.759C80.1147 101.759 79.667 101.312 79.667 100.759V100.661C79.667 100.108 80.1147 99.6606 80.667 99.6606Z" fill="#6A6A6A"/>
<path d="M80.667 104.701C81.2193 104.701 81.667 105.148 81.667 105.701V105.799C81.667 106.352 81.2193 106.799 80.667 106.799C80.1147 106.799 79.667 106.352 79.667 105.799V105.701C79.667 105.148 80.1147 104.701 80.667 104.701Z" fill="#6A6A6A"/>
<path d="M80.667 109.741C81.2193 109.741 81.667 110.188 81.667 110.741V110.839C81.667 111.392 81.2193 111.839 80.667 111.839C80.1147 111.839 79.667 111.392 79.667 110.839V110.741C79.667 110.188 80.1147 109.741 80.667 109.741Z" fill="#6A6A6A"/>
<path d="M80.667 114.781C81.2193 114.781 81.667 115.228 81.667 115.781V115.879C81.667 116.432 81.2193 116.879 80.667 116.879C80.1147 116.879 79.667 116.432 79.667 115.879V115.781C79.667 115.228 80.1147 114.781 80.667 114.781Z" fill="#6A6A6A"/>
<path d="M80.667 119.821C81.2193 119.821 81.667 120.268 81.667 120.821V120.919C81.667 121.472 81.2193 121.919 80.667 121.919C80.1147 121.919 79.667 121.472 79.667 120.919V120.821C79.667 120.268 80.1147 119.821 80.667 119.821Z" fill="#6A6A6A"/>
<path d="M80.667 124.861C81.2193 124.861 81.667 125.308 81.667 125.861V125.959C81.667 126.512 81.2193 126.959 80.667 126.959C80.1147 126.959 79.667 126.512 79.667 125.959V125.861C79.667 125.308 80.1147 124.861 80.667 124.861Z" fill="#6A6A6A"/>
<path d="M80.667 129.901C81.2193 129.901 81.667 130.348 81.667 130.901V130.999C81.667 131.552 81.2193 131.999 80.667 131.999C80.1147 131.999 79.667 131.552 79.667 130.999V130.901C79.667 130.348 80.1147 129.901 80.667 129.901Z" fill="#6A6A6A"/>
<path d="M88.667 35.1406C88.667 34.5883 88.2193 34.1406 87.667 34.1406C87.1147 34.1406 86.667 34.5883 86.667 35.1406V35.2394C86.667 35.7917 87.1147 36.2394 87.667 36.2394C88.2193 36.2394 88.667 35.7917 88.667 35.2394V35.1406Z" fill="#6A6A6A"/>
<path d="M88.667 40.1806C88.667 39.6283 88.2193 39.1806 87.667 39.1806C87.1147 39.1806 86.667 39.6283 86.667 40.1806V40.2794C86.667 40.8317 87.1147 41.2794 87.667 41.2794C88.2193 41.2794 88.667 40.8317 88.667 40.2794V40.1806Z" fill="#6A6A6A"/>
<path d="M88.667 45.2206C88.667 44.6683 88.2193 44.2206 87.667 44.2206C87.1147 44.2206 86.667 44.6683 86.667 45.2206V45.3195C86.667 45.8717 87.1147 46.3195 87.667 46.3195C88.2193 46.3195 88.667 45.8717 88.667 45.3195V45.2206Z" fill="#6A6A6A"/>
<path d="M88.667 50.2606C88.667 49.7083 88.2193 49.2606 87.667 49.2606C87.1147 49.2606 86.667 49.7083 86.667 50.2606V50.3595C86.667 50.9117 87.1147 51.3595 87.667 51.3595C88.2193 51.3595 88.667 50.9117 88.667 50.3595V50.2606Z" fill="#6A6A6A"/>
<path d="M88.667 55.3006C88.667 54.7483 88.2193 54.3006 87.667 54.3006C87.1147 54.3006 86.667 54.7483 86.667 55.3006V55.3995C86.667 55.9517 87.1147 56.3995 87.667 56.3995C88.2193 56.3995 88.667 55.9517 88.667 55.3995V55.3006Z" fill="#6A6A6A"/>
<path d="M88.667 60.3406C88.667 59.7883 88.2193 59.3406 87.667 59.3406C87.1147 59.3406 86.667 59.7883 86.667 60.3406V60.4395C86.667 60.9917 87.1147 61.4395 87.667 61.4395C88.2193 61.4395 88.667 60.9917 88.667 60.4395V60.3406Z" fill="#6A6A6A"/>
<path d="M88.667 65.3806C88.667 64.8283 88.2193 64.3806 87.667 64.3806C87.1147 64.3806 86.667 64.8283 86.667 65.3806V65.4795C86.667 66.0317 87.1147 66.4795 87.667 66.4795C88.2193 66.4795 88.667 66.0317 88.667 65.4795V65.3806Z" fill="#6A6A6A"/>
<path d="M88.667 70.4206C88.667 69.8683 88.2193 69.4206 87.667 69.4206C87.1147 69.4206 86.667 69.8683 86.667 70.4206V70.5195C86.667 71.0717 87.1147 71.5195 87.667 71.5195C88.2193 71.5195 88.667 71.0717 88.667 70.5195V70.4206Z" fill="#6A6A6A"/>
<path d="M88.667 75.4606C88.667 74.9083 88.2193 74.4606 87.667 74.4606C87.1147 74.4606 86.667 74.9083 86.667 75.4606V75.5595C86.667 76.1117 87.1147 76.5595 87.667 76.5595C88.2193 76.5595 88.667 76.1117 88.667 75.5595V75.4606Z" fill="#6A6A6A"/>
<path d="M88.667 80.5006C88.667 79.9483 88.2193 79.5006 87.667 79.5006C87.1147 79.5006 86.667 79.9483 86.667 80.5006V80.5995C86.667 81.1517 87.1147 81.5995 87.667 81.5995C88.2193 81.5995 88.667 81.1517 88.667 80.5995V80.5006Z" fill="#6A6A6A"/>
<path d="M88.667 85.5406C88.667 84.9883 88.2193 84.5406 87.667 84.5406C87.1147 84.5406 86.667 84.9883 86.667 85.5406V85.6395C86.667 86.1917 87.1147 86.6395 87.667 86.6395C88.2193 86.6395 88.667 86.1917 88.667 85.6395V85.5406Z" fill="#6A6A6A"/>
<path d="M88.667 90.5806C88.667 90.0284 88.2193 89.5806 87.667 89.5806C87.1147 89.5806 86.667 90.0284 86.667 90.5806V90.6795C86.667 91.2317 87.1147 91.6795 87.667 91.6795C88.2193 91.6795 88.667 91.2317 88.667 90.6795V90.5806Z" fill="#6A6A6A"/>
<path d="M88.667 95.6206C88.667 95.0684 88.2193 94.6206 87.667 94.6206C87.1147 94.6206 86.667 95.0684 86.667 95.6206V95.7195C86.667 96.2717 87.1147 96.7195 87.667 96.7195C88.2193 96.7195 88.667 96.2717 88.667 95.7195V95.6206Z" fill="#6A6A6A"/>
<path d="M88.667 100.661C88.667 100.108 88.2193 99.6606 87.667 99.6606C87.1147 99.6606 86.667 100.108 86.667 100.661V100.759C86.667 101.312 87.1147 101.759 87.667 101.759C88.2193 101.759 88.667 101.312 88.667 100.759V100.661Z" fill="#6A6A6A"/>
<path d="M88.667 105.701C88.667 105.148 88.2193 104.701 87.667 104.701C87.1147 104.701 86.667 105.148 86.667 105.701V105.799C86.667 106.352 87.1147 106.799 87.667 106.799C88.2193 106.799 88.667 106.352 88.667 105.799V105.701Z" fill="#6A6A6A"/>
<path d="M88.667 110.741C88.667 110.188 88.2193 109.741 87.667 109.741C87.1147 109.741 86.667 110.188 86.667 110.741V110.839C86.667 111.392 87.1147 111.839 87.667 111.839C88.2193 111.839 88.667 111.392 88.667 110.839V110.741Z" fill="#6A6A6A"/>
<path d="M88.667 115.781C88.667 115.228 88.2193 114.781 87.667 114.781C87.1147 114.781 86.667 115.228 86.667 115.781V115.879C86.667 116.432 87.1147 116.879 87.667 116.879C88.2193 116.879 88.667 116.432 88.667 115.879V115.781Z" fill="#6A6A6A"/>
<path d="M88.667 120.821C88.667 120.268 88.2193 119.821 87.667 119.821C87.1147 119.821 86.667 120.268 86.667 120.821V120.919C86.667 121.472 87.1147 121.919 87.667 121.919C88.2193 121.919 88.667 121.472 88.667 120.919V120.821Z" fill="#6A6A6A"/>
<path d="M88.667 125.861C88.667 125.308 88.2193 124.861 87.667 124.861C87.1147 124.861 86.667 125.308 86.667 125.861V125.959C86.667 126.512 87.1147 126.959 87.667 126.959C88.2193 126.959 88.667 126.512 88.667 125.959V125.861Z" fill="#6A6A6A"/>
<path d="M88.667 130.901C88.667 130.348 88.2193 129.901 87.667 129.901C87.1147 129.901 86.667 130.348 86.667 130.901V130.999C86.667 131.552 87.1147 131.999 87.667 131.999C88.2193 131.999 88.667 131.552 88.667 130.999V130.901Z" fill="#6A6A6A"/>
<path d="M94.667 34.1406C95.2193 34.1406 95.667 34.5883 95.667 35.1406V35.2394C95.667 35.7917 95.2193 36.2394 94.667 36.2394C94.1147 36.2394 93.667 35.7917 93.667 35.2394V35.1406C93.667 34.5883 94.1147 34.1406 94.667 34.1406Z" fill="#6A6A6A"/>
<path d="M94.667 39.1806C95.2193 39.1806 95.667 39.6283 95.667 40.1806V40.2794C95.667 40.8317 95.2193 41.2794 94.667 41.2794C94.1147 41.2794 93.667 40.8317 93.667 40.2794V40.1806C93.667 39.6283 94.1147 39.1806 94.667 39.1806Z" fill="#6A6A6A"/>
<path d="M94.667 44.2206C95.2193 44.2206 95.667 44.6683 95.667 45.2206V45.3195C95.667 45.8717 95.2193 46.3195 94.667 46.3195C94.1147 46.3195 93.667 45.8717 93.667 45.3195V45.2206C93.667 44.6683 94.1147 44.2206 94.667 44.2206Z" fill="#6A6A6A"/>
<path d="M94.667 49.2606C95.2193 49.2606 95.667 49.7083 95.667 50.2606V50.3595C95.667 50.9117 95.2193 51.3595 94.667 51.3595C94.1147 51.3595 93.667 50.9117 93.667 50.3595V50.2606C93.667 49.7083 94.1147 49.2606 94.667 49.2606Z" fill="#6A6A6A"/>
<path d="M94.667 54.3006C95.2193 54.3006 95.667 54.7483 95.667 55.3006V55.3995C95.667 55.9517 95.2193 56.3995 94.667 56.3995C94.1147 56.3995 93.667 55.9517 93.667 55.3995V55.3006C93.667 54.7483 94.1147 54.3006 94.667 54.3006Z" fill="#6A6A6A"/>
<path d="M94.667 59.3406C95.2193 59.3406 95.667 59.7883 95.667 60.3406V60.4395C95.667 60.9917 95.2193 61.4395 94.667 61.4395C94.1147 61.4395 93.667 60.9917 93.667 60.4395V60.3406C93.667 59.7883 94.1147 59.3406 94.667 59.3406Z" fill="#6A6A6A"/>
<path d="M94.667 64.3806C95.2193 64.3806 95.667 64.8283 95.667 65.3806V65.4795C95.667 66.0317 95.2193 66.4795 94.667 66.4795C94.1147 66.4795 93.667 66.0317 93.667 65.4795V65.3806C93.667 64.8283 94.1147 64.3806 94.667 64.3806Z" fill="#6A6A6A"/>
<path d="M94.667 69.4206C95.2193 69.4206 95.667 69.8683 95.667 70.4206V70.5195C95.667 71.0717 95.2193 71.5195 94.667 71.5195C94.1147 71.5195 93.667 71.0717 93.667 70.5195V70.4206C93.667 69.8683 94.1147 69.4206 94.667 69.4206Z" fill="#6A6A6A"/>
<path d="M94.667 74.4606C95.2193 74.4606 95.667 74.9083 95.667 75.4606V75.5595C95.667 76.1117 95.2193 76.5595 94.667 76.5595C94.1147 76.5595 93.667 76.1117 93.667 75.5595V75.4606C93.667 74.9083 94.1147 74.4606 94.667 74.4606Z" fill="#6A6A6A"/>
<path d="M94.667 79.5006C95.2193 79.5006 95.667 79.9483 95.667 80.5006V80.5995C95.667 81.1517 95.2193 81.5995 94.667 81.5995C94.1147 81.5995 93.667 81.1517 93.667 80.5995V80.5006C93.667 79.9483 94.1147 79.5006 94.667 79.5006Z" fill="#6A6A6A"/>
<path d="M94.667 84.5406C95.2193 84.5406 95.667 84.9883 95.667 85.5406V85.6395C95.667 86.1917 95.2193 86.6395 94.667 86.6395C94.1147 86.6395 93.667 86.1917 93.667 85.6395V85.5406C93.667 84.9883 94.1147 84.5406 94.667 84.5406Z" fill="#6A6A6A"/>
<path d="M94.667 89.5806C95.2193 89.5806 95.667 90.0284 95.667 90.5806V90.6795C95.667 91.2317 95.2193 91.6795 94.667 91.6795C94.1147 91.6795 93.667 91.2317 93.667 90.6795V90.5806C93.667 90.0284 94.1147 89.5806 94.667 89.5806Z" fill="#6A6A6A"/>
<path d="M94.667 94.6206C95.2193 94.6206 95.667 95.0684 95.667 95.6206V95.7195C95.667 96.2717 95.2193 96.7195 94.667 96.7195C94.1147 96.7195 93.667 96.2717 93.667 95.7195V95.6206C93.667 95.0684 94.1147 94.6206 94.667 94.6206Z" fill="#6A6A6A"/>
<path d="M94.667 99.6606C95.2193 99.6606 95.667 100.108 95.667 100.661V100.759C95.667 101.312 95.2193 101.759 94.667 101.759C94.1147 101.759 93.667 101.312 93.667 100.759V100.661C93.667 100.108 94.1147 99.6606 94.667 99.6606Z" fill="#6A6A6A"/>
<path d="M94.667 104.701C95.2193 104.701 95.667 105.148 95.667 105.701V105.799C95.667 106.352 95.2193 106.799 94.667 106.799C94.1147 106.799 93.667 106.352 93.667 105.799V105.701C93.667 105.148 94.1147 104.701 94.667 104.701Z" fill="#6A6A6A"/>
<path d="M94.667 109.741C95.2193 109.741 95.667 110.188 95.667 110.741V110.839C95.667 111.392 95.2193 111.839 94.667 111.839C94.1147 111.839 93.667 111.392 93.667 110.839V110.741C93.667 110.188 94.1147 109.741 94.667 109.741Z" fill="#6A6A6A"/>
<path d="M94.667 114.781C95.2193 114.781 95.667 115.228 95.667 115.781V115.879C95.667 116.432 95.2193 116.879 94.667 116.879C94.1147 116.879 93.667 116.432 93.667 115.879V115.781C93.667 115.228 94.1147 114.781 94.667 114.781Z" fill="#6A6A6A"/>
<path d="M94.667 119.821C95.2193 119.821 95.667 120.268 95.667 120.821V120.919C95.667 121.472 95.2193 121.919 94.667 121.919C94.1147 121.919 93.667 121.472 93.667 120.919V120.821C93.667 120.268 94.1147 119.821 94.667 119.821Z" fill="#6A6A6A"/>
<path d="M94.667 124.861C95.2193 124.861 95.667 125.308 95.667 125.861V125.959C95.667 126.512 95.2193 126.959 94.667 126.959C94.1147 126.959 93.667 126.512 93.667 125.959V125.861C93.667 125.308 94.1147 124.861 94.667 124.861Z" fill="#6A6A6A"/>
<path d="M94.667 129.901C95.2193 129.901 95.667 130.348 95.667 130.901V130.999C95.667 131.552 95.2193 131.999 94.667 131.999C94.1147 131.999 93.667 131.552 93.667 130.999V130.901C93.667 130.348 94.1147 129.901 94.667 129.901Z" fill="#6A6A6A"/>
<path d="M102.667 35.1406C102.667 34.5883 102.219 34.1406 101.667 34.1406C101.115 34.1406 100.667 34.5883 100.667 35.1406V35.2394C100.667 35.7917 101.115 36.2394 101.667 36.2394C102.219 36.2394 102.667 35.7917 102.667 35.2394V35.1406Z" fill="#6A6A6A"/>
<path d="M102.667 40.1806C102.667 39.6283 102.219 39.1806 101.667 39.1806C101.115 39.1806 100.667 39.6283 100.667 40.1806V40.2794C100.667 40.8317 101.115 41.2794 101.667 41.2794C102.219 41.2794 102.667 40.8317 102.667 40.2794V40.1806Z" fill="#6A6A6A"/>
<path d="M102.667 45.2206C102.667 44.6683 102.219 44.2206 101.667 44.2206C101.115 44.2206 100.667 44.6683 100.667 45.2206V45.3195C100.667 45.8717 101.115 46.3195 101.667 46.3195C102.219 46.3195 102.667 45.8717 102.667 45.3195V45.2206Z" fill="#6A6A6A"/>
<path d="M102.667 50.2606C102.667 49.7083 102.219 49.2606 101.667 49.2606C101.115 49.2606 100.667 49.7083 100.667 50.2606V50.3595C100.667 50.9117 101.115 51.3595 101.667 51.3595C102.219 51.3595 102.667 50.9117 102.667 50.3595V50.2606Z" fill="#6A6A6A"/>
<path d="M102.667 55.3006C102.667 54.7483 102.219 54.3006 101.667 54.3006C101.115 54.3006 100.667 54.7483 100.667 55.3006V55.3995C100.667 55.9517 101.115 56.3995 101.667 56.3995C102.219 56.3995 102.667 55.9517 102.667 55.3995V55.3006Z" fill="#6A6A6A"/>
<path d="M102.667 60.3406C102.667 59.7883 102.219 59.3406 101.667 59.3406C101.115 59.3406 100.667 59.7883 100.667 60.3406V60.4395C100.667 60.9917 101.115 61.4395 101.667 61.4395C102.219 61.4395 102.667 60.9917 102.667 60.4395V60.3406Z" fill="#6A6A6A"/>
<path d="M102.667 65.3806C102.667 64.8283 102.219 64.3806 101.667 64.3806C101.115 64.3806 100.667 64.8283 100.667 65.3806V65.4795C100.667 66.0317 101.115 66.4795 101.667 66.4795C102.219 66.4795 102.667 66.0317 102.667 65.4795V65.3806Z" fill="#6A6A6A"/>
<path d="M102.667 70.4206C102.667 69.8683 102.219 69.4206 101.667 69.4206C101.115 69.4206 100.667 69.8683 100.667 70.4206V70.5195C100.667 71.0717 101.115 71.5195 101.667 71.5195C102.219 71.5195 102.667 71.0717 102.667 70.5195V70.4206Z" fill="#6A6A6A"/>
<path d="M102.667 75.4606C102.667 74.9083 102.219 74.4606 101.667 74.4606C101.115 74.4606 100.667 74.9083 100.667 75.4606V75.5595C100.667 76.1117 101.115 76.5595 101.667 76.5595C102.219 76.5595 102.667 76.1117 102.667 75.5595V75.4606Z" fill="#6A6A6A"/>
<path d="M102.667 80.5006C102.667 79.9483 102.219 79.5006 101.667 79.5006C101.115 79.5006 100.667 79.9483 100.667 80.5006V80.5995C100.667 81.1517 101.115 81.5995 101.667 81.5995C102.219 81.5995 102.667 81.1517 102.667 80.5995V80.5006Z" fill="#6A6A6A"/>
<path d="M102.667 85.5406C102.667 84.9883 102.219 84.5406 101.667 84.5406C101.115 84.5406 100.667 84.9883 100.667 85.5406V85.6395C100.667 86.1917 101.115 86.6395 101.667 86.6395C102.219 86.6395 102.667 86.1917 102.667 85.6395V85.5406Z" fill="#6A6A6A"/>
<path d="M102.667 90.5806C102.667 90.0284 102.219 89.5806 101.667 89.5806C101.115 89.5806 100.667 90.0284 100.667 90.5806V90.6795C100.667 91.2317 101.115 91.6795 101.667 91.6795C102.219 91.6795 102.667 91.2317 102.667 90.6795V90.5806Z" fill="#6A6A6A"/>
<path d="M102.667 95.6206C102.667 95.0684 102.219 94.6206 101.667 94.6206C101.115 94.6206 100.667 95.0684 100.667 95.6206V95.7195C100.667 96.2717 101.115 96.7195 101.667 96.7195C102.219 96.7195 102.667 96.2717 102.667 95.7195V95.6206Z" fill="#6A6A6A"/>
<path d="M102.667 100.661C102.667 100.108 102.219 99.6606 101.667 99.6606C101.115 99.6606 100.667 100.108 100.667 100.661V100.759C100.667 101.312 101.115 101.759 101.667 101.759C102.219 101.759 102.667 101.312 102.667 100.759V100.661Z" fill="#6A6A6A"/>
<path d="M102.667 105.701C102.667 105.148 102.219 104.701 101.667 104.701C101.115 104.701 100.667 105.148 100.667 105.701V105.799C100.667 106.352 101.115 106.799 101.667 106.799C102.219 106.799 102.667 106.352 102.667 105.799V105.701Z" fill="#6A6A6A"/>
<path d="M102.667 110.741C102.667 110.188 102.219 109.741 101.667 109.741C101.115 109.741 100.667 110.188 100.667 110.741V110.839C100.667 111.392 101.115 111.839 101.667 111.839C102.219 111.839 102.667 111.392 102.667 110.839V110.741Z" fill="#6A6A6A"/>
<path d="M102.667 115.781C102.667 115.228 102.219 114.781 101.667 114.781C101.115 114.781 100.667 115.228 100.667 115.781V115.879C100.667 116.432 101.115 116.879 101.667 116.879C102.219 116.879 102.667 116.432 102.667 115.879V115.781Z" fill="#6A6A6A"/>
<path d="M102.667 120.821C102.667 120.268 102.219 119.821 101.667 119.821C101.115 119.821 100.667 120.268 100.667 120.821V120.919C100.667 121.472 101.115 121.919 101.667 121.919C102.219 121.919 102.667 121.472 102.667 120.919V120.821Z" fill="#6A6A6A"/>
<path d="M102.667 125.861C102.667 125.308 102.219 124.861 101.667 124.861C101.115 124.861 100.667 125.308 100.667 125.861V125.959C100.667 126.512 101.115 126.959 101.667 126.959C102.219 126.959 102.667 126.512 102.667 125.959V125.861Z" fill="#6A6A6A"/>
<path d="M102.667 130.901C102.667 130.348 102.219 129.901 101.667 129.901C101.115 129.901 100.667 130.348 100.667 130.901V130.999C100.667 131.552 101.115 131.999 101.667 131.999C102.219 131.999 102.667 131.552 102.667 130.999V130.901Z" fill="#6A6A6A"/>
<path d="M108.667 34.1406C109.219 34.1406 109.667 34.5883 109.667 35.1406V35.2394C109.667 35.7917 109.219 36.2394 108.667 36.2394C108.115 36.2394 107.667 35.7917 107.667 35.2394V35.1406C107.667 34.5883 108.115 34.1406 108.667 34.1406Z" fill="#6A6A6A"/>
<path d="M108.667 39.1806C109.219 39.1806 109.667 39.6283 109.667 40.1806V40.2794C109.667 40.8317 109.219 41.2794 108.667 41.2794C108.115 41.2794 107.667 40.8317 107.667 40.2794V40.1806C107.667 39.6283 108.115 39.1806 108.667 39.1806Z" fill="#6A6A6A"/>
<path d="M108.667 44.2206C109.219 44.2206 109.667 44.6683 109.667 45.2206V45.3195C109.667 45.8717 109.219 46.3195 108.667 46.3195C108.115 46.3195 107.667 45.8717 107.667 45.3195V45.2206C107.667 44.6683 108.115 44.2206 108.667 44.2206Z" fill="#6A6A6A"/>
<path d="M108.667 49.2606C109.219 49.2606 109.667 49.7083 109.667 50.2606V50.3595C109.667 50.9117 109.219 51.3595 108.667 51.3595C108.115 51.3595 107.667 50.9117 107.667 50.3595V50.2606C107.667 49.7083 108.115 49.2606 108.667 49.2606Z" fill="#6A6A6A"/>
<path d="M108.667 54.3006C109.219 54.3006 109.667 54.7483 109.667 55.3006V55.3995C109.667 55.9517 109.219 56.3995 108.667 56.3995C108.115 56.3995 107.667 55.9517 107.667 55.3995V55.3006C107.667 54.7483 108.115 54.3006 108.667 54.3006Z" fill="#6A6A6A"/>
<path d="M108.667 59.3406C109.219 59.3406 109.667 59.7883 109.667 60.3406V60.4395C109.667 60.9917 109.219 61.4395 108.667 61.4395C108.115 61.4395 107.667 60.9917 107.667 60.4395V60.3406C107.667 59.7883 108.115 59.3406 108.667 59.3406Z" fill="#6A6A6A"/>
<path d="M108.667 64.3806C109.219 64.3806 109.667 64.8283 109.667 65.3806V65.4795C109.667 66.0317 109.219 66.4795 108.667 66.4795C108.115 66.4795 107.667 66.0317 107.667 65.4795V65.3806C107.667 64.8283 108.115 64.3806 108.667 64.3806Z" fill="#6A6A6A"/>
<path d="M108.667 69.4206C109.219 69.4206 109.667 69.8683 109.667 70.4206V70.5195C109.667 71.0717 109.219 71.5195 108.667 71.5195C108.115 71.5195 107.667 71.0717 107.667 70.5195V70.4206C107.667 69.8683 108.115 69.4206 108.667 69.4206Z" fill="#6A6A6A"/>
<path d="M108.667 74.4606C109.219 74.4606 109.667 74.9083 109.667 75.4606V75.5595C109.667 76.1117 109.219 76.5595 108.667 76.5595C108.115 76.5595 107.667 76.1117 107.667 75.5595V75.4606C107.667 74.9083 108.115 74.4606 108.667 74.4606Z" fill="#6A6A6A"/>
<path d="M108.667 79.5006C109.219 79.5006 109.667 79.9483 109.667 80.5006V80.5995C109.667 81.1517 109.219 81.5995 108.667 81.5995C108.115 81.5995 107.667 81.1517 107.667 80.5995V80.5006C107.667 79.9483 108.115 79.5006 108.667 79.5006Z" fill="#6A6A6A"/>
<path d="M108.667 84.5406C109.219 84.5406 109.667 84.9883 109.667 85.5406V85.6395C109.667 86.1917 109.219 86.6395 108.667 86.6395C108.115 86.6395 107.667 86.1917 107.667 85.6395V85.5406C107.667 84.9883 108.115 84.5406 108.667 84.5406Z" fill="#6A6A6A"/>
<path d="M108.667 89.5806C109.219 89.5806 109.667 90.0284 109.667 90.5806V90.6795C109.667 91.2317 109.219 91.6795 108.667 91.6795C108.115 91.6795 107.667 91.2317 107.667 90.6795V90.5806C107.667 90.0284 108.115 89.5806 108.667 89.5806Z" fill="#6A6A6A"/>
<path d="M108.667 94.6206C109.219 94.6206 109.667 95.0684 109.667 95.6206V95.7195C109.667 96.2717 109.219 96.7195 108.667 96.7195C108.115 96.7195 107.667 96.2717 107.667 95.7195V95.6206C107.667 95.0684 108.115 94.6206 108.667 94.6206Z" fill="#6A6A6A"/>
<path d="M108.667 99.6606C109.219 99.6606 109.667 100.108 109.667 100.661V100.759C109.667 101.312 109.219 101.759 108.667 101.759C108.115 101.759 107.667 101.312 107.667 100.759V100.661C107.667 100.108 108.115 99.6606 108.667 99.6606Z" fill="#6A6A6A"/>
<path d="M108.667 104.701C109.219 104.701 109.667 105.148 109.667 105.701V105.799C109.667 106.352 109.219 106.799 108.667 106.799C108.115 106.799 107.667 106.352 107.667 105.799V105.701C107.667 105.148 108.115 104.701 108.667 104.701Z" fill="#6A6A6A"/>
<path d="M108.667 109.741C109.219 109.741 109.667 110.188 109.667 110.741V110.839C109.667 111.392 109.219 111.839 108.667 111.839C108.115 111.839 107.667 111.392 107.667 110.839V110.741C107.667 110.188 108.115 109.741 108.667 109.741Z" fill="#6A6A6A"/>
<path d="M108.667 114.781C109.219 114.781 109.667 115.228 109.667 115.781V115.879C109.667 116.432 109.219 116.879 108.667 116.879C108.115 116.879 107.667 116.432 107.667 115.879V115.781C107.667 115.228 108.115 114.781 108.667 114.781Z" fill="#6A6A6A"/>
<path d="M108.667 119.821C109.219 119.821 109.667 120.268 109.667 120.821V120.919C109.667 121.472 109.219 121.919 108.667 121.919C108.115 121.919 107.667 121.472 107.667 120.919V120.821C107.667 120.268 108.115 119.821 108.667 119.821Z" fill="#6A6A6A"/>
<path d="M108.667 124.861C109.219 124.861 109.667 125.308 109.667 125.861V125.959C109.667 126.512 109.219 126.959 108.667 126.959C108.115 126.959 107.667 126.512 107.667 125.959V125.861C107.667 125.308 108.115 124.861 108.667 124.861Z" fill="#6A6A6A"/>
<path d="M108.667 129.901C109.219 129.901 109.667 130.348 109.667 130.901V130.999C109.667 131.552 109.219 131.999 108.667 131.999C108.115 131.999 107.667 131.552 107.667 130.999V130.901C107.667 130.348 108.115 129.901 108.667 129.901Z" fill="#6A6A6A"/>
<path d="M116.667 35.1406C116.667 34.5883 116.219 34.1406 115.667 34.1406C115.115 34.1406 114.667 34.5883 114.667 35.1406V35.2394C114.667 35.7917 115.115 36.2394 115.667 36.2394C116.219 36.2394 116.667 35.7917 116.667 35.2394V35.1406Z" fill="#6A6A6A"/>
<path d="M116.667 40.1806C116.667 39.6283 116.219 39.1806 115.667 39.1806C115.115 39.1806 114.667 39.6283 114.667 40.1806V40.2794C114.667 40.8317 115.115 41.2794 115.667 41.2794C116.219 41.2794 116.667 40.8317 116.667 40.2794V40.1806Z" fill="#6A6A6A"/>
<path d="M116.667 45.2206C116.667 44.6683 116.219 44.2206 115.667 44.2206C115.115 44.2206 114.667 44.6683 114.667 45.2206V45.3195C114.667 45.8717 115.115 46.3195 115.667 46.3195C116.219 46.3195 116.667 45.8717 116.667 45.3195V45.2206Z" fill="#6A6A6A"/>
<path d="M116.667 50.2606C116.667 49.7083 116.219 49.2606 115.667 49.2606C115.115 49.2606 114.667 49.7083 114.667 50.2606V50.3595C114.667 50.9117 115.115 51.3595 115.667 51.3595C116.219 51.3595 116.667 50.9117 116.667 50.3595V50.2606Z" fill="#6A6A6A"/>
<path d="M116.667 55.3006C116.667 54.7483 116.219 54.3006 115.667 54.3006C115.115 54.3006 114.667 54.7483 114.667 55.3006V55.3995C114.667 55.9517 115.115 56.3995 115.667 56.3995C116.219 56.3995 116.667 55.9517 116.667 55.3995V55.3006Z" fill="#6A6A6A"/>
<path d="M116.667 60.3406C116.667 59.7883 116.219 59.3406 115.667 59.3406C115.115 59.3406 114.667 59.7883 114.667 60.3406V60.4395C114.667 60.9917 115.115 61.4395 115.667 61.4395C116.219 61.4395 116.667 60.9917 116.667 60.4395V60.3406Z" fill="#6A6A6A"/>
<path d="M116.667 65.3806C116.667 64.8283 116.219 64.3806 115.667 64.3806C115.115 64.3806 114.667 64.8283 114.667 65.3806V65.4795C114.667 66.0317 115.115 66.4795 115.667 66.4795C116.219 66.4795 116.667 66.0317 116.667 65.4795V65.3806Z" fill="#6A6A6A"/>
<path d="M116.667 70.4206C116.667 69.8683 116.219 69.4206 115.667 69.4206C115.115 69.4206 114.667 69.8683 114.667 70.4206V70.5195C114.667 71.0717 115.115 71.5195 115.667 71.5195C116.219 71.5195 116.667 71.0717 116.667 70.5195V70.4206Z" fill="#6A6A6A"/>
<path d="M116.667 75.4606C116.667 74.9083 116.219 74.4606 115.667 74.4606C115.115 74.4606 114.667 74.9083 114.667 75.4606V75.5595C114.667 76.1117 115.115 76.5595 115.667 76.5595C116.219 76.5595 116.667 76.1117 116.667 75.5595V75.4606Z" fill="#6A6A6A"/>
<path d="M116.667 80.5006C116.667 79.9483 116.219 79.5006 115.667 79.5006C115.115 79.5006 114.667 79.9483 114.667 80.5006V80.5995C114.667 81.1517 115.115 81.5995 115.667 81.5995C116.219 81.5995 116.667 81.1517 116.667 80.5995V80.5006Z" fill="#6A6A6A"/>
<path d="M116.667 85.5406C116.667 84.9883 116.219 84.5406 115.667 84.5406C115.115 84.5406 114.667 84.9883 114.667 85.5406V85.6395C114.667 86.1917 115.115 86.6395 115.667 86.6395C116.219 86.6395 116.667 86.1917 116.667 85.6395V85.5406Z" fill="#6A6A6A"/>
<path d="M116.667 90.5806C116.667 90.0284 116.219 89.5806 115.667 89.5806C115.115 89.5806 114.667 90.0284 114.667 90.5806V90.6795C114.667 91.2317 115.115 91.6795 115.667 91.6795C116.219 91.6795 116.667 91.2317 116.667 90.6795V90.5806Z" fill="#6A6A6A"/>
<path d="M116.667 95.6206C116.667 95.0684 116.219 94.6206 115.667 94.6206C115.115 94.6206 114.667 95.0684 114.667 95.6206V95.7195C114.667 96.2717 115.115 96.7195 115.667 96.7195C116.219 96.7195 116.667 96.2717 116.667 95.7195V95.6206Z" fill="#6A6A6A"/>
<path d="M116.667 100.661C116.667 100.108 116.219 99.6606 115.667 99.6606C115.115 99.6606 114.667 100.108 114.667 100.661V100.759C114.667 101.312 115.115 101.759 115.667 101.759C116.219 101.759 116.667 101.312 116.667 100.759V100.661Z" fill="#6A6A6A"/>
<path d="M116.667 105.701C116.667 105.148 116.219 104.701 115.667 104.701C115.115 104.701 114.667 105.148 114.667 105.701V105.799C114.667 106.352 115.115 106.799 115.667 106.799C116.219 106.799 116.667 106.352 116.667 105.799V105.701Z" fill="#6A6A6A"/>
<path d="M116.667 110.741C116.667 110.188 116.219 109.741 115.667 109.741C115.115 109.741 114.667 110.188 114.667 110.741V110.839C114.667 111.392 115.115 111.839 115.667 111.839C116.219 111.839 116.667 111.392 116.667 110.839V110.741Z" fill="#6A6A6A"/>
<path d="M116.667 115.781C116.667 115.228 116.219 114.781 115.667 114.781C115.115 114.781 114.667 115.228 114.667 115.781V115.879C114.667 116.432 115.115 116.879 115.667 116.879C116.219 116.879 116.667 116.432 116.667 115.879V115.781Z" fill="#6A6A6A"/>
<path d="M116.667 120.821C116.667 120.268 116.219 119.821 115.667 119.821C115.115 119.821 114.667 120.268 114.667 120.821V120.919C114.667 121.472 115.115 121.919 115.667 121.919C116.219 121.919 116.667 121.472 116.667 120.919V120.821Z" fill="#6A6A6A"/>
<path d="M116.667 125.861C116.667 125.308 116.219 124.861 115.667 124.861C115.115 124.861 114.667 125.308 114.667 125.861V125.959C114.667 126.512 115.115 126.959 115.667 126.959C116.219 126.959 116.667 126.512 116.667 125.959V125.861Z" fill="#6A6A6A"/>
<path d="M116.667 130.901C116.667 130.348 116.219 129.901 115.667 129.901C115.115 129.901 114.667 130.348 114.667 130.901V130.999C114.667 131.552 115.115 131.999 115.667 131.999C116.219 131.999 116.667 131.552 116.667 130.999V130.901Z" fill="#6A6A6A"/>
<path d="M123.667 35.1367L123.667 35.1406V35.2394L123.667 35.2434C123.665 35.7939 123.218 36.2394 122.667 36.2394C122.115 36.2394 121.667 35.7917 121.667 35.2394V35.1406C121.667 34.5883 122.115 34.1406 122.667 34.1406C123.218 34.1406 123.665 34.5862 123.667 35.1367Z" fill="#6A6A6A"/>
<path d="M123.667 40.1767C123.665 39.6262 123.218 39.1806 122.667 39.1806C122.115 39.1806 121.667 39.6283 121.667 40.1806V40.2794C121.667 40.8317 122.115 41.2794 122.667 41.2794C123.218 41.2794 123.665 40.8339 123.667 40.2834L123.667 40.2794V40.1806L123.667 40.1767Z" fill="#6A6A6A"/>
<path d="M123.667 45.2167C123.665 44.6662 123.218 44.2206 122.667 44.2206C122.115 44.2206 121.667 44.6683 121.667 45.2206V45.3195C121.667 45.8717 122.115 46.3195 122.667 46.3195C123.218 46.3195 123.665 45.8739 123.667 45.3234L123.667 45.3195V45.2206L123.667 45.2167Z" fill="#6A6A6A"/>
<path d="M123.667 50.2567C123.665 49.7062 123.218 49.2606 122.667 49.2606C122.115 49.2606 121.667 49.7083 121.667 50.2606V50.3595C121.667 50.9117 122.115 51.3595 122.667 51.3595C123.218 51.3595 123.665 50.9139 123.667 50.3634L123.667 50.3595V50.2606L123.667 50.2567Z" fill="#6A6A6A"/>
<path d="M123.667 55.2967C123.665 54.7462 123.218 54.3006 122.667 54.3006C122.115 54.3006 121.667 54.7483 121.667 55.3006V55.3995C121.667 55.9517 122.115 56.3995 122.667 56.3995C123.218 56.3995 123.665 55.9539 123.667 55.4034L123.667 55.3995V55.3006L123.667 55.2967Z" fill="#6A6A6A"/>
<path d="M123.667 60.3367C123.665 59.7862 123.218 59.3406 122.667 59.3406C122.115 59.3406 121.667 59.7883 121.667 60.3406V60.4395C121.667 60.9917 122.115 61.4395 122.667 61.4395C123.218 61.4395 123.665 60.9939 123.667 60.4434L123.667 60.4395V60.3406L123.667 60.3367Z" fill="#6A6A6A"/>
<path d="M123.667 65.3767C123.665 64.8262 123.218 64.3806 122.667 64.3806C122.115 64.3806 121.667 64.8283 121.667 65.3806V65.4795C121.667 66.0317 122.115 66.4795 122.667 66.4795C123.218 66.4795 123.665 66.0339 123.667 65.4834L123.667 65.4795V65.3806L123.667 65.3767Z" fill="#6A6A6A"/>
<path d="M123.667 70.4167C123.665 69.8662 123.218 69.4206 122.667 69.4206C122.115 69.4206 121.667 69.8683 121.667 70.4206V70.5195C121.667 71.0717 122.115 71.5195 122.667 71.5195C123.218 71.5195 123.665 71.0739 123.667 70.5234L123.667 70.5195V70.4206L123.667 70.4167Z" fill="#6A6A6A"/>
<path d="M123.667 75.4567C123.665 74.9062 123.218 74.4606 122.667 74.4606C122.115 74.4606 121.667 74.9083 121.667 75.4606V75.5595C121.667 76.1117 122.115 76.5595 122.667 76.5595C123.218 76.5595 123.665 76.1139 123.667 75.5634L123.667 75.5595V75.4606L123.667 75.4567Z" fill="#6A6A6A"/>
<path d="M123.667 80.4967C123.665 79.9462 123.218 79.5006 122.667 79.5006C122.115 79.5006 121.667 79.9483 121.667 80.5006V80.5995C121.667 81.1517 122.115 81.5995 122.667 81.5995C123.218 81.5995 123.665 81.1539 123.667 80.6034L123.667 80.5995V80.5006L123.667 80.4967Z" fill="#6A6A6A"/>
<path d="M123.667 85.5367C123.665 84.9862 123.218 84.5406 122.667 84.5406C122.115 84.5406 121.667 84.9883 121.667 85.5406V85.6395C121.667 86.1917 122.115 86.6395 122.667 86.6395C123.218 86.6395 123.665 86.1939 123.667 85.6434L123.667 85.6395V85.5406L123.667 85.5367Z" fill="#6A6A6A"/>
<path d="M123.667 90.5767C123.665 90.0262 123.218 89.5806 122.667 89.5806C122.115 89.5806 121.667 90.0284 121.667 90.5806V90.6795C121.667 91.2317 122.115 91.6795 122.667 91.6795C123.218 91.6795 123.665 91.2339 123.667 90.6834L123.667 90.6795V90.5806L123.667 90.5767Z" fill="#6A6A6A"/>
<path d="M123.667 95.6167C123.665 95.0662 123.218 94.6206 122.667 94.6206C122.115 94.6206 121.667 95.0684 121.667 95.6206V95.7195C121.667 96.2717 122.115 96.7195 122.667 96.7195C123.218 96.7195 123.665 96.2739 123.667 95.7234L123.667 95.7195V95.6206L123.667 95.6167Z" fill="#6A6A6A"/>
<path d="M123.667 100.657C123.665 100.106 123.218 99.6606 122.667 99.6606C122.115 99.6606 121.667 100.108 121.667 100.661V100.759C121.667 101.312 122.115 101.759 122.667 101.759C123.218 101.759 123.665 101.314 123.667 100.763L123.667 100.759V100.661L123.667 100.657Z" fill="#6A6A6A"/>
<path d="M123.667 105.697C123.665 105.146 123.218 104.701 122.667 104.701C122.115 104.701 121.667 105.148 121.667 105.701V105.799C121.667 106.352 122.115 106.799 122.667 106.799C123.218 106.799 123.665 106.354 123.667 105.803L123.667 105.799V105.701L123.667 105.697Z" fill="#6A6A6A"/>
<path d="M123.667 110.737C123.665 110.186 123.218 109.741 122.667 109.741C122.115 109.741 121.667 110.188 121.667 110.741V110.839C121.667 111.392 122.115 111.839 122.667 111.839C123.218 111.839 123.665 111.394 123.667 110.843L123.667 110.839V110.741L123.667 110.737Z" fill="#6A6A6A"/>
<path d="M123.667 115.781C123.667 115.228 123.219 114.781 122.667 114.781C122.115 114.781 121.667 115.228 121.667 115.781V115.879C121.667 116.432 122.115 116.879 122.667 116.879C123.219 116.879 123.667 116.432 123.667 115.879V115.781Z" fill="#6A6A6A"/>
<path d="M123.667 120.821C123.667 120.268 123.219 119.821 122.667 119.821C122.115 119.821 121.667 120.268 121.667 120.821V120.919C121.667 121.472 122.115 121.919 122.667 121.919C123.219 121.919 123.667 121.472 123.667 120.919V120.821Z" fill="#6A6A6A"/>
<path d="M123.667 125.861C123.667 125.308 123.219 124.861 122.667 124.861C122.115 124.861 121.667 125.308 121.667 125.861V125.959C121.667 126.512 122.115 126.959 122.667 126.959C123.219 126.959 123.667 126.512 123.667 125.959V125.861Z" fill="#6A6A6A"/>
<path d="M123.667 130.901C123.667 130.348 123.219 129.901 122.667 129.901C122.115 129.901 121.667 130.348 121.667 130.901V130.999C121.667 131.552 122.115 131.999 122.667 131.999C123.219 131.999 123.667 131.552 123.667 130.999V130.901Z" fill="#6A6A6A"/>
</svg>
