<svg width="124" height="132" viewBox="0 0 124 132" fill="none" xmlns="https://www.w3.org/2000/svg">
<path d="M16 88C16 52.6538 44.6538 24 80 24V24C104.301 24 124 43.6995 124 68V132H16V88Z" fill="#FCB3AD" fill-opacity="0.7"/>
<path d="M1.93975 89.0349C2.17936 89.2176 2.33398 89.506 2.33398 89.8306V89.9294C2.33398 90.4817 1.88627 90.9294 1.33398 90.9294C1.19948 90.9294 1.07117 90.9029 0.954021 90.8547L1.93975 89.0349Z" fill="#6A6A6A"/>
<path d="M14.6906 65.495C14.8645 65.6413 15.0889 65.7294 15.334 65.7294C15.8863 65.7294 16.334 65.2817 16.334 64.7294V64.6306C16.334 64.1959 16.0566 63.826 15.6692 63.6882L14.6906 65.495Z" fill="#6A6A6A"/>
<path d="M22.8225 50.4822C23.1277 50.311 23.334 49.9843 23.334 49.6094V49.5379L22.8225 50.4822Z" fill="#6A6A6A"/>
<path d="M28.4764 40.0441C28.6513 40.3349 28.9699 40.5294 29.334 40.5294C29.8863 40.5294 30.334 40.0817 30.334 39.5294V39.4306C30.334 38.8838 29.8951 38.4395 29.3503 38.4307L28.4764 40.0441Z" fill="#6A6A6A"/>
<path d="M36.4049 25.4069C36.9241 25.3706 37.334 24.9379 37.334 24.4094V24.3106C37.334 24.1546 37.2983 24.0069 37.2345 23.8753L36.4049 25.4069Z" fill="#6A6A6A"/>
<path d="M42.341 14.4481C42.3996 14.9444 42.8219 15.3294 43.334 15.3294C43.8863 15.3294 44.334 14.8817 44.334 14.3294V14.2306C44.334 13.6783 43.8863 13.2306 43.334 13.2306C43.2024 13.2306 43.0767 13.256 42.9616 13.3022L42.341 14.4481Z" fill="#6A6A6A"/>
<path d="M50.0723 0.174824C50.1389 0.192837 50.2083 0.204138 50.2796 0.20796L50.167 0L50.0723 0.174824Z" fill="#6A6A6A"/>
<path d="M57.3336 13.2306C56.7815 13.2308 56.334 13.6784 56.334 14.2306V14.3294C56.334 14.8817 56.7817 15.3294 57.334 15.3294C57.7039 15.3294 58.0269 15.1286 58.1999 14.83L57.3336 13.2306Z" fill="#6A6A6A"/>
<path d="M63.334 24.3083V24.4094C63.334 24.7935 63.5505 25.127 63.8682 25.2945L63.334 24.3083Z" fill="#6A6A6A"/>
<path d="M71.0122 38.4835C70.6178 38.6175 70.334 38.9909 70.334 39.4306V39.5294C70.334 40.0817 70.7817 40.5294 71.334 40.5294C71.5842 40.5294 71.813 40.4375 71.9884 40.2856L71.0122 38.4835Z" fill="#6A6A6A"/>
<path d="M84.7396 63.8263C84.4935 64.0085 84.334 64.3009 84.334 64.6306V64.7294C84.334 65.2817 84.7817 65.7294 85.334 65.7294C85.4735 65.7294 85.6064 65.7009 85.727 65.6492L84.7396 63.8263Z" fill="#6A6A6A"/>
<path d="M92.9304 78.9479C92.7639 78.8239 92.5575 78.7506 92.334 78.7506C91.7817 78.7506 91.334 79.1983 91.334 79.7506V79.8494C91.334 80.4017 91.7817 80.8494 92.334 80.8494C92.8863 80.8494 93.334 80.4017 93.334 79.8494V79.7506C93.334 79.7301 93.3334 79.7097 93.3321 79.6895L92.9304 78.9479Z" fill="#6A6A6A"/>
<path d="M98.5146 89.2572C98.4008 89.4195 98.334 89.6173 98.334 89.8306V89.9294C98.334 90.4817 98.7817 90.9294 99.334 90.9294C99.3625 90.9294 99.3907 90.9282 99.4185 90.9259L98.5146 89.2572Z" fill="#6A6A6A"/>
<path d="M1.33398 93.8706C1.88627 93.8706 2.33398 94.3183 2.33398 94.8706V94.9694C2.33398 95.5217 1.88627 95.9694 1.33398 95.9694C0.7817 95.9694 0.333984 95.5217 0.333984 94.9694V94.8706C0.333984 94.3183 0.7817 93.8706 1.33398 93.8706Z" fill="#6A6A6A"/>
<path d="M9.33399 79.7506C9.33399 79.1983 8.88627 78.7506 8.33398 78.7506C7.7817 78.7506 7.33398 79.1983 7.33398 79.7506V79.8494C7.33398 80.4017 7.7817 80.8494 8.33398 80.8494C8.88627 80.8494 9.33399 80.4017 9.33399 79.8494V79.7506Z" fill="#6A6A6A"/>
<path d="M9.33399 84.7906C9.33399 84.2383 8.88627 83.7906 8.33398 83.7906C7.7817 83.7906 7.33398 84.2383 7.33398 84.7906V84.8894C7.33398 85.4417 7.7817 85.8894 8.33398 85.8894C8.88627 85.8894 9.33399 85.4417 9.33399 84.8894V84.7906Z" fill="#6A6A6A"/>
<path d="M9.33398 89.8306C9.33398 89.2783 8.88627 88.8306 8.33398 88.8306C7.7817 88.8306 7.33398 89.2783 7.33398 89.8306V89.9294C7.33398 90.4817 7.7817 90.9294 8.33398 90.9294C8.88627 90.9294 9.33398 90.4817 9.33398 89.9294V89.8306Z" fill="#6A6A6A"/>
<path d="M9.33398 94.8706C9.33398 94.3183 8.88627 93.8706 8.33398 93.8706C7.7817 93.8706 7.33398 94.3183 7.33398 94.8706V94.9694C7.33398 95.5217 7.7817 95.9694 8.33398 95.9694C8.88627 95.9694 9.33398 95.5217 9.33398 94.9694V94.8706Z" fill="#6A6A6A"/>
<path d="M15.334 68.6706C15.8863 68.6706 16.334 69.1183 16.334 69.6706V69.7694C16.334 70.3217 15.8863 70.7694 15.334 70.7694C14.7817 70.7694 14.334 70.3217 14.334 69.7694V69.6706C14.334 69.1183 14.7817 68.6706 15.334 68.6706Z" fill="#6A6A6A"/>
<path d="M15.334 73.7106C15.8863 73.7106 16.334 74.1583 16.334 74.7106V74.8094C16.334 75.3617 15.8863 75.8094 15.334 75.8094C14.7817 75.8094 14.334 75.3617 14.334 74.8094V74.7106C14.334 74.1583 14.7817 73.7106 15.334 73.7106Z" fill="#6A6A6A"/>
<path d="M15.334 78.7506C15.8863 78.7506 16.334 79.1983 16.334 79.7506V79.8494C16.334 80.4017 15.8863 80.8494 15.334 80.8494C14.7817 80.8494 14.334 80.4017 14.334 79.8494V79.7506C14.334 79.1983 14.7817 78.7506 15.334 78.7506Z" fill="#6A6A6A"/>
<path d="M15.334 83.7906C15.8863 83.7906 16.334 84.2383 16.334 84.7906V84.8894C16.334 85.4417 15.8863 85.8894 15.334 85.8894C14.7817 85.8894 14.334 85.4417 14.334 84.8894V84.7906C14.334 84.2383 14.7817 83.7906 15.334 83.7906Z" fill="#6A6A6A"/>
<path d="M15.334 88.8306C15.8863 88.8306 16.334 89.2783 16.334 89.8306V89.9294C16.334 90.4817 15.8863 90.9294 15.334 90.9294C14.7817 90.9294 14.334 90.4817 14.334 89.9294V89.8306C14.334 89.2783 14.7817 88.8306 15.334 88.8306Z" fill="#6A6A6A"/>
<path d="M15.334 93.8706C15.8863 93.8706 16.334 94.3183 16.334 94.8706V94.9694C16.334 95.5217 15.8863 95.9694 15.334 95.9694C14.7817 95.9694 14.334 95.5217 14.334 94.9694V94.8706C14.334 94.3183 14.7817 93.8706 15.334 93.8706Z" fill="#6A6A6A"/>
<path d="M23.334 54.5506C23.334 53.9983 22.8863 53.5506 22.334 53.5506C21.7817 53.5506 21.334 53.9983 21.334 54.5506V54.6494C21.334 55.2017 21.7817 55.6494 22.334 55.6494C22.8863 55.6494 23.334 55.2017 23.334 54.6494V54.5506Z" fill="#6A6A6A"/>
<path d="M23.334 59.5906C23.334 59.0383 22.8863 58.5906 22.334 58.5906C21.7817 58.5906 21.334 59.0383 21.334 59.5906V59.6894C21.334 60.2417 21.7817 60.6894 22.334 60.6894C22.8863 60.6894 23.334 60.2417 23.334 59.6894V59.5906Z" fill="#6A6A6A"/>
<path d="M23.334 64.6306C23.334 64.0783 22.8863 63.6306 22.334 63.6306C21.7817 63.6306 21.334 64.0783 21.334 64.6306V64.7294C21.334 65.2817 21.7817 65.7294 22.334 65.7294C22.8863 65.7294 23.334 65.2817 23.334 64.7294V64.6306Z" fill="#6A6A6A"/>
<path d="M23.334 69.6706C23.334 69.1183 22.8863 68.6706 22.334 68.6706C21.7817 68.6706 21.334 69.1183 21.334 69.6706V69.7694C21.334 70.3217 21.7817 70.7694 22.334 70.7694C22.8863 70.7694 23.334 70.3217 23.334 69.7694V69.6706Z" fill="#6A6A6A"/>
<path d="M23.334 74.7106C23.334 74.1583 22.8863 73.7106 22.334 73.7106C21.7817 73.7106 21.334 74.1583 21.334 74.7106V74.8094C21.334 75.3617 21.7817 75.8094 22.334 75.8094C22.8863 75.8094 23.334 75.3617 23.334 74.8094V74.7106Z" fill="#6A6A6A"/>
<path d="M23.334 79.7506C23.334 79.1983 22.8863 78.7506 22.334 78.7506C21.7817 78.7506 21.334 79.1983 21.334 79.7506V79.8494C21.334 80.4017 21.7817 80.8494 22.334 80.8494C22.8863 80.8494 23.334 80.4017 23.334 79.8494V79.7506Z" fill="#6A6A6A"/>
<path d="M23.334 84.7906C23.334 84.2383 22.8863 83.7906 22.334 83.7906C21.7817 83.7906 21.334 84.2383 21.334 84.7906V84.8894C21.334 85.4417 21.7817 85.8894 22.334 85.8894C22.8863 85.8894 23.334 85.4417 23.334 84.8894V84.7906Z" fill="#6A6A6A"/>
<path d="M23.334 89.8306C23.334 89.2783 22.8863 88.8306 22.334 88.8306C21.7817 88.8306 21.334 89.2783 21.334 89.8306V89.9294C21.334 90.4817 21.7817 90.9294 22.334 90.9294C22.8863 90.9294 23.334 90.4817 23.334 89.9294V89.8306Z" fill="#6A6A6A"/>
<path d="M23.334 94.8706C23.334 94.3183 22.8863 93.8706 22.334 93.8706C21.7817 93.8706 21.334 94.3183 21.334 94.8706V94.9694C21.334 95.5217 21.7817 95.9694 22.334 95.9694C22.8863 95.9694 23.334 95.5217 23.334 94.9694V94.8706Z" fill="#6A6A6A"/>
<path d="M29.334 43.4706C29.8863 43.4706 30.334 43.9183 30.334 44.4706V44.5694C30.334 45.1217 29.8863 45.5694 29.334 45.5694C28.7817 45.5694 28.334 45.1217 28.334 44.5694V44.4706C28.334 43.9183 28.7817 43.4706 29.334 43.4706Z" fill="#6A6A6A"/>
<path d="M29.334 48.5106C29.8863 48.5106 30.334 48.9583 30.334 49.5106V49.6094C30.334 50.1617 29.8863 50.6094 29.334 50.6094C28.7817 50.6094 28.334 50.1617 28.334 49.6094V49.5106C28.334 48.9583 28.7817 48.5106 29.334 48.5106Z" fill="#6A6A6A"/>
<path d="M29.334 53.5506C29.8863 53.5506 30.334 53.9983 30.334 54.5506V54.6494C30.334 55.2017 29.8863 55.6494 29.334 55.6494C28.7817 55.6494 28.334 55.2017 28.334 54.6494V54.5506C28.334 53.9983 28.7817 53.5506 29.334 53.5506Z" fill="#6A6A6A"/>
<path d="M29.334 58.5906C29.8863 58.5906 30.334 59.0383 30.334 59.5906V59.6894C30.334 60.2417 29.8863 60.6894 29.334 60.6894C28.7817 60.6894 28.334 60.2417 28.334 59.6894V59.5906C28.334 59.0383 28.7817 58.5906 29.334 58.5906Z" fill="#6A6A6A"/>
<path d="M29.334 63.6306C29.8863 63.6306 30.334 64.0783 30.334 64.6306V64.7294C30.334 65.2817 29.8863 65.7294 29.334 65.7294C28.7817 65.7294 28.334 65.2817 28.334 64.7294V64.6306C28.334 64.0783 28.7817 63.6306 29.334 63.6306Z" fill="#6A6A6A"/>
<path d="M29.334 68.6706C29.8863 68.6706 30.334 69.1183 30.334 69.6706V69.7694C30.334 70.3217 29.8863 70.7694 29.334 70.7694C28.7817 70.7694 28.334 70.3217 28.334 69.7694V69.6706C28.334 69.1183 28.7817 68.6706 29.334 68.6706Z" fill="#6A6A6A"/>
<path d="M29.334 73.7106C29.8863 73.7106 30.334 74.1583 30.334 74.7106V74.8094C30.334 75.3617 29.8863 75.8094 29.334 75.8094C28.7817 75.8094 28.334 75.3617 28.334 74.8094V74.7106C28.334 74.1583 28.7817 73.7106 29.334 73.7106Z" fill="#6A6A6A"/>
<path d="M29.334 78.7506C29.8863 78.7506 30.334 79.1983 30.334 79.7506V79.8494C30.334 80.4017 29.8863 80.8494 29.334 80.8494C28.7817 80.8494 28.334 80.4017 28.334 79.8494V79.7506C28.334 79.1983 28.7817 78.7506 29.334 78.7506Z" fill="#6A6A6A"/>
<path d="M29.334 83.7906C29.8863 83.7906 30.334 84.2383 30.334 84.7906V84.8894C30.334 85.4417 29.8863 85.8894 29.334 85.8894C28.7817 85.8894 28.334 85.4417 28.334 84.8894V84.7906C28.334 84.2383 28.7817 83.7906 29.334 83.7906Z" fill="#6A6A6A"/>
<path d="M29.334 88.8306C29.8863 88.8306 30.334 89.2783 30.334 89.8306V89.9294C30.334 90.4817 29.8863 90.9294 29.334 90.9294C28.7817 90.9294 28.334 90.4817 28.334 89.9294V89.8306C28.334 89.2783 28.7817 88.8306 29.334 88.8306Z" fill="#6A6A6A"/>
<path d="M29.334 93.8706C29.8863 93.8706 30.334 94.3183 30.334 94.8706V94.9694C30.334 95.5217 29.8863 95.9694 29.334 95.9694C28.7817 95.9694 28.334 95.5217 28.334 94.9694V94.8706C28.334 94.3183 28.7817 93.8706 29.334 93.8706Z" fill="#6A6A6A"/>
<path d="M37.334 29.3506C37.334 28.7983 36.8863 28.3506 36.334 28.3506C35.7817 28.3506 35.334 28.7983 35.334 29.3506V29.4494C35.334 30.0017 35.7817 30.4494 36.334 30.4494C36.8863 30.4494 37.334 30.0017 37.334 29.4494V29.3506Z" fill="#6A6A6A"/>
<path d="M37.334 34.3906C37.334 33.8383 36.8863 33.3906 36.334 33.3906C35.7817 33.3906 35.334 33.8383 35.334 34.3906V34.4894C35.334 35.0417 35.7817 35.4894 36.334 35.4894C36.8863 35.4894 37.334 35.0417 37.334 34.4894V34.3906Z" fill="#6A6A6A"/>
<path d="M37.334 39.4306C37.334 38.8783 36.8863 38.4306 36.334 38.4306C35.7817 38.4306 35.334 38.8783 35.334 39.4306V39.5294C35.334 40.0817 35.7817 40.5294 36.334 40.5294C36.8863 40.5294 37.334 40.0817 37.334 39.5294V39.4306Z" fill="#6A6A6A"/>
<path d="M37.334 44.4706C37.334 43.9183 36.8863 43.4706 36.334 43.4706C35.7817 43.4706 35.334 43.9183 35.334 44.4706V44.5694C35.334 45.1217 35.7817 45.5694 36.334 45.5694C36.8863 45.5694 37.334 45.1217 37.334 44.5694V44.4706Z" fill="#6A6A6A"/>
<path d="M37.334 49.5106C37.334 48.9583 36.8863 48.5106 36.334 48.5106C35.7817 48.5106 35.334 48.9583 35.334 49.5106V49.6094C35.334 50.1617 35.7817 50.6094 36.334 50.6094C36.8863 50.6094 37.334 50.1617 37.334 49.6094V49.5106Z" fill="#6A6A6A"/>
<path d="M37.334 54.5506C37.334 53.9983 36.8863 53.5506 36.334 53.5506C35.7817 53.5506 35.334 53.9983 35.334 54.5506V54.6494C35.334 55.2017 35.7817 55.6494 36.334 55.6494C36.8863 55.6494 37.334 55.2017 37.334 54.6494V54.5506Z" fill="#6A6A6A"/>
<path d="M37.334 59.5906C37.334 59.0383 36.8863 58.5906 36.334 58.5906C35.7817 58.5906 35.334 59.0383 35.334 59.5906V59.6894C35.334 60.2417 35.7817 60.6894 36.334 60.6894C36.8863 60.6894 37.334 60.2417 37.334 59.6894V59.5906Z" fill="#6A6A6A"/>
<path d="M37.334 64.6306C37.334 64.0783 36.8863 63.6306 36.334 63.6306C35.7817 63.6306 35.334 64.0783 35.334 64.6306V64.7294C35.334 65.2817 35.7817 65.7294 36.334 65.7294C36.8863 65.7294 37.334 65.2817 37.334 64.7294V64.6306Z" fill="#6A6A6A"/>
<path d="M37.334 69.6706C37.334 69.1183 36.8863 68.6706 36.334 68.6706C35.7817 68.6706 35.334 69.1183 35.334 69.6706V69.7694C35.334 70.3217 35.7817 70.7694 36.334 70.7694C36.8863 70.7694 37.334 70.3217 37.334 69.7694V69.6706Z" fill="#6A6A6A"/>
<path d="M37.334 74.7106C37.334 74.1583 36.8863 73.7106 36.334 73.7106C35.7817 73.7106 35.334 74.1583 35.334 74.7106V74.8094C35.334 75.3617 35.7817 75.8094 36.334 75.8094C36.8863 75.8094 37.334 75.3617 37.334 74.8094V74.7106Z" fill="#6A6A6A"/>
<path d="M37.334 79.7506C37.334 79.1983 36.8863 78.7506 36.334 78.7506C35.7817 78.7506 35.334 79.1983 35.334 79.7506V79.8494C35.334 80.4017 35.7817 80.8494 36.334 80.8494C36.8863 80.8494 37.334 80.4017 37.334 79.8494V79.7506Z" fill="#6A6A6A"/>
<path d="M37.334 84.7906C37.334 84.2383 36.8863 83.7906 36.334 83.7906C35.7817 83.7906 35.334 84.2383 35.334 84.7906V84.8894C35.334 85.4417 35.7817 85.8894 36.334 85.8894C36.8863 85.8894 37.334 85.4417 37.334 84.8894V84.7906Z" fill="#6A6A6A"/>
<path d="M37.334 89.8306C37.334 89.2783 36.8863 88.8306 36.334 88.8306C35.7817 88.8306 35.334 89.2783 35.334 89.8306V89.9294C35.334 90.4817 35.7817 90.9294 36.334 90.9294C36.8863 90.9294 37.334 90.4817 37.334 89.9294V89.8306Z" fill="#6A6A6A"/>
<path d="M37.334 94.8706C37.334 94.3183 36.8863 93.8706 36.334 93.8706C35.7817 93.8706 35.334 94.3183 35.334 94.8706V94.9694C35.334 95.5217 35.7817 95.9694 36.334 95.9694C36.8863 95.9694 37.334 95.5217 37.334 94.9694V94.8706Z" fill="#6A6A6A"/>
<path d="M43.334 18.2706C43.8863 18.2706 44.334 18.7183 44.334 19.2706V19.3694C44.334 19.9217 43.8863 20.3694 43.334 20.3694C42.7817 20.3694 42.334 19.9217 42.334 19.3694V19.2706C42.334 18.7183 42.7817 18.2706 43.334 18.2706Z" fill="#6A6A6A"/>
<path d="M43.334 23.3106C43.8863 23.3106 44.334 23.7583 44.334 24.3106V24.4094C44.334 24.9617 43.8863 25.4094 43.334 25.4094C42.7817 25.4094 42.334 24.9617 42.334 24.4094V24.3106C42.334 23.7583 42.7817 23.3106 43.334 23.3106Z" fill="#6A6A6A"/>
<path d="M43.334 28.3506C43.8863 28.3506 44.334 28.7983 44.334 29.3506V29.4494C44.334 30.0017 43.8863 30.4494 43.334 30.4494C42.7817 30.4494 42.334 30.0017 42.334 29.4494V29.3506C42.334 28.7983 42.7817 28.3506 43.334 28.3506Z" fill="#6A6A6A"/>
<path d="M43.334 33.3906C43.8863 33.3906 44.334 33.8383 44.334 34.3906V34.4894C44.334 35.0417 43.8863 35.4894 43.334 35.4894C42.7817 35.4894 42.334 35.0417 42.334 34.4894V34.3906C42.334 33.8383 42.7817 33.3906 43.334 33.3906Z" fill="#6A6A6A"/>
<path d="M43.334 38.4306C43.8863 38.4306 44.334 38.8783 44.334 39.4306V39.5294C44.334 40.0817 43.8863 40.5294 43.334 40.5294C42.7817 40.5294 42.334 40.0817 42.334 39.5294V39.4306C42.334 38.8783 42.7817 38.4306 43.334 38.4306Z" fill="#6A6A6A"/>
<path d="M43.334 43.4706C43.8863 43.4706 44.334 43.9183 44.334 44.4706V44.5694C44.334 45.1217 43.8863 45.5694 43.334 45.5694C42.7817 45.5694 42.334 45.1217 42.334 44.5694V44.4706C42.334 43.9183 42.7817 43.4706 43.334 43.4706Z" fill="#6A6A6A"/>
<path d="M43.334 48.5106C43.8863 48.5106 44.334 48.9583 44.334 49.5106V49.6094C44.334 50.1617 43.8863 50.6094 43.334 50.6094C42.7817 50.6094 42.334 50.1617 42.334 49.6094V49.5106C42.334 48.9583 42.7817 48.5106 43.334 48.5106Z" fill="#6A6A6A"/>
<path d="M43.334 53.5506C43.8863 53.5506 44.334 53.9983 44.334 54.5506V54.6494C44.334 55.2017 43.8863 55.6494 43.334 55.6494C42.7817 55.6494 42.334 55.2017 42.334 54.6494V54.5506C42.334 53.9983 42.7817 53.5506 43.334 53.5506Z" fill="#6A6A6A"/>
<path d="M43.334 58.5906C43.8863 58.5906 44.334 59.0383 44.334 59.5906V59.6894C44.334 60.2417 43.8863 60.6894 43.334 60.6894C42.7817 60.6894 42.334 60.2417 42.334 59.6894V59.5906C42.334 59.0383 42.7817 58.5906 43.334 58.5906Z" fill="#6A6A6A"/>
<path d="M43.334 63.6306C43.8863 63.6306 44.334 64.0783 44.334 64.6306V64.7294C44.334 65.2817 43.8863 65.7294 43.334 65.7294C42.7817 65.7294 42.334 65.2817 42.334 64.7294V64.6306C42.334 64.0783 42.7817 63.6306 43.334 63.6306Z" fill="#6A6A6A"/>
<path d="M43.334 68.6706C43.8863 68.6706 44.334 69.1183 44.334 69.6706V69.7694C44.334 70.3217 43.8863 70.7694 43.334 70.7694C42.7817 70.7694 42.334 70.3217 42.334 69.7694V69.6706C42.334 69.1183 42.7817 68.6706 43.334 68.6706Z" fill="#6A6A6A"/>
<path d="M43.334 73.7106C43.8863 73.7106 44.334 74.1583 44.334 74.7106V74.8094C44.334 75.3617 43.8863 75.8094 43.334 75.8094C42.7817 75.8094 42.334 75.3617 42.334 74.8094V74.7106C42.334 74.1583 42.7817 73.7106 43.334 73.7106Z" fill="#6A6A6A"/>
<path d="M43.334 78.7506C43.8863 78.7506 44.334 79.1983 44.334 79.7506V79.8494C44.334 80.4017 43.8863 80.8494 43.334 80.8494C42.7817 80.8494 42.334 80.4017 42.334 79.8494V79.7506C42.334 79.1983 42.7817 78.7506 43.334 78.7506Z" fill="#6A6A6A"/>
<path d="M43.334 83.7906C43.8863 83.7906 44.334 84.2383 44.334 84.7906V84.8894C44.334 85.4417 43.8863 85.8894 43.334 85.8894C42.7817 85.8894 42.334 85.4417 42.334 84.8894V84.7906C42.334 84.2383 42.7817 83.7906 43.334 83.7906Z" fill="#6A6A6A"/>
<path d="M43.334 88.8306C43.8863 88.8306 44.334 89.2783 44.334 89.8306V89.9294C44.334 90.4817 43.8863 90.9294 43.334 90.9294C42.7817 90.9294 42.334 90.4817 42.334 89.9294V89.8306C42.334 89.2783 42.7817 88.8306 43.334 88.8306Z" fill="#6A6A6A"/>
<path d="M43.334 93.8706C43.8863 93.8706 44.334 94.3183 44.334 94.8706V94.9694C44.334 95.5217 43.8863 95.9694 43.334 95.9694C42.7817 95.9694 42.334 95.5217 42.334 94.9694V94.8706C42.334 94.3183 42.7817 93.8706 43.334 93.8706Z" fill="#6A6A6A"/>
<path d="M51.334 4.15059C51.334 3.5983 50.8863 3.15059 50.334 3.15059C49.7817 3.15059 49.334 3.5983 49.334 4.15059V4.24941C49.334 4.8017 49.7817 5.24941 50.334 5.24941C50.8863 5.24941 51.334 4.8017 51.334 4.24941V4.15059Z" fill="#6A6A6A"/>
<path d="M51.334 9.19059C51.334 8.63831 50.8863 8.19059 50.334 8.19059C49.7817 8.19059 49.334 8.63831 49.334 9.19059V9.28941C49.334 9.8417 49.7817 10.2894 50.334 10.2894C50.8863 10.2894 51.334 9.8417 51.334 9.28941V9.19059Z" fill="#6A6A6A"/>
<path d="M51.334 14.2306C51.334 13.6783 50.8863 13.2306 50.334 13.2306C49.7817 13.2306 49.334 13.6783 49.334 14.2306V14.3294C49.334 14.8817 49.7817 15.3294 50.334 15.3294C50.8863 15.3294 51.334 14.8817 51.334 14.3294V14.2306Z" fill="#6A6A6A"/>
<path d="M51.334 19.2706C51.334 18.7183 50.8863 18.2706 50.334 18.2706C49.7817 18.2706 49.334 18.7183 49.334 19.2706V19.3694C49.334 19.9217 49.7817 20.3694 50.334 20.3694C50.8863 20.3694 51.334 19.9217 51.334 19.3694V19.2706Z" fill="#6A6A6A"/>
<path d="M51.334 24.3106C51.334 23.7583 50.8863 23.3106 50.334 23.3106C49.7817 23.3106 49.334 23.7583 49.334 24.3106V24.4094C49.334 24.9617 49.7817 25.4094 50.334 25.4094C50.8863 25.4094 51.334 24.9617 51.334 24.4094V24.3106Z" fill="#6A6A6A"/>
<path d="M51.334 29.3506C51.334 28.7983 50.8863 28.3506 50.334 28.3506C49.7817 28.3506 49.334 28.7983 49.334 29.3506V29.4494C49.334 30.0017 49.7817 30.4494 50.334 30.4494C50.8863 30.4494 51.334 30.0017 51.334 29.4494V29.3506Z" fill="#6A6A6A"/>
<path d="M51.334 34.3906C51.334 33.8383 50.8863 33.3906 50.334 33.3906C49.7817 33.3906 49.334 33.8383 49.334 34.3906V34.4894C49.334 35.0417 49.7817 35.4894 50.334 35.4894C50.8863 35.4894 51.334 35.0417 51.334 34.4894V34.3906Z" fill="#6A6A6A"/>
<path d="M51.334 39.4306C51.334 38.8783 50.8863 38.4306 50.334 38.4306C49.7817 38.4306 49.334 38.8783 49.334 39.4306V39.5294C49.334 40.0817 49.7817 40.5294 50.334 40.5294C50.8863 40.5294 51.334 40.0817 51.334 39.5294V39.4306Z" fill="#6A6A6A"/>
<path d="M51.334 44.4706C51.334 43.9183 50.8863 43.4706 50.334 43.4706C49.7817 43.4706 49.334 43.9183 49.334 44.4706V44.5694C49.334 45.1217 49.7817 45.5694 50.334 45.5694C50.8863 45.5694 51.334 45.1217 51.334 44.5694V44.4706Z" fill="#6A6A6A"/>
<path d="M51.334 49.5106C51.334 48.9583 50.8863 48.5106 50.334 48.5106C49.7817 48.5106 49.334 48.9583 49.334 49.5106V49.6094C49.334 50.1617 49.7817 50.6094 50.334 50.6094C50.8863 50.6094 51.334 50.1617 51.334 49.6094V49.5106Z" fill="#6A6A6A"/>
<path d="M51.334 54.5506C51.334 53.9983 50.8863 53.5506 50.334 53.5506C49.7817 53.5506 49.334 53.9983 49.334 54.5506V54.6494C49.334 55.2017 49.7817 55.6494 50.334 55.6494C50.8863 55.6494 51.334 55.2017 51.334 54.6494V54.5506Z" fill="#6A6A6A"/>
<path d="M51.334 59.5906C51.334 59.0383 50.8863 58.5906 50.334 58.5906C49.7817 58.5906 49.334 59.0383 49.334 59.5906V59.6894C49.334 60.2417 49.7817 60.6894 50.334 60.6894C50.8863 60.6894 51.334 60.2417 51.334 59.6894V59.5906Z" fill="#6A6A6A"/>
<path d="M51.334 64.6306C51.334 64.0783 50.8863 63.6306 50.334 63.6306C49.7817 63.6306 49.334 64.0783 49.334 64.6306V64.7294C49.334 65.2817 49.7817 65.7294 50.334 65.7294C50.8863 65.7294 51.334 65.2817 51.334 64.7294V64.6306Z" fill="#6A6A6A"/>
<path d="M51.334 69.6706C51.334 69.1183 50.8863 68.6706 50.334 68.6706C49.7817 68.6706 49.334 69.1183 49.334 69.6706V69.7694C49.334 70.3217 49.7817 70.7694 50.334 70.7694C50.8863 70.7694 51.334 70.3217 51.334 69.7694V69.6706Z" fill="#6A6A6A"/>
<path d="M51.334 74.7106C51.334 74.1583 50.8863 73.7106 50.334 73.7106C49.7817 73.7106 49.334 74.1583 49.334 74.7106V74.8094C49.334 75.3617 49.7817 75.8094 50.334 75.8094C50.8863 75.8094 51.334 75.3617 51.334 74.8094V74.7106Z" fill="#6A6A6A"/>
<path d="M51.334 79.7506C51.334 79.1983 50.8863 78.7506 50.334 78.7506C49.7817 78.7506 49.334 79.1983 49.334 79.7506V79.8494C49.334 80.4017 49.7817 80.8494 50.334 80.8494C50.8863 80.8494 51.334 80.4017 51.334 79.8494V79.7506Z" fill="#6A6A6A"/>
<path d="M51.334 84.7906C51.334 84.2383 50.8863 83.7906 50.334 83.7906C49.7817 83.7906 49.334 84.2383 49.334 84.7906V84.8894C49.334 85.4417 49.7817 85.8894 50.334 85.8894C50.8863 85.8894 51.334 85.4417 51.334 84.8894V84.7906Z" fill="#6A6A6A"/>
<path d="M51.334 89.8306C51.334 89.2783 50.8863 88.8306 50.334 88.8306C49.7817 88.8306 49.334 89.2783 49.334 89.8306V89.9294C49.334 90.4817 49.7817 90.9294 50.334 90.9294C50.8863 90.9294 51.334 90.4817 51.334 89.9294V89.8306Z" fill="#6A6A6A"/>
<path d="M51.334 94.8706C51.334 94.3183 50.8863 93.8706 50.334 93.8706C49.7817 93.8706 49.334 94.3183 49.334 94.8706V94.9694C49.334 95.5217 49.7817 95.9694 50.334 95.9694C50.8863 95.9694 51.334 95.5217 51.334 94.9694V94.8706Z" fill="#6A6A6A"/>
<path d="M57.334 18.2706C57.8863 18.2706 58.334 18.7183 58.334 19.2706V19.3694C58.334 19.9217 57.8863 20.3694 57.334 20.3694C56.7817 20.3694 56.334 19.9217 56.334 19.3694V19.2706C56.334 18.7183 56.7817 18.2706 57.334 18.2706Z" fill="#6A6A6A"/>
<path d="M57.334 23.3106C57.8863 23.3106 58.334 23.7583 58.334 24.3106V24.4094C58.334 24.9617 57.8863 25.4094 57.334 25.4094C56.7817 25.4094 56.334 24.9617 56.334 24.4094V24.3106C56.334 23.7583 56.7817 23.3106 57.334 23.3106Z" fill="#6A6A6A"/>
<path d="M57.334 28.3506C57.8863 28.3506 58.334 28.7983 58.334 29.3506V29.4494C58.334 30.0017 57.8863 30.4494 57.334 30.4494C56.7817 30.4494 56.334 30.0017 56.334 29.4494V29.3506C56.334 28.7983 56.7817 28.3506 57.334 28.3506Z" fill="#6A6A6A"/>
<path d="M57.334 33.3906C57.8863 33.3906 58.334 33.8383 58.334 34.3906V34.4894C58.334 35.0417 57.8863 35.4894 57.334 35.4894C56.7817 35.4894 56.334 35.0417 56.334 34.4894V34.3906C56.334 33.8383 56.7817 33.3906 57.334 33.3906Z" fill="#6A6A6A"/>
<path d="M57.334 38.4306C57.8863 38.4306 58.334 38.8783 58.334 39.4306V39.5294C58.334 40.0817 57.8863 40.5294 57.334 40.5294C56.7817 40.5294 56.334 40.0817 56.334 39.5294V39.4306C56.334 38.8783 56.7817 38.4306 57.334 38.4306Z" fill="#6A6A6A"/>
<path d="M57.334 43.4706C57.8863 43.4706 58.334 43.9183 58.334 44.4706V44.5694C58.334 45.1217 57.8863 45.5694 57.334 45.5694C56.7817 45.5694 56.334 45.1217 56.334 44.5694V44.4706C56.334 43.9183 56.7817 43.4706 57.334 43.4706Z" fill="#6A6A6A"/>
<path d="M57.334 48.5106C57.8863 48.5106 58.334 48.9583 58.334 49.5106V49.6094C58.334 50.1617 57.8863 50.6094 57.334 50.6094C56.7817 50.6094 56.334 50.1617 56.334 49.6094V49.5106C56.334 48.9583 56.7817 48.5106 57.334 48.5106Z" fill="#6A6A6A"/>
<path d="M57.334 53.5506C57.8863 53.5506 58.334 53.9983 58.334 54.5506V54.6494C58.334 55.2017 57.8863 55.6494 57.334 55.6494C56.7817 55.6494 56.334 55.2017 56.334 54.6494V54.5506C56.334 53.9983 56.7817 53.5506 57.334 53.5506Z" fill="#6A6A6A"/>
<path d="M57.334 58.5906C57.8863 58.5906 58.334 59.0383 58.334 59.5906V59.6894C58.334 60.2417 57.8863 60.6894 57.334 60.6894C56.7817 60.6894 56.334 60.2417 56.334 59.6894V59.5906C56.334 59.0383 56.7817 58.5906 57.334 58.5906Z" fill="#6A6A6A"/>
<path d="M57.334 63.6306C57.8863 63.6306 58.334 64.0783 58.334 64.6306V64.7294C58.334 65.2817 57.8863 65.7294 57.334 65.7294C56.7817 65.7294 56.334 65.2817 56.334 64.7294V64.6306C56.334 64.0783 56.7817 63.6306 57.334 63.6306Z" fill="#6A6A6A"/>
<path d="M57.334 68.6706C57.8863 68.6706 58.334 69.1183 58.334 69.6706V69.7694C58.334 70.3217 57.8863 70.7694 57.334 70.7694C56.7817 70.7694 56.334 70.3217 56.334 69.7694V69.6706C56.334 69.1183 56.7817 68.6706 57.334 68.6706Z" fill="#6A6A6A"/>
<path d="M57.334 73.7106C57.8863 73.7106 58.334 74.1583 58.334 74.7106V74.8094C58.334 75.3617 57.8863 75.8094 57.334 75.8094C56.7817 75.8094 56.334 75.3617 56.334 74.8094V74.7106C56.334 74.1583 56.7817 73.7106 57.334 73.7106Z" fill="#6A6A6A"/>
<path d="M57.334 78.7506C57.8863 78.7506 58.334 79.1983 58.334 79.7506V79.8494C58.334 80.4017 57.8863 80.8494 57.334 80.8494C56.7817 80.8494 56.334 80.4017 56.334 79.8494V79.7506C56.334 79.1983 56.7817 78.7506 57.334 78.7506Z" fill="#6A6A6A"/>
<path d="M57.334 83.7906C57.8863 83.7906 58.334 84.2383 58.334 84.7906V84.8894C58.334 85.4417 57.8863 85.8894 57.334 85.8894C56.7817 85.8894 56.334 85.4417 56.334 84.8894V84.7906C56.334 84.2383 56.7817 83.7906 57.334 83.7906Z" fill="#6A6A6A"/>
<path d="M57.334 88.8306C57.8863 88.8306 58.334 89.2783 58.334 89.8306V89.9294C58.334 90.4817 57.8863 90.9294 57.334 90.9294C56.7817 90.9294 56.334 90.4817 56.334 89.9294V89.8306C56.334 89.2783 56.7817 88.8306 57.334 88.8306Z" fill="#6A6A6A"/>
<path d="M57.334 93.8706C57.8863 93.8706 58.334 94.3183 58.334 94.8706V94.9694C58.334 95.5217 57.8863 95.9694 57.334 95.9694C56.7817 95.9694 56.334 95.5217 56.334 94.9694V94.8706C56.334 94.3183 56.7817 93.8706 57.334 93.8706Z" fill="#6A6A6A"/>
<path d="M65.334 29.3506C65.334 28.7983 64.8863 28.3506 64.334 28.3506C63.7817 28.3506 63.334 28.7983 63.334 29.3506V29.4494C63.334 30.0017 63.7817 30.4494 64.334 30.4494C64.8863 30.4494 65.334 30.0017 65.334 29.4494V29.3506Z" fill="#6A6A6A"/>
<path d="M65.334 34.3906C65.334 33.8383 64.8863 33.3906 64.334 33.3906C63.7817 33.3906 63.334 33.8383 63.334 34.3906V34.4894C63.334 35.0417 63.7817 35.4894 64.334 35.4894C64.8863 35.4894 65.334 35.0417 65.334 34.4894V34.3906Z" fill="#6A6A6A"/>
<path d="M65.334 39.4306C65.334 38.8783 64.8863 38.4306 64.334 38.4306C63.7817 38.4306 63.334 38.8783 63.334 39.4306V39.5294C63.334 40.0817 63.7817 40.5294 64.334 40.5294C64.8863 40.5294 65.334 40.0817 65.334 39.5294V39.4306Z" fill="#6A6A6A"/>
<path d="M65.334 44.4706C65.334 43.9183 64.8863 43.4706 64.334 43.4706C63.7817 43.4706 63.334 43.9183 63.334 44.4706V44.5694C63.334 45.1217 63.7817 45.5694 64.334 45.5694C64.8863 45.5694 65.334 45.1217 65.334 44.5694V44.4706Z" fill="#6A6A6A"/>
<path d="M65.334 49.5106C65.334 48.9583 64.8863 48.5106 64.334 48.5106C63.7817 48.5106 63.334 48.9583 63.334 49.5106V49.6094C63.334 50.1617 63.7817 50.6094 64.334 50.6094C64.8863 50.6094 65.334 50.1617 65.334 49.6094V49.5106Z" fill="#6A6A6A"/>
<path d="M65.334 54.5506C65.334 53.9983 64.8863 53.5506 64.334 53.5506C63.7817 53.5506 63.334 53.9983 63.334 54.5506V54.6494C63.334 55.2017 63.7817 55.6494 64.334 55.6494C64.8863 55.6494 65.334 55.2017 65.334 54.6494V54.5506Z" fill="#6A6A6A"/>
<path d="M65.334 59.5906C65.334 59.0383 64.8863 58.5906 64.334 58.5906C63.7817 58.5906 63.334 59.0383 63.334 59.5906V59.6894C63.334 60.2417 63.7817 60.6894 64.334 60.6894C64.8863 60.6894 65.334 60.2417 65.334 59.6894V59.5906Z" fill="#6A6A6A"/>
<path d="M65.334 64.6306C65.334 64.0783 64.8863 63.6306 64.334 63.6306C63.7817 63.6306 63.334 64.0783 63.334 64.6306V64.7294C63.334 65.2817 63.7817 65.7294 64.334 65.7294C64.8863 65.7294 65.334 65.2817 65.334 64.7294V64.6306Z" fill="#6A6A6A"/>
<path d="M65.334 69.6706C65.334 69.1183 64.8863 68.6706 64.334 68.6706C63.7817 68.6706 63.334 69.1183 63.334 69.6706V69.7694C63.334 70.3217 63.7817 70.7694 64.334 70.7694C64.8863 70.7694 65.334 70.3217 65.334 69.7694V69.6706Z" fill="#6A6A6A"/>
<path d="M65.334 74.7106C65.334 74.1583 64.8863 73.7106 64.334 73.7106C63.7817 73.7106 63.334 74.1583 63.334 74.7106V74.8094C63.334 75.3617 63.7817 75.8094 64.334 75.8094C64.8863 75.8094 65.334 75.3617 65.334 74.8094V74.7106Z" fill="#6A6A6A"/>
<path d="M65.334 79.7506C65.334 79.1983 64.8863 78.7506 64.334 78.7506C63.7817 78.7506 63.334 79.1983 63.334 79.7506V79.8494C63.334 80.4017 63.7817 80.8494 64.334 80.8494C64.8863 80.8494 65.334 80.4017 65.334 79.8494V79.7506Z" fill="#6A6A6A"/>
<path d="M65.334 84.7906C65.334 84.2383 64.8863 83.7906 64.334 83.7906C63.7817 83.7906 63.334 84.2383 63.334 84.7906V84.8894C63.334 85.4417 63.7817 85.8894 64.334 85.8894C64.8863 85.8894 65.334 85.4417 65.334 84.8894V84.7906Z" fill="#6A6A6A"/>
<path d="M65.334 89.8306C65.334 89.2783 64.8863 88.8306 64.334 88.8306C63.7817 88.8306 63.334 89.2783 63.334 89.8306V89.9294C63.334 90.4817 63.7817 90.9294 64.334 90.9294C64.8863 90.9294 65.334 90.4817 65.334 89.9294V89.8306Z" fill="#6A6A6A"/>
<path d="M65.334 94.8706C65.334 94.3183 64.8863 93.8706 64.334 93.8706C63.7817 93.8706 63.334 94.3183 63.334 94.8706V94.9694C63.334 95.5217 63.7817 95.9694 64.334 95.9694C64.8863 95.9694 65.334 95.5217 65.334 94.9694V94.8706Z" fill="#6A6A6A"/>
<path d="M71.334 43.4706C71.8863 43.4706 72.334 43.9183 72.334 44.4706V44.5694C72.334 45.1217 71.8863 45.5694 71.334 45.5694C70.7817 45.5694 70.334 45.1217 70.334 44.5694V44.4706C70.334 43.9183 70.7817 43.4706 71.334 43.4706Z" fill="#6A6A6A"/>
<path d="M71.334 48.5106C71.8863 48.5106 72.334 48.9583 72.334 49.5106V49.6094C72.334 50.1617 71.8863 50.6094 71.334 50.6094C70.7817 50.6094 70.334 50.1617 70.334 49.6094V49.5106C70.334 48.9583 70.7817 48.5106 71.334 48.5106Z" fill="#6A6A6A"/>
<path d="M71.334 53.5506C71.8863 53.5506 72.334 53.9983 72.334 54.5506V54.6494C72.334 55.2017 71.8863 55.6494 71.334 55.6494C70.7817 55.6494 70.334 55.2017 70.334 54.6494V54.5506C70.334 53.9983 70.7817 53.5506 71.334 53.5506Z" fill="#6A6A6A"/>
<path d="M71.334 58.5906C71.8863 58.5906 72.334 59.0383 72.334 59.5906V59.6894C72.334 60.2417 71.8863 60.6894 71.334 60.6894C70.7817 60.6894 70.334 60.2417 70.334 59.6894V59.5906C70.334 59.0383 70.7817 58.5906 71.334 58.5906Z" fill="#6A6A6A"/>
<path d="M71.334 63.6306C71.8863 63.6306 72.334 64.0783 72.334 64.6306V64.7294C72.334 65.2817 71.8863 65.7294 71.334 65.7294C70.7817 65.7294 70.334 65.2817 70.334 64.7294V64.6306C70.334 64.0783 70.7817 63.6306 71.334 63.6306Z" fill="#6A6A6A"/>
<path d="M71.334 68.6706C71.8863 68.6706 72.334 69.1183 72.334 69.6706V69.7694C72.334 70.3217 71.8863 70.7694 71.334 70.7694C70.7817 70.7694 70.334 70.3217 70.334 69.7694V69.6706C70.334 69.1183 70.7817 68.6706 71.334 68.6706Z" fill="#6A6A6A"/>
<path d="M71.334 73.7106C71.8863 73.7106 72.334 74.1583 72.334 74.7106V74.8094C72.334 75.3617 71.8863 75.8094 71.334 75.8094C70.7817 75.8094 70.334 75.3617 70.334 74.8094V74.7106C70.334 74.1583 70.7817 73.7106 71.334 73.7106Z" fill="#6A6A6A"/>
<path d="M71.334 78.7506C71.8863 78.7506 72.334 79.1983 72.334 79.7506V79.8494C72.334 80.4017 71.8863 80.8494 71.334 80.8494C70.7817 80.8494 70.334 80.4017 70.334 79.8494V79.7506C70.334 79.1983 70.7817 78.7506 71.334 78.7506Z" fill="#6A6A6A"/>
<path d="M71.334 83.7906C71.8863 83.7906 72.334 84.2383 72.334 84.7906V84.8894C72.334 85.4417 71.8863 85.8894 71.334 85.8894C70.7817 85.8894 70.334 85.4417 70.334 84.8894V84.7906C70.334 84.2383 70.7817 83.7906 71.334 83.7906Z" fill="#6A6A6A"/>
<path d="M71.334 88.8306C71.8863 88.8306 72.334 89.2783 72.334 89.8306V89.9294C72.334 90.4817 71.8863 90.9294 71.334 90.9294C70.7817 90.9294 70.334 90.4817 70.334 89.9294V89.8306C70.334 89.2783 70.7817 88.8306 71.334 88.8306Z" fill="#6A6A6A"/>
<path d="M71.334 93.8706C71.8863 93.8706 72.334 94.3183 72.334 94.8706V94.9694C72.334 95.5217 71.8863 95.9694 71.334 95.9694C70.7817 95.9694 70.334 95.5217 70.334 94.9694V94.8706C70.334 94.3183 70.7817 93.8706 71.334 93.8706Z" fill="#6A6A6A"/>
<path d="M79.334 54.5506C79.334 53.9983 78.8863 53.5506 78.334 53.5506C77.7817 53.5506 77.334 53.9983 77.334 54.5506V54.6494C77.334 55.2017 77.7817 55.6494 78.334 55.6494C78.8863 55.6494 79.334 55.2017 79.334 54.6494V54.5506Z" fill="#6A6A6A"/>
<path d="M79.334 59.5906C79.334 59.0383 78.8863 58.5906 78.334 58.5906C77.7817 58.5906 77.334 59.0383 77.334 59.5906V59.6894C77.334 60.2417 77.7817 60.6894 78.334 60.6894C78.8863 60.6894 79.334 60.2417 79.334 59.6894V59.5906Z" fill="#6A6A6A"/>
<path d="M79.334 64.6306C79.334 64.0783 78.8863 63.6306 78.334 63.6306C77.7817 63.6306 77.334 64.0783 77.334 64.6306V64.7294C77.334 65.2817 77.7817 65.7294 78.334 65.7294C78.8863 65.7294 79.334 65.2817 79.334 64.7294V64.6306Z" fill="#6A6A6A"/>
<path d="M79.334 69.6706C79.334 69.1183 78.8863 68.6706 78.334 68.6706C77.7817 68.6706 77.334 69.1183 77.334 69.6706V69.7694C77.334 70.3217 77.7817 70.7694 78.334 70.7694C78.8863 70.7694 79.334 70.3217 79.334 69.7694V69.6706Z" fill="#6A6A6A"/>
<path d="M79.334 74.7106C79.334 74.1583 78.8863 73.7106 78.334 73.7106C77.7817 73.7106 77.334 74.1583 77.334 74.7106V74.8094C77.334 75.3617 77.7817 75.8094 78.334 75.8094C78.8863 75.8094 79.334 75.3617 79.334 74.8094V74.7106Z" fill="#6A6A6A"/>
<path d="M79.334 79.7506C79.334 79.1983 78.8863 78.7506 78.334 78.7506C77.7817 78.7506 77.334 79.1983 77.334 79.7506V79.8494C77.334 80.4017 77.7817 80.8494 78.334 80.8494C78.8863 80.8494 79.334 80.4017 79.334 79.8494V79.7506Z" fill="#6A6A6A"/>
<path d="M79.334 84.7906C79.334 84.2383 78.8863 83.7906 78.334 83.7906C77.7817 83.7906 77.334 84.2383 77.334 84.7906V84.8894C77.334 85.4417 77.7817 85.8894 78.334 85.8894C78.8863 85.8894 79.334 85.4417 79.334 84.8894V84.7906Z" fill="#6A6A6A"/>
<path d="M79.334 89.8306C79.334 89.2783 78.8863 88.8306 78.334 88.8306C77.7817 88.8306 77.334 89.2783 77.334 89.8306V89.9294C77.334 90.4817 77.7817 90.9294 78.334 90.9294C78.8863 90.9294 79.334 90.4817 79.334 89.9294V89.8306Z" fill="#6A6A6A"/>
<path d="M79.334 94.8706C79.334 94.3183 78.8863 93.8706 78.334 93.8706C77.7817 93.8706 77.334 94.3183 77.334 94.8706V94.9694C77.334 95.5217 77.7817 95.9694 78.334 95.9694C78.8863 95.9694 79.334 95.5217 79.334 94.9694V94.8706Z" fill="#6A6A6A"/>
<path d="M85.334 68.6706C85.8863 68.6706 86.334 69.1183 86.334 69.6706V69.7694C86.334 70.3217 85.8863 70.7694 85.334 70.7694C84.7817 70.7694 84.334 70.3217 84.334 69.7694V69.6706C84.334 69.1183 84.7817 68.6706 85.334 68.6706Z" fill="#6A6A6A"/>
<path d="M85.334 73.7106C85.8863 73.7106 86.334 74.1583 86.334 74.7106V74.8094C86.334 75.3617 85.8863 75.8094 85.334 75.8094C84.7817 75.8094 84.334 75.3617 84.334 74.8094V74.7106C84.334 74.1583 84.7817 73.7106 85.334 73.7106Z" fill="#6A6A6A"/>
<path d="M85.334 78.7506C85.8863 78.7506 86.334 79.1983 86.334 79.7506V79.8494C86.334 80.4017 85.8863 80.8494 85.334 80.8494C84.7817 80.8494 84.334 80.4017 84.334 79.8494V79.7506C84.334 79.1983 84.7817 78.7506 85.334 78.7506Z" fill="#6A6A6A"/>
<path d="M85.334 83.7906C85.8863 83.7906 86.334 84.2383 86.334 84.7906V84.8894C86.334 85.4417 85.8863 85.8894 85.334 85.8894C84.7817 85.8894 84.334 85.4417 84.334 84.8894V84.7906C84.334 84.2383 84.7817 83.7906 85.334 83.7906Z" fill="#6A6A6A"/>
<path d="M85.334 88.8306C85.8863 88.8306 86.334 89.2783 86.334 89.8306V89.9294C86.334 90.4817 85.8863 90.9294 85.334 90.9294C84.7817 90.9294 84.334 90.4817 84.334 89.9294V89.8306C84.334 89.2783 84.7817 88.8306 85.334 88.8306Z" fill="#6A6A6A"/>
<path d="M85.334 93.8706C85.8863 93.8706 86.334 94.3183 86.334 94.8706V94.9694C86.334 95.5217 85.8863 95.9694 85.334 95.9694C84.7817 95.9694 84.334 95.5217 84.334 94.9694V94.8706C84.334 94.3183 84.7817 93.8706 85.334 93.8706Z" fill="#6A6A6A"/>
<path d="M93.334 84.7906C93.334 84.2383 92.8863 83.7906 92.334 83.7906C91.7817 83.7906 91.334 84.2383 91.334 84.7906V84.8894C91.334 85.4417 91.7817 85.8894 92.334 85.8894C92.8863 85.8894 93.334 85.4417 93.334 84.8894V84.7906Z" fill="#6A6A6A"/>
<path d="M93.334 89.8306C93.334 89.2783 92.8863 88.8306 92.334 88.8306C91.7817 88.8306 91.334 89.2783 91.334 89.8306V89.9294C91.334 90.4817 91.7817 90.9294 92.334 90.9294C92.8863 90.9294 93.334 90.4817 93.334 89.9294V89.8306Z" fill="#6A6A6A"/>
<path d="M93.334 94.8706C93.334 94.3183 92.8863 93.8706 92.334 93.8706C91.7817 93.8706 91.334 94.3183 91.334 94.8706V94.9694C91.334 95.5217 91.7817 95.9694 92.334 95.9694C92.8863 95.9694 93.334 95.5217 93.334 94.9694V94.8706Z" fill="#6A6A6A"/>
<path d="M99.334 93.8706C99.8863 93.8706 100.334 94.3183 100.334 94.8706V94.9694C100.334 95.5217 99.8863 95.9694 99.334 95.9694C98.7817 95.9694 98.334 95.5217 98.334 94.9694V94.8706C98.334 94.3183 98.7817 93.8706 99.334 93.8706Z" fill="#6A6A6A"/>
</svg>
