<svg width="506" height="60" viewBox="0 0 506 60" fill="none" xmlns="http://www.w3.org/2000/svg">
<path d="M85.5017 20.0428C85.5017 20.9904 86.1177 21.7723 87.3496 22.3882C88.6289 22.9568 90.1689 23.478 91.9694 23.9519C93.7699 24.3783 95.5705 24.9469 97.371 25.6576C99.1715 26.321 100.688 27.4582 101.92 29.0692C103.199 30.6802 103.839 32.6939 103.839 35.1104C103.839 38.7589 102.465 41.5781 99.7164 43.5682C97.0156 45.5109 93.6278 46.4822 89.5529 46.4822C82.256 46.4822 77.2808 43.663 74.6274 38.0244L82.5877 33.5468C83.6301 36.6267 85.9518 38.1666 89.5529 38.1666C92.8223 38.1666 94.457 37.1479 94.457 35.1104C94.457 34.1628 93.8173 33.4047 92.538 32.8361C91.3061 32.2201 89.7898 31.6752 87.9893 31.2014C86.1887 30.7275 84.3882 30.1353 82.5877 29.4245C80.7871 28.7138 79.2472 27.6003 77.9679 26.0841C76.7359 24.5204 76.12 22.5778 76.12 20.256C76.12 16.7497 77.3993 14.0015 79.9579 12.0115C82.564 9.97402 85.786 8.95529 89.624 8.95529C92.5143 8.95529 95.144 9.61865 97.5132 10.9454C99.8823 12.2247 101.754 14.0726 103.128 16.4891L95.3099 20.7535C94.1727 18.337 92.2774 17.1288 89.624 17.1288C88.4394 17.1288 87.4444 17.3894 86.6389 17.9106C85.8808 18.4318 85.5017 19.1425 85.5017 20.0428Z" fill="#81B29A"/>
<path d="M136.257 9.95033H145.426V45.4872H136.257V41.2938C133.509 44.7528 129.647 46.4822 124.672 46.4822C119.934 46.4822 115.859 44.6817 112.448 41.0806C109.083 37.4322 107.401 32.9782 107.401 27.7188C107.401 22.4593 109.083 18.029 112.448 14.428C115.859 10.7795 119.934 8.95529 124.672 8.95529C129.647 8.95529 133.509 10.6848 136.257 14.1437V9.95033ZM119.342 34.9683C121.19 36.8162 123.535 37.7402 126.378 37.7402C129.221 37.7402 131.566 36.8162 133.414 34.9683C135.31 33.073 136.257 30.6565 136.257 27.7188C136.257 24.781 135.31 22.3882 133.414 20.5403C131.566 18.645 129.221 17.6974 126.378 17.6974C123.535 17.6974 121.19 18.645 119.342 20.5403C117.494 22.3882 116.57 24.781 116.57 27.7188C116.57 30.6565 117.494 33.073 119.342 34.9683Z" fill="#81B29A"/>
<path d="M162.908 16.0627C163.761 13.7883 165.159 12.0825 167.102 10.9454C169.092 9.80818 171.295 9.23958 173.711 9.23958V19.4742C170.916 19.1425 168.405 19.7111 166.178 21.18C163.998 22.6488 162.908 25.089 162.908 28.5006V45.4872H153.74V9.95033H162.908V16.0627Z" fill="#81B29A"/>
<path d="M204.763 9.95033H213.931V45.4872H204.763V41.2938C202.015 44.7528 198.153 46.4822 193.178 46.4822C188.44 46.4822 184.365 44.6817 180.953 41.0806C177.589 37.4322 175.907 32.9782 175.907 27.7188C175.907 22.4593 177.589 18.029 180.953 14.428C184.365 10.7795 188.44 8.95529 193.178 8.95529C198.153 8.95529 202.015 10.6848 204.763 14.1437V9.95033ZM187.847 34.9683C189.695 36.8162 192.041 37.7402 194.884 37.7402C197.727 37.7402 200.072 36.8162 201.92 34.9683C203.815 33.073 204.763 30.6565 204.763 27.7188C204.763 24.781 203.815 22.3882 201.92 20.5403C200.072 18.645 197.727 17.6974 194.884 17.6974C192.041 17.6974 189.695 18.645 187.847 20.5403C185.999 22.3882 185.075 24.781 185.075 27.7188C185.075 30.6565 185.999 33.073 187.847 34.9683Z" fill="#81B29A"/>
<path d="M260.341 18.7635H252.31V33.5468C252.31 34.7787 252.618 35.679 253.233 36.2476C253.849 36.8162 254.75 37.1479 255.934 37.2426C257.119 37.29 258.588 37.2663 260.341 37.1716V45.4872C254.039 46.1979 249.585 45.6056 246.979 43.7104C244.42 41.815 243.141 38.4272 243.141 33.5468V18.7635H236.958V9.95033H243.141V2.77188L252.31 0V9.95033H260.341V18.7635Z" fill="#81B29A"/>
<path d="M292.703 9.95033H301.871V45.4872H292.703V41.2938C289.955 44.7528 286.093 46.4822 281.118 46.4822C276.379 46.4822 272.305 44.6817 268.893 41.0806C265.529 37.4322 263.847 32.9782 263.847 27.7188C263.847 22.4593 265.529 18.029 268.893 14.428C272.305 10.7795 276.379 8.95529 281.118 8.95529C286.093 8.95529 289.955 10.6848 292.703 14.1437V9.95033ZM275.787 34.9683C277.635 36.8162 279.981 37.7402 282.823 37.7402C285.666 37.7402 288.012 36.8162 289.86 34.9683C291.755 33.073 292.703 30.6565 292.703 27.7188C292.703 24.781 291.755 22.3882 289.86 20.5403C288.012 18.645 285.666 17.6974 282.823 17.6974C279.981 17.6974 277.635 18.645 275.787 20.5403C273.939 22.3882 273.015 24.781 273.015 27.7188C273.015 30.6565 273.939 33.073 275.787 34.9683Z" fill="#81B29A"/>
<path d="M330.868 8.95529C335.653 8.95529 339.728 10.7795 343.092 14.428C346.504 18.029 348.21 22.4593 348.21 27.7188C348.21 32.9782 346.504 37.4322 343.092 41.0806C339.728 44.6817 335.653 46.4822 330.868 46.4822C325.892 46.4822 322.055 44.7528 319.354 41.2938V59.7019H310.185V9.95033H319.354V14.1437C322.055 10.6848 325.892 8.95529 330.868 8.95529ZM322.126 34.9683C323.974 36.8162 326.319 37.7402 329.162 37.7402C332.005 37.7402 334.35 36.8162 336.198 34.9683C338.094 33.073 339.041 30.6565 339.041 27.7188C339.041 24.781 338.094 22.3882 336.198 20.5403C334.35 18.645 332.005 17.6974 329.162 17.6974C326.319 17.6974 323.974 18.645 322.126 20.5403C320.278 22.3882 319.354 24.781 319.354 27.7188C319.354 30.6565 320.278 33.073 322.126 34.9683Z" fill="#81B29A"/>
<path d="M378.13 9.95033H387.299V45.4872H378.13V41.5071C375.903 44.8238 372.373 46.4822 367.54 46.4822C363.655 46.4822 360.433 45.1792 357.874 42.5732C355.363 39.9671 354.107 36.3661 354.107 31.77V9.95033H363.276V30.6328C363.276 33.0019 363.915 34.8261 365.195 36.1055C366.474 37.3374 368.18 37.9534 370.312 37.9534C372.681 37.9534 374.576 37.2189 375.998 35.7501C377.419 34.2812 378.13 32.0779 378.13 29.1402V9.95033Z" fill="#81B29A"/>
<path d="M403.876 20.0428C403.876 20.9904 404.492 21.7723 405.724 22.3882C407.003 22.9568 408.543 23.478 410.344 23.9519C412.144 24.3783 413.945 24.9469 415.745 25.6576C417.546 26.321 419.062 27.4582 420.294 29.0692C421.573 30.6802 422.213 32.6939 422.213 35.1104C422.213 38.7589 420.839 41.5781 418.091 43.5682C415.39 45.5109 412.002 46.4822 407.927 46.4822C400.63 46.4822 395.655 43.663 393.002 38.0244L400.962 33.5468C402.004 36.6267 404.326 38.1666 407.927 38.1666C411.197 38.1666 412.831 37.1479 412.831 35.1104C412.831 34.1628 412.192 33.4047 410.912 32.8361C409.68 32.2201 408.164 31.6752 406.364 31.2014C404.563 30.7275 402.762 30.1353 400.962 29.4245C399.161 28.7138 397.621 27.6003 396.342 26.0841C395.11 24.5204 394.494 22.5778 394.494 20.256C394.494 16.7497 395.773 14.0015 398.332 12.0115C400.938 9.97402 404.16 8.95529 407.998 8.95529C410.889 8.95529 413.518 9.61865 415.887 10.9454C418.257 12.2247 420.128 14.0726 421.502 16.4891L413.684 20.7535C412.547 18.337 410.652 17.1288 407.998 17.1288C406.814 17.1288 405.819 17.3894 405.013 17.9106C404.255 18.4318 403.876 19.1425 403.876 20.0428Z" fill="#81B29A"/>
<path d="M457.901 41.0806C454.252 44.6817 449.798 46.4822 444.539 46.4822C439.28 46.4822 434.826 44.6817 431.177 41.0806C427.576 37.4322 425.776 32.9782 425.776 27.7188C425.776 22.4593 427.576 18.029 431.177 14.428C434.826 10.7795 439.28 8.95529 444.539 8.95529C449.798 8.95529 454.252 10.7795 457.901 14.428C461.549 18.029 463.374 22.4593 463.374 27.7188C463.374 32.9782 461.549 37.4322 457.901 41.0806ZM437.645 34.7551C439.493 36.603 441.791 37.5269 444.539 37.5269C447.287 37.5269 449.585 36.603 451.433 34.7551C453.281 32.9071 454.205 30.5617 454.205 27.7188C454.205 24.8758 453.281 22.5304 451.433 20.6825C449.585 18.8345 447.287 17.9106 444.539 17.9106C441.791 17.9106 439.493 18.8345 437.645 20.6825C435.844 22.5304 434.944 24.8758 434.944 27.7188C434.944 30.5617 435.844 32.9071 437.645 34.7551Z" fill="#81B29A"/>
<path d="M496.832 9.95033H506V45.4872H496.832V41.2938C494.083 44.7528 490.222 46.4822 485.246 46.4822C480.508 46.4822 476.433 44.6817 473.022 41.0806C469.658 37.4322 467.976 32.9782 467.976 27.7188C467.976 22.4593 469.658 18.029 473.022 14.428C476.433 10.7795 480.508 8.95529 485.246 8.95529C490.222 8.95529 494.083 10.6848 496.832 14.1437V9.95033ZM479.916 34.9683C481.764 36.8162 484.109 37.7402 486.952 37.7402C489.795 37.7402 492.141 36.8162 493.988 34.9683C495.884 33.073 496.832 30.6565 496.832 27.7188C496.832 24.781 495.884 22.3882 493.988 20.5403C492.141 18.645 489.795 17.6974 486.952 17.6974C484.109 17.6974 481.764 18.645 479.916 20.5403C478.068 22.3882 477.144 24.781 477.144 27.7188C477.144 30.6565 478.068 33.073 479.916 34.9683Z" fill="#81B29A"/>
<path d="M24.8758 0L10.0194 14.9255H0V10.0194C0 4.48585 4.48585 0 10.0194 0H24.8758Z" fill="#81B29A"/>
<path d="M44.7765 14.6915H33.1609V39.3229C33.1609 41.3755 33.6063 42.8755 34.4972 43.8229C35.3881 44.7702 36.6901 45.3229 38.4033 45.4808C40.1165 45.5597 42.2409 45.5202 44.7765 45.3623V59.2175C35.6622 60.4017 29.2205 59.4149 25.4514 56.257C21.7509 53.0991 19.9006 47.4544 19.9006 39.3229V14.6915V14.7042L33.1558 0L33.1609 0.0073972H44.7765V14.6915Z" fill="#81B29A"/>
</svg>
