<svg width="432" height="60" viewBox="0 0 432 60" fill="none" xmlns="http://www.w3.org/2000/svg">
<path d="M11.5017 20.0428C11.5017 20.9904 12.1177 21.7723 13.3496 22.3882C14.629 22.9568 16.1689 23.478 17.9694 23.9519C19.77 24.3783 21.5705 24.9469 23.371 25.6576C25.1716 26.321 26.6878 27.4582 27.9198 29.0692C29.1991 30.6802 29.8387 32.6939 29.8387 35.1104C29.8387 38.7589 28.4647 41.5781 25.7165 43.5682C23.0157 45.5109 19.6278 46.4822 15.5529 46.4822C8.25602 46.4822 3.28086 43.663 0.627441 38.0244L8.5877 33.5468C9.63011 36.6267 11.9519 38.1666 15.5529 38.1666C18.8223 38.1666 20.457 37.1479 20.457 35.1104C20.457 34.1628 19.8173 33.4047 18.538 32.8361C17.3061 32.2201 15.7898 31.6752 13.9893 31.2014C12.1888 30.7275 10.3882 30.1353 8.5877 29.4245C6.78717 28.7138 5.24724 27.6003 3.96791 26.0841C2.73597 24.5204 2.11999 22.5778 2.11999 20.256C2.11999 16.7497 3.39932 14.0015 5.95797 12.0115C8.56401 9.97402 11.786 8.95529 15.624 8.95529C18.5143 8.95529 21.1441 9.61865 23.5132 10.9454C25.8823 12.2247 27.7539 14.0726 29.128 16.4891L21.3099 20.7535C20.1727 18.337 18.2774 17.1288 15.624 17.1288C14.4394 17.1288 13.4444 17.3894 12.6389 17.9106C11.8808 18.4318 11.5017 19.1425 11.5017 20.0428Z" fill="#F8F7FA"/>
<path d="M62.2573 9.95033H71.4258V45.4872H62.2573V41.2938C59.5091 44.7528 55.6474 46.4822 50.6722 46.4822C45.934 46.4822 41.8591 44.6817 38.4475 41.0806C35.0834 37.4322 33.4013 32.9782 33.4013 27.7188C33.4013 22.4593 35.0834 18.029 38.4475 14.428C41.8591 10.7795 45.934 8.95529 50.6722 8.95529C55.6474 8.95529 59.5091 10.6848 62.2573 14.1437V9.95033ZM45.3417 34.9683C47.1896 36.8162 49.5351 37.7402 52.378 37.7402C55.221 37.7402 57.5664 36.8162 59.4143 34.9683C61.3096 33.073 62.2573 30.6565 62.2573 27.7188C62.2573 24.781 61.3096 22.3882 59.4143 20.5403C57.5664 18.645 55.221 17.6974 52.378 17.6974C49.5351 17.6974 47.1896 18.645 45.3417 20.5403C43.4938 22.3882 42.5698 24.781 42.5698 27.7188C42.5698 30.6565 43.4938 33.073 45.3417 34.9683Z" fill="#F8F7FA"/>
<path d="M88.9082 16.0627C89.7611 13.7883 91.1589 12.0825 93.1016 10.9454C95.0917 9.80818 97.2949 9.23958 99.7114 9.23958V19.4742C96.9159 19.1425 94.4046 19.7111 92.1776 21.18C89.998 22.6488 88.9082 25.089 88.9082 28.5006V45.4872H79.7397V9.95033H88.9082V16.0627Z" fill="#F8F7FA"/>
<path d="M130.763 9.95033H139.931V45.4872H130.763V41.2938C128.015 44.7528 124.153 46.4822 119.178 46.4822C114.44 46.4822 110.365 44.6817 106.953 41.0806C103.589 37.4322 101.907 32.9782 101.907 27.7188C101.907 22.4593 103.589 18.029 106.953 14.428C110.365 10.7795 114.44 8.95529 119.178 8.95529C124.153 8.95529 128.015 10.6848 130.763 14.1437V9.95033ZM113.847 34.9683C115.695 36.8162 118.041 37.7402 120.884 37.7402C123.727 37.7402 126.072 36.8162 127.92 34.9683C129.815 33.073 130.763 30.6565 130.763 27.7188C130.763 24.781 129.815 22.3882 127.92 20.5403C126.072 18.645 123.727 17.6974 120.884 17.6974C118.041 17.6974 115.695 18.645 113.847 20.5403C111.999 22.3882 111.075 24.781 111.075 27.7188C111.075 30.6565 111.999 33.073 113.847 34.9683Z" fill="#F8F7FA"/>
<path d="M186.341 18.7635H178.31V33.5468C178.31 34.7787 178.618 35.679 179.234 36.2476C179.849 36.8162 180.75 37.1479 181.934 37.2426C183.119 37.29 184.588 37.2663 186.341 37.1716V45.4872C180.039 46.1979 175.585 45.6056 172.979 43.7104C170.42 41.8151 169.141 38.4272 169.141 33.5468V18.7635H162.958V9.95033H169.141V2.77188L178.31 0V9.95033H186.341V18.7635Z" fill="#F8F7FA"/>
<path d="M218.703 9.95033H227.871V45.4872H218.703V41.2938C215.955 44.7528 212.093 46.4822 207.118 46.4822C202.379 46.4822 198.305 44.6817 194.893 41.0806C191.529 37.4322 189.847 32.9782 189.847 27.7188C189.847 22.4593 191.529 18.029 194.893 14.428C198.305 10.7795 202.379 8.95529 207.118 8.95529C212.093 8.95529 215.955 10.6848 218.703 14.1437V9.95033ZM201.787 34.9683C203.635 36.8162 205.981 37.7402 208.824 37.7402C211.666 37.7402 214.012 36.8162 215.86 34.9683C217.755 33.073 218.703 30.6565 218.703 27.7188C218.703 24.781 217.755 22.3882 215.86 20.5403C214.012 18.645 211.666 17.6974 208.824 17.6974C205.981 17.6974 203.635 18.645 201.787 20.5403C199.939 22.3882 199.015 24.781 199.015 27.7188C199.015 30.6565 199.939 33.073 201.787 34.9683Z" fill="#F8F7FA"/>
<path d="M256.868 8.95529C261.653 8.95529 265.728 10.7795 269.092 14.428C272.504 18.029 274.21 22.4593 274.21 27.7188C274.21 32.9782 272.504 37.4322 269.092 41.0806C265.728 44.6817 261.653 46.4822 256.868 46.4822C251.893 46.4822 248.055 44.7528 245.354 41.2938V59.7019H236.185V9.95033H245.354V14.1437C248.055 10.6848 251.893 8.95529 256.868 8.95529ZM248.126 34.9683C249.974 36.8162 252.319 37.7402 255.162 37.7402C258.005 37.7402 260.35 36.8162 262.198 34.9683C264.094 33.073 265.041 30.6565 265.041 27.7188C265.041 24.781 264.094 22.3882 262.198 20.5403C260.35 18.645 258.005 17.6974 255.162 17.6974C252.319 17.6974 249.974 18.645 248.126 20.5403C246.278 22.3882 245.354 24.781 245.354 27.7188C245.354 30.6565 246.278 33.073 248.126 34.9683Z" fill="#F8F7FA"/>
<path d="M304.13 9.95033H313.299V45.4872H304.13V41.5071C301.903 44.8238 298.373 46.4822 293.54 46.4822C289.655 46.4822 286.433 45.1792 283.874 42.5732C281.363 39.9671 280.107 36.3661 280.107 31.77V9.95033H289.276V30.6328C289.276 33.0019 289.915 34.8261 291.195 36.1055C292.474 37.3374 294.18 37.9534 296.312 37.9534C298.681 37.9534 300.576 37.2189 301.998 35.7501C303.419 34.2812 304.13 32.0779 304.13 29.1402V9.95033Z" fill="#F8F7FA"/>
<path d="M329.876 20.0428C329.876 20.9904 330.492 21.7723 331.724 22.3882C333.003 22.9568 334.543 23.478 336.344 23.9519C338.144 24.3783 339.945 24.9469 341.745 25.6576C343.546 26.321 345.062 27.4582 346.294 29.0692C347.573 30.6802 348.213 32.6939 348.213 35.1104C348.213 38.7589 346.839 41.5781 344.091 43.5682C341.39 45.5109 338.002 46.4822 333.927 46.4822C326.63 46.4822 321.655 43.663 319.002 38.0244L326.962 33.5468C328.004 36.6267 330.326 38.1666 333.927 38.1666C337.197 38.1666 338.831 37.1479 338.831 35.1104C338.831 34.1628 338.192 33.4047 336.912 32.8361C335.68 32.2201 334.164 31.6752 332.364 31.2014C330.563 30.7275 328.762 30.1353 326.962 29.4245C325.161 28.7138 323.621 27.6003 322.342 26.0841C321.11 24.5204 320.494 22.5778 320.494 20.256C320.494 16.7497 321.774 14.0015 324.332 12.0115C326.938 9.97402 330.16 8.95529 333.998 8.95529C336.889 8.95529 339.518 9.61865 341.887 10.9454C344.257 12.2247 346.128 14.0726 347.502 16.4891L339.684 20.7535C338.547 18.337 336.652 17.1288 333.998 17.1288C332.814 17.1288 331.819 17.3894 331.013 17.9106C330.255 18.4318 329.876 19.1425 329.876 20.0428Z" fill="#F8F7FA"/>
<path d="M383.901 41.0806C380.252 44.6817 375.798 46.4822 370.539 46.4822C365.28 46.4822 360.826 44.6817 357.177 41.0806C353.576 37.4322 351.776 32.9782 351.776 27.7188C351.776 22.4593 353.576 18.029 357.177 14.428C360.826 10.7795 365.28 8.95529 370.539 8.95529C375.798 8.95529 380.252 10.7795 383.901 14.428C387.549 18.029 389.374 22.4593 389.374 27.7188C389.374 32.9782 387.549 37.4322 383.901 41.0806ZM363.645 34.7551C365.493 36.603 367.791 37.5269 370.539 37.5269C373.287 37.5269 375.585 36.603 377.433 34.7551C379.281 32.9071 380.205 30.5617 380.205 27.7188C380.205 24.8758 379.281 22.5304 377.433 20.6825C375.585 18.8345 373.287 17.9106 370.539 17.9106C367.791 17.9106 365.493 18.8345 363.645 20.6825C361.844 22.5304 360.944 24.8758 360.944 27.7188C360.944 30.5617 361.844 32.9071 363.645 34.7551Z" fill="#F8F7FA"/>
<path d="M422.832 9.95033H432V45.4872H422.832V41.2938C420.083 44.7528 416.222 46.4822 411.246 46.4822C406.508 46.4822 402.433 44.6817 399.022 41.0806C395.658 37.4322 393.976 32.9782 393.976 27.7188C393.976 22.4593 395.658 18.029 399.022 14.428C402.433 10.7795 406.508 8.95529 411.246 8.95529C416.222 8.95529 420.083 10.6848 422.832 14.1437V9.95033ZM405.916 34.9683C407.764 36.8162 410.109 37.7402 412.952 37.7402C415.795 37.7402 418.141 36.8162 419.989 34.9683C421.884 33.073 422.832 30.6565 422.832 27.7188C422.832 24.781 421.884 22.3882 419.989 20.5403C418.141 18.645 415.795 17.6974 412.952 17.6974C410.109 17.6974 407.764 18.645 405.916 20.5403C404.068 22.3882 403.144 24.781 403.144 27.7188C403.144 30.6565 404.068 33.073 405.916 34.9683Z" fill="#F8F7FA"/>
</svg>
